G04 EAGLE Gerber RS-274X export*
G75*
%MOMM*%
%FSLAX34Y34*%
%LPD*%
%INBottom Copper*%
%IPPOS*%
%AMOC8*
5,1,8,0,0,1.08239X$1,22.5*%
G01*
%ADD10C,0.203200*%
%ADD11P,1.732040X8X292.500000*%
%ADD12P,1.704548X8X112.500000*%
%ADD13C,2.184400*%
%ADD14R,1.508000X1.508000*%
%ADD15C,1.508000*%
%ADD16R,1.308000X1.308000*%
%ADD17P,1.415766X8X22.500000*%
%ADD18C,0.508000*%

G36*
X673190Y24654D02*
X673190Y24654D01*
X673281Y24661D01*
X673311Y24673D01*
X673343Y24679D01*
X673423Y24721D01*
X673507Y24757D01*
X673539Y24783D01*
X673560Y24794D01*
X673582Y24817D01*
X673638Y24862D01*
X711738Y62962D01*
X711786Y63028D01*
X711792Y63034D01*
X711794Y63039D01*
X711851Y63105D01*
X711863Y63135D01*
X711882Y63161D01*
X711909Y63248D01*
X711943Y63333D01*
X711947Y63374D01*
X711954Y63397D01*
X711953Y63429D01*
X711961Y63500D01*
X711961Y876300D01*
X711958Y876320D01*
X711960Y876339D01*
X711938Y876441D01*
X711922Y876543D01*
X711912Y876560D01*
X711908Y876580D01*
X711855Y876669D01*
X711806Y876760D01*
X711792Y876774D01*
X711782Y876791D01*
X711703Y876858D01*
X711628Y876930D01*
X711610Y876938D01*
X711595Y876951D01*
X711499Y876990D01*
X711405Y877033D01*
X711385Y877035D01*
X711367Y877043D01*
X711200Y877061D01*
X165803Y877061D01*
X165709Y877046D01*
X165614Y877037D01*
X165588Y877026D01*
X165560Y877022D01*
X165476Y876977D01*
X165389Y876939D01*
X165368Y876920D01*
X165343Y876906D01*
X165277Y876837D01*
X165207Y876773D01*
X165193Y876749D01*
X165174Y876728D01*
X165133Y876642D01*
X165087Y876558D01*
X165082Y876531D01*
X165070Y876505D01*
X165060Y876410D01*
X165042Y876317D01*
X165046Y876289D01*
X165043Y876261D01*
X165063Y876167D01*
X165077Y876073D01*
X165091Y876041D01*
X165095Y876020D01*
X165112Y875992D01*
X165144Y875919D01*
X168340Y870383D01*
X170435Y862566D01*
X170435Y854474D01*
X168340Y846657D01*
X164294Y839648D01*
X158572Y833926D01*
X151563Y829880D01*
X143746Y827785D01*
X135654Y827785D01*
X127837Y829880D01*
X120828Y833926D01*
X115106Y839648D01*
X111060Y846657D01*
X108965Y854474D01*
X108965Y862566D01*
X111060Y870383D01*
X114256Y875919D01*
X114290Y876008D01*
X114330Y876095D01*
X114333Y876123D01*
X114343Y876149D01*
X114347Y876245D01*
X114357Y876339D01*
X114351Y876367D01*
X114352Y876395D01*
X114325Y876487D01*
X114305Y876580D01*
X114290Y876604D01*
X114282Y876631D01*
X114228Y876709D01*
X114179Y876791D01*
X114157Y876809D01*
X114141Y876832D01*
X114064Y876889D01*
X113992Y876951D01*
X113965Y876961D01*
X113943Y876978D01*
X113852Y877007D01*
X113764Y877043D01*
X113728Y877047D01*
X113709Y877053D01*
X113676Y877053D01*
X113597Y877061D01*
X38100Y877061D01*
X38080Y877058D01*
X38061Y877060D01*
X37959Y877038D01*
X37857Y877022D01*
X37840Y877012D01*
X37820Y877008D01*
X37731Y876955D01*
X37640Y876906D01*
X37626Y876892D01*
X37609Y876882D01*
X37542Y876803D01*
X37471Y876728D01*
X37462Y876710D01*
X37449Y876695D01*
X37410Y876599D01*
X37367Y876505D01*
X37365Y876485D01*
X37357Y876467D01*
X37339Y876300D01*
X37339Y63500D01*
X37354Y63410D01*
X37361Y63319D01*
X37373Y63289D01*
X37379Y63257D01*
X37421Y63177D01*
X37457Y63093D01*
X37483Y63061D01*
X37494Y63040D01*
X37517Y63018D01*
X37562Y62962D01*
X75662Y24862D01*
X75736Y24809D01*
X75805Y24749D01*
X75835Y24737D01*
X75861Y24718D01*
X75948Y24691D01*
X76033Y24657D01*
X76074Y24653D01*
X76097Y24646D01*
X76129Y24647D01*
X76200Y24639D01*
X673100Y24639D01*
X673190Y24654D01*
G37*
%LPC*%
G36*
X179459Y30479D02*
X179459Y30479D01*
X176658Y31639D01*
X174408Y33890D01*
X174407Y33890D01*
X59290Y149007D01*
X57039Y151258D01*
X55879Y154059D01*
X55879Y817491D01*
X57039Y820292D01*
X59183Y822436D01*
X61984Y823596D01*
X138041Y823596D01*
X140842Y822436D01*
X174736Y788542D01*
X175896Y785741D01*
X175896Y763659D01*
X174736Y760858D01*
X172592Y758714D01*
X169791Y757554D01*
X166844Y757554D01*
X166774Y757543D01*
X166702Y757541D01*
X166653Y757523D01*
X166602Y757515D01*
X166538Y757481D01*
X166471Y757456D01*
X166430Y757424D01*
X166384Y757399D01*
X166335Y757347D01*
X166279Y757303D01*
X166251Y757259D01*
X166215Y757221D01*
X166185Y757156D01*
X166146Y757096D01*
X166133Y757045D01*
X166111Y756998D01*
X166103Y756927D01*
X166086Y756857D01*
X166090Y756805D01*
X166084Y756754D01*
X166099Y756683D01*
X166105Y756612D01*
X166125Y756564D01*
X166136Y756513D01*
X166173Y756452D01*
X166201Y756386D01*
X166246Y756330D01*
X166262Y756302D01*
X166280Y756287D01*
X166306Y756255D01*
X166625Y755936D01*
X166625Y745204D01*
X159036Y737615D01*
X148304Y737615D01*
X140912Y745008D01*
X140895Y745019D01*
X140883Y745035D01*
X140796Y745091D01*
X140712Y745151D01*
X140693Y745157D01*
X140676Y745168D01*
X140576Y745193D01*
X140477Y745224D01*
X140457Y745223D01*
X140438Y745228D01*
X140335Y745220D01*
X140231Y745217D01*
X140212Y745210D01*
X140192Y745209D01*
X140097Y745168D01*
X140000Y745133D01*
X139984Y745120D01*
X139966Y745113D01*
X139835Y745008D01*
X138277Y743450D01*
X138266Y743434D01*
X138250Y743421D01*
X138194Y743334D01*
X138134Y743250D01*
X138128Y743231D01*
X138117Y743214D01*
X138092Y743114D01*
X138061Y743015D01*
X138062Y742995D01*
X138057Y742976D01*
X138065Y742873D01*
X138068Y742769D01*
X138075Y742750D01*
X138076Y742731D01*
X138117Y742636D01*
X138152Y742538D01*
X138165Y742523D01*
X138172Y742504D01*
X138277Y742373D01*
X138685Y741966D01*
X138685Y731234D01*
X131096Y723645D01*
X120364Y723645D01*
X112775Y731234D01*
X112775Y741966D01*
X120364Y749555D01*
X122512Y749555D01*
X122602Y749569D01*
X122693Y749577D01*
X122723Y749589D01*
X122755Y749594D01*
X122836Y749637D01*
X122919Y749673D01*
X122952Y749699D01*
X122972Y749710D01*
X122994Y749733D01*
X123050Y749778D01*
X123558Y750286D01*
X123600Y750344D01*
X123650Y750396D01*
X123672Y750443D01*
X123702Y750485D01*
X123723Y750554D01*
X123753Y750619D01*
X123759Y750671D01*
X123774Y750721D01*
X123772Y750792D01*
X123780Y750863D01*
X123769Y750914D01*
X123768Y750966D01*
X123743Y751034D01*
X123728Y751104D01*
X123701Y751148D01*
X123684Y751197D01*
X123639Y751253D01*
X123602Y751315D01*
X123562Y751349D01*
X123530Y751389D01*
X123470Y751428D01*
X123415Y751475D01*
X123367Y751494D01*
X123323Y751522D01*
X123253Y751540D01*
X123187Y751567D01*
X123116Y751575D01*
X123084Y751583D01*
X123061Y751581D01*
X123020Y751585D01*
X120364Y751585D01*
X117793Y754156D01*
X117719Y754209D01*
X117650Y754269D01*
X117619Y754281D01*
X117593Y754300D01*
X117506Y754327D01*
X117421Y754361D01*
X117380Y754365D01*
X117358Y754372D01*
X117326Y754371D01*
X117255Y754379D01*
X100457Y754379D01*
X100437Y754376D01*
X100418Y754378D01*
X100316Y754356D01*
X100214Y754340D01*
X100197Y754330D01*
X100177Y754326D01*
X100088Y754273D01*
X99997Y754224D01*
X99983Y754210D01*
X99966Y754200D01*
X99899Y754121D01*
X99827Y754046D01*
X99819Y754028D01*
X99806Y754013D01*
X99767Y753917D01*
X99724Y753823D01*
X99722Y753803D01*
X99714Y753785D01*
X99696Y753618D01*
X99696Y168572D01*
X99710Y168482D01*
X99718Y168391D01*
X99730Y168361D01*
X99735Y168329D01*
X99778Y168248D01*
X99814Y168165D01*
X99840Y168132D01*
X99851Y168112D01*
X99874Y168090D01*
X99919Y168034D01*
X177580Y90373D01*
X177638Y90331D01*
X177690Y90281D01*
X177737Y90259D01*
X177779Y90229D01*
X177848Y90208D01*
X177913Y90178D01*
X177965Y90172D01*
X178015Y90157D01*
X178086Y90159D01*
X178157Y90151D01*
X178208Y90162D01*
X178260Y90163D01*
X178328Y90188D01*
X178398Y90203D01*
X178442Y90230D01*
X178491Y90247D01*
X178547Y90292D01*
X178609Y90329D01*
X178643Y90369D01*
X178683Y90401D01*
X178722Y90461D01*
X178769Y90516D01*
X178788Y90564D01*
X178816Y90608D01*
X178834Y90678D01*
X178861Y90744D01*
X178869Y90815D01*
X178877Y90847D01*
X178875Y90870D01*
X178879Y90911D01*
X178879Y97545D01*
X181855Y100521D01*
X199145Y100521D01*
X202121Y97545D01*
X202121Y80255D01*
X199145Y77279D01*
X192511Y77279D01*
X192440Y77268D01*
X192368Y77266D01*
X192319Y77248D01*
X192268Y77240D01*
X192205Y77206D01*
X192137Y77181D01*
X192097Y77149D01*
X192051Y77124D01*
X192001Y77072D01*
X191945Y77028D01*
X191917Y76984D01*
X191881Y76946D01*
X191851Y76881D01*
X191812Y76821D01*
X191800Y76770D01*
X191778Y76723D01*
X191770Y76652D01*
X191752Y76582D01*
X191756Y76530D01*
X191751Y76479D01*
X191766Y76408D01*
X191771Y76337D01*
X191792Y76289D01*
X191803Y76238D01*
X191840Y76177D01*
X191868Y76111D01*
X191913Y76055D01*
X191929Y76027D01*
X191947Y76012D01*
X191973Y75980D01*
X193434Y74519D01*
X193508Y74466D01*
X193577Y74406D01*
X193607Y74394D01*
X193633Y74375D01*
X193721Y74348D01*
X193805Y74314D01*
X193846Y74310D01*
X193868Y74303D01*
X193901Y74304D01*
X193972Y74296D01*
X347218Y74296D01*
X347238Y74299D01*
X347257Y74297D01*
X347359Y74319D01*
X347461Y74335D01*
X347478Y74345D01*
X347498Y74349D01*
X347587Y74402D01*
X347678Y74451D01*
X347692Y74465D01*
X347709Y74475D01*
X347776Y74554D01*
X347848Y74629D01*
X347856Y74647D01*
X347869Y74662D01*
X347908Y74758D01*
X347951Y74852D01*
X347953Y74872D01*
X347961Y74890D01*
X347979Y75057D01*
X347979Y76518D01*
X347976Y76538D01*
X347978Y76557D01*
X347956Y76659D01*
X347940Y76761D01*
X347930Y76778D01*
X347926Y76798D01*
X347873Y76887D01*
X347824Y76978D01*
X347810Y76992D01*
X347800Y77009D01*
X347721Y77076D01*
X347646Y77148D01*
X347628Y77156D01*
X347613Y77169D01*
X347517Y77208D01*
X347423Y77251D01*
X347403Y77253D01*
X347385Y77261D01*
X347218Y77279D01*
X338087Y77279D01*
X331279Y84087D01*
X331279Y93713D01*
X338087Y100521D01*
X347218Y100521D01*
X347238Y100524D01*
X347257Y100522D01*
X347359Y100544D01*
X347461Y100560D01*
X347478Y100570D01*
X347498Y100574D01*
X347587Y100627D01*
X347678Y100676D01*
X347692Y100690D01*
X347709Y100700D01*
X347776Y100779D01*
X347848Y100854D01*
X347856Y100872D01*
X347869Y100887D01*
X347908Y100983D01*
X347951Y101077D01*
X347953Y101097D01*
X347961Y101115D01*
X347979Y101282D01*
X347979Y103116D01*
X349139Y105917D01*
X351390Y108168D01*
X547802Y304580D01*
X547844Y304638D01*
X547894Y304690D01*
X547916Y304737D01*
X547946Y304779D01*
X547967Y304848D01*
X547997Y304913D01*
X548003Y304965D01*
X548018Y305015D01*
X548016Y305086D01*
X548024Y305157D01*
X548013Y305208D01*
X548012Y305260D01*
X547987Y305328D01*
X547972Y305398D01*
X547945Y305442D01*
X547928Y305491D01*
X547883Y305547D01*
X547846Y305609D01*
X547806Y305643D01*
X547774Y305683D01*
X547714Y305722D01*
X547659Y305769D01*
X547611Y305788D01*
X547567Y305816D01*
X547497Y305834D01*
X547431Y305861D01*
X547360Y305869D01*
X547328Y305877D01*
X547305Y305875D01*
X547264Y305879D01*
X541287Y305879D01*
X534479Y312687D01*
X534479Y322313D01*
X541287Y329121D01*
X550913Y329121D01*
X557721Y322313D01*
X557721Y316336D01*
X557732Y316265D01*
X557734Y316193D01*
X557752Y316144D01*
X557760Y316093D01*
X557794Y316030D01*
X557819Y315962D01*
X557851Y315922D01*
X557876Y315876D01*
X557927Y315826D01*
X557972Y315770D01*
X558016Y315742D01*
X558054Y315706D01*
X558119Y315676D01*
X558179Y315637D01*
X558230Y315625D01*
X558277Y315603D01*
X558348Y315595D01*
X558418Y315577D01*
X558470Y315581D01*
X558521Y315576D01*
X558592Y315591D01*
X558663Y315596D01*
X558711Y315617D01*
X558762Y315628D01*
X558823Y315665D01*
X558889Y315693D01*
X558945Y315738D01*
X558973Y315754D01*
X558988Y315772D01*
X559020Y315798D01*
X559656Y316434D01*
X559700Y316495D01*
X559734Y316531D01*
X559741Y316544D01*
X559769Y316577D01*
X559781Y316607D01*
X559800Y316633D01*
X559827Y316720D01*
X559861Y316805D01*
X559865Y316846D01*
X559872Y316868D01*
X559871Y316901D01*
X559879Y316972D01*
X559879Y322313D01*
X566687Y329121D01*
X576313Y329121D01*
X583121Y322313D01*
X583121Y312687D01*
X576313Y305879D01*
X570972Y305879D01*
X570882Y305865D01*
X570791Y305857D01*
X570761Y305845D01*
X570729Y305840D01*
X570648Y305797D01*
X570565Y305761D01*
X570532Y305735D01*
X570512Y305724D01*
X570490Y305701D01*
X570434Y305656D01*
X366598Y101820D01*
X366556Y101762D01*
X366506Y101710D01*
X366484Y101663D01*
X366454Y101621D01*
X366433Y101552D01*
X366403Y101487D01*
X366397Y101435D01*
X366382Y101385D01*
X366384Y101314D01*
X366376Y101243D01*
X366387Y101192D01*
X366388Y101140D01*
X366413Y101072D01*
X366428Y101002D01*
X366455Y100958D01*
X366472Y100909D01*
X366517Y100853D01*
X366554Y100791D01*
X366594Y100757D01*
X366626Y100717D01*
X366686Y100678D01*
X366741Y100631D01*
X366789Y100612D01*
X366833Y100584D01*
X366903Y100566D01*
X366969Y100539D01*
X367040Y100531D01*
X367072Y100523D01*
X367095Y100525D01*
X367136Y100521D01*
X373113Y100521D01*
X379921Y93713D01*
X379921Y87736D01*
X379932Y87665D01*
X379934Y87593D01*
X379952Y87544D01*
X379960Y87493D01*
X379994Y87430D01*
X380019Y87362D01*
X380051Y87322D01*
X380076Y87276D01*
X380127Y87226D01*
X380172Y87170D01*
X380216Y87142D01*
X380254Y87106D01*
X380319Y87076D01*
X380379Y87037D01*
X380430Y87025D01*
X380477Y87003D01*
X380548Y86995D01*
X380618Y86977D01*
X380670Y86981D01*
X380721Y86976D01*
X380792Y86991D01*
X380863Y86996D01*
X380911Y87017D01*
X380962Y87028D01*
X381023Y87065D01*
X381089Y87093D01*
X381145Y87138D01*
X381173Y87154D01*
X381188Y87172D01*
X381220Y87198D01*
X381856Y87834D01*
X381910Y87908D01*
X381969Y87977D01*
X381981Y88007D01*
X382000Y88033D01*
X382027Y88120D01*
X382061Y88205D01*
X382065Y88246D01*
X382072Y88268D01*
X382071Y88301D01*
X382079Y88372D01*
X382079Y93713D01*
X388887Y100521D01*
X398018Y100521D01*
X398038Y100524D01*
X398057Y100522D01*
X398159Y100544D01*
X398261Y100560D01*
X398278Y100570D01*
X398298Y100574D01*
X398387Y100627D01*
X398478Y100676D01*
X398492Y100690D01*
X398509Y100700D01*
X398576Y100779D01*
X398648Y100854D01*
X398656Y100872D01*
X398669Y100887D01*
X398708Y100983D01*
X398751Y101077D01*
X398753Y101097D01*
X398761Y101115D01*
X398779Y101282D01*
X398779Y118991D01*
X399939Y121792D01*
X402190Y124043D01*
X587518Y309371D01*
X587530Y309387D01*
X587546Y309399D01*
X587602Y309487D01*
X587662Y309571D01*
X587668Y309589D01*
X587679Y309606D01*
X587704Y309707D01*
X587734Y309806D01*
X587734Y309826D01*
X587739Y309845D01*
X587731Y309948D01*
X587728Y310052D01*
X587721Y310070D01*
X587720Y310090D01*
X587679Y310185D01*
X587644Y310283D01*
X587631Y310298D01*
X587623Y310316D01*
X587518Y310447D01*
X585279Y312687D01*
X585279Y322313D01*
X592087Y329121D01*
X597428Y329121D01*
X597518Y329135D01*
X597609Y329143D01*
X597639Y329155D01*
X597671Y329160D01*
X597751Y329203D01*
X597835Y329239D01*
X597868Y329265D01*
X597888Y329276D01*
X597904Y329293D01*
X597906Y329294D01*
X597914Y329302D01*
X597966Y329344D01*
X599427Y330805D01*
X599469Y330863D01*
X599519Y330915D01*
X599541Y330962D01*
X599571Y331004D01*
X599592Y331073D01*
X599622Y331138D01*
X599628Y331190D01*
X599643Y331240D01*
X599641Y331311D01*
X599649Y331382D01*
X599638Y331433D01*
X599637Y331485D01*
X599612Y331553D01*
X599597Y331623D01*
X599570Y331668D01*
X599553Y331716D01*
X599508Y331772D01*
X599471Y331834D01*
X599431Y331868D01*
X599399Y331908D01*
X599339Y331947D01*
X599284Y331994D01*
X599236Y332013D01*
X599192Y332041D01*
X599122Y332059D01*
X599056Y332086D01*
X598985Y332094D01*
X598953Y332102D01*
X598930Y332100D01*
X598889Y332104D01*
X419397Y332104D01*
X419307Y332090D01*
X419216Y332082D01*
X419186Y332070D01*
X419154Y332065D01*
X419074Y332022D01*
X418990Y331986D01*
X418957Y331960D01*
X418937Y331949D01*
X418915Y331926D01*
X418859Y331881D01*
X417398Y330420D01*
X417356Y330362D01*
X417306Y330310D01*
X417284Y330263D01*
X417254Y330221D01*
X417233Y330152D01*
X417203Y330087D01*
X417197Y330035D01*
X417182Y329985D01*
X417184Y329914D01*
X417176Y329843D01*
X417187Y329792D01*
X417188Y329740D01*
X417213Y329672D01*
X417228Y329602D01*
X417255Y329557D01*
X417272Y329509D01*
X417317Y329453D01*
X417354Y329391D01*
X417394Y329357D01*
X417426Y329317D01*
X417486Y329278D01*
X417541Y329231D01*
X417589Y329212D01*
X417633Y329184D01*
X417703Y329166D01*
X417769Y329139D01*
X417840Y329131D01*
X417872Y329123D01*
X417895Y329125D01*
X417936Y329121D01*
X423913Y329121D01*
X430721Y322313D01*
X430721Y312687D01*
X423913Y305879D01*
X414287Y305879D01*
X407479Y312687D01*
X407479Y318664D01*
X407468Y318735D01*
X407466Y318807D01*
X407448Y318856D01*
X407440Y318907D01*
X407406Y318970D01*
X407381Y319038D01*
X407349Y319078D01*
X407324Y319124D01*
X407273Y319174D01*
X407228Y319230D01*
X407184Y319258D01*
X407146Y319294D01*
X407081Y319324D01*
X407021Y319363D01*
X406970Y319375D01*
X406923Y319397D01*
X406852Y319405D01*
X406782Y319423D01*
X406730Y319419D01*
X406679Y319424D01*
X406608Y319409D01*
X406537Y319404D01*
X406489Y319383D01*
X406438Y319372D01*
X406377Y319335D01*
X406311Y319307D01*
X406255Y319262D01*
X406227Y319246D01*
X406212Y319228D01*
X406180Y319202D01*
X405544Y318566D01*
X405490Y318492D01*
X405431Y318423D01*
X405419Y318393D01*
X405400Y318367D01*
X405373Y318280D01*
X405339Y318195D01*
X405335Y318154D01*
X405328Y318132D01*
X405329Y318099D01*
X405321Y318028D01*
X405321Y312687D01*
X398513Y305879D01*
X388887Y305879D01*
X382079Y312687D01*
X382079Y322313D01*
X388887Y329121D01*
X394228Y329121D01*
X394318Y329135D01*
X394409Y329143D01*
X394439Y329155D01*
X394471Y329160D01*
X394552Y329203D01*
X394635Y329239D01*
X394668Y329265D01*
X394688Y329276D01*
X394704Y329293D01*
X394706Y329294D01*
X394714Y329302D01*
X394766Y329344D01*
X411608Y346186D01*
X414409Y347346D01*
X633341Y347346D01*
X636142Y346186D01*
X650986Y331342D01*
X652146Y328541D01*
X652146Y156761D01*
X652157Y156690D01*
X652159Y156618D01*
X652177Y156569D01*
X652185Y156518D01*
X652219Y156455D01*
X652244Y156387D01*
X652276Y156347D01*
X652301Y156301D01*
X652353Y156251D01*
X652397Y156195D01*
X652441Y156167D01*
X652479Y156131D01*
X652544Y156101D01*
X652604Y156062D01*
X652655Y156050D01*
X652702Y156028D01*
X652773Y156020D01*
X652843Y156002D01*
X652895Y156006D01*
X652946Y156001D01*
X653017Y156016D01*
X653088Y156021D01*
X653136Y156042D01*
X653187Y156053D01*
X653248Y156090D01*
X653314Y156118D01*
X653370Y156163D01*
X653398Y156179D01*
X653413Y156197D01*
X653445Y156223D01*
X655731Y158509D01*
X655784Y158583D01*
X655844Y158652D01*
X655856Y158682D01*
X655875Y158708D01*
X655902Y158796D01*
X655936Y158880D01*
X655940Y158921D01*
X655947Y158943D01*
X655946Y158976D01*
X655954Y159047D01*
X655954Y519661D01*
X655947Y519708D01*
X655948Y519756D01*
X655927Y519829D01*
X655915Y519904D01*
X655892Y519946D01*
X655878Y519992D01*
X655835Y520054D01*
X655799Y520121D01*
X655765Y520154D01*
X655737Y520193D01*
X655676Y520238D01*
X655621Y520290D01*
X655578Y520310D01*
X655539Y520339D01*
X655467Y520362D01*
X655398Y520394D01*
X655350Y520399D01*
X655305Y520414D01*
X655229Y520413D01*
X655154Y520421D01*
X655107Y520411D01*
X655059Y520410D01*
X654987Y520385D01*
X654913Y520369D01*
X654872Y520344D01*
X654827Y520328D01*
X654767Y520281D01*
X654702Y520243D01*
X654671Y520206D01*
X654633Y520177D01*
X654557Y520073D01*
X654542Y520056D01*
X654540Y520049D01*
X654534Y520041D01*
X652594Y516681D01*
X647909Y511996D01*
X642172Y508684D01*
X635772Y506969D01*
X629148Y506969D01*
X622748Y508684D01*
X617011Y511996D01*
X612326Y516681D01*
X609014Y522418D01*
X607299Y528818D01*
X607299Y535442D01*
X609014Y541842D01*
X612326Y547579D01*
X617011Y552264D01*
X622748Y555576D01*
X629148Y557291D01*
X635772Y557291D01*
X642172Y555576D01*
X647909Y552264D01*
X652594Y547579D01*
X654534Y544219D01*
X654564Y544181D01*
X654587Y544139D01*
X654642Y544087D01*
X654690Y544028D01*
X654730Y544003D01*
X654765Y543970D01*
X654834Y543938D01*
X654898Y543898D01*
X654945Y543886D01*
X654988Y543866D01*
X655063Y543858D01*
X655137Y543840D01*
X655185Y543844D01*
X655232Y543839D01*
X655307Y543855D01*
X655382Y543862D01*
X655426Y543881D01*
X655473Y543891D01*
X655538Y543930D01*
X655607Y543961D01*
X655643Y543993D01*
X655684Y544017D01*
X655733Y544075D01*
X655789Y544126D01*
X655813Y544168D01*
X655844Y544204D01*
X655872Y544275D01*
X655909Y544341D01*
X655918Y544388D01*
X655936Y544433D01*
X655950Y544561D01*
X655954Y544583D01*
X655953Y544589D01*
X655954Y544599D01*
X655954Y573489D01*
X655943Y573560D01*
X655941Y573632D01*
X655923Y573681D01*
X655915Y573732D01*
X655881Y573795D01*
X655856Y573863D01*
X655824Y573903D01*
X655799Y573949D01*
X655747Y573999D01*
X655703Y574055D01*
X655659Y574083D01*
X655621Y574119D01*
X655556Y574149D01*
X655496Y574188D01*
X655445Y574200D01*
X655398Y574222D01*
X655327Y574230D01*
X655257Y574248D01*
X655205Y574244D01*
X655154Y574249D01*
X655083Y574234D01*
X655012Y574229D01*
X654964Y574208D01*
X654913Y574197D01*
X654852Y574160D01*
X654786Y574132D01*
X654730Y574087D01*
X654702Y574071D01*
X654687Y574053D01*
X654655Y574027D01*
X654194Y573566D01*
X654140Y573492D01*
X654081Y573423D01*
X654069Y573393D01*
X654050Y573367D01*
X654023Y573280D01*
X653989Y573195D01*
X653985Y573154D01*
X653978Y573132D01*
X653979Y573099D01*
X653971Y573028D01*
X653971Y561855D01*
X650995Y558879D01*
X631705Y558879D01*
X628729Y561855D01*
X628729Y581145D01*
X631705Y584121D01*
X642878Y584121D01*
X642968Y584135D01*
X643059Y584143D01*
X643089Y584155D01*
X643121Y584160D01*
X643202Y584203D01*
X643285Y584239D01*
X643318Y584265D01*
X643338Y584276D01*
X643360Y584299D01*
X643416Y584344D01*
X645067Y585995D01*
X645107Y586050D01*
X645154Y586098D01*
X645178Y586149D01*
X645211Y586195D01*
X645231Y586259D01*
X645260Y586320D01*
X645267Y586376D01*
X645283Y586430D01*
X645282Y586497D01*
X645290Y586565D01*
X645278Y586619D01*
X645277Y586675D01*
X645254Y586739D01*
X645240Y586806D01*
X645212Y586854D01*
X645193Y586906D01*
X645150Y586960D01*
X645116Y587018D01*
X645074Y587055D01*
X645039Y587099D01*
X644982Y587135D01*
X644931Y587180D01*
X644879Y587201D01*
X644832Y587232D01*
X644766Y587248D01*
X644704Y587274D01*
X644648Y587278D01*
X644593Y587292D01*
X644526Y587286D01*
X644458Y587291D01*
X644381Y587275D01*
X644348Y587272D01*
X644329Y587264D01*
X644294Y587257D01*
X643711Y587068D01*
X642873Y586935D01*
X642873Y596138D01*
X642870Y596158D01*
X642872Y596177D01*
X642850Y596279D01*
X642833Y596381D01*
X642824Y596398D01*
X642820Y596418D01*
X642767Y596507D01*
X642718Y596598D01*
X642704Y596612D01*
X642694Y596629D01*
X642615Y596696D01*
X642540Y596767D01*
X642522Y596776D01*
X642507Y596789D01*
X642411Y596827D01*
X642317Y596871D01*
X642297Y596873D01*
X642279Y596881D01*
X642112Y596899D01*
X641349Y596899D01*
X641349Y597662D01*
X641346Y597682D01*
X641348Y597701D01*
X641326Y597803D01*
X641309Y597905D01*
X641300Y597922D01*
X641296Y597942D01*
X641243Y598031D01*
X641194Y598122D01*
X641180Y598136D01*
X641170Y598153D01*
X641091Y598220D01*
X641016Y598291D01*
X640998Y598300D01*
X640983Y598313D01*
X640887Y598352D01*
X640793Y598395D01*
X640773Y598397D01*
X640755Y598405D01*
X640588Y598423D01*
X631385Y598423D01*
X631517Y599261D01*
X632008Y600770D01*
X632060Y600872D01*
X632083Y600944D01*
X632115Y601013D01*
X632120Y601061D01*
X632135Y601107D01*
X632134Y601182D01*
X632142Y601257D01*
X632132Y601305D01*
X632131Y601353D01*
X632106Y601424D01*
X632090Y601498D01*
X632065Y601539D01*
X632049Y601585D01*
X632002Y601644D01*
X631964Y601709D01*
X631927Y601740D01*
X631897Y601778D01*
X631834Y601820D01*
X631777Y601869D01*
X631732Y601887D01*
X631692Y601913D01*
X631619Y601932D01*
X631549Y601961D01*
X631484Y601968D01*
X631454Y601976D01*
X631428Y601974D01*
X631382Y601979D01*
X608084Y601979D01*
X605283Y603139D01*
X533641Y674781D01*
X533567Y674834D01*
X533498Y674894D01*
X533468Y674906D01*
X533442Y674925D01*
X533355Y674952D01*
X533270Y674986D01*
X533229Y674990D01*
X533207Y674997D01*
X533174Y674996D01*
X533103Y675004D01*
X379857Y675004D01*
X379837Y675001D01*
X379818Y675003D01*
X379716Y674981D01*
X379614Y674965D01*
X379597Y674955D01*
X379577Y674951D01*
X379488Y674898D01*
X379397Y674849D01*
X379383Y674835D01*
X379366Y674825D01*
X379299Y674746D01*
X379227Y674671D01*
X379219Y674653D01*
X379206Y674638D01*
X379167Y674542D01*
X379124Y674448D01*
X379122Y674428D01*
X379114Y674410D01*
X379096Y674243D01*
X379096Y427109D01*
X377936Y424308D01*
X353567Y399939D01*
X350766Y398779D01*
X333672Y398779D01*
X333582Y398765D01*
X333491Y398757D01*
X333461Y398745D01*
X333429Y398740D01*
X333348Y398697D01*
X333265Y398661D01*
X333232Y398635D01*
X333212Y398624D01*
X333190Y398601D01*
X333134Y398556D01*
X264998Y330420D01*
X264956Y330362D01*
X264906Y330310D01*
X264884Y330263D01*
X264854Y330221D01*
X264833Y330152D01*
X264803Y330087D01*
X264797Y330035D01*
X264782Y329985D01*
X264784Y329914D01*
X264776Y329843D01*
X264787Y329792D01*
X264788Y329740D01*
X264813Y329672D01*
X264828Y329602D01*
X264855Y329557D01*
X264872Y329509D01*
X264917Y329453D01*
X264954Y329391D01*
X264994Y329357D01*
X265026Y329317D01*
X265086Y329278D01*
X265141Y329231D01*
X265189Y329212D01*
X265233Y329184D01*
X265303Y329166D01*
X265369Y329139D01*
X265440Y329131D01*
X265472Y329123D01*
X265495Y329125D01*
X265536Y329121D01*
X271513Y329121D01*
X278321Y322313D01*
X278321Y312687D01*
X271513Y305879D01*
X261887Y305879D01*
X255079Y312687D01*
X255079Y318664D01*
X255068Y318735D01*
X255066Y318807D01*
X255048Y318856D01*
X255040Y318907D01*
X255006Y318970D01*
X254981Y319038D01*
X254949Y319078D01*
X254924Y319124D01*
X254873Y319174D01*
X254828Y319230D01*
X254784Y319258D01*
X254746Y319294D01*
X254681Y319324D01*
X254621Y319363D01*
X254570Y319375D01*
X254523Y319397D01*
X254452Y319405D01*
X254382Y319423D01*
X254330Y319419D01*
X254279Y319424D01*
X254208Y319409D01*
X254137Y319404D01*
X254089Y319383D01*
X254038Y319372D01*
X253977Y319335D01*
X253911Y319307D01*
X253855Y319262D01*
X253827Y319246D01*
X253812Y319228D01*
X253780Y319202D01*
X253144Y318566D01*
X253091Y318492D01*
X253031Y318423D01*
X253019Y318393D01*
X253000Y318367D01*
X252973Y318280D01*
X252939Y318195D01*
X252935Y318154D01*
X252928Y318132D01*
X252929Y318099D01*
X252921Y318028D01*
X252921Y312687D01*
X249144Y308910D01*
X249091Y308836D01*
X249031Y308766D01*
X249019Y308736D01*
X249000Y308710D01*
X248973Y308623D01*
X248939Y308538D01*
X248935Y308497D01*
X248928Y308475D01*
X248929Y308443D01*
X248921Y308371D01*
X248921Y98029D01*
X248935Y97939D01*
X248943Y97848D01*
X248955Y97818D01*
X248960Y97786D01*
X249003Y97705D01*
X249039Y97621D01*
X249065Y97589D01*
X249076Y97569D01*
X249099Y97546D01*
X249144Y97490D01*
X252921Y93713D01*
X252921Y84087D01*
X246113Y77279D01*
X236487Y77279D01*
X229679Y84087D01*
X229679Y93713D01*
X233456Y97490D01*
X233509Y97564D01*
X233569Y97634D01*
X233581Y97664D01*
X233600Y97690D01*
X233627Y97777D01*
X233661Y97862D01*
X233665Y97903D01*
X233672Y97925D01*
X233671Y97957D01*
X233679Y98029D01*
X233679Y303614D01*
X233668Y303685D01*
X233666Y303757D01*
X233648Y303806D01*
X233640Y303857D01*
X233606Y303920D01*
X233581Y303988D01*
X233549Y304028D01*
X233524Y304074D01*
X233472Y304124D01*
X233428Y304180D01*
X233384Y304208D01*
X233346Y304244D01*
X233281Y304274D01*
X233221Y304313D01*
X233170Y304325D01*
X233123Y304347D01*
X233052Y304355D01*
X232982Y304373D01*
X232930Y304369D01*
X232879Y304374D01*
X232808Y304359D01*
X232737Y304354D01*
X232689Y304333D01*
X232638Y304322D01*
X232577Y304285D01*
X232511Y304257D01*
X232455Y304212D01*
X232427Y304196D01*
X232412Y304178D01*
X232380Y304152D01*
X226567Y298339D01*
X223991Y297272D01*
X223891Y297211D01*
X223791Y297151D01*
X223787Y297146D01*
X223782Y297143D01*
X223707Y297053D01*
X223631Y296964D01*
X223629Y296958D01*
X223625Y296953D01*
X223583Y296845D01*
X223539Y296736D01*
X223538Y296728D01*
X223537Y296724D01*
X223536Y296705D01*
X223521Y296569D01*
X223521Y98029D01*
X223535Y97939D01*
X223543Y97848D01*
X223555Y97818D01*
X223560Y97786D01*
X223603Y97705D01*
X223639Y97621D01*
X223665Y97589D01*
X223676Y97569D01*
X223699Y97546D01*
X223744Y97490D01*
X227521Y93713D01*
X227521Y84087D01*
X220713Y77279D01*
X211087Y77279D01*
X204279Y84087D01*
X204279Y93713D01*
X208056Y97490D01*
X208109Y97564D01*
X208169Y97634D01*
X208181Y97664D01*
X208200Y97690D01*
X208227Y97777D01*
X208261Y97862D01*
X208265Y97903D01*
X208272Y97925D01*
X208271Y97957D01*
X208279Y98029D01*
X208279Y306316D01*
X208779Y307522D01*
X208806Y307635D01*
X208834Y307749D01*
X208834Y307756D01*
X208835Y307762D01*
X208826Y307863D01*
X208826Y307864D01*
X208824Y307878D01*
X208815Y307995D01*
X208813Y308000D01*
X208812Y308007D01*
X208778Y308084D01*
X208773Y308104D01*
X208757Y308131D01*
X208719Y308221D01*
X208714Y308227D01*
X208712Y308231D01*
X208699Y308245D01*
X208658Y308297D01*
X208647Y308315D01*
X208636Y308324D01*
X208614Y308352D01*
X204279Y312687D01*
X204279Y322313D01*
X211087Y329121D01*
X220218Y329121D01*
X220238Y329124D01*
X220257Y329122D01*
X220359Y329144D01*
X220461Y329160D01*
X220478Y329170D01*
X220498Y329174D01*
X220587Y329227D01*
X220678Y329276D01*
X220692Y329290D01*
X220709Y329300D01*
X220776Y329379D01*
X220848Y329454D01*
X220856Y329472D01*
X220869Y329487D01*
X220908Y329583D01*
X220951Y329677D01*
X220953Y329697D01*
X220961Y329715D01*
X220979Y329882D01*
X220979Y417441D01*
X222139Y420242D01*
X224283Y422386D01*
X227084Y423546D01*
X334408Y423546D01*
X334479Y423557D01*
X334551Y423559D01*
X334600Y423577D01*
X334651Y423585D01*
X334714Y423619D01*
X334782Y423644D01*
X334822Y423676D01*
X334868Y423701D01*
X334918Y423753D01*
X334974Y423797D01*
X335002Y423841D01*
X335038Y423879D01*
X335068Y423944D01*
X335107Y424004D01*
X335119Y424055D01*
X335141Y424102D01*
X335149Y424173D01*
X335167Y424243D01*
X335163Y424295D01*
X335168Y424346D01*
X335153Y424417D01*
X335148Y424488D01*
X335127Y424536D01*
X335116Y424587D01*
X335079Y424648D01*
X335051Y424714D01*
X335007Y424770D01*
X334990Y424798D01*
X334972Y424813D01*
X334947Y424845D01*
X332358Y427433D01*
X332358Y430277D01*
X342138Y430277D01*
X342158Y430280D01*
X342177Y430278D01*
X342279Y430300D01*
X342381Y430317D01*
X342398Y430326D01*
X342418Y430330D01*
X342507Y430383D01*
X342598Y430432D01*
X342612Y430446D01*
X342629Y430456D01*
X342696Y430535D01*
X342767Y430610D01*
X342776Y430628D01*
X342789Y430643D01*
X342827Y430739D01*
X342871Y430833D01*
X342873Y430853D01*
X342881Y430871D01*
X342899Y431038D01*
X342899Y431801D01*
X343662Y431801D01*
X343682Y431804D01*
X343701Y431802D01*
X343803Y431824D01*
X343905Y431841D01*
X343922Y431850D01*
X343942Y431854D01*
X344031Y431907D01*
X344122Y431956D01*
X344136Y431970D01*
X344153Y431980D01*
X344220Y432059D01*
X344291Y432134D01*
X344300Y432152D01*
X344313Y432167D01*
X344352Y432263D01*
X344395Y432357D01*
X344397Y432377D01*
X344405Y432395D01*
X344423Y432562D01*
X344423Y442342D01*
X347267Y442342D01*
X353030Y436578D01*
X353088Y436537D01*
X353140Y436487D01*
X353187Y436465D01*
X353229Y436435D01*
X353298Y436414D01*
X353363Y436384D01*
X353415Y436378D01*
X353465Y436363D01*
X353536Y436364D01*
X353607Y436357D01*
X353658Y436368D01*
X353710Y436369D01*
X353778Y436394D01*
X353848Y436409D01*
X353893Y436436D01*
X353941Y436453D01*
X353997Y436498D01*
X354059Y436535D01*
X354093Y436575D01*
X354133Y436607D01*
X354172Y436667D01*
X354219Y436722D01*
X354238Y436770D01*
X354266Y436814D01*
X354284Y436883D01*
X354311Y436950D01*
X354319Y437021D01*
X354327Y437053D01*
X354325Y437076D01*
X354329Y437117D01*
X354329Y448291D01*
X354318Y448362D01*
X354316Y448434D01*
X354298Y448483D01*
X354290Y448534D01*
X354256Y448597D01*
X354231Y448665D01*
X354199Y448705D01*
X354174Y448751D01*
X354122Y448801D01*
X354078Y448857D01*
X354034Y448885D01*
X353996Y448921D01*
X353931Y448951D01*
X353871Y448990D01*
X353820Y449002D01*
X353773Y449024D01*
X353702Y449032D01*
X353632Y449050D01*
X353580Y449046D01*
X353529Y449051D01*
X353458Y449036D01*
X353387Y449031D01*
X353339Y449010D01*
X353288Y448999D01*
X353227Y448962D01*
X353161Y448934D01*
X353105Y448889D01*
X353077Y448873D01*
X353062Y448855D01*
X353030Y448829D01*
X348319Y444118D01*
X337481Y444118D01*
X332243Y449356D01*
X332169Y449409D01*
X332100Y449469D01*
X332070Y449481D01*
X332044Y449500D01*
X331957Y449527D01*
X331872Y449561D01*
X331831Y449565D01*
X331809Y449572D01*
X331776Y449571D01*
X331705Y449579D01*
X224564Y449579D01*
X224544Y449576D01*
X224525Y449578D01*
X224423Y449556D01*
X224321Y449540D01*
X224304Y449530D01*
X224284Y449526D01*
X224195Y449473D01*
X224104Y449424D01*
X224090Y449410D01*
X224073Y449400D01*
X224006Y449321D01*
X223934Y449246D01*
X223926Y449228D01*
X223913Y449213D01*
X223874Y449117D01*
X223831Y449023D01*
X223829Y449003D01*
X223821Y448985D01*
X223803Y448818D01*
X223803Y443095D01*
X221366Y437213D01*
X216865Y432712D01*
X210983Y430275D01*
X204617Y430275D01*
X198735Y432712D01*
X194234Y437213D01*
X191797Y443095D01*
X191797Y471305D01*
X194234Y477187D01*
X198531Y481485D01*
X198584Y481559D01*
X198644Y481628D01*
X198656Y481658D01*
X198675Y481684D01*
X198702Y481771D01*
X198736Y481856D01*
X198740Y481897D01*
X198747Y481919D01*
X198746Y481952D01*
X198754Y482023D01*
X198754Y593428D01*
X198740Y593518D01*
X198732Y593609D01*
X198720Y593639D01*
X198715Y593671D01*
X198672Y593752D01*
X198636Y593835D01*
X198610Y593868D01*
X198599Y593888D01*
X198576Y593910D01*
X198531Y593966D01*
X171222Y621275D01*
X171183Y621303D01*
X171151Y621338D01*
X171084Y621375D01*
X171023Y621419D01*
X170977Y621433D01*
X170935Y621456D01*
X170860Y621469D01*
X170788Y621491D01*
X170740Y621490D01*
X170692Y621498D01*
X170617Y621487D01*
X170542Y621485D01*
X170497Y621468D01*
X170449Y621461D01*
X170382Y621427D01*
X170311Y621400D01*
X170273Y621370D01*
X170231Y621348D01*
X170178Y621294D01*
X170119Y621247D01*
X170093Y621206D01*
X170059Y621172D01*
X170027Y621104D01*
X169986Y621040D01*
X169974Y620993D01*
X169953Y620950D01*
X169944Y620875D01*
X169926Y620801D01*
X169929Y620754D01*
X169923Y620706D01*
X169943Y620578D01*
X169945Y620556D01*
X169947Y620550D01*
X169949Y620540D01*
X170435Y618726D01*
X170435Y610634D01*
X168340Y602817D01*
X164294Y595808D01*
X158572Y590086D01*
X151563Y586040D01*
X143746Y583945D01*
X135654Y583945D01*
X127837Y586040D01*
X120828Y590086D01*
X115106Y595808D01*
X111060Y602817D01*
X108965Y610634D01*
X108965Y618726D01*
X111060Y626543D01*
X115106Y633552D01*
X120828Y639274D01*
X125262Y641834D01*
X125299Y641864D01*
X125342Y641887D01*
X125394Y641942D01*
X125453Y641990D01*
X125478Y642030D01*
X125511Y642065D01*
X125543Y642134D01*
X125583Y642198D01*
X125595Y642245D01*
X125615Y642288D01*
X125623Y642363D01*
X125641Y642437D01*
X125637Y642485D01*
X125642Y642532D01*
X125626Y642607D01*
X125619Y642682D01*
X125600Y642726D01*
X125590Y642773D01*
X125551Y642838D01*
X125520Y642907D01*
X125488Y642943D01*
X125463Y642984D01*
X125406Y643033D01*
X125355Y643089D01*
X125313Y643113D01*
X125276Y643144D01*
X125206Y643172D01*
X125140Y643209D01*
X125093Y643218D01*
X125048Y643236D01*
X124920Y643250D01*
X124898Y643254D01*
X124892Y643253D01*
X124882Y643254D01*
X109609Y643254D01*
X106808Y644414D01*
X104664Y646558D01*
X103504Y649359D01*
X103504Y687316D01*
X104664Y690117D01*
X116333Y701786D01*
X116371Y701801D01*
X116410Y701826D01*
X116454Y701841D01*
X116514Y701890D01*
X116580Y701931D01*
X116610Y701966D01*
X116646Y701995D01*
X116688Y702060D01*
X116737Y702120D01*
X116754Y702163D01*
X116779Y702202D01*
X116798Y702277D01*
X116826Y702350D01*
X116827Y702396D01*
X116839Y702440D01*
X116833Y702518D01*
X116836Y702596D01*
X116823Y702640D01*
X116820Y702686D01*
X116789Y702757D01*
X116767Y702832D01*
X116741Y702870D01*
X116723Y702912D01*
X116638Y703019D01*
X116627Y703034D01*
X116623Y703037D01*
X116618Y703043D01*
X115315Y704346D01*
X115315Y707137D01*
X124968Y707137D01*
X124988Y707140D01*
X125007Y707138D01*
X125109Y707160D01*
X125211Y707177D01*
X125228Y707186D01*
X125248Y707190D01*
X125337Y707243D01*
X125428Y707292D01*
X125442Y707306D01*
X125459Y707316D01*
X125526Y707395D01*
X125597Y707470D01*
X125606Y707488D01*
X125619Y707503D01*
X125657Y707599D01*
X125701Y707693D01*
X125703Y707713D01*
X125711Y707731D01*
X125729Y707898D01*
X125729Y708661D01*
X126492Y708661D01*
X126512Y708664D01*
X126531Y708662D01*
X126633Y708684D01*
X126735Y708701D01*
X126752Y708710D01*
X126772Y708714D01*
X126861Y708767D01*
X126952Y708816D01*
X126966Y708830D01*
X126983Y708840D01*
X127050Y708919D01*
X127121Y708994D01*
X127130Y709012D01*
X127143Y709027D01*
X127182Y709123D01*
X127225Y709217D01*
X127227Y709237D01*
X127235Y709255D01*
X127253Y709422D01*
X127253Y719075D01*
X130044Y719075D01*
X136145Y712974D01*
X136145Y710735D01*
X136156Y710664D01*
X136158Y710592D01*
X136176Y710543D01*
X136184Y710492D01*
X136218Y710429D01*
X136243Y710361D01*
X136275Y710321D01*
X136300Y710275D01*
X136352Y710225D01*
X136396Y710169D01*
X136440Y710141D01*
X136478Y710105D01*
X136543Y710075D01*
X136603Y710036D01*
X136654Y710024D01*
X136701Y710002D01*
X136772Y709994D01*
X136842Y709976D01*
X136894Y709980D01*
X136945Y709975D01*
X137016Y709990D01*
X137087Y709995D01*
X137135Y710016D01*
X137186Y710027D01*
X137247Y710064D01*
X137313Y710092D01*
X137369Y710137D01*
X137397Y710153D01*
X137412Y710171D01*
X137444Y710197D01*
X141733Y714486D01*
X141926Y714565D01*
X141965Y714589D01*
X142008Y714605D01*
X142068Y714654D01*
X142135Y714695D01*
X142164Y714730D01*
X142200Y714759D01*
X142242Y714824D01*
X142291Y714884D01*
X142308Y714927D01*
X142333Y714966D01*
X142352Y715041D01*
X142380Y715114D01*
X142382Y715160D01*
X142393Y715204D01*
X142387Y715282D01*
X142390Y715360D01*
X142377Y715404D01*
X142374Y715449D01*
X142343Y715521D01*
X142322Y715596D01*
X142295Y715634D01*
X142277Y715676D01*
X142192Y715782D01*
X142181Y715798D01*
X142177Y715801D01*
X142173Y715807D01*
X140715Y717264D01*
X140715Y727996D01*
X148304Y735585D01*
X159036Y735585D01*
X166625Y727996D01*
X166625Y717264D01*
X166306Y716945D01*
X166264Y716887D01*
X166215Y716835D01*
X166193Y716788D01*
X166162Y716746D01*
X166141Y716677D01*
X166111Y716612D01*
X166105Y716560D01*
X166090Y716510D01*
X166092Y716439D01*
X166084Y716368D01*
X166095Y716317D01*
X166096Y716265D01*
X166121Y716197D01*
X166136Y716127D01*
X166163Y716082D01*
X166181Y716034D01*
X166226Y715978D01*
X166262Y715916D01*
X166302Y715882D01*
X166335Y715842D01*
X166395Y715803D01*
X166449Y715756D01*
X166498Y715737D01*
X166542Y715709D01*
X166611Y715691D01*
X166678Y715664D01*
X166749Y715656D01*
X166780Y715648D01*
X166803Y715650D01*
X166844Y715646D01*
X234653Y715646D01*
X234743Y715660D01*
X234834Y715668D01*
X234864Y715680D01*
X234896Y715685D01*
X234977Y715728D01*
X235060Y715764D01*
X235093Y715790D01*
X235113Y715801D01*
X235135Y715824D01*
X235191Y715869D01*
X342756Y823434D01*
X342801Y823496D01*
X342827Y823523D01*
X342832Y823534D01*
X342869Y823577D01*
X342881Y823607D01*
X342900Y823633D01*
X342927Y823720D01*
X342961Y823805D01*
X342965Y823846D01*
X342972Y823868D01*
X342971Y823901D01*
X342979Y823972D01*
X342979Y835145D01*
X345955Y838121D01*
X365245Y838121D01*
X368221Y835145D01*
X368221Y815855D01*
X365245Y812879D01*
X354072Y812879D01*
X353982Y812865D01*
X353891Y812857D01*
X353861Y812845D01*
X353829Y812840D01*
X353748Y812797D01*
X353665Y812761D01*
X353632Y812735D01*
X353612Y812724D01*
X353590Y812701D01*
X353534Y812656D01*
X244693Y703815D01*
X242442Y701564D01*
X239641Y700404D01*
X167386Y700404D01*
X167366Y700401D01*
X167347Y700403D01*
X167245Y700381D01*
X167143Y700365D01*
X167126Y700355D01*
X167106Y700351D01*
X167017Y700298D01*
X166926Y700249D01*
X166912Y700235D01*
X166895Y700225D01*
X166828Y700146D01*
X166756Y700071D01*
X166748Y700053D01*
X166735Y700038D01*
X166696Y699942D01*
X166653Y699848D01*
X166651Y699828D01*
X166643Y699810D01*
X166625Y699643D01*
X166625Y692193D01*
X166639Y692103D01*
X166647Y692012D01*
X166659Y691982D01*
X166664Y691950D01*
X166707Y691869D01*
X166743Y691786D01*
X166769Y691753D01*
X166780Y691733D01*
X166803Y691711D01*
X166848Y691655D01*
X168034Y690469D01*
X168108Y690416D01*
X168177Y690356D01*
X168207Y690344D01*
X168233Y690325D01*
X168320Y690298D01*
X168405Y690264D01*
X168446Y690260D01*
X168468Y690253D01*
X168501Y690254D01*
X168572Y690246D01*
X318071Y690246D01*
X318118Y690253D01*
X318166Y690252D01*
X318239Y690273D01*
X318314Y690285D01*
X318356Y690308D01*
X318402Y690322D01*
X318464Y690365D01*
X318531Y690401D01*
X318564Y690435D01*
X318603Y690463D01*
X318648Y690524D01*
X318701Y690579D01*
X318721Y690622D01*
X318749Y690661D01*
X318772Y690733D01*
X318804Y690802D01*
X318809Y690850D01*
X318824Y690895D01*
X318823Y690971D01*
X318831Y691046D01*
X318821Y691093D01*
X318820Y691141D01*
X318795Y691213D01*
X318779Y691287D01*
X318754Y691328D01*
X318738Y691373D01*
X318692Y691433D01*
X318653Y691498D01*
X318616Y691529D01*
X318587Y691567D01*
X318483Y691643D01*
X318466Y691658D01*
X318460Y691660D01*
X318452Y691666D01*
X317291Y692336D01*
X312606Y697021D01*
X309294Y702758D01*
X307579Y709158D01*
X307579Y715782D01*
X309294Y722182D01*
X312606Y727919D01*
X317291Y732604D01*
X323028Y735916D01*
X329428Y737631D01*
X336052Y737631D01*
X342452Y735916D01*
X348189Y732604D01*
X352874Y727919D01*
X356186Y722182D01*
X357901Y715782D01*
X357901Y709158D01*
X356186Y702758D01*
X352874Y697021D01*
X348189Y692336D01*
X347028Y691666D01*
X346991Y691636D01*
X346949Y691613D01*
X346897Y691559D01*
X346838Y691510D01*
X346812Y691470D01*
X346779Y691435D01*
X346748Y691366D01*
X346707Y691302D01*
X346696Y691255D01*
X346676Y691212D01*
X346667Y691137D01*
X346650Y691063D01*
X346654Y691015D01*
X346649Y690968D01*
X346665Y690893D01*
X346672Y690818D01*
X346691Y690774D01*
X346701Y690727D01*
X346740Y690662D01*
X346770Y690593D01*
X346803Y690557D01*
X346827Y690516D01*
X346885Y690467D01*
X346936Y690411D01*
X346978Y690387D01*
X347014Y690356D01*
X347084Y690328D01*
X347151Y690291D01*
X347198Y690282D01*
X347242Y690264D01*
X347371Y690250D01*
X347392Y690246D01*
X347399Y690247D01*
X347409Y690246D01*
X516339Y690246D01*
X516410Y690257D01*
X516482Y690259D01*
X516531Y690277D01*
X516582Y690285D01*
X516645Y690319D01*
X516713Y690344D01*
X516753Y690376D01*
X516799Y690401D01*
X516849Y690453D01*
X516905Y690497D01*
X516933Y690541D01*
X516969Y690579D01*
X516999Y690644D01*
X517038Y690704D01*
X517050Y690755D01*
X517072Y690802D01*
X517080Y690873D01*
X517098Y690943D01*
X517094Y690995D01*
X517099Y691046D01*
X517084Y691117D01*
X517079Y691188D01*
X517058Y691236D01*
X517047Y691287D01*
X517010Y691348D01*
X516982Y691414D01*
X516937Y691470D01*
X516921Y691498D01*
X516903Y691513D01*
X516877Y691545D01*
X503790Y704632D01*
X501539Y706883D01*
X500379Y709684D01*
X500379Y812118D01*
X500376Y812138D01*
X500378Y812157D01*
X500356Y812259D01*
X500340Y812361D01*
X500330Y812378D01*
X500326Y812398D01*
X500273Y812487D01*
X500224Y812578D01*
X500210Y812592D01*
X500200Y812609D01*
X500121Y812676D01*
X500046Y812748D01*
X500028Y812756D01*
X500013Y812769D01*
X499917Y812808D01*
X499823Y812851D01*
X499803Y812853D01*
X499785Y812861D01*
X499618Y812879D01*
X498355Y812879D01*
X495379Y815855D01*
X495379Y835145D01*
X498355Y838121D01*
X517645Y838121D01*
X520621Y835145D01*
X520621Y815855D01*
X517645Y812879D01*
X516382Y812879D01*
X516362Y812876D01*
X516343Y812878D01*
X516241Y812856D01*
X516139Y812840D01*
X516122Y812830D01*
X516102Y812826D01*
X516013Y812773D01*
X515922Y812724D01*
X515908Y812710D01*
X515891Y812700D01*
X515824Y812621D01*
X515752Y812546D01*
X515744Y812528D01*
X515731Y812513D01*
X515692Y812417D01*
X515649Y812323D01*
X515647Y812303D01*
X515639Y812285D01*
X515621Y812118D01*
X515621Y714672D01*
X515635Y714582D01*
X515643Y714491D01*
X515655Y714461D01*
X515660Y714429D01*
X515703Y714348D01*
X515739Y714265D01*
X515765Y714232D01*
X515776Y714212D01*
X515799Y714190D01*
X515844Y714134D01*
X539197Y690780D01*
X584805Y645173D01*
X584863Y645131D01*
X584915Y645081D01*
X584962Y645059D01*
X585004Y645029D01*
X585073Y645008D01*
X585138Y644978D01*
X585190Y644972D01*
X585240Y644957D01*
X585311Y644959D01*
X585382Y644951D01*
X585433Y644962D01*
X585485Y644963D01*
X585553Y644988D01*
X585623Y645003D01*
X585668Y645030D01*
X585716Y645047D01*
X585772Y645092D01*
X585834Y645129D01*
X585868Y645169D01*
X585908Y645201D01*
X585947Y645261D01*
X585994Y645316D01*
X586013Y645364D01*
X586041Y645408D01*
X586059Y645478D01*
X586086Y645544D01*
X586094Y645615D01*
X586102Y645647D01*
X586100Y645670D01*
X586104Y645711D01*
X586104Y728591D01*
X587264Y731392D01*
X614808Y758936D01*
X617609Y760096D01*
X690491Y760096D01*
X693292Y758936D01*
X695436Y756792D01*
X696596Y753991D01*
X696596Y122309D01*
X695436Y119508D01*
X636142Y60214D01*
X633341Y59054D01*
X557284Y59054D01*
X554483Y60214D01*
X552339Y62358D01*
X551179Y65159D01*
X551179Y76518D01*
X551176Y76538D01*
X551178Y76557D01*
X551156Y76659D01*
X551140Y76761D01*
X551130Y76778D01*
X551126Y76798D01*
X551073Y76887D01*
X551024Y76978D01*
X551010Y76992D01*
X551000Y77009D01*
X550921Y77076D01*
X550846Y77148D01*
X550828Y77156D01*
X550813Y77169D01*
X550717Y77208D01*
X550623Y77251D01*
X550603Y77253D01*
X550585Y77261D01*
X550418Y77279D01*
X541287Y77279D01*
X534479Y84087D01*
X534479Y93713D01*
X541287Y100521D01*
X550913Y100521D01*
X551565Y99869D01*
X551581Y99857D01*
X551594Y99842D01*
X551681Y99786D01*
X551765Y99725D01*
X551784Y99720D01*
X551801Y99709D01*
X551901Y99684D01*
X552000Y99653D01*
X552020Y99654D01*
X552039Y99649D01*
X552142Y99657D01*
X552246Y99659D01*
X552265Y99666D01*
X552284Y99668D01*
X552379Y99708D01*
X552477Y99744D01*
X552492Y99756D01*
X552511Y99764D01*
X552642Y99869D01*
X554590Y101817D01*
X554590Y101818D01*
X602602Y149830D01*
X602644Y149888D01*
X602694Y149940D01*
X602716Y149987D01*
X602746Y150029D01*
X602767Y150098D01*
X602797Y150163D01*
X602803Y150215D01*
X602818Y150265D01*
X602816Y150336D01*
X602824Y150407D01*
X602813Y150458D01*
X602812Y150510D01*
X602787Y150578D01*
X602772Y150648D01*
X602745Y150692D01*
X602728Y150741D01*
X602683Y150797D01*
X602646Y150859D01*
X602606Y150893D01*
X602574Y150933D01*
X602514Y150972D01*
X602459Y151019D01*
X602411Y151038D01*
X602367Y151066D01*
X602297Y151084D01*
X602231Y151111D01*
X602160Y151119D01*
X602128Y151127D01*
X602105Y151125D01*
X602064Y151129D01*
X498772Y151129D01*
X498682Y151115D01*
X498591Y151107D01*
X498561Y151095D01*
X498529Y151090D01*
X498448Y151047D01*
X498365Y151011D01*
X498332Y150985D01*
X498312Y150974D01*
X498290Y150951D01*
X498234Y150906D01*
X449119Y101792D01*
X449107Y101776D01*
X449092Y101763D01*
X449036Y101676D01*
X448975Y101592D01*
X448970Y101573D01*
X448959Y101556D01*
X448934Y101456D01*
X448903Y101357D01*
X448904Y101337D01*
X448899Y101318D01*
X448907Y101215D01*
X448909Y101111D01*
X448916Y101092D01*
X448918Y101072D01*
X448958Y100978D01*
X448994Y100880D01*
X449006Y100864D01*
X449014Y100846D01*
X449119Y100715D01*
X456121Y93713D01*
X456121Y84087D01*
X449313Y77279D01*
X440182Y77279D01*
X440162Y77276D01*
X440143Y77278D01*
X440041Y77256D01*
X439939Y77240D01*
X439922Y77230D01*
X439902Y77226D01*
X439813Y77173D01*
X439722Y77124D01*
X439708Y77110D01*
X439691Y77100D01*
X439624Y77021D01*
X439552Y76946D01*
X439544Y76928D01*
X439531Y76913D01*
X439492Y76817D01*
X439449Y76723D01*
X439447Y76703D01*
X439439Y76685D01*
X439421Y76518D01*
X439421Y36584D01*
X438261Y33783D01*
X436117Y31639D01*
X433316Y30479D01*
X179459Y30479D01*
G37*
%LPD*%
%LPC*%
G36*
X138356Y363214D02*
X138356Y363214D01*
X138327Y363213D01*
X138269Y363219D01*
X137449Y363219D01*
X137216Y363316D01*
X137195Y363321D01*
X137175Y363331D01*
X137012Y363369D01*
X136761Y363398D01*
X136044Y363796D01*
X136017Y363806D01*
X135966Y363834D01*
X135201Y364151D01*
X135122Y364201D01*
X135038Y364261D01*
X135019Y364267D01*
X135002Y364278D01*
X134902Y364303D01*
X134803Y364334D01*
X134783Y364333D01*
X134764Y364338D01*
X134661Y364330D01*
X134557Y364327D01*
X134538Y364321D01*
X134519Y364319D01*
X134424Y364279D01*
X134326Y364243D01*
X134311Y364230D01*
X134292Y364223D01*
X134206Y364154D01*
X131950Y363219D01*
X123557Y363219D01*
X118698Y366025D01*
X115892Y370885D01*
X115892Y379325D01*
X115892Y379326D01*
X115892Y383495D01*
X118697Y388355D01*
X123557Y391161D01*
X131950Y391161D01*
X134199Y390229D01*
X134277Y390179D01*
X134361Y390119D01*
X134380Y390113D01*
X134397Y390102D01*
X134498Y390077D01*
X134596Y390046D01*
X134616Y390047D01*
X134636Y390042D01*
X134739Y390050D01*
X134842Y390053D01*
X134861Y390059D01*
X134881Y390061D01*
X134976Y390101D01*
X135073Y390137D01*
X135089Y390150D01*
X135107Y390157D01*
X135193Y390226D01*
X137449Y391161D01*
X139875Y391161D01*
X142115Y390233D01*
X142498Y389850D01*
X142514Y389838D01*
X142527Y389823D01*
X142614Y389767D01*
X142698Y389706D01*
X142717Y389701D01*
X142734Y389690D01*
X142834Y389664D01*
X142933Y389634D01*
X142953Y389635D01*
X142972Y389630D01*
X143075Y389638D01*
X143179Y389640D01*
X143197Y389647D01*
X143217Y389649D01*
X143312Y389689D01*
X143410Y389725D01*
X143425Y389737D01*
X143444Y389745D01*
X143575Y389850D01*
X143957Y390233D01*
X144190Y390329D01*
X144209Y390341D01*
X144230Y390347D01*
X144372Y390436D01*
X144570Y390593D01*
X145358Y390818D01*
X145385Y390831D01*
X145412Y390839D01*
X145419Y390840D01*
X145422Y390842D01*
X145440Y390847D01*
X146198Y391161D01*
X146450Y391161D01*
X146472Y391164D01*
X146494Y391162D01*
X146659Y391190D01*
X146902Y391259D01*
X147716Y391166D01*
X147746Y391167D01*
X147803Y391161D01*
X148623Y391161D01*
X148856Y391064D01*
X148878Y391059D01*
X148897Y391049D01*
X149061Y391011D01*
X149311Y390982D01*
X150028Y390584D01*
X150056Y390574D01*
X150107Y390546D01*
X150872Y390229D01*
X150951Y390179D01*
X151034Y390119D01*
X151053Y390113D01*
X151070Y390102D01*
X151171Y390077D01*
X151269Y390046D01*
X151289Y390047D01*
X151309Y390042D01*
X151412Y390050D01*
X151515Y390053D01*
X151534Y390059D01*
X151554Y390061D01*
X151649Y390101D01*
X151746Y390137D01*
X151762Y390150D01*
X151780Y390157D01*
X151866Y390226D01*
X154122Y391161D01*
X159220Y391161D01*
X159221Y391161D01*
X160585Y391161D01*
X161903Y391161D01*
X161949Y391161D01*
X163156Y391161D01*
X167609Y388589D01*
X170181Y384136D01*
X170181Y371452D01*
X170181Y371451D01*
X170181Y370244D01*
X167609Y365791D01*
X163156Y363219D01*
X154122Y363219D01*
X151874Y364151D01*
X151795Y364201D01*
X151711Y364261D01*
X151692Y364267D01*
X151675Y364278D01*
X151575Y364303D01*
X151476Y364334D01*
X151456Y364333D01*
X151437Y364338D01*
X151334Y364330D01*
X151230Y364327D01*
X151212Y364321D01*
X151192Y364319D01*
X151097Y364279D01*
X150999Y364243D01*
X150984Y364230D01*
X150965Y364223D01*
X150879Y364154D01*
X148623Y363219D01*
X146198Y363219D01*
X143957Y364147D01*
X143575Y364530D01*
X143558Y364542D01*
X143546Y364557D01*
X143459Y364613D01*
X143375Y364674D01*
X143356Y364679D01*
X143339Y364690D01*
X143239Y364716D01*
X143140Y364746D01*
X143120Y364745D01*
X143100Y364750D01*
X142997Y364742D01*
X142894Y364740D01*
X142875Y364733D01*
X142855Y364731D01*
X142760Y364691D01*
X142663Y364655D01*
X142647Y364643D01*
X142629Y364635D01*
X142498Y364530D01*
X142115Y364147D01*
X141882Y364051D01*
X141864Y364039D01*
X141842Y364033D01*
X141700Y363944D01*
X141503Y363787D01*
X140714Y363562D01*
X140688Y363549D01*
X140632Y363533D01*
X139875Y363219D01*
X139622Y363219D01*
X139601Y363216D01*
X139579Y363218D01*
X139413Y363190D01*
X139171Y363121D01*
X138356Y363214D01*
G37*
%LPD*%
%LPC*%
G36*
X287287Y77279D02*
X287287Y77279D01*
X280479Y84087D01*
X280479Y93713D01*
X287287Y100521D01*
X296913Y100521D01*
X303721Y93713D01*
X303721Y84087D01*
X296913Y77279D01*
X287287Y77279D01*
G37*
%LPD*%
%LPC*%
G36*
X312687Y77279D02*
X312687Y77279D01*
X305879Y84087D01*
X305879Y93713D01*
X312687Y100521D01*
X322313Y100521D01*
X329121Y93713D01*
X329121Y84087D01*
X322313Y77279D01*
X312687Y77279D01*
G37*
%LPD*%
%LPC*%
G36*
X261887Y77279D02*
X261887Y77279D01*
X255079Y84087D01*
X255079Y93713D01*
X261887Y100521D01*
X271513Y100521D01*
X278321Y93713D01*
X278321Y84087D01*
X271513Y77279D01*
X261887Y77279D01*
G37*
%LPD*%
%LPC*%
G36*
X465087Y77279D02*
X465087Y77279D01*
X458279Y84087D01*
X458279Y93713D01*
X465087Y100521D01*
X474713Y100521D01*
X481521Y93713D01*
X481521Y84087D01*
X474713Y77279D01*
X465087Y77279D01*
G37*
%LPD*%
%LPC*%
G36*
X490487Y77279D02*
X490487Y77279D01*
X483679Y84087D01*
X483679Y93713D01*
X490487Y100521D01*
X500113Y100521D01*
X506921Y93713D01*
X506921Y84087D01*
X500113Y77279D01*
X490487Y77279D01*
G37*
%LPD*%
%LPC*%
G36*
X515887Y77279D02*
X515887Y77279D01*
X509079Y84087D01*
X509079Y93713D01*
X515887Y100521D01*
X525513Y100521D01*
X532321Y93713D01*
X532321Y84087D01*
X525513Y77279D01*
X515887Y77279D01*
G37*
%LPD*%
%LPC*%
G36*
X287287Y305879D02*
X287287Y305879D01*
X280479Y312687D01*
X280479Y322313D01*
X287287Y329121D01*
X296913Y329121D01*
X303721Y322313D01*
X303721Y312687D01*
X296913Y305879D01*
X287287Y305879D01*
G37*
%LPD*%
%LPC*%
G36*
X312687Y305879D02*
X312687Y305879D01*
X305879Y312687D01*
X305879Y322313D01*
X312687Y329121D01*
X322313Y329121D01*
X329121Y322313D01*
X329121Y312687D01*
X322313Y305879D01*
X312687Y305879D01*
G37*
%LPD*%
%LPC*%
G36*
X338087Y305879D02*
X338087Y305879D01*
X331279Y312687D01*
X331279Y322313D01*
X338087Y329121D01*
X347713Y329121D01*
X354521Y322313D01*
X354521Y312687D01*
X347713Y305879D01*
X338087Y305879D01*
G37*
%LPD*%
%LPC*%
G36*
X363487Y305879D02*
X363487Y305879D01*
X356679Y312687D01*
X356679Y322313D01*
X363487Y329121D01*
X373113Y329121D01*
X379921Y322313D01*
X379921Y312687D01*
X373113Y305879D01*
X363487Y305879D01*
G37*
%LPD*%
%LPC*%
G36*
X465087Y305879D02*
X465087Y305879D01*
X458279Y312687D01*
X458279Y322313D01*
X465087Y329121D01*
X474713Y329121D01*
X481521Y322313D01*
X481521Y312687D01*
X474713Y305879D01*
X465087Y305879D01*
G37*
%LPD*%
%LPC*%
G36*
X515887Y305879D02*
X515887Y305879D01*
X509079Y312687D01*
X509079Y322313D01*
X515887Y329121D01*
X525513Y329121D01*
X532321Y322313D01*
X532321Y312687D01*
X525513Y305879D01*
X515887Y305879D01*
G37*
%LPD*%
%LPC*%
G36*
X439687Y305879D02*
X439687Y305879D01*
X432879Y312687D01*
X432879Y322313D01*
X439687Y329121D01*
X449313Y329121D01*
X456121Y322313D01*
X456121Y312687D01*
X449313Y305879D01*
X439687Y305879D01*
G37*
%LPD*%
%LPC*%
G36*
X490487Y305879D02*
X490487Y305879D01*
X483679Y312687D01*
X483679Y322313D01*
X490487Y329121D01*
X500113Y329121D01*
X506921Y322313D01*
X506921Y312687D01*
X500113Y305879D01*
X490487Y305879D01*
G37*
%LPD*%
%LPC*%
G36*
X149323Y458723D02*
X149323Y458723D01*
X149323Y481511D01*
X150952Y481253D01*
X152968Y480598D01*
X154856Y479636D01*
X156570Y478391D01*
X158069Y476892D01*
X159314Y475178D01*
X160276Y473290D01*
X160931Y471274D01*
X161263Y469182D01*
X161263Y458723D01*
X149323Y458723D01*
G37*
%LPD*%
%LPC*%
G36*
X179323Y410723D02*
X179323Y410723D01*
X179323Y422663D01*
X189782Y422663D01*
X191874Y422331D01*
X193890Y421676D01*
X195778Y420714D01*
X197492Y419469D01*
X198991Y417970D01*
X200236Y416256D01*
X201198Y414368D01*
X201853Y412352D01*
X202111Y410723D01*
X179323Y410723D01*
G37*
%LPD*%
%LPC*%
G36*
X153489Y410723D02*
X153489Y410723D01*
X153747Y412352D01*
X154402Y414368D01*
X155364Y416256D01*
X156609Y417970D01*
X158108Y419469D01*
X159822Y420714D01*
X161710Y421676D01*
X163726Y422331D01*
X165818Y422663D01*
X176277Y422663D01*
X176277Y410723D01*
X153489Y410723D01*
G37*
%LPD*%
%LPC*%
G36*
X149323Y455677D02*
X149323Y455677D01*
X161263Y455677D01*
X161263Y445218D01*
X160931Y443126D01*
X160276Y441110D01*
X159314Y439222D01*
X158069Y437508D01*
X156570Y436009D01*
X154856Y434764D01*
X152968Y433802D01*
X150952Y433147D01*
X149323Y432889D01*
X149323Y455677D01*
G37*
%LPD*%
%LPC*%
G36*
X179323Y395737D02*
X179323Y395737D01*
X179323Y407677D01*
X202111Y407677D01*
X201853Y406048D01*
X201198Y404032D01*
X200236Y402144D01*
X198991Y400430D01*
X197492Y398931D01*
X195778Y397686D01*
X193890Y396724D01*
X191874Y396069D01*
X189782Y395737D01*
X179323Y395737D01*
G37*
%LPD*%
%LPC*%
G36*
X134337Y458723D02*
X134337Y458723D01*
X134337Y469182D01*
X134669Y471274D01*
X135324Y473290D01*
X136286Y475178D01*
X137531Y476892D01*
X139030Y478391D01*
X140744Y479636D01*
X142632Y480598D01*
X144648Y481253D01*
X146277Y481511D01*
X146277Y458723D01*
X134337Y458723D01*
G37*
%LPD*%
%LPC*%
G36*
X165818Y395737D02*
X165818Y395737D01*
X163726Y396069D01*
X161710Y396724D01*
X159822Y397686D01*
X158108Y398931D01*
X156609Y400430D01*
X155364Y402144D01*
X154402Y404032D01*
X153747Y406048D01*
X153489Y407677D01*
X176277Y407677D01*
X176277Y395737D01*
X165818Y395737D01*
G37*
%LPD*%
%LPC*%
G36*
X144648Y433147D02*
X144648Y433147D01*
X142632Y433802D01*
X140744Y434764D01*
X139030Y436009D01*
X137531Y437508D01*
X136286Y439222D01*
X135324Y441110D01*
X134669Y443126D01*
X134337Y445218D01*
X134337Y455677D01*
X146277Y455677D01*
X146277Y432889D01*
X144648Y433147D01*
G37*
%LPD*%
%LPC*%
G36*
X332358Y433323D02*
X332358Y433323D01*
X332358Y436167D01*
X338533Y442342D01*
X341377Y442342D01*
X341377Y433323D01*
X332358Y433323D01*
G37*
%LPD*%
%LPC*%
G36*
X115315Y710183D02*
X115315Y710183D01*
X115315Y712974D01*
X121416Y719075D01*
X124207Y719075D01*
X124207Y710183D01*
X115315Y710183D01*
G37*
%LPD*%
%LPC*%
G36*
X192023Y319023D02*
X192023Y319023D01*
X192023Y326581D01*
X197374Y326581D01*
X198021Y326408D01*
X198600Y326073D01*
X199073Y325600D01*
X199408Y325021D01*
X199581Y324374D01*
X199581Y319023D01*
X192023Y319023D01*
G37*
%LPD*%
%LPC*%
G36*
X181419Y319023D02*
X181419Y319023D01*
X181419Y324374D01*
X181592Y325021D01*
X181927Y325600D01*
X182400Y326073D01*
X182979Y326408D01*
X183626Y326581D01*
X188977Y326581D01*
X188977Y319023D01*
X181419Y319023D01*
G37*
%LPD*%
%LPC*%
G36*
X192023Y308419D02*
X192023Y308419D01*
X192023Y315977D01*
X199581Y315977D01*
X199581Y310626D01*
X199408Y309979D01*
X199073Y309400D01*
X198600Y308927D01*
X198021Y308592D01*
X197374Y308419D01*
X192023Y308419D01*
G37*
%LPD*%
%LPC*%
G36*
X183626Y308419D02*
X183626Y308419D01*
X182979Y308592D01*
X182400Y308927D01*
X181927Y309400D01*
X181592Y309979D01*
X181419Y310626D01*
X181419Y315977D01*
X188977Y315977D01*
X188977Y308419D01*
X183626Y308419D01*
G37*
%LPD*%
%LPC*%
G36*
X357123Y852423D02*
X357123Y852423D01*
X357123Y860865D01*
X357961Y860733D01*
X359470Y860242D01*
X360883Y859522D01*
X362167Y858589D01*
X363289Y857467D01*
X364222Y856183D01*
X364942Y854770D01*
X365433Y853261D01*
X365565Y852423D01*
X357123Y852423D01*
G37*
%LPD*%
%LPC*%
G36*
X509523Y852423D02*
X509523Y852423D01*
X509523Y860865D01*
X510361Y860733D01*
X511870Y860242D01*
X513283Y859522D01*
X514567Y858589D01*
X515689Y857467D01*
X516622Y856183D01*
X517342Y854770D01*
X517833Y853261D01*
X517965Y852423D01*
X509523Y852423D01*
G37*
%LPD*%
%LPC*%
G36*
X345635Y852423D02*
X345635Y852423D01*
X345767Y853261D01*
X346258Y854770D01*
X346978Y856183D01*
X347911Y857467D01*
X349033Y858589D01*
X350317Y859522D01*
X351730Y860242D01*
X353239Y860733D01*
X354077Y860865D01*
X354077Y852423D01*
X345635Y852423D01*
G37*
%LPD*%
%LPC*%
G36*
X357123Y849377D02*
X357123Y849377D01*
X365565Y849377D01*
X365433Y848539D01*
X364942Y847030D01*
X364222Y845617D01*
X363289Y844333D01*
X362167Y843211D01*
X360883Y842278D01*
X359470Y841558D01*
X357961Y841067D01*
X357123Y840935D01*
X357123Y849377D01*
G37*
%LPD*%
%LPC*%
G36*
X509523Y849377D02*
X509523Y849377D01*
X517965Y849377D01*
X517833Y848539D01*
X517342Y847030D01*
X516622Y845617D01*
X515689Y844333D01*
X514567Y843211D01*
X513283Y842278D01*
X511870Y841558D01*
X510361Y841067D01*
X509523Y840935D01*
X509523Y849377D01*
G37*
%LPD*%
%LPC*%
G36*
X498035Y852423D02*
X498035Y852423D01*
X498167Y853261D01*
X498658Y854770D01*
X499378Y856183D01*
X500311Y857467D01*
X501433Y858589D01*
X502717Y859522D01*
X504130Y860242D01*
X505639Y860733D01*
X506477Y860865D01*
X506477Y852423D01*
X498035Y852423D01*
G37*
%LPD*%
%LPC*%
G36*
X638989Y587067D02*
X638989Y587067D01*
X637480Y587558D01*
X636067Y588278D01*
X634783Y589211D01*
X633661Y590333D01*
X632728Y591617D01*
X632008Y593030D01*
X631517Y594539D01*
X631385Y595377D01*
X639827Y595377D01*
X639827Y586935D01*
X638989Y587067D01*
G37*
%LPD*%
%LPC*%
G36*
X505639Y841067D02*
X505639Y841067D01*
X504130Y841558D01*
X502717Y842278D01*
X501433Y843211D01*
X500311Y844333D01*
X499378Y845617D01*
X498658Y847030D01*
X498167Y848539D01*
X498035Y849377D01*
X506477Y849377D01*
X506477Y840935D01*
X505639Y841067D01*
G37*
%LPD*%
%LPC*%
G36*
X353239Y841067D02*
X353239Y841067D01*
X351730Y841558D01*
X350317Y842278D01*
X349033Y843211D01*
X347911Y844333D01*
X346978Y845617D01*
X346258Y847030D01*
X345767Y848539D01*
X345635Y849377D01*
X354077Y849377D01*
X354077Y840935D01*
X353239Y841067D01*
G37*
%LPD*%
%LPC*%
G36*
X177799Y409199D02*
X177799Y409199D01*
X177799Y409201D01*
X177801Y409201D01*
X177801Y409199D01*
X177799Y409199D01*
G37*
%LPD*%
%LPC*%
G36*
X147799Y457199D02*
X147799Y457199D01*
X147799Y457201D01*
X147801Y457201D01*
X147801Y457199D01*
X147799Y457199D01*
G37*
%LPD*%
%LPC*%
G36*
X507999Y850899D02*
X507999Y850899D01*
X507999Y850901D01*
X508001Y850901D01*
X508001Y850899D01*
X507999Y850899D01*
G37*
%LPD*%
%LPC*%
G36*
X190499Y317499D02*
X190499Y317499D01*
X190499Y317501D01*
X190501Y317501D01*
X190501Y317499D01*
X190499Y317499D01*
G37*
%LPD*%
%LPC*%
G36*
X355599Y850899D02*
X355599Y850899D01*
X355599Y850901D01*
X355601Y850901D01*
X355601Y850899D01*
X355599Y850899D01*
G37*
%LPD*%
D10*
X468884Y940816D02*
X468884Y956564D01*
X464510Y956564D01*
X464379Y956562D01*
X464248Y956556D01*
X464118Y956546D01*
X463988Y956533D01*
X463858Y956515D01*
X463729Y956494D01*
X463601Y956468D01*
X463473Y956439D01*
X463346Y956406D01*
X463221Y956370D01*
X463096Y956329D01*
X462973Y956285D01*
X462851Y956237D01*
X462731Y956186D01*
X462612Y956131D01*
X462495Y956072D01*
X462380Y956010D01*
X462267Y955945D01*
X462155Y955876D01*
X462046Y955804D01*
X461939Y955729D01*
X461834Y955650D01*
X461732Y955569D01*
X461632Y955484D01*
X461535Y955396D01*
X461440Y955306D01*
X461348Y955213D01*
X461259Y955117D01*
X461173Y955018D01*
X461090Y954917D01*
X461010Y954814D01*
X460933Y954708D01*
X460860Y954600D01*
X460789Y954489D01*
X460722Y954377D01*
X460658Y954263D01*
X460598Y954147D01*
X460541Y954029D01*
X460488Y953909D01*
X460438Y953788D01*
X460392Y953665D01*
X460350Y953542D01*
X460312Y953417D01*
X460277Y953290D01*
X460246Y953163D01*
X460218Y953035D01*
X460195Y952907D01*
X460176Y952777D01*
X460160Y952647D01*
X460148Y952517D01*
X460140Y952386D01*
X460136Y952255D01*
X460136Y952125D01*
X460140Y951994D01*
X460148Y951863D01*
X460160Y951733D01*
X460176Y951603D01*
X460195Y951473D01*
X460218Y951345D01*
X460246Y951217D01*
X460277Y951090D01*
X460312Y950963D01*
X460350Y950838D01*
X460392Y950715D01*
X460438Y950592D01*
X460488Y950471D01*
X460541Y950351D01*
X460598Y950233D01*
X460658Y950117D01*
X460722Y950003D01*
X460789Y949891D01*
X460860Y949780D01*
X460933Y949672D01*
X461010Y949566D01*
X461090Y949463D01*
X461173Y949362D01*
X461259Y949263D01*
X461348Y949167D01*
X461440Y949074D01*
X461535Y948984D01*
X461632Y948896D01*
X461732Y948811D01*
X461834Y948730D01*
X461939Y948651D01*
X462046Y948576D01*
X462155Y948504D01*
X462267Y948435D01*
X462380Y948370D01*
X462495Y948308D01*
X462612Y948249D01*
X462731Y948194D01*
X462851Y948143D01*
X462973Y948095D01*
X463096Y948051D01*
X463221Y948010D01*
X463346Y947974D01*
X463473Y947941D01*
X463601Y947912D01*
X463729Y947886D01*
X463858Y947865D01*
X463988Y947847D01*
X464118Y947834D01*
X464248Y947824D01*
X464379Y947818D01*
X464510Y947816D01*
X464510Y947815D02*
X468884Y947815D01*
X453471Y940816D02*
X453471Y956564D01*
X453471Y940816D02*
X446472Y940816D01*
X433835Y949565D02*
X431211Y949565D01*
X431211Y940816D01*
X436460Y940816D01*
X436577Y940818D01*
X436694Y940824D01*
X436810Y940834D01*
X436927Y940847D01*
X437042Y940865D01*
X437157Y940886D01*
X437271Y940911D01*
X437385Y940940D01*
X437497Y940973D01*
X437608Y941010D01*
X437718Y941050D01*
X437826Y941094D01*
X437933Y941141D01*
X438039Y941192D01*
X438142Y941247D01*
X438244Y941305D01*
X438343Y941366D01*
X438441Y941430D01*
X438536Y941498D01*
X438629Y941569D01*
X438720Y941643D01*
X438808Y941720D01*
X438893Y941800D01*
X438976Y941883D01*
X439056Y941968D01*
X439133Y942056D01*
X439207Y942147D01*
X439278Y942240D01*
X439346Y942335D01*
X439410Y942433D01*
X439471Y942532D01*
X439529Y942634D01*
X439584Y942737D01*
X439635Y942843D01*
X439682Y942950D01*
X439726Y943058D01*
X439766Y943168D01*
X439803Y943279D01*
X439836Y943391D01*
X439865Y943505D01*
X439890Y943619D01*
X439911Y943734D01*
X439929Y943850D01*
X439942Y943966D01*
X439952Y944082D01*
X439958Y944199D01*
X439960Y944316D01*
X439960Y953064D01*
X439958Y953181D01*
X439952Y953298D01*
X439942Y953414D01*
X439929Y953530D01*
X439911Y953646D01*
X439890Y953761D01*
X439865Y953875D01*
X439836Y953989D01*
X439803Y954101D01*
X439766Y954212D01*
X439726Y954322D01*
X439682Y954430D01*
X439635Y954537D01*
X439584Y954643D01*
X439529Y954746D01*
X439471Y954848D01*
X439410Y954947D01*
X439346Y955045D01*
X439278Y955140D01*
X439207Y955233D01*
X439133Y955324D01*
X439056Y955412D01*
X438976Y955497D01*
X438893Y955580D01*
X438808Y955660D01*
X438720Y955737D01*
X438629Y955811D01*
X438536Y955882D01*
X438441Y955950D01*
X438343Y956014D01*
X438244Y956075D01*
X438142Y956133D01*
X438039Y956188D01*
X437933Y956239D01*
X437826Y956286D01*
X437718Y956330D01*
X437608Y956370D01*
X437497Y956407D01*
X437385Y956440D01*
X437271Y956469D01*
X437157Y956494D01*
X437042Y956515D01*
X436927Y956533D01*
X436810Y956546D01*
X436694Y956556D01*
X436577Y956562D01*
X436460Y956564D01*
X431211Y956564D01*
X415303Y946940D02*
X404805Y946940D01*
X388644Y940816D02*
X388644Y956564D01*
X384269Y956564D01*
X384138Y956562D01*
X384007Y956556D01*
X383877Y956546D01*
X383747Y956533D01*
X383617Y956515D01*
X383488Y956494D01*
X383360Y956468D01*
X383232Y956439D01*
X383105Y956406D01*
X382980Y956370D01*
X382855Y956329D01*
X382732Y956285D01*
X382610Y956237D01*
X382490Y956186D01*
X382371Y956131D01*
X382254Y956072D01*
X382139Y956010D01*
X382026Y955945D01*
X381914Y955876D01*
X381805Y955804D01*
X381698Y955729D01*
X381593Y955650D01*
X381491Y955569D01*
X381391Y955484D01*
X381294Y955396D01*
X381199Y955306D01*
X381107Y955213D01*
X381018Y955117D01*
X380932Y955018D01*
X380849Y954917D01*
X380769Y954814D01*
X380692Y954708D01*
X380619Y954600D01*
X380548Y954489D01*
X380481Y954377D01*
X380417Y954263D01*
X380357Y954147D01*
X380300Y954029D01*
X380247Y953909D01*
X380197Y953788D01*
X380151Y953665D01*
X380109Y953542D01*
X380071Y953417D01*
X380036Y953290D01*
X380005Y953163D01*
X379977Y953035D01*
X379954Y952907D01*
X379935Y952777D01*
X379919Y952647D01*
X379907Y952517D01*
X379899Y952386D01*
X379895Y952255D01*
X379895Y952125D01*
X379899Y951994D01*
X379907Y951863D01*
X379919Y951733D01*
X379935Y951603D01*
X379954Y951473D01*
X379977Y951345D01*
X380005Y951217D01*
X380036Y951090D01*
X380071Y950963D01*
X380109Y950838D01*
X380151Y950715D01*
X380197Y950592D01*
X380247Y950471D01*
X380300Y950351D01*
X380357Y950233D01*
X380417Y950117D01*
X380481Y950003D01*
X380548Y949891D01*
X380619Y949780D01*
X380692Y949672D01*
X380769Y949566D01*
X380849Y949463D01*
X380932Y949362D01*
X381018Y949263D01*
X381107Y949167D01*
X381199Y949074D01*
X381294Y948984D01*
X381391Y948896D01*
X381491Y948811D01*
X381593Y948730D01*
X381698Y948651D01*
X381805Y948576D01*
X381914Y948504D01*
X382026Y948435D01*
X382139Y948370D01*
X382254Y948308D01*
X382371Y948249D01*
X382490Y948194D01*
X382610Y948143D01*
X382732Y948095D01*
X382855Y948051D01*
X382980Y948010D01*
X383105Y947974D01*
X383232Y947941D01*
X383360Y947912D01*
X383488Y947886D01*
X383617Y947865D01*
X383747Y947847D01*
X383877Y947834D01*
X384007Y947824D01*
X384138Y947818D01*
X384269Y947816D01*
X384269Y947815D02*
X388644Y947815D01*
X373775Y943441D02*
X373775Y956564D01*
X373776Y943441D02*
X373774Y943340D01*
X373768Y943240D01*
X373759Y943140D01*
X373745Y943040D01*
X373728Y942941D01*
X373707Y942843D01*
X373682Y942745D01*
X373654Y942649D01*
X373621Y942554D01*
X373586Y942460D01*
X373546Y942367D01*
X373503Y942276D01*
X373457Y942187D01*
X373407Y942100D01*
X373354Y942014D01*
X373298Y941931D01*
X373239Y941850D01*
X373176Y941771D01*
X373111Y941695D01*
X373042Y941621D01*
X372971Y941550D01*
X372897Y941481D01*
X372821Y941416D01*
X372742Y941353D01*
X372661Y941294D01*
X372578Y941238D01*
X372492Y941185D01*
X372405Y941135D01*
X372316Y941089D01*
X372225Y941046D01*
X372132Y941006D01*
X372038Y940971D01*
X371943Y940938D01*
X371847Y940910D01*
X371749Y940885D01*
X371651Y940864D01*
X371552Y940847D01*
X371452Y940833D01*
X371352Y940824D01*
X371252Y940818D01*
X371151Y940816D01*
X362644Y946940D02*
X358707Y946940D01*
X362644Y946940D02*
X362753Y946938D01*
X362862Y946932D01*
X362971Y946922D01*
X363080Y946909D01*
X363188Y946891D01*
X363295Y946870D01*
X363401Y946845D01*
X363507Y946816D01*
X363611Y946783D01*
X363714Y946747D01*
X363816Y946707D01*
X363916Y946663D01*
X364015Y946616D01*
X364111Y946565D01*
X364206Y946511D01*
X364299Y946454D01*
X364390Y946393D01*
X364479Y946329D01*
X364565Y946262D01*
X364649Y946192D01*
X364731Y946119D01*
X364809Y946043D01*
X364885Y945965D01*
X364958Y945883D01*
X365028Y945799D01*
X365095Y945713D01*
X365159Y945624D01*
X365220Y945533D01*
X365277Y945440D01*
X365331Y945345D01*
X365382Y945249D01*
X365429Y945150D01*
X365473Y945050D01*
X365513Y944948D01*
X365549Y944845D01*
X365582Y944741D01*
X365611Y944635D01*
X365636Y944529D01*
X365657Y944422D01*
X365675Y944314D01*
X365688Y944205D01*
X365698Y944096D01*
X365704Y943987D01*
X365706Y943878D01*
X365704Y943769D01*
X365698Y943660D01*
X365688Y943551D01*
X365675Y943442D01*
X365657Y943334D01*
X365636Y943227D01*
X365611Y943121D01*
X365582Y943015D01*
X365549Y942911D01*
X365513Y942808D01*
X365473Y942706D01*
X365429Y942606D01*
X365382Y942507D01*
X365331Y942411D01*
X365277Y942316D01*
X365220Y942223D01*
X365159Y942132D01*
X365095Y942043D01*
X365028Y941957D01*
X364958Y941873D01*
X364885Y941791D01*
X364809Y941713D01*
X364731Y941637D01*
X364649Y941564D01*
X364565Y941494D01*
X364479Y941427D01*
X364390Y941363D01*
X364299Y941302D01*
X364206Y941245D01*
X364111Y941191D01*
X364015Y941140D01*
X363916Y941093D01*
X363816Y941049D01*
X363714Y941009D01*
X363611Y940973D01*
X363507Y940940D01*
X363401Y940911D01*
X363295Y940886D01*
X363188Y940865D01*
X363080Y940847D01*
X362971Y940834D01*
X362862Y940824D01*
X362753Y940818D01*
X362644Y940816D01*
X358707Y940816D01*
X358707Y948690D01*
X358706Y948690D02*
X358708Y948791D01*
X358714Y948891D01*
X358723Y948991D01*
X358737Y949091D01*
X358754Y949190D01*
X358775Y949288D01*
X358800Y949386D01*
X358828Y949482D01*
X358861Y949577D01*
X358896Y949671D01*
X358936Y949764D01*
X358979Y949855D01*
X359025Y949944D01*
X359075Y950031D01*
X359128Y950117D01*
X359184Y950200D01*
X359243Y950281D01*
X359306Y950360D01*
X359371Y950436D01*
X359440Y950510D01*
X359511Y950581D01*
X359585Y950650D01*
X359661Y950715D01*
X359740Y950778D01*
X359821Y950837D01*
X359904Y950893D01*
X359990Y950946D01*
X360077Y950996D01*
X360166Y951042D01*
X360257Y951085D01*
X360350Y951125D01*
X360444Y951161D01*
X360539Y951193D01*
X360635Y951221D01*
X360733Y951246D01*
X360831Y951267D01*
X360930Y951284D01*
X361030Y951298D01*
X361130Y951307D01*
X361230Y951313D01*
X361331Y951315D01*
X361332Y951315D02*
X364831Y951315D01*
X348904Y940816D02*
X345404Y940816D01*
X348904Y940816D02*
X349005Y940818D01*
X349105Y940824D01*
X349205Y940833D01*
X349305Y940847D01*
X349404Y940864D01*
X349502Y940885D01*
X349600Y940910D01*
X349696Y940938D01*
X349791Y940971D01*
X349885Y941006D01*
X349978Y941046D01*
X350069Y941089D01*
X350158Y941135D01*
X350245Y941185D01*
X350331Y941238D01*
X350414Y941294D01*
X350495Y941353D01*
X350574Y941416D01*
X350650Y941481D01*
X350724Y941550D01*
X350795Y941621D01*
X350864Y941695D01*
X350929Y941771D01*
X350992Y941850D01*
X351051Y941931D01*
X351107Y942014D01*
X351160Y942100D01*
X351210Y942187D01*
X351256Y942276D01*
X351299Y942367D01*
X351339Y942460D01*
X351375Y942554D01*
X351407Y942649D01*
X351435Y942745D01*
X351460Y942843D01*
X351481Y942941D01*
X351498Y943040D01*
X351512Y943140D01*
X351521Y943240D01*
X351527Y943340D01*
X351529Y943441D01*
X351529Y948690D01*
X351527Y948791D01*
X351521Y948891D01*
X351512Y948991D01*
X351498Y949091D01*
X351481Y949190D01*
X351460Y949288D01*
X351435Y949386D01*
X351407Y949482D01*
X351374Y949577D01*
X351339Y949671D01*
X351299Y949764D01*
X351256Y949855D01*
X351210Y949944D01*
X351160Y950031D01*
X351107Y950117D01*
X351051Y950200D01*
X350992Y950281D01*
X350929Y950360D01*
X350864Y950436D01*
X350795Y950510D01*
X350724Y950581D01*
X350650Y950650D01*
X350574Y950715D01*
X350495Y950778D01*
X350414Y950837D01*
X350331Y950893D01*
X350245Y950946D01*
X350158Y950996D01*
X350069Y951042D01*
X349978Y951085D01*
X349885Y951125D01*
X349791Y951160D01*
X349696Y951193D01*
X349600Y951221D01*
X349502Y951246D01*
X349404Y951267D01*
X349305Y951284D01*
X349205Y951298D01*
X349105Y951307D01*
X349005Y951313D01*
X348904Y951315D01*
X345404Y951315D01*
X336592Y946940D02*
X332655Y946940D01*
X336592Y946940D02*
X336701Y946938D01*
X336810Y946932D01*
X336919Y946922D01*
X337028Y946909D01*
X337136Y946891D01*
X337243Y946870D01*
X337349Y946845D01*
X337455Y946816D01*
X337559Y946783D01*
X337662Y946747D01*
X337764Y946707D01*
X337864Y946663D01*
X337963Y946616D01*
X338059Y946565D01*
X338154Y946511D01*
X338247Y946454D01*
X338338Y946393D01*
X338427Y946329D01*
X338513Y946262D01*
X338597Y946192D01*
X338679Y946119D01*
X338757Y946043D01*
X338833Y945965D01*
X338906Y945883D01*
X338976Y945799D01*
X339043Y945713D01*
X339107Y945624D01*
X339168Y945533D01*
X339225Y945440D01*
X339279Y945345D01*
X339330Y945249D01*
X339377Y945150D01*
X339421Y945050D01*
X339461Y944948D01*
X339497Y944845D01*
X339530Y944741D01*
X339559Y944635D01*
X339584Y944529D01*
X339605Y944422D01*
X339623Y944314D01*
X339636Y944205D01*
X339646Y944096D01*
X339652Y943987D01*
X339654Y943878D01*
X339652Y943769D01*
X339646Y943660D01*
X339636Y943551D01*
X339623Y943442D01*
X339605Y943334D01*
X339584Y943227D01*
X339559Y943121D01*
X339530Y943015D01*
X339497Y942911D01*
X339461Y942808D01*
X339421Y942706D01*
X339377Y942606D01*
X339330Y942507D01*
X339279Y942411D01*
X339225Y942316D01*
X339168Y942223D01*
X339107Y942132D01*
X339043Y942043D01*
X338976Y941957D01*
X338906Y941873D01*
X338833Y941791D01*
X338757Y941713D01*
X338679Y941637D01*
X338597Y941564D01*
X338513Y941494D01*
X338427Y941427D01*
X338338Y941363D01*
X338247Y941302D01*
X338154Y941245D01*
X338059Y941191D01*
X337963Y941140D01*
X337864Y941093D01*
X337764Y941049D01*
X337662Y941009D01*
X337559Y940973D01*
X337455Y940940D01*
X337349Y940911D01*
X337243Y940886D01*
X337136Y940865D01*
X337028Y940847D01*
X336919Y940834D01*
X336810Y940824D01*
X336701Y940818D01*
X336592Y940816D01*
X332655Y940816D01*
X332655Y948690D01*
X332654Y948690D02*
X332656Y948791D01*
X332662Y948891D01*
X332671Y948991D01*
X332685Y949091D01*
X332702Y949190D01*
X332723Y949288D01*
X332748Y949386D01*
X332776Y949482D01*
X332809Y949577D01*
X332844Y949671D01*
X332884Y949764D01*
X332927Y949855D01*
X332973Y949944D01*
X333023Y950031D01*
X333076Y950117D01*
X333132Y950200D01*
X333191Y950281D01*
X333254Y950360D01*
X333319Y950436D01*
X333388Y950510D01*
X333459Y950581D01*
X333533Y950650D01*
X333609Y950715D01*
X333688Y950778D01*
X333769Y950837D01*
X333852Y950893D01*
X333938Y950946D01*
X334025Y950996D01*
X334114Y951042D01*
X334205Y951085D01*
X334298Y951125D01*
X334392Y951161D01*
X334487Y951193D01*
X334583Y951221D01*
X334681Y951246D01*
X334779Y951267D01*
X334878Y951284D01*
X334978Y951298D01*
X335078Y951307D01*
X335178Y951313D01*
X335279Y951315D01*
X338779Y951315D01*
X313542Y940816D02*
X310042Y940816D01*
X313542Y940816D02*
X313659Y940818D01*
X313776Y940824D01*
X313892Y940834D01*
X314009Y940847D01*
X314124Y940865D01*
X314239Y940886D01*
X314353Y940911D01*
X314467Y940940D01*
X314579Y940973D01*
X314690Y941010D01*
X314800Y941050D01*
X314908Y941094D01*
X315015Y941141D01*
X315121Y941192D01*
X315224Y941247D01*
X315326Y941305D01*
X315425Y941366D01*
X315523Y941430D01*
X315618Y941498D01*
X315711Y941569D01*
X315802Y941643D01*
X315890Y941720D01*
X315975Y941800D01*
X316058Y941883D01*
X316138Y941968D01*
X316215Y942056D01*
X316289Y942147D01*
X316360Y942240D01*
X316428Y942335D01*
X316492Y942433D01*
X316553Y942532D01*
X316611Y942634D01*
X316666Y942737D01*
X316717Y942843D01*
X316764Y942950D01*
X316808Y943058D01*
X316848Y943168D01*
X316885Y943279D01*
X316918Y943391D01*
X316947Y943505D01*
X316972Y943619D01*
X316993Y943734D01*
X317011Y943850D01*
X317024Y943966D01*
X317034Y944082D01*
X317040Y944199D01*
X317042Y944316D01*
X317041Y944316D02*
X317041Y953064D01*
X317042Y953064D02*
X317040Y953181D01*
X317034Y953298D01*
X317024Y953414D01*
X317011Y953530D01*
X316993Y953646D01*
X316972Y953761D01*
X316947Y953875D01*
X316918Y953989D01*
X316885Y954101D01*
X316848Y954212D01*
X316808Y954322D01*
X316764Y954430D01*
X316717Y954537D01*
X316666Y954643D01*
X316611Y954746D01*
X316553Y954848D01*
X316492Y954947D01*
X316428Y955045D01*
X316360Y955140D01*
X316289Y955233D01*
X316215Y955324D01*
X316138Y955412D01*
X316058Y955497D01*
X315975Y955580D01*
X315890Y955660D01*
X315802Y955737D01*
X315711Y955811D01*
X315618Y955882D01*
X315523Y955950D01*
X315425Y956014D01*
X315326Y956075D01*
X315224Y956133D01*
X315121Y956188D01*
X315015Y956239D01*
X314908Y956286D01*
X314800Y956330D01*
X314690Y956370D01*
X314579Y956407D01*
X314467Y956440D01*
X314353Y956469D01*
X314239Y956494D01*
X314124Y956515D01*
X314009Y956533D01*
X313892Y956546D01*
X313776Y956556D01*
X313659Y956562D01*
X313542Y956564D01*
X310042Y956564D01*
X304135Y947815D02*
X304135Y944316D01*
X304135Y947815D02*
X304133Y947933D01*
X304127Y948051D01*
X304117Y948169D01*
X304103Y948286D01*
X304085Y948403D01*
X304063Y948520D01*
X304038Y948635D01*
X304008Y948749D01*
X303974Y948863D01*
X303937Y948975D01*
X303896Y949086D01*
X303851Y949195D01*
X303803Y949303D01*
X303751Y949409D01*
X303695Y949514D01*
X303636Y949616D01*
X303574Y949716D01*
X303508Y949814D01*
X303439Y949910D01*
X303366Y950004D01*
X303291Y950095D01*
X303212Y950183D01*
X303131Y950269D01*
X303046Y950352D01*
X302959Y950432D01*
X302870Y950509D01*
X302777Y950583D01*
X302683Y950653D01*
X302586Y950721D01*
X302486Y950785D01*
X302385Y950846D01*
X302282Y950903D01*
X302176Y950957D01*
X302069Y951008D01*
X301961Y951054D01*
X301851Y951097D01*
X301739Y951136D01*
X301626Y951172D01*
X301512Y951203D01*
X301397Y951231D01*
X301282Y951255D01*
X301165Y951275D01*
X301048Y951291D01*
X300930Y951303D01*
X300812Y951311D01*
X300694Y951315D01*
X300576Y951315D01*
X300458Y951311D01*
X300340Y951303D01*
X300222Y951291D01*
X300105Y951275D01*
X299988Y951255D01*
X299873Y951231D01*
X299758Y951203D01*
X299644Y951172D01*
X299531Y951136D01*
X299419Y951097D01*
X299309Y951054D01*
X299201Y951008D01*
X299094Y950957D01*
X298988Y950903D01*
X298885Y950846D01*
X298784Y950785D01*
X298684Y950721D01*
X298587Y950653D01*
X298493Y950583D01*
X298400Y950509D01*
X298311Y950432D01*
X298224Y950352D01*
X298139Y950269D01*
X298058Y950183D01*
X297979Y950095D01*
X297904Y950004D01*
X297831Y949910D01*
X297762Y949814D01*
X297696Y949716D01*
X297634Y949616D01*
X297575Y949514D01*
X297519Y949409D01*
X297467Y949303D01*
X297419Y949195D01*
X297374Y949086D01*
X297333Y948975D01*
X297296Y948863D01*
X297262Y948749D01*
X297232Y948635D01*
X297207Y948520D01*
X297185Y948403D01*
X297167Y948286D01*
X297153Y948169D01*
X297143Y948051D01*
X297137Y947933D01*
X297135Y947815D01*
X297136Y947815D02*
X297136Y944316D01*
X297135Y944316D02*
X297137Y944198D01*
X297143Y944080D01*
X297153Y943962D01*
X297167Y943845D01*
X297185Y943728D01*
X297207Y943611D01*
X297232Y943496D01*
X297262Y943382D01*
X297296Y943268D01*
X297333Y943156D01*
X297374Y943045D01*
X297419Y942936D01*
X297467Y942828D01*
X297519Y942722D01*
X297575Y942617D01*
X297634Y942515D01*
X297696Y942415D01*
X297762Y942317D01*
X297831Y942221D01*
X297904Y942127D01*
X297979Y942036D01*
X298058Y941948D01*
X298139Y941862D01*
X298224Y941779D01*
X298311Y941699D01*
X298400Y941622D01*
X298493Y941548D01*
X298587Y941478D01*
X298684Y941410D01*
X298784Y941346D01*
X298885Y941285D01*
X298988Y941228D01*
X299094Y941174D01*
X299201Y941123D01*
X299309Y941077D01*
X299419Y941034D01*
X299531Y940995D01*
X299644Y940959D01*
X299758Y940928D01*
X299873Y940900D01*
X299988Y940876D01*
X300105Y940856D01*
X300222Y940840D01*
X300340Y940828D01*
X300458Y940820D01*
X300576Y940816D01*
X300694Y940816D01*
X300812Y940820D01*
X300930Y940828D01*
X301048Y940840D01*
X301165Y940856D01*
X301282Y940876D01*
X301397Y940900D01*
X301512Y940928D01*
X301626Y940959D01*
X301739Y940995D01*
X301851Y941034D01*
X301961Y941077D01*
X302069Y941123D01*
X302176Y941174D01*
X302282Y941228D01*
X302385Y941285D01*
X302486Y941346D01*
X302586Y941410D01*
X302683Y941478D01*
X302777Y941548D01*
X302870Y941622D01*
X302959Y941699D01*
X303046Y941779D01*
X303131Y941862D01*
X303212Y941948D01*
X303291Y942036D01*
X303366Y942127D01*
X303439Y942221D01*
X303508Y942317D01*
X303574Y942415D01*
X303636Y942515D01*
X303695Y942617D01*
X303751Y942722D01*
X303803Y942828D01*
X303851Y942936D01*
X303896Y943045D01*
X303937Y943156D01*
X303974Y943268D01*
X304008Y943382D01*
X304038Y943496D01*
X304063Y943611D01*
X304085Y943728D01*
X304103Y943845D01*
X304117Y943962D01*
X304127Y944080D01*
X304133Y944198D01*
X304135Y944316D01*
X290067Y940816D02*
X290067Y951315D01*
X285692Y951315D01*
X285591Y951313D01*
X285491Y951307D01*
X285391Y951298D01*
X285291Y951284D01*
X285192Y951267D01*
X285094Y951246D01*
X284996Y951221D01*
X284900Y951193D01*
X284805Y951160D01*
X284711Y951125D01*
X284618Y951085D01*
X284527Y951042D01*
X284438Y950996D01*
X284351Y950946D01*
X284265Y950893D01*
X284182Y950837D01*
X284101Y950778D01*
X284022Y950715D01*
X283946Y950650D01*
X283872Y950581D01*
X283801Y950510D01*
X283732Y950436D01*
X283667Y950360D01*
X283604Y950281D01*
X283545Y950200D01*
X283489Y950117D01*
X283436Y950031D01*
X283386Y949944D01*
X283340Y949855D01*
X283297Y949764D01*
X283257Y949671D01*
X283222Y949577D01*
X283189Y949482D01*
X283161Y949386D01*
X283136Y949288D01*
X283115Y949190D01*
X283098Y949091D01*
X283084Y948991D01*
X283075Y948891D01*
X283069Y948791D01*
X283067Y948690D01*
X283068Y948690D02*
X283068Y940816D01*
X277348Y951315D02*
X272099Y951315D01*
X275598Y956564D02*
X275598Y943441D01*
X275596Y943340D01*
X275590Y943240D01*
X275581Y943140D01*
X275567Y943040D01*
X275550Y942941D01*
X275529Y942843D01*
X275504Y942745D01*
X275476Y942649D01*
X275443Y942554D01*
X275408Y942460D01*
X275368Y942367D01*
X275325Y942276D01*
X275279Y942187D01*
X275229Y942100D01*
X275176Y942014D01*
X275120Y941931D01*
X275061Y941850D01*
X274998Y941771D01*
X274933Y941695D01*
X274864Y941621D01*
X274793Y941550D01*
X274719Y941481D01*
X274643Y941416D01*
X274564Y941353D01*
X274483Y941294D01*
X274400Y941238D01*
X274314Y941185D01*
X274227Y941135D01*
X274138Y941089D01*
X274047Y941046D01*
X273954Y941006D01*
X273860Y940970D01*
X273765Y940938D01*
X273669Y940910D01*
X273571Y940885D01*
X273473Y940864D01*
X273374Y940847D01*
X273274Y940833D01*
X273174Y940824D01*
X273074Y940818D01*
X272973Y940816D01*
X272099Y940816D01*
X265476Y940816D02*
X265476Y951315D01*
X260227Y951315D01*
X260227Y949565D01*
X255157Y947815D02*
X255157Y944316D01*
X255158Y947815D02*
X255156Y947933D01*
X255150Y948051D01*
X255140Y948169D01*
X255126Y948286D01*
X255108Y948403D01*
X255086Y948520D01*
X255061Y948635D01*
X255031Y948749D01*
X254997Y948863D01*
X254960Y948975D01*
X254919Y949086D01*
X254874Y949195D01*
X254826Y949303D01*
X254774Y949409D01*
X254718Y949514D01*
X254659Y949616D01*
X254597Y949716D01*
X254531Y949814D01*
X254462Y949910D01*
X254389Y950004D01*
X254314Y950095D01*
X254235Y950183D01*
X254154Y950269D01*
X254069Y950352D01*
X253982Y950432D01*
X253893Y950509D01*
X253800Y950583D01*
X253706Y950653D01*
X253609Y950721D01*
X253509Y950785D01*
X253408Y950846D01*
X253305Y950903D01*
X253199Y950957D01*
X253092Y951008D01*
X252984Y951054D01*
X252874Y951097D01*
X252762Y951136D01*
X252649Y951172D01*
X252535Y951203D01*
X252420Y951231D01*
X252305Y951255D01*
X252188Y951275D01*
X252071Y951291D01*
X251953Y951303D01*
X251835Y951311D01*
X251717Y951315D01*
X251599Y951315D01*
X251481Y951311D01*
X251363Y951303D01*
X251245Y951291D01*
X251128Y951275D01*
X251011Y951255D01*
X250896Y951231D01*
X250781Y951203D01*
X250667Y951172D01*
X250554Y951136D01*
X250442Y951097D01*
X250332Y951054D01*
X250224Y951008D01*
X250117Y950957D01*
X250011Y950903D01*
X249908Y950846D01*
X249807Y950785D01*
X249707Y950721D01*
X249610Y950653D01*
X249516Y950583D01*
X249423Y950509D01*
X249334Y950432D01*
X249247Y950352D01*
X249162Y950269D01*
X249081Y950183D01*
X249002Y950095D01*
X248927Y950004D01*
X248854Y949910D01*
X248785Y949814D01*
X248719Y949716D01*
X248657Y949616D01*
X248598Y949514D01*
X248542Y949409D01*
X248490Y949303D01*
X248442Y949195D01*
X248397Y949086D01*
X248356Y948975D01*
X248319Y948863D01*
X248285Y948749D01*
X248255Y948635D01*
X248230Y948520D01*
X248208Y948403D01*
X248190Y948286D01*
X248176Y948169D01*
X248166Y948051D01*
X248160Y947933D01*
X248158Y947815D01*
X248158Y944316D01*
X248160Y944198D01*
X248166Y944080D01*
X248176Y943962D01*
X248190Y943845D01*
X248208Y943728D01*
X248230Y943611D01*
X248255Y943496D01*
X248285Y943382D01*
X248319Y943268D01*
X248356Y943156D01*
X248397Y943045D01*
X248442Y942936D01*
X248490Y942828D01*
X248542Y942722D01*
X248598Y942617D01*
X248657Y942515D01*
X248719Y942415D01*
X248785Y942317D01*
X248854Y942221D01*
X248927Y942127D01*
X249002Y942036D01*
X249081Y941948D01*
X249162Y941862D01*
X249247Y941779D01*
X249334Y941699D01*
X249423Y941622D01*
X249516Y941548D01*
X249610Y941478D01*
X249707Y941410D01*
X249807Y941346D01*
X249908Y941285D01*
X250011Y941228D01*
X250117Y941174D01*
X250224Y941123D01*
X250332Y941077D01*
X250442Y941034D01*
X250554Y940995D01*
X250667Y940959D01*
X250781Y940928D01*
X250896Y940900D01*
X251011Y940876D01*
X251128Y940856D01*
X251245Y940840D01*
X251363Y940828D01*
X251481Y940820D01*
X251599Y940816D01*
X251717Y940816D01*
X251835Y940820D01*
X251953Y940828D01*
X252071Y940840D01*
X252188Y940856D01*
X252305Y940876D01*
X252420Y940900D01*
X252535Y940928D01*
X252649Y940959D01*
X252762Y940995D01*
X252874Y941034D01*
X252984Y941077D01*
X253092Y941123D01*
X253199Y941174D01*
X253305Y941228D01*
X253408Y941285D01*
X253509Y941346D01*
X253609Y941410D01*
X253706Y941478D01*
X253800Y941548D01*
X253893Y941622D01*
X253982Y941699D01*
X254069Y941779D01*
X254154Y941862D01*
X254235Y941948D01*
X254314Y942036D01*
X254389Y942127D01*
X254462Y942221D01*
X254531Y942317D01*
X254597Y942415D01*
X254659Y942515D01*
X254718Y942617D01*
X254774Y942722D01*
X254826Y942828D01*
X254874Y942936D01*
X254919Y943045D01*
X254960Y943156D01*
X254997Y943268D01*
X255031Y943382D01*
X255061Y943496D01*
X255086Y943611D01*
X255108Y943728D01*
X255126Y943845D01*
X255140Y943962D01*
X255150Y944080D01*
X255156Y944198D01*
X255158Y944316D01*
X241431Y943441D02*
X241431Y956564D01*
X241431Y943441D02*
X241429Y943340D01*
X241423Y943240D01*
X241414Y943140D01*
X241400Y943040D01*
X241383Y942941D01*
X241362Y942843D01*
X241337Y942745D01*
X241309Y942649D01*
X241276Y942554D01*
X241241Y942460D01*
X241201Y942367D01*
X241158Y942276D01*
X241112Y942187D01*
X241062Y942100D01*
X241009Y942014D01*
X240953Y941931D01*
X240894Y941850D01*
X240831Y941771D01*
X240766Y941695D01*
X240697Y941621D01*
X240626Y941550D01*
X240552Y941481D01*
X240476Y941416D01*
X240397Y941353D01*
X240316Y941294D01*
X240233Y941238D01*
X240147Y941185D01*
X240060Y941135D01*
X239971Y941089D01*
X239880Y941046D01*
X239787Y941006D01*
X239693Y940971D01*
X239598Y940938D01*
X239502Y940910D01*
X239404Y940885D01*
X239306Y940864D01*
X239207Y940847D01*
X239107Y940833D01*
X239007Y940824D01*
X238907Y940818D01*
X238806Y940816D01*
X230649Y940816D02*
X226274Y940816D01*
X230649Y940816D02*
X230750Y940818D01*
X230850Y940824D01*
X230950Y940833D01*
X231050Y940847D01*
X231149Y940864D01*
X231247Y940885D01*
X231345Y940910D01*
X231441Y940938D01*
X231536Y940971D01*
X231630Y941006D01*
X231723Y941046D01*
X231814Y941089D01*
X231903Y941135D01*
X231990Y941185D01*
X232076Y941238D01*
X232159Y941294D01*
X232240Y941353D01*
X232319Y941416D01*
X232395Y941481D01*
X232469Y941550D01*
X232540Y941621D01*
X232609Y941695D01*
X232674Y941771D01*
X232737Y941850D01*
X232796Y941931D01*
X232852Y942014D01*
X232905Y942100D01*
X232955Y942187D01*
X233001Y942276D01*
X233044Y942367D01*
X233084Y942460D01*
X233120Y942554D01*
X233152Y942649D01*
X233180Y942745D01*
X233205Y942843D01*
X233226Y942941D01*
X233243Y943040D01*
X233257Y943140D01*
X233266Y943240D01*
X233272Y943340D01*
X233274Y943441D01*
X233273Y943441D02*
X233273Y947815D01*
X233274Y947815D02*
X233272Y947933D01*
X233266Y948051D01*
X233256Y948169D01*
X233242Y948286D01*
X233224Y948403D01*
X233202Y948520D01*
X233177Y948635D01*
X233147Y948749D01*
X233113Y948863D01*
X233076Y948975D01*
X233035Y949086D01*
X232990Y949195D01*
X232942Y949303D01*
X232890Y949409D01*
X232834Y949514D01*
X232775Y949616D01*
X232713Y949716D01*
X232647Y949814D01*
X232578Y949910D01*
X232505Y950004D01*
X232430Y950095D01*
X232351Y950183D01*
X232270Y950269D01*
X232185Y950352D01*
X232098Y950432D01*
X232009Y950509D01*
X231916Y950583D01*
X231822Y950653D01*
X231725Y950721D01*
X231625Y950785D01*
X231524Y950846D01*
X231421Y950903D01*
X231315Y950957D01*
X231208Y951008D01*
X231100Y951054D01*
X230990Y951097D01*
X230878Y951136D01*
X230765Y951172D01*
X230651Y951203D01*
X230536Y951231D01*
X230421Y951255D01*
X230304Y951275D01*
X230187Y951291D01*
X230069Y951303D01*
X229951Y951311D01*
X229833Y951315D01*
X229715Y951315D01*
X229597Y951311D01*
X229479Y951303D01*
X229361Y951291D01*
X229244Y951275D01*
X229127Y951255D01*
X229012Y951231D01*
X228897Y951203D01*
X228783Y951172D01*
X228670Y951136D01*
X228558Y951097D01*
X228448Y951054D01*
X228340Y951008D01*
X228233Y950957D01*
X228127Y950903D01*
X228024Y950846D01*
X227923Y950785D01*
X227823Y950721D01*
X227726Y950653D01*
X227632Y950583D01*
X227539Y950509D01*
X227450Y950432D01*
X227363Y950352D01*
X227278Y950269D01*
X227197Y950183D01*
X227118Y950095D01*
X227043Y950004D01*
X226970Y949910D01*
X226901Y949814D01*
X226835Y949716D01*
X226773Y949616D01*
X226714Y949514D01*
X226658Y949409D01*
X226606Y949303D01*
X226558Y949195D01*
X226513Y949086D01*
X226472Y948975D01*
X226435Y948863D01*
X226401Y948749D01*
X226371Y948635D01*
X226346Y948520D01*
X226324Y948403D01*
X226306Y948286D01*
X226292Y948169D01*
X226282Y948051D01*
X226276Y947933D01*
X226274Y947815D01*
X226274Y946065D01*
X233273Y946065D01*
X157960Y378065D02*
X155335Y378065D01*
X155335Y369316D01*
X160584Y369316D01*
X160701Y369318D01*
X160818Y369324D01*
X160934Y369334D01*
X161051Y369347D01*
X161166Y369365D01*
X161281Y369386D01*
X161395Y369411D01*
X161509Y369440D01*
X161621Y369473D01*
X161732Y369510D01*
X161842Y369550D01*
X161950Y369594D01*
X162057Y369641D01*
X162163Y369692D01*
X162266Y369747D01*
X162368Y369805D01*
X162467Y369866D01*
X162565Y369930D01*
X162660Y369998D01*
X162753Y370069D01*
X162844Y370143D01*
X162932Y370220D01*
X163017Y370300D01*
X163100Y370383D01*
X163180Y370468D01*
X163257Y370556D01*
X163331Y370647D01*
X163402Y370740D01*
X163470Y370835D01*
X163534Y370933D01*
X163595Y371032D01*
X163653Y371134D01*
X163708Y371237D01*
X163759Y371343D01*
X163806Y371450D01*
X163850Y371558D01*
X163890Y371668D01*
X163927Y371779D01*
X163960Y371891D01*
X163989Y372005D01*
X164014Y372119D01*
X164035Y372234D01*
X164053Y372350D01*
X164066Y372466D01*
X164076Y372582D01*
X164082Y372699D01*
X164084Y372816D01*
X164084Y381564D01*
X164082Y381681D01*
X164076Y381798D01*
X164066Y381914D01*
X164053Y382030D01*
X164035Y382146D01*
X164014Y382261D01*
X163989Y382375D01*
X163960Y382489D01*
X163927Y382601D01*
X163890Y382712D01*
X163850Y382822D01*
X163806Y382930D01*
X163759Y383037D01*
X163708Y383143D01*
X163653Y383246D01*
X163595Y383348D01*
X163534Y383447D01*
X163470Y383545D01*
X163402Y383640D01*
X163331Y383733D01*
X163257Y383824D01*
X163180Y383912D01*
X163100Y383997D01*
X163017Y384080D01*
X162932Y384160D01*
X162844Y384237D01*
X162753Y384311D01*
X162660Y384382D01*
X162565Y384450D01*
X162467Y384514D01*
X162368Y384575D01*
X162266Y384633D01*
X162163Y384688D01*
X162057Y384739D01*
X161950Y384786D01*
X161842Y384830D01*
X161732Y384870D01*
X161621Y384907D01*
X161509Y384940D01*
X161395Y384969D01*
X161281Y384994D01*
X161166Y385015D01*
X161051Y385033D01*
X160934Y385046D01*
X160818Y385056D01*
X160701Y385062D01*
X160584Y385064D01*
X155335Y385064D01*
X147411Y385064D02*
X147411Y369316D01*
X138662Y369316D02*
X147411Y385064D01*
X138662Y385064D02*
X138662Y369316D01*
X130737Y369316D02*
X130737Y385064D01*
X126363Y385064D01*
X126233Y385062D01*
X126104Y385056D01*
X125975Y385047D01*
X125846Y385033D01*
X125717Y385016D01*
X125589Y384995D01*
X125462Y384970D01*
X125336Y384942D01*
X125210Y384909D01*
X125086Y384873D01*
X124962Y384834D01*
X124840Y384790D01*
X124719Y384743D01*
X124600Y384693D01*
X124482Y384639D01*
X124366Y384581D01*
X124251Y384520D01*
X124139Y384456D01*
X124028Y384389D01*
X123919Y384318D01*
X123813Y384244D01*
X123709Y384167D01*
X123607Y384087D01*
X123508Y384003D01*
X123411Y383917D01*
X123316Y383828D01*
X123225Y383737D01*
X123136Y383642D01*
X123050Y383545D01*
X122966Y383446D01*
X122886Y383344D01*
X122809Y383240D01*
X122735Y383134D01*
X122664Y383025D01*
X122597Y382914D01*
X122533Y382802D01*
X122472Y382687D01*
X122414Y382571D01*
X122360Y382453D01*
X122310Y382334D01*
X122263Y382213D01*
X122219Y382091D01*
X122180Y381967D01*
X122144Y381843D01*
X122111Y381717D01*
X122083Y381591D01*
X122058Y381464D01*
X122037Y381336D01*
X122020Y381207D01*
X122006Y381078D01*
X121997Y380949D01*
X121991Y380820D01*
X121989Y380690D01*
X121989Y373690D01*
X121991Y373560D01*
X121997Y373431D01*
X122006Y373302D01*
X122020Y373173D01*
X122037Y373044D01*
X122058Y372916D01*
X122083Y372789D01*
X122111Y372663D01*
X122144Y372537D01*
X122180Y372413D01*
X122219Y372289D01*
X122263Y372167D01*
X122310Y372046D01*
X122360Y371927D01*
X122414Y371809D01*
X122472Y371693D01*
X122533Y371578D01*
X122597Y371466D01*
X122664Y371355D01*
X122735Y371246D01*
X122809Y371140D01*
X122886Y371036D01*
X122966Y370934D01*
X123050Y370835D01*
X123136Y370738D01*
X123225Y370643D01*
X123316Y370552D01*
X123411Y370463D01*
X123508Y370377D01*
X123607Y370293D01*
X123709Y370213D01*
X123813Y370136D01*
X123919Y370062D01*
X124028Y369991D01*
X124139Y369924D01*
X124251Y369860D01*
X124366Y369799D01*
X124482Y369741D01*
X124600Y369687D01*
X124719Y369637D01*
X124840Y369590D01*
X124962Y369546D01*
X125086Y369507D01*
X125210Y369471D01*
X125336Y369438D01*
X125462Y369410D01*
X125589Y369385D01*
X125717Y369364D01*
X125846Y369347D01*
X125975Y369333D01*
X126104Y369324D01*
X126233Y369318D01*
X126363Y369316D01*
X130737Y369316D01*
X260435Y470916D02*
X265684Y486664D01*
X255185Y486664D02*
X260435Y470916D01*
X246699Y470916D02*
X243200Y470916D01*
X246699Y470916D02*
X246800Y470918D01*
X246900Y470924D01*
X247000Y470933D01*
X247100Y470947D01*
X247199Y470964D01*
X247297Y470985D01*
X247395Y471010D01*
X247491Y471038D01*
X247586Y471071D01*
X247680Y471106D01*
X247773Y471146D01*
X247864Y471189D01*
X247953Y471235D01*
X248040Y471285D01*
X248126Y471338D01*
X248209Y471394D01*
X248290Y471453D01*
X248369Y471516D01*
X248445Y471581D01*
X248519Y471650D01*
X248590Y471721D01*
X248659Y471795D01*
X248724Y471871D01*
X248787Y471950D01*
X248846Y472031D01*
X248902Y472114D01*
X248955Y472200D01*
X249005Y472287D01*
X249051Y472376D01*
X249094Y472467D01*
X249134Y472560D01*
X249170Y472654D01*
X249202Y472749D01*
X249230Y472845D01*
X249255Y472943D01*
X249276Y473041D01*
X249293Y473140D01*
X249307Y473240D01*
X249316Y473340D01*
X249322Y473440D01*
X249324Y473541D01*
X249324Y478790D01*
X249322Y478891D01*
X249316Y478991D01*
X249307Y479091D01*
X249293Y479191D01*
X249276Y479290D01*
X249255Y479388D01*
X249230Y479486D01*
X249202Y479582D01*
X249169Y479677D01*
X249134Y479771D01*
X249094Y479864D01*
X249051Y479955D01*
X249005Y480044D01*
X248955Y480131D01*
X248902Y480217D01*
X248846Y480300D01*
X248787Y480381D01*
X248724Y480460D01*
X248659Y480536D01*
X248590Y480610D01*
X248519Y480681D01*
X248445Y480750D01*
X248369Y480815D01*
X248290Y480878D01*
X248209Y480937D01*
X248126Y480993D01*
X248040Y481046D01*
X247953Y481096D01*
X247864Y481142D01*
X247773Y481185D01*
X247680Y481225D01*
X247586Y481260D01*
X247491Y481293D01*
X247395Y481321D01*
X247297Y481346D01*
X247199Y481367D01*
X247100Y481384D01*
X247000Y481398D01*
X246900Y481407D01*
X246800Y481413D01*
X246699Y481415D01*
X243200Y481415D01*
X234715Y470916D02*
X231216Y470916D01*
X234715Y470916D02*
X234816Y470918D01*
X234916Y470924D01*
X235016Y470933D01*
X235116Y470947D01*
X235215Y470964D01*
X235313Y470985D01*
X235411Y471010D01*
X235507Y471038D01*
X235602Y471071D01*
X235696Y471106D01*
X235789Y471146D01*
X235880Y471189D01*
X235969Y471235D01*
X236056Y471285D01*
X236142Y471338D01*
X236225Y471394D01*
X236306Y471453D01*
X236385Y471516D01*
X236461Y471581D01*
X236535Y471650D01*
X236606Y471721D01*
X236675Y471795D01*
X236740Y471871D01*
X236803Y471950D01*
X236862Y472031D01*
X236918Y472114D01*
X236971Y472200D01*
X237021Y472287D01*
X237067Y472376D01*
X237110Y472467D01*
X237150Y472560D01*
X237186Y472654D01*
X237218Y472749D01*
X237246Y472845D01*
X237271Y472943D01*
X237292Y473041D01*
X237309Y473140D01*
X237323Y473240D01*
X237332Y473340D01*
X237338Y473440D01*
X237340Y473541D01*
X237340Y478790D01*
X237338Y478891D01*
X237332Y478991D01*
X237323Y479091D01*
X237309Y479191D01*
X237292Y479290D01*
X237271Y479388D01*
X237246Y479486D01*
X237218Y479582D01*
X237185Y479677D01*
X237150Y479771D01*
X237110Y479864D01*
X237067Y479955D01*
X237021Y480044D01*
X236971Y480131D01*
X236918Y480217D01*
X236862Y480300D01*
X236803Y480381D01*
X236740Y480460D01*
X236675Y480536D01*
X236606Y480610D01*
X236535Y480681D01*
X236461Y480750D01*
X236385Y480815D01*
X236306Y480878D01*
X236225Y480937D01*
X236142Y480993D01*
X236056Y481046D01*
X235969Y481096D01*
X235880Y481142D01*
X235789Y481185D01*
X235696Y481225D01*
X235602Y481260D01*
X235507Y481293D01*
X235411Y481321D01*
X235313Y481346D01*
X235215Y481367D01*
X235116Y481384D01*
X235016Y481398D01*
X234916Y481407D01*
X234816Y481413D01*
X234715Y481415D01*
X231216Y481415D01*
D11*
X342900Y457200D03*
X342900Y431800D03*
D12*
X125730Y792480D03*
X125730Y764540D03*
X125730Y736600D03*
X125730Y708660D03*
X125730Y680720D03*
X153670Y778510D03*
X153670Y750570D03*
X153670Y722630D03*
X153670Y694690D03*
D13*
X166878Y409200D02*
X188722Y409200D01*
X147800Y446278D02*
X147800Y468122D01*
X207800Y468122D02*
X207800Y446278D01*
D14*
X641350Y571500D03*
D15*
X641350Y596900D03*
X641350Y622300D03*
X641350Y647700D03*
X641350Y673100D03*
D14*
X355600Y825500D03*
D15*
X355600Y850900D03*
D14*
X508000Y825500D03*
D15*
X508000Y850900D03*
D16*
X190500Y88900D03*
D17*
X215900Y88900D03*
X241300Y88900D03*
X266700Y88900D03*
X292100Y88900D03*
X317500Y88900D03*
X342900Y88900D03*
X368300Y88900D03*
X393700Y88900D03*
X419100Y88900D03*
X444500Y88900D03*
X469900Y88900D03*
X495300Y88900D03*
X520700Y88900D03*
X546100Y88900D03*
X571500Y88900D03*
X596900Y88900D03*
X622300Y88900D03*
X622300Y317500D03*
X596900Y317500D03*
X571500Y317500D03*
X546100Y317500D03*
X520700Y317500D03*
X495300Y317500D03*
X469900Y317500D03*
X444500Y317500D03*
X419100Y317500D03*
X393700Y317500D03*
X368300Y317500D03*
X342900Y317500D03*
X317500Y317500D03*
X292100Y317500D03*
X266700Y317500D03*
X241300Y317500D03*
X215900Y317500D03*
D16*
X190500Y317500D03*
D18*
X238125Y708025D02*
X355600Y825500D01*
X238125Y708025D02*
X146050Y708025D01*
X133350Y695325D01*
X120650Y695325D01*
X111125Y685800D01*
X111125Y650875D01*
X152400Y650875D01*
X206375Y596900D01*
X206375Y457200D01*
X207800Y457200D01*
X342900Y457200D01*
X355600Y850900D02*
X508000Y850900D01*
X139700Y723900D02*
X127000Y711200D01*
X139700Y723900D02*
X139700Y736600D01*
X241300Y736600D01*
X355600Y850900D01*
X127000Y711200D02*
X125730Y708660D01*
X190500Y406400D02*
X190500Y317500D01*
X190500Y406400D02*
X177800Y406400D01*
X177800Y409200D01*
X381000Y336550D02*
X641350Y596900D01*
X381000Y336550D02*
X381000Y139700D01*
X298450Y139700D01*
X254000Y95250D01*
X254000Y76200D01*
X209550Y76200D01*
X203200Y82550D01*
X203200Y317500D01*
X190500Y317500D01*
X336550Y425450D02*
X342900Y431800D01*
X336550Y425450D02*
X209550Y425450D01*
X190500Y406400D01*
X177800Y409200D01*
X193675Y412750D02*
X149225Y457200D01*
X147800Y457200D01*
X177800Y409200D02*
X193675Y412750D01*
X120650Y704850D02*
X123825Y708025D01*
X120650Y704850D02*
X117475Y704850D01*
X101600Y688975D01*
X101600Y457200D01*
X147800Y457200D01*
X123825Y708025D02*
X125730Y708660D01*
X241300Y317500D02*
X241300Y88900D01*
X641350Y571500D02*
X654050Y584200D01*
X654050Y609600D01*
X609600Y609600D01*
X534988Y684213D02*
X508000Y711200D01*
X534988Y684213D02*
X609600Y609600D01*
X508000Y711200D02*
X508000Y825500D01*
X165100Y682625D02*
X155575Y692150D01*
X371475Y682625D02*
X533400Y682625D01*
X371475Y682625D02*
X165100Y682625D01*
X155575Y692150D02*
X153670Y694690D01*
X533400Y682625D02*
X534988Y684213D01*
X330200Y406400D02*
X241300Y317500D01*
X330200Y406400D02*
X349250Y406400D01*
X371475Y428625D01*
X371475Y682625D01*
X215900Y304800D02*
X215900Y88900D01*
X215900Y304800D02*
X222250Y304800D01*
X228600Y311150D01*
X228600Y415925D01*
X346075Y415925D01*
X361950Y431800D01*
X361950Y615950D01*
X200025Y615950D01*
X136525Y679450D01*
X127000Y679450D01*
X125730Y680720D01*
X663575Y155575D02*
X596900Y88900D01*
X663575Y155575D02*
X663575Y622300D01*
X641350Y622300D01*
X571500Y88900D02*
X584200Y76200D01*
X628650Y76200D01*
X679450Y127000D01*
X679450Y742950D01*
X622300Y742950D01*
X603250Y723900D01*
X603250Y647700D01*
X641350Y647700D01*
X609600Y330200D02*
X596900Y317500D01*
X609600Y330200D02*
X628650Y330200D01*
X635000Y323850D01*
X635000Y158750D01*
X495300Y158750D01*
X431800Y95250D01*
X431800Y38100D01*
X180975Y38100D01*
X63500Y155575D01*
X63500Y815975D01*
X136525Y815975D01*
X168275Y784225D01*
X168275Y765175D01*
X149225Y765175D01*
X127000Y742950D01*
X127000Y736600D01*
X125730Y736600D01*
X571500Y317500D02*
X355600Y101600D01*
X355600Y66675D01*
X190500Y66675D01*
X92075Y165100D01*
X92075Y762000D01*
X123825Y762000D01*
X125730Y764540D01*
X393700Y88900D02*
X361950Y57150D01*
X187325Y57150D01*
X82550Y161925D01*
X82550Y790575D01*
X123825Y790575D01*
X125730Y792480D01*
X609600Y304800D02*
X622300Y317500D01*
X609600Y304800D02*
X593725Y304800D01*
X406400Y117475D01*
X406400Y47625D01*
X184150Y47625D01*
X73025Y158750D01*
X73025Y806450D01*
X130175Y806450D01*
X155575Y781050D01*
X153670Y778510D01*
X415925Y339725D02*
X393700Y317500D01*
X415925Y339725D02*
X631825Y339725D01*
X644525Y327025D01*
X644525Y149225D01*
X612775Y149225D01*
X558800Y95250D01*
X558800Y66675D01*
X631825Y66675D01*
X688975Y123825D01*
X688975Y752475D01*
X619125Y752475D01*
X593725Y727075D01*
X593725Y638175D01*
X631825Y638175D01*
X635000Y635000D01*
X647700Y635000D01*
X654050Y641350D01*
X654050Y673100D01*
X641350Y673100D01*
M02*
