G04 EAGLE Gerber RS-274X export*
G75*
%MOMM*%
%FSLAX34Y34*%
%LPD*%
%INTop Copper*%
%IPPOS*%
%AMOC8*
5,1,8,0,0,1.08239X$1,22.5*%
G01*
%ADD10P,1.732040X8X292.500000*%
%ADD11P,1.704548X8X112.500000*%
%ADD12C,2.184400*%
%ADD13R,1.508000X1.508000*%
%ADD14C,1.508000*%
%ADD15R,1.308000X1.308000*%
%ADD16P,1.415766X8X22.500000*%


D10*
X342900Y457200D03*
X342900Y431800D03*
D11*
X125730Y792480D03*
X125730Y764540D03*
X125730Y736600D03*
X125730Y708660D03*
X125730Y680720D03*
X153670Y778510D03*
X153670Y750570D03*
X153670Y722630D03*
X153670Y694690D03*
D12*
X166878Y409200D02*
X188722Y409200D01*
X147800Y446278D02*
X147800Y468122D01*
X207800Y468122D02*
X207800Y446278D01*
D13*
X641350Y571500D03*
D14*
X641350Y596900D03*
X641350Y622300D03*
X641350Y647700D03*
X641350Y673100D03*
D13*
X355600Y825500D03*
D14*
X355600Y850900D03*
D13*
X508000Y825500D03*
D14*
X508000Y850900D03*
D15*
X190500Y88900D03*
D16*
X215900Y88900D03*
X241300Y88900D03*
X266700Y88900D03*
X292100Y88900D03*
X317500Y88900D03*
X342900Y88900D03*
X368300Y88900D03*
X393700Y88900D03*
X419100Y88900D03*
X444500Y88900D03*
X469900Y88900D03*
X495300Y88900D03*
X520700Y88900D03*
X546100Y88900D03*
X571500Y88900D03*
X596900Y88900D03*
X622300Y88900D03*
X622300Y317500D03*
X596900Y317500D03*
X571500Y317500D03*
X546100Y317500D03*
X520700Y317500D03*
X495300Y317500D03*
X469900Y317500D03*
X444500Y317500D03*
X419100Y317500D03*
X393700Y317500D03*
X368300Y317500D03*
X342900Y317500D03*
X317500Y317500D03*
X292100Y317500D03*
X266700Y317500D03*
X241300Y317500D03*
X215900Y317500D03*
D15*
X190500Y317500D03*
M02*
