G04 EAGLE Gerber RS-274X export*
G75*
%MOMM*%
%FSLAX34Y34*%
%LPD*%
%IN*%
%IPPOS*%
%AMOC8*
5,1,8,0,0,1.08239X$1,22.5*%
G01*
%ADD10C,0.254000*%


D10*
X0Y0D02*
X787200Y0D01*
X787200Y1000000D01*
X0Y1000000D01*
X0Y0D01*
X162800Y405200D02*
X192800Y405200D01*
X192800Y413200D01*
X162800Y413200D01*
X162800Y405200D01*
X202800Y439700D02*
X212800Y439700D01*
X212800Y474700D01*
X202800Y474700D01*
X202800Y439700D01*
X143800Y442200D02*
X151800Y442200D01*
X151800Y472200D01*
X143800Y472200D01*
X143800Y442200D01*
X140322Y879094D02*
X141563Y879019D01*
X142797Y878869D01*
X144020Y878645D01*
X145227Y878347D01*
X146414Y877977D01*
X147577Y877537D01*
X148711Y877026D01*
X149812Y876448D01*
X150876Y875805D01*
X151899Y875099D01*
X152878Y874332D01*
X153808Y873508D01*
X154688Y872628D01*
X155512Y871698D01*
X156279Y870719D01*
X156985Y869696D01*
X157628Y868632D01*
X158206Y867531D01*
X158717Y866397D01*
X159157Y865234D01*
X159527Y864047D01*
X159825Y862840D01*
X160049Y861617D01*
X160199Y860383D01*
X160274Y859142D01*
X160274Y857898D01*
X160199Y856657D01*
X160049Y855423D01*
X159825Y854200D01*
X159527Y852993D01*
X159157Y851806D01*
X158717Y850643D01*
X158206Y849509D01*
X157628Y848408D01*
X156985Y847344D01*
X156279Y846321D01*
X155512Y845342D01*
X154688Y844412D01*
X153808Y843532D01*
X152878Y842708D01*
X151899Y841941D01*
X150876Y841235D01*
X149812Y840592D01*
X148711Y840014D01*
X147577Y839503D01*
X146414Y839063D01*
X145227Y838693D01*
X144020Y838395D01*
X142797Y838171D01*
X141563Y838021D01*
X140322Y837946D01*
X139078Y837946D01*
X137837Y838021D01*
X136603Y838171D01*
X135380Y838395D01*
X134173Y838693D01*
X132986Y839063D01*
X131823Y839503D01*
X130689Y840014D01*
X129588Y840592D01*
X128524Y841235D01*
X127501Y841941D01*
X126522Y842708D01*
X125592Y843532D01*
X124712Y844412D01*
X123888Y845342D01*
X123121Y846321D01*
X122415Y847344D01*
X121772Y848408D01*
X121194Y849509D01*
X120683Y850643D01*
X120243Y851806D01*
X119873Y852993D01*
X119575Y854200D01*
X119351Y855423D01*
X119201Y856657D01*
X119126Y857898D01*
X119126Y859142D01*
X119201Y860383D01*
X119351Y861617D01*
X119575Y862840D01*
X119873Y864047D01*
X120243Y865234D01*
X120683Y866397D01*
X121194Y867531D01*
X121772Y868632D01*
X122415Y869696D01*
X123121Y870719D01*
X123888Y871698D01*
X124712Y872628D01*
X125592Y873508D01*
X126522Y874332D01*
X127501Y875099D01*
X128524Y875805D01*
X129588Y876448D01*
X130689Y877026D01*
X131823Y877537D01*
X132986Y877977D01*
X134173Y878347D01*
X135380Y878645D01*
X136603Y878869D01*
X137837Y879019D01*
X139078Y879094D01*
X140322Y879094D01*
X140322Y635254D02*
X141563Y635179D01*
X142797Y635029D01*
X144020Y634805D01*
X145227Y634507D01*
X146414Y634137D01*
X147577Y633697D01*
X148711Y633186D01*
X149812Y632608D01*
X150876Y631965D01*
X151899Y631259D01*
X152878Y630492D01*
X153808Y629668D01*
X154688Y628788D01*
X155512Y627858D01*
X156279Y626879D01*
X156985Y625856D01*
X157628Y624792D01*
X158206Y623691D01*
X158717Y622557D01*
X159157Y621394D01*
X159527Y620207D01*
X159825Y619000D01*
X160049Y617777D01*
X160199Y616543D01*
X160274Y615302D01*
X160274Y614058D01*
X160199Y612817D01*
X160049Y611583D01*
X159825Y610360D01*
X159527Y609153D01*
X159157Y607966D01*
X158717Y606803D01*
X158206Y605669D01*
X157628Y604568D01*
X156985Y603504D01*
X156279Y602481D01*
X155512Y601502D01*
X154688Y600572D01*
X153808Y599692D01*
X152878Y598868D01*
X151899Y598101D01*
X150876Y597395D01*
X149812Y596752D01*
X148711Y596174D01*
X147577Y595663D01*
X146414Y595223D01*
X145227Y594853D01*
X144020Y594555D01*
X142797Y594331D01*
X141563Y594181D01*
X140322Y594106D01*
X139078Y594106D01*
X137837Y594181D01*
X136603Y594331D01*
X135380Y594555D01*
X134173Y594853D01*
X132986Y595223D01*
X131823Y595663D01*
X130689Y596174D01*
X129588Y596752D01*
X128524Y597395D01*
X127501Y598101D01*
X126522Y598868D01*
X125592Y599692D01*
X124712Y600572D01*
X123888Y601502D01*
X123121Y602481D01*
X122415Y603504D01*
X121772Y604568D01*
X121194Y605669D01*
X120683Y606803D01*
X120243Y607966D01*
X119873Y609153D01*
X119575Y610360D01*
X119351Y611583D01*
X119201Y612817D01*
X119126Y614058D01*
X119126Y615302D01*
X119201Y616543D01*
X119351Y617777D01*
X119575Y619000D01*
X119873Y620207D01*
X120243Y621394D01*
X120683Y622557D01*
X121194Y623691D01*
X121772Y624792D01*
X122415Y625856D01*
X123121Y626879D01*
X123888Y627858D01*
X124712Y628788D01*
X125592Y629668D01*
X126522Y630492D01*
X127501Y631259D01*
X128524Y631965D01*
X129588Y632608D01*
X130689Y633186D01*
X131823Y633697D01*
X132986Y634137D01*
X134173Y634507D01*
X135380Y634805D01*
X136603Y635029D01*
X137837Y635179D01*
X139078Y635254D01*
X140322Y635254D01*
X617460Y532666D02*
X617536Y533734D01*
X617689Y534795D01*
X617917Y535842D01*
X618219Y536870D01*
X618593Y537874D01*
X619038Y538849D01*
X619552Y539789D01*
X620131Y540690D01*
X620773Y541548D01*
X621475Y542358D01*
X622232Y543115D01*
X623042Y543817D01*
X623900Y544459D01*
X624801Y545038D01*
X625741Y545552D01*
X626716Y545997D01*
X627720Y546371D01*
X628748Y546673D01*
X629795Y546901D01*
X630856Y547054D01*
X631924Y547130D01*
X632996Y547130D01*
X634064Y547054D01*
X635125Y546901D01*
X636172Y546673D01*
X637200Y546371D01*
X638204Y545997D01*
X639179Y545552D01*
X640119Y545038D01*
X641020Y544459D01*
X641878Y543817D01*
X642688Y543115D01*
X643445Y542358D01*
X644147Y541548D01*
X644789Y540690D01*
X645368Y539789D01*
X645882Y538849D01*
X646327Y537874D01*
X646701Y536870D01*
X647003Y535842D01*
X647231Y534795D01*
X647384Y533734D01*
X647460Y532666D01*
X647460Y531594D01*
X647384Y530526D01*
X647231Y529465D01*
X647003Y528418D01*
X646701Y527390D01*
X646327Y526386D01*
X645882Y525411D01*
X645368Y524471D01*
X644789Y523570D01*
X644147Y522712D01*
X643445Y521902D01*
X642688Y521145D01*
X641878Y520443D01*
X641020Y519801D01*
X640119Y519222D01*
X639179Y518708D01*
X638204Y518263D01*
X637200Y517889D01*
X636172Y517587D01*
X635125Y517359D01*
X634064Y517206D01*
X632996Y517130D01*
X631924Y517130D01*
X630856Y517206D01*
X629795Y517359D01*
X628748Y517587D01*
X627720Y517889D01*
X626716Y518263D01*
X625741Y518708D01*
X624801Y519222D01*
X623900Y519801D01*
X623042Y520443D01*
X622232Y521145D01*
X621475Y521902D01*
X620773Y522712D01*
X620131Y523570D01*
X619552Y524471D01*
X619038Y525411D01*
X618593Y526386D01*
X618219Y527390D01*
X617917Y528418D01*
X617689Y529465D01*
X617536Y530526D01*
X617460Y531594D01*
X617460Y532666D01*
X617460Y713006D02*
X617536Y714074D01*
X617689Y715135D01*
X617917Y716182D01*
X618219Y717210D01*
X618593Y718214D01*
X619038Y719189D01*
X619552Y720129D01*
X620131Y721030D01*
X620773Y721888D01*
X621475Y722698D01*
X622232Y723455D01*
X623042Y724157D01*
X623900Y724799D01*
X624801Y725378D01*
X625741Y725892D01*
X626716Y726337D01*
X627720Y726711D01*
X628748Y727013D01*
X629795Y727241D01*
X630856Y727394D01*
X631924Y727470D01*
X632996Y727470D01*
X634064Y727394D01*
X635125Y727241D01*
X636172Y727013D01*
X637200Y726711D01*
X638204Y726337D01*
X639179Y725892D01*
X640119Y725378D01*
X641020Y724799D01*
X641878Y724157D01*
X642688Y723455D01*
X643445Y722698D01*
X644147Y721888D01*
X644789Y721030D01*
X645368Y720129D01*
X645882Y719189D01*
X646327Y718214D01*
X646701Y717210D01*
X647003Y716182D01*
X647231Y715135D01*
X647384Y714074D01*
X647460Y713006D01*
X647460Y711934D01*
X647384Y710866D01*
X647231Y709805D01*
X647003Y708758D01*
X646701Y707730D01*
X646327Y706726D01*
X645882Y705751D01*
X645368Y704811D01*
X644789Y703910D01*
X644147Y703052D01*
X643445Y702242D01*
X642688Y701485D01*
X641878Y700783D01*
X641020Y700141D01*
X640119Y699562D01*
X639179Y699048D01*
X638204Y698603D01*
X637200Y698229D01*
X636172Y697927D01*
X635125Y697699D01*
X634064Y697546D01*
X632996Y697470D01*
X631924Y697470D01*
X630856Y697546D01*
X629795Y697699D01*
X628748Y697927D01*
X627720Y698229D01*
X626716Y698603D01*
X625741Y699048D01*
X624801Y699562D01*
X623900Y700141D01*
X623042Y700783D01*
X622232Y701485D01*
X621475Y702242D01*
X620773Y703052D01*
X620131Y703910D01*
X619552Y704811D01*
X619038Y705751D01*
X618593Y706726D01*
X618219Y707730D01*
X617917Y708758D01*
X617689Y709805D01*
X617536Y710866D01*
X617460Y711934D01*
X617460Y713006D01*
X317740Y713006D02*
X317816Y714074D01*
X317969Y715135D01*
X318197Y716182D01*
X318499Y717210D01*
X318873Y718214D01*
X319318Y719189D01*
X319832Y720129D01*
X320411Y721030D01*
X321053Y721888D01*
X321755Y722698D01*
X322512Y723455D01*
X323322Y724157D01*
X324180Y724799D01*
X325081Y725378D01*
X326021Y725892D01*
X326996Y726337D01*
X328000Y726711D01*
X329028Y727013D01*
X330075Y727241D01*
X331136Y727394D01*
X332204Y727470D01*
X333276Y727470D01*
X334344Y727394D01*
X335405Y727241D01*
X336452Y727013D01*
X337480Y726711D01*
X338484Y726337D01*
X339459Y725892D01*
X340399Y725378D01*
X341300Y724799D01*
X342158Y724157D01*
X342968Y723455D01*
X343725Y722698D01*
X344427Y721888D01*
X345069Y721030D01*
X345648Y720129D01*
X346162Y719189D01*
X346607Y718214D01*
X346981Y717210D01*
X347283Y716182D01*
X347511Y715135D01*
X347664Y714074D01*
X347740Y713006D01*
X347740Y711934D01*
X347664Y710866D01*
X347511Y709805D01*
X347283Y708758D01*
X346981Y707730D01*
X346607Y706726D01*
X346162Y705751D01*
X345648Y704811D01*
X345069Y703910D01*
X344427Y703052D01*
X343725Y702242D01*
X342968Y701485D01*
X342158Y700783D01*
X341300Y700141D01*
X340399Y699562D01*
X339459Y699048D01*
X338484Y698603D01*
X337480Y698229D01*
X336452Y697927D01*
X335405Y697699D01*
X334344Y697546D01*
X333276Y697470D01*
X332204Y697470D01*
X331136Y697546D01*
X330075Y697699D01*
X329028Y697927D01*
X328000Y698229D01*
X326996Y698603D01*
X326021Y699048D01*
X325081Y699562D01*
X324180Y700141D01*
X323322Y700783D01*
X322512Y701485D01*
X321755Y702242D01*
X321053Y703052D01*
X320411Y703910D01*
X319832Y704811D01*
X319318Y705751D01*
X318873Y706726D01*
X318499Y707730D01*
X318197Y708758D01*
X317969Y709805D01*
X317816Y710866D01*
X317740Y711934D01*
X317740Y713006D01*
X321590Y648273D02*
X321665Y649416D01*
X321815Y650552D01*
X322038Y651676D01*
X322335Y652783D01*
X322703Y653868D01*
X323141Y654926D01*
X323648Y655954D01*
X324221Y656946D01*
X324858Y657899D01*
X325555Y658808D01*
X326311Y659669D01*
X327121Y660479D01*
X327982Y661235D01*
X328891Y661932D01*
X329844Y662569D01*
X330836Y663142D01*
X331864Y663649D01*
X332922Y664087D01*
X334007Y664455D01*
X335114Y664752D01*
X336238Y664976D01*
X337374Y665125D01*
X338517Y665200D01*
X339663Y665200D01*
X340806Y665125D01*
X341942Y664976D01*
X343066Y664752D01*
X344173Y664455D01*
X345258Y664087D01*
X346316Y663649D01*
X347344Y663142D01*
X348336Y662569D01*
X349289Y661932D01*
X350198Y661235D01*
X351059Y660479D01*
X351869Y659669D01*
X352625Y658808D01*
X353322Y657899D01*
X353959Y656946D01*
X354532Y655954D01*
X355039Y654926D01*
X355477Y653868D01*
X355845Y652783D01*
X356142Y651676D01*
X356366Y650552D01*
X356515Y649416D01*
X356590Y648273D01*
X356590Y647127D01*
X356515Y645984D01*
X356366Y644848D01*
X356142Y643724D01*
X355845Y642617D01*
X355477Y641532D01*
X355039Y640474D01*
X354532Y639446D01*
X353959Y638454D01*
X353322Y637501D01*
X352625Y636592D01*
X351869Y635731D01*
X351059Y634921D01*
X350198Y634165D01*
X349289Y633468D01*
X348336Y632831D01*
X347344Y632258D01*
X346316Y631751D01*
X345258Y631313D01*
X344173Y630945D01*
X343066Y630648D01*
X341942Y630425D01*
X340806Y630275D01*
X339663Y630200D01*
X338517Y630200D01*
X337374Y630275D01*
X336238Y630425D01*
X335114Y630648D01*
X334007Y630945D01*
X332922Y631313D01*
X331864Y631751D01*
X330836Y632258D01*
X329844Y632831D01*
X328891Y633468D01*
X327982Y634165D01*
X327121Y634921D01*
X326311Y635731D01*
X325555Y636592D01*
X324858Y637501D01*
X324221Y638454D01*
X323648Y639446D01*
X323141Y640474D01*
X322703Y641532D01*
X322335Y642617D01*
X322038Y643724D01*
X321815Y644848D01*
X321665Y645984D01*
X321590Y647127D01*
X321590Y648273D01*
X317740Y532666D02*
X317816Y533734D01*
X317969Y534795D01*
X318197Y535842D01*
X318499Y536870D01*
X318873Y537874D01*
X319318Y538849D01*
X319832Y539789D01*
X320411Y540690D01*
X321053Y541548D01*
X321755Y542358D01*
X322512Y543115D01*
X323322Y543817D01*
X324180Y544459D01*
X325081Y545038D01*
X326021Y545552D01*
X326996Y545997D01*
X328000Y546371D01*
X329028Y546673D01*
X330075Y546901D01*
X331136Y547054D01*
X332204Y547130D01*
X333276Y547130D01*
X334344Y547054D01*
X335405Y546901D01*
X336452Y546673D01*
X337480Y546371D01*
X338484Y545997D01*
X339459Y545552D01*
X340399Y545038D01*
X341300Y544459D01*
X342158Y543817D01*
X342968Y543115D01*
X343725Y542358D01*
X344427Y541548D01*
X345069Y540690D01*
X345648Y539789D01*
X346162Y538849D01*
X346607Y537874D01*
X346981Y536870D01*
X347283Y535842D01*
X347511Y534795D01*
X347664Y533734D01*
X347740Y532666D01*
X347740Y531594D01*
X347664Y530526D01*
X347511Y529465D01*
X347283Y528418D01*
X346981Y527390D01*
X346607Y526386D01*
X346162Y525411D01*
X345648Y524471D01*
X345069Y523570D01*
X344427Y522712D01*
X343725Y521902D01*
X342968Y521145D01*
X342158Y520443D01*
X341300Y519801D01*
X340399Y519222D01*
X339459Y518708D01*
X338484Y518263D01*
X337480Y517889D01*
X336452Y517587D01*
X335405Y517359D01*
X334344Y517206D01*
X333276Y517130D01*
X332204Y517130D01*
X331136Y517206D01*
X330075Y517359D01*
X329028Y517587D01*
X328000Y517889D01*
X326996Y518263D01*
X326021Y518708D01*
X325081Y519222D01*
X324180Y519801D01*
X323322Y520443D01*
X322512Y521145D01*
X321755Y521902D01*
X321053Y522712D01*
X320411Y523570D01*
X319832Y524471D01*
X319318Y525411D01*
X318873Y526386D01*
X318499Y527390D01*
X318197Y528418D01*
X317969Y529465D01*
X317816Y530526D01*
X317740Y531594D01*
X317740Y532666D01*
M02*
