G04 EAGLE Gerber RS-274X export*
G75*
%MOMM*%
%FSLAX34Y34*%
%LPD*%
%INSilkscreen Top*%
%IPPOS*%
%AMOC8*
5,1,8,0,0,1.08239X$1,22.5*%
G01*
%ADD10C,0.152400*%
%ADD11C,0.254000*%
%ADD12C,0.127000*%
%ADD13C,0.101600*%
%ADD14C,0.100000*%
%ADD15R,20.955000X9.842500*%
%ADD16C,0.203200*%


D10*
X361950Y466090D02*
X361950Y422910D01*
X323850Y422910D02*
X323850Y466090D01*
X326390Y420370D02*
X359410Y420370D01*
X359410Y468630D02*
X326390Y468630D01*
X361950Y422910D02*
X361948Y422810D01*
X361942Y422711D01*
X361932Y422611D01*
X361919Y422513D01*
X361901Y422414D01*
X361880Y422317D01*
X361855Y422221D01*
X361826Y422125D01*
X361793Y422031D01*
X361757Y421938D01*
X361717Y421847D01*
X361673Y421757D01*
X361626Y421669D01*
X361576Y421583D01*
X361522Y421499D01*
X361465Y421417D01*
X361405Y421338D01*
X361341Y421260D01*
X361275Y421186D01*
X361206Y421114D01*
X361134Y421045D01*
X361060Y420979D01*
X360982Y420915D01*
X360903Y420855D01*
X360821Y420798D01*
X360737Y420744D01*
X360651Y420694D01*
X360563Y420647D01*
X360473Y420603D01*
X360382Y420563D01*
X360289Y420527D01*
X360195Y420494D01*
X360099Y420465D01*
X360003Y420440D01*
X359906Y420419D01*
X359807Y420401D01*
X359709Y420388D01*
X359609Y420378D01*
X359510Y420372D01*
X359410Y420370D01*
X361950Y466090D02*
X361948Y466190D01*
X361942Y466289D01*
X361932Y466389D01*
X361919Y466487D01*
X361901Y466586D01*
X361880Y466683D01*
X361855Y466779D01*
X361826Y466875D01*
X361793Y466969D01*
X361757Y467062D01*
X361717Y467153D01*
X361673Y467243D01*
X361626Y467331D01*
X361576Y467417D01*
X361522Y467501D01*
X361465Y467583D01*
X361405Y467662D01*
X361341Y467740D01*
X361275Y467814D01*
X361206Y467886D01*
X361134Y467955D01*
X361060Y468021D01*
X360982Y468085D01*
X360903Y468145D01*
X360821Y468202D01*
X360737Y468256D01*
X360651Y468306D01*
X360563Y468353D01*
X360473Y468397D01*
X360382Y468437D01*
X360289Y468473D01*
X360195Y468506D01*
X360099Y468535D01*
X360003Y468560D01*
X359906Y468581D01*
X359807Y468599D01*
X359709Y468612D01*
X359609Y468622D01*
X359510Y468628D01*
X359410Y468630D01*
X323850Y422910D02*
X323852Y422810D01*
X323858Y422711D01*
X323868Y422611D01*
X323881Y422513D01*
X323899Y422414D01*
X323920Y422317D01*
X323945Y422221D01*
X323974Y422125D01*
X324007Y422031D01*
X324043Y421938D01*
X324083Y421847D01*
X324127Y421757D01*
X324174Y421669D01*
X324224Y421583D01*
X324278Y421499D01*
X324335Y421417D01*
X324395Y421338D01*
X324459Y421260D01*
X324525Y421186D01*
X324594Y421114D01*
X324666Y421045D01*
X324740Y420979D01*
X324818Y420915D01*
X324897Y420855D01*
X324979Y420798D01*
X325063Y420744D01*
X325149Y420694D01*
X325237Y420647D01*
X325327Y420603D01*
X325418Y420563D01*
X325511Y420527D01*
X325605Y420494D01*
X325701Y420465D01*
X325797Y420440D01*
X325894Y420419D01*
X325993Y420401D01*
X326091Y420388D01*
X326191Y420378D01*
X326290Y420372D01*
X326390Y420370D01*
X323850Y466090D02*
X323852Y466190D01*
X323858Y466289D01*
X323868Y466389D01*
X323881Y466487D01*
X323899Y466586D01*
X323920Y466683D01*
X323945Y466779D01*
X323974Y466875D01*
X324007Y466969D01*
X324043Y467062D01*
X324083Y467153D01*
X324127Y467243D01*
X324174Y467331D01*
X324224Y467417D01*
X324278Y467501D01*
X324335Y467583D01*
X324395Y467662D01*
X324459Y467740D01*
X324525Y467814D01*
X324594Y467886D01*
X324666Y467955D01*
X324740Y468021D01*
X324818Y468085D01*
X324897Y468145D01*
X324979Y468202D01*
X325063Y468256D01*
X325149Y468306D01*
X325237Y468353D01*
X325327Y468397D01*
X325418Y468437D01*
X325511Y468473D01*
X325605Y468506D01*
X325701Y468535D01*
X325797Y468560D01*
X325894Y468581D01*
X325993Y468599D01*
X326091Y468612D01*
X326191Y468622D01*
X326290Y468628D01*
X326390Y468630D01*
X342900Y441960D02*
X342900Y440690D01*
D11*
X342900Y441960D02*
X350520Y441960D01*
X342900Y441960D02*
X335280Y441960D01*
X342900Y447040D02*
X350520Y447040D01*
X342900Y447040D02*
X335280Y447040D01*
D10*
X342900Y447040D02*
X342900Y448310D01*
D12*
X376555Y449543D02*
X376555Y447003D01*
X376553Y446903D01*
X376547Y446804D01*
X376537Y446704D01*
X376524Y446606D01*
X376506Y446507D01*
X376485Y446410D01*
X376460Y446314D01*
X376431Y446218D01*
X376398Y446124D01*
X376362Y446031D01*
X376322Y445940D01*
X376278Y445850D01*
X376231Y445762D01*
X376181Y445676D01*
X376127Y445592D01*
X376070Y445510D01*
X376010Y445431D01*
X375946Y445353D01*
X375880Y445279D01*
X375811Y445207D01*
X375739Y445138D01*
X375665Y445072D01*
X375587Y445008D01*
X375508Y444948D01*
X375426Y444891D01*
X375342Y444837D01*
X375256Y444787D01*
X375168Y444740D01*
X375078Y444696D01*
X374987Y444656D01*
X374894Y444620D01*
X374800Y444587D01*
X374704Y444558D01*
X374608Y444533D01*
X374511Y444512D01*
X374412Y444494D01*
X374314Y444481D01*
X374214Y444471D01*
X374115Y444465D01*
X374015Y444463D01*
X367665Y444463D01*
X367565Y444465D01*
X367466Y444471D01*
X367366Y444481D01*
X367268Y444494D01*
X367169Y444512D01*
X367072Y444533D01*
X366976Y444558D01*
X366880Y444587D01*
X366786Y444620D01*
X366693Y444656D01*
X366602Y444696D01*
X366512Y444740D01*
X366424Y444787D01*
X366338Y444837D01*
X366254Y444891D01*
X366172Y444948D01*
X366093Y445008D01*
X366015Y445072D01*
X365941Y445138D01*
X365869Y445207D01*
X365800Y445279D01*
X365734Y445353D01*
X365670Y445431D01*
X365610Y445510D01*
X365553Y445592D01*
X365499Y445676D01*
X365449Y445762D01*
X365402Y445850D01*
X365358Y445940D01*
X365318Y446031D01*
X365282Y446124D01*
X365249Y446218D01*
X365220Y446314D01*
X365195Y446410D01*
X365174Y446507D01*
X365156Y446606D01*
X365143Y446704D01*
X365133Y446804D01*
X365127Y446903D01*
X365125Y447003D01*
X365125Y449543D01*
X367665Y454025D02*
X365125Y457200D01*
X376555Y457200D01*
X376555Y454025D02*
X376555Y460375D01*
X201930Y889000D02*
X77470Y889000D01*
X201930Y889000D02*
X201930Y584200D01*
X77470Y584200D01*
X77470Y889000D01*
X180340Y781050D02*
X180340Y692150D01*
X99060Y674370D02*
X99060Y798830D01*
X125730Y816610D02*
X166370Y800100D01*
X176530Y792480D02*
X179070Y787400D01*
X176530Y792480D02*
X173990Y795020D01*
X168910Y798830D01*
X166370Y800100D01*
X180086Y783082D02*
X180340Y781050D01*
X180086Y783082D02*
X179578Y785876D01*
X179070Y787400D01*
X125730Y816610D02*
X122936Y817372D01*
X119380Y817880D01*
X115316Y817372D01*
X110998Y816102D01*
X106680Y813308D01*
X103886Y810768D01*
X101346Y806958D01*
X100076Y804672D01*
X99314Y801624D01*
X99060Y798830D01*
X166370Y673100D02*
X125730Y656590D01*
X176530Y680720D02*
X179070Y685800D01*
X176530Y680720D02*
X173990Y678180D01*
X168910Y674370D01*
X166370Y673100D01*
X180086Y690118D02*
X180340Y692150D01*
X180086Y690118D02*
X179578Y687324D01*
X179070Y685800D01*
X125730Y656590D02*
X122936Y655828D01*
X119380Y655320D01*
X115316Y655828D01*
X110998Y657098D01*
X106680Y659892D01*
X103886Y662432D01*
X101346Y666242D01*
X100076Y668528D01*
X99314Y671576D01*
X99060Y674370D01*
X118618Y614680D02*
X118624Y615197D01*
X118643Y615714D01*
X118675Y616231D01*
X118720Y616746D01*
X118777Y617261D01*
X118846Y617773D01*
X118928Y618284D01*
X119023Y618793D01*
X119130Y619299D01*
X119250Y619803D01*
X119382Y620303D01*
X119526Y620800D01*
X119682Y621293D01*
X119850Y621782D01*
X120031Y622267D01*
X120223Y622748D01*
X120427Y623223D01*
X120642Y623694D01*
X120869Y624159D01*
X121107Y624618D01*
X121357Y625071D01*
X121617Y625518D01*
X121889Y625959D01*
X122171Y626393D01*
X122464Y626819D01*
X122767Y627239D01*
X123080Y627650D01*
X123403Y628054D01*
X123737Y628450D01*
X124079Y628838D01*
X124431Y629217D01*
X124793Y629587D01*
X125163Y629949D01*
X125542Y630301D01*
X125930Y630643D01*
X126326Y630977D01*
X126730Y631300D01*
X127141Y631613D01*
X127561Y631916D01*
X127987Y632209D01*
X128421Y632491D01*
X128862Y632763D01*
X129309Y633023D01*
X129762Y633273D01*
X130221Y633511D01*
X130686Y633738D01*
X131157Y633953D01*
X131632Y634157D01*
X132113Y634349D01*
X132598Y634530D01*
X133087Y634698D01*
X133580Y634854D01*
X134077Y634998D01*
X134577Y635130D01*
X135081Y635250D01*
X135587Y635357D01*
X136096Y635452D01*
X136607Y635534D01*
X137119Y635603D01*
X137634Y635660D01*
X138149Y635705D01*
X138666Y635737D01*
X139183Y635756D01*
X139700Y635762D01*
X140217Y635756D01*
X140734Y635737D01*
X141251Y635705D01*
X141766Y635660D01*
X142281Y635603D01*
X142793Y635534D01*
X143304Y635452D01*
X143813Y635357D01*
X144319Y635250D01*
X144823Y635130D01*
X145323Y634998D01*
X145820Y634854D01*
X146313Y634698D01*
X146802Y634530D01*
X147287Y634349D01*
X147768Y634157D01*
X148243Y633953D01*
X148714Y633738D01*
X149179Y633511D01*
X149638Y633273D01*
X150091Y633023D01*
X150538Y632763D01*
X150979Y632491D01*
X151413Y632209D01*
X151839Y631916D01*
X152259Y631613D01*
X152670Y631300D01*
X153074Y630977D01*
X153470Y630643D01*
X153858Y630301D01*
X154237Y629949D01*
X154607Y629587D01*
X154969Y629217D01*
X155321Y628838D01*
X155663Y628450D01*
X155997Y628054D01*
X156320Y627650D01*
X156633Y627239D01*
X156936Y626819D01*
X157229Y626393D01*
X157511Y625959D01*
X157783Y625518D01*
X158043Y625071D01*
X158293Y624618D01*
X158531Y624159D01*
X158758Y623694D01*
X158973Y623223D01*
X159177Y622748D01*
X159369Y622267D01*
X159550Y621782D01*
X159718Y621293D01*
X159874Y620800D01*
X160018Y620303D01*
X160150Y619803D01*
X160270Y619299D01*
X160377Y618793D01*
X160472Y618284D01*
X160554Y617773D01*
X160623Y617261D01*
X160680Y616746D01*
X160725Y616231D01*
X160757Y615714D01*
X160776Y615197D01*
X160782Y614680D01*
X160776Y614163D01*
X160757Y613646D01*
X160725Y613129D01*
X160680Y612614D01*
X160623Y612099D01*
X160554Y611587D01*
X160472Y611076D01*
X160377Y610567D01*
X160270Y610061D01*
X160150Y609557D01*
X160018Y609057D01*
X159874Y608560D01*
X159718Y608067D01*
X159550Y607578D01*
X159369Y607093D01*
X159177Y606612D01*
X158973Y606137D01*
X158758Y605666D01*
X158531Y605201D01*
X158293Y604742D01*
X158043Y604289D01*
X157783Y603842D01*
X157511Y603401D01*
X157229Y602967D01*
X156936Y602541D01*
X156633Y602121D01*
X156320Y601710D01*
X155997Y601306D01*
X155663Y600910D01*
X155321Y600522D01*
X154969Y600143D01*
X154607Y599773D01*
X154237Y599411D01*
X153858Y599059D01*
X153470Y598717D01*
X153074Y598383D01*
X152670Y598060D01*
X152259Y597747D01*
X151839Y597444D01*
X151413Y597151D01*
X150979Y596869D01*
X150538Y596597D01*
X150091Y596337D01*
X149638Y596087D01*
X149179Y595849D01*
X148714Y595622D01*
X148243Y595407D01*
X147768Y595203D01*
X147287Y595011D01*
X146802Y594830D01*
X146313Y594662D01*
X145820Y594506D01*
X145323Y594362D01*
X144823Y594230D01*
X144319Y594110D01*
X143813Y594003D01*
X143304Y593908D01*
X142793Y593826D01*
X142281Y593757D01*
X141766Y593700D01*
X141251Y593655D01*
X140734Y593623D01*
X140217Y593604D01*
X139700Y593598D01*
X139183Y593604D01*
X138666Y593623D01*
X138149Y593655D01*
X137634Y593700D01*
X137119Y593757D01*
X136607Y593826D01*
X136096Y593908D01*
X135587Y594003D01*
X135081Y594110D01*
X134577Y594230D01*
X134077Y594362D01*
X133580Y594506D01*
X133087Y594662D01*
X132598Y594830D01*
X132113Y595011D01*
X131632Y595203D01*
X131157Y595407D01*
X130686Y595622D01*
X130221Y595849D01*
X129762Y596087D01*
X129309Y596337D01*
X128862Y596597D01*
X128421Y596869D01*
X127987Y597151D01*
X127561Y597444D01*
X127141Y597747D01*
X126730Y598060D01*
X126326Y598383D01*
X125930Y598717D01*
X125542Y599059D01*
X125163Y599411D01*
X124793Y599773D01*
X124431Y600143D01*
X124079Y600522D01*
X123737Y600910D01*
X123403Y601306D01*
X123080Y601710D01*
X122767Y602121D01*
X122464Y602541D01*
X122171Y602967D01*
X121889Y603401D01*
X121617Y603842D01*
X121357Y604289D01*
X121107Y604742D01*
X120869Y605201D01*
X120642Y605666D01*
X120427Y606137D01*
X120223Y606612D01*
X120031Y607093D01*
X119850Y607578D01*
X119682Y608067D01*
X119526Y608560D01*
X119382Y609057D01*
X119250Y609557D01*
X119130Y610061D01*
X119023Y610567D01*
X118928Y611076D01*
X118846Y611587D01*
X118777Y612099D01*
X118720Y612614D01*
X118675Y613129D01*
X118643Y613646D01*
X118624Y614163D01*
X118618Y614680D01*
X118618Y858520D02*
X118624Y859037D01*
X118643Y859554D01*
X118675Y860071D01*
X118720Y860586D01*
X118777Y861101D01*
X118846Y861613D01*
X118928Y862124D01*
X119023Y862633D01*
X119130Y863139D01*
X119250Y863643D01*
X119382Y864143D01*
X119526Y864640D01*
X119682Y865133D01*
X119850Y865622D01*
X120031Y866107D01*
X120223Y866588D01*
X120427Y867063D01*
X120642Y867534D01*
X120869Y867999D01*
X121107Y868458D01*
X121357Y868911D01*
X121617Y869358D01*
X121889Y869799D01*
X122171Y870233D01*
X122464Y870659D01*
X122767Y871079D01*
X123080Y871490D01*
X123403Y871894D01*
X123737Y872290D01*
X124079Y872678D01*
X124431Y873057D01*
X124793Y873427D01*
X125163Y873789D01*
X125542Y874141D01*
X125930Y874483D01*
X126326Y874817D01*
X126730Y875140D01*
X127141Y875453D01*
X127561Y875756D01*
X127987Y876049D01*
X128421Y876331D01*
X128862Y876603D01*
X129309Y876863D01*
X129762Y877113D01*
X130221Y877351D01*
X130686Y877578D01*
X131157Y877793D01*
X131632Y877997D01*
X132113Y878189D01*
X132598Y878370D01*
X133087Y878538D01*
X133580Y878694D01*
X134077Y878838D01*
X134577Y878970D01*
X135081Y879090D01*
X135587Y879197D01*
X136096Y879292D01*
X136607Y879374D01*
X137119Y879443D01*
X137634Y879500D01*
X138149Y879545D01*
X138666Y879577D01*
X139183Y879596D01*
X139700Y879602D01*
X140217Y879596D01*
X140734Y879577D01*
X141251Y879545D01*
X141766Y879500D01*
X142281Y879443D01*
X142793Y879374D01*
X143304Y879292D01*
X143813Y879197D01*
X144319Y879090D01*
X144823Y878970D01*
X145323Y878838D01*
X145820Y878694D01*
X146313Y878538D01*
X146802Y878370D01*
X147287Y878189D01*
X147768Y877997D01*
X148243Y877793D01*
X148714Y877578D01*
X149179Y877351D01*
X149638Y877113D01*
X150091Y876863D01*
X150538Y876603D01*
X150979Y876331D01*
X151413Y876049D01*
X151839Y875756D01*
X152259Y875453D01*
X152670Y875140D01*
X153074Y874817D01*
X153470Y874483D01*
X153858Y874141D01*
X154237Y873789D01*
X154607Y873427D01*
X154969Y873057D01*
X155321Y872678D01*
X155663Y872290D01*
X155997Y871894D01*
X156320Y871490D01*
X156633Y871079D01*
X156936Y870659D01*
X157229Y870233D01*
X157511Y869799D01*
X157783Y869358D01*
X158043Y868911D01*
X158293Y868458D01*
X158531Y867999D01*
X158758Y867534D01*
X158973Y867063D01*
X159177Y866588D01*
X159369Y866107D01*
X159550Y865622D01*
X159718Y865133D01*
X159874Y864640D01*
X160018Y864143D01*
X160150Y863643D01*
X160270Y863139D01*
X160377Y862633D01*
X160472Y862124D01*
X160554Y861613D01*
X160623Y861101D01*
X160680Y860586D01*
X160725Y860071D01*
X160757Y859554D01*
X160776Y859037D01*
X160782Y858520D01*
X160776Y858003D01*
X160757Y857486D01*
X160725Y856969D01*
X160680Y856454D01*
X160623Y855939D01*
X160554Y855427D01*
X160472Y854916D01*
X160377Y854407D01*
X160270Y853901D01*
X160150Y853397D01*
X160018Y852897D01*
X159874Y852400D01*
X159718Y851907D01*
X159550Y851418D01*
X159369Y850933D01*
X159177Y850452D01*
X158973Y849977D01*
X158758Y849506D01*
X158531Y849041D01*
X158293Y848582D01*
X158043Y848129D01*
X157783Y847682D01*
X157511Y847241D01*
X157229Y846807D01*
X156936Y846381D01*
X156633Y845961D01*
X156320Y845550D01*
X155997Y845146D01*
X155663Y844750D01*
X155321Y844362D01*
X154969Y843983D01*
X154607Y843613D01*
X154237Y843251D01*
X153858Y842899D01*
X153470Y842557D01*
X153074Y842223D01*
X152670Y841900D01*
X152259Y841587D01*
X151839Y841284D01*
X151413Y840991D01*
X150979Y840709D01*
X150538Y840437D01*
X150091Y840177D01*
X149638Y839927D01*
X149179Y839689D01*
X148714Y839462D01*
X148243Y839247D01*
X147768Y839043D01*
X147287Y838851D01*
X146802Y838670D01*
X146313Y838502D01*
X145820Y838346D01*
X145323Y838202D01*
X144823Y838070D01*
X144319Y837950D01*
X143813Y837843D01*
X143304Y837748D01*
X142793Y837666D01*
X142281Y837597D01*
X141766Y837540D01*
X141251Y837495D01*
X140734Y837463D01*
X140217Y837444D01*
X139700Y837438D01*
X139183Y837444D01*
X138666Y837463D01*
X138149Y837495D01*
X137634Y837540D01*
X137119Y837597D01*
X136607Y837666D01*
X136096Y837748D01*
X135587Y837843D01*
X135081Y837950D01*
X134577Y838070D01*
X134077Y838202D01*
X133580Y838346D01*
X133087Y838502D01*
X132598Y838670D01*
X132113Y838851D01*
X131632Y839043D01*
X131157Y839247D01*
X130686Y839462D01*
X130221Y839689D01*
X129762Y839927D01*
X129309Y840177D01*
X128862Y840437D01*
X128421Y840709D01*
X127987Y840991D01*
X127561Y841284D01*
X127141Y841587D01*
X126730Y841900D01*
X126326Y842223D01*
X125930Y842557D01*
X125542Y842899D01*
X125163Y843251D01*
X124793Y843613D01*
X124431Y843983D01*
X124079Y844362D01*
X123737Y844750D01*
X123403Y845146D01*
X123080Y845550D01*
X122767Y845961D01*
X122464Y846381D01*
X122171Y846807D01*
X121889Y847241D01*
X121617Y847682D01*
X121357Y848129D01*
X121107Y848582D01*
X120869Y849041D01*
X120642Y849506D01*
X120427Y849977D01*
X120223Y850452D01*
X120031Y850933D01*
X119850Y851418D01*
X119682Y851907D01*
X119526Y852400D01*
X119382Y852897D01*
X119250Y853397D01*
X119130Y853901D01*
X119023Y854407D01*
X118928Y854916D01*
X118846Y855427D01*
X118777Y855939D01*
X118720Y856454D01*
X118675Y856969D01*
X118643Y857486D01*
X118624Y858003D01*
X118618Y858520D01*
D13*
X102108Y793694D02*
X104704Y790448D01*
X102108Y793694D02*
X113792Y793694D01*
X113792Y796939D02*
X113792Y790448D01*
X105029Y767729D02*
X104922Y767727D01*
X104816Y767721D01*
X104710Y767711D01*
X104604Y767698D01*
X104498Y767680D01*
X104394Y767659D01*
X104290Y767634D01*
X104187Y767605D01*
X104086Y767573D01*
X103986Y767536D01*
X103887Y767496D01*
X103789Y767453D01*
X103693Y767406D01*
X103599Y767355D01*
X103507Y767301D01*
X103417Y767244D01*
X103329Y767184D01*
X103244Y767120D01*
X103161Y767053D01*
X103080Y766983D01*
X103002Y766911D01*
X102926Y766835D01*
X102854Y766757D01*
X102784Y766676D01*
X102717Y766593D01*
X102653Y766508D01*
X102593Y766420D01*
X102536Y766330D01*
X102482Y766238D01*
X102431Y766144D01*
X102384Y766048D01*
X102341Y765950D01*
X102301Y765851D01*
X102264Y765751D01*
X102232Y765650D01*
X102203Y765547D01*
X102178Y765443D01*
X102157Y765339D01*
X102139Y765233D01*
X102126Y765127D01*
X102116Y765021D01*
X102110Y764915D01*
X102108Y764808D01*
X102110Y764687D01*
X102116Y764566D01*
X102126Y764446D01*
X102139Y764325D01*
X102157Y764206D01*
X102178Y764086D01*
X102203Y763968D01*
X102232Y763851D01*
X102265Y763734D01*
X102301Y763619D01*
X102342Y763505D01*
X102385Y763392D01*
X102433Y763280D01*
X102484Y763171D01*
X102539Y763063D01*
X102597Y762956D01*
X102658Y762852D01*
X102723Y762750D01*
X102791Y762650D01*
X102862Y762552D01*
X102936Y762456D01*
X103013Y762363D01*
X103094Y762273D01*
X103177Y762185D01*
X103263Y762100D01*
X103352Y762017D01*
X103443Y761938D01*
X103537Y761861D01*
X103633Y761788D01*
X103731Y761718D01*
X103832Y761651D01*
X103935Y761587D01*
X104040Y761527D01*
X104147Y761469D01*
X104255Y761416D01*
X104365Y761366D01*
X104477Y761320D01*
X104590Y761277D01*
X104705Y761238D01*
X107301Y766755D02*
X107223Y766834D01*
X107143Y766910D01*
X107060Y766983D01*
X106974Y767053D01*
X106887Y767120D01*
X106796Y767184D01*
X106704Y767244D01*
X106610Y767302D01*
X106513Y767356D01*
X106415Y767406D01*
X106315Y767453D01*
X106214Y767497D01*
X106111Y767537D01*
X106006Y767573D01*
X105901Y767605D01*
X105794Y767634D01*
X105687Y767659D01*
X105578Y767681D01*
X105469Y767698D01*
X105360Y767712D01*
X105250Y767721D01*
X105139Y767727D01*
X105029Y767729D01*
X107301Y766755D02*
X113792Y761238D01*
X113792Y767729D01*
X113792Y736544D02*
X113792Y733298D01*
X113792Y736544D02*
X113790Y736657D01*
X113784Y736770D01*
X113774Y736883D01*
X113760Y736996D01*
X113743Y737108D01*
X113721Y737219D01*
X113696Y737329D01*
X113666Y737439D01*
X113633Y737547D01*
X113596Y737654D01*
X113556Y737760D01*
X113511Y737864D01*
X113463Y737967D01*
X113412Y738068D01*
X113357Y738167D01*
X113299Y738264D01*
X113237Y738359D01*
X113172Y738452D01*
X113104Y738542D01*
X113033Y738630D01*
X112958Y738716D01*
X112881Y738799D01*
X112801Y738879D01*
X112718Y738956D01*
X112632Y739031D01*
X112544Y739102D01*
X112454Y739170D01*
X112361Y739235D01*
X112266Y739297D01*
X112169Y739355D01*
X112070Y739410D01*
X111969Y739461D01*
X111866Y739509D01*
X111762Y739554D01*
X111656Y739594D01*
X111549Y739631D01*
X111441Y739664D01*
X111331Y739694D01*
X111221Y739719D01*
X111110Y739741D01*
X110998Y739758D01*
X110885Y739772D01*
X110772Y739782D01*
X110659Y739788D01*
X110546Y739790D01*
X110433Y739788D01*
X110320Y739782D01*
X110207Y739772D01*
X110094Y739758D01*
X109982Y739741D01*
X109871Y739719D01*
X109761Y739694D01*
X109651Y739664D01*
X109543Y739631D01*
X109436Y739594D01*
X109330Y739554D01*
X109226Y739509D01*
X109123Y739461D01*
X109022Y739410D01*
X108923Y739355D01*
X108826Y739297D01*
X108731Y739235D01*
X108638Y739170D01*
X108548Y739102D01*
X108460Y739031D01*
X108374Y738956D01*
X108291Y738879D01*
X108211Y738799D01*
X108134Y738716D01*
X108059Y738630D01*
X107988Y738542D01*
X107920Y738452D01*
X107855Y738359D01*
X107793Y738264D01*
X107735Y738167D01*
X107680Y738068D01*
X107629Y737967D01*
X107581Y737864D01*
X107536Y737760D01*
X107496Y737654D01*
X107459Y737547D01*
X107426Y737439D01*
X107396Y737329D01*
X107371Y737219D01*
X107349Y737108D01*
X107332Y736996D01*
X107318Y736883D01*
X107308Y736770D01*
X107302Y736657D01*
X107300Y736544D01*
X102108Y737193D02*
X102108Y733298D01*
X102108Y737193D02*
X102110Y737294D01*
X102116Y737394D01*
X102126Y737494D01*
X102139Y737594D01*
X102157Y737693D01*
X102178Y737792D01*
X102203Y737889D01*
X102232Y737986D01*
X102265Y738081D01*
X102301Y738175D01*
X102341Y738267D01*
X102384Y738358D01*
X102431Y738447D01*
X102481Y738534D01*
X102535Y738620D01*
X102592Y738703D01*
X102652Y738783D01*
X102715Y738862D01*
X102782Y738938D01*
X102851Y739011D01*
X102923Y739081D01*
X102997Y739149D01*
X103074Y739214D01*
X103154Y739275D01*
X103236Y739334D01*
X103320Y739389D01*
X103406Y739441D01*
X103494Y739490D01*
X103584Y739535D01*
X103676Y739577D01*
X103769Y739615D01*
X103864Y739649D01*
X103959Y739680D01*
X104056Y739707D01*
X104154Y739730D01*
X104253Y739750D01*
X104353Y739765D01*
X104453Y739777D01*
X104553Y739785D01*
X104654Y739789D01*
X104754Y739789D01*
X104855Y739785D01*
X104955Y739777D01*
X105055Y739765D01*
X105155Y739750D01*
X105254Y739730D01*
X105352Y739707D01*
X105449Y739680D01*
X105544Y739649D01*
X105639Y739615D01*
X105732Y739577D01*
X105824Y739535D01*
X105914Y739490D01*
X106002Y739441D01*
X106088Y739389D01*
X106172Y739334D01*
X106254Y739275D01*
X106334Y739214D01*
X106411Y739149D01*
X106485Y739081D01*
X106557Y739011D01*
X106626Y738938D01*
X106693Y738862D01*
X106756Y738783D01*
X106816Y738703D01*
X106873Y738620D01*
X106927Y738534D01*
X106977Y738447D01*
X107024Y738358D01*
X107067Y738267D01*
X107107Y738175D01*
X107143Y738081D01*
X107176Y737986D01*
X107205Y737889D01*
X107230Y737792D01*
X107251Y737693D01*
X107269Y737594D01*
X107282Y737494D01*
X107292Y737394D01*
X107298Y737294D01*
X107300Y737193D01*
X107301Y737193D02*
X107301Y734596D01*
X102108Y707954D02*
X111196Y705358D01*
X111196Y711849D01*
X108599Y709902D02*
X113792Y709902D01*
X113792Y681313D02*
X113792Y677418D01*
X113792Y681313D02*
X113790Y681412D01*
X113784Y681512D01*
X113775Y681611D01*
X113762Y681709D01*
X113745Y681807D01*
X113724Y681905D01*
X113699Y682001D01*
X113671Y682096D01*
X113639Y682190D01*
X113604Y682283D01*
X113565Y682375D01*
X113522Y682465D01*
X113477Y682553D01*
X113427Y682640D01*
X113375Y682724D01*
X113319Y682807D01*
X113261Y682887D01*
X113199Y682965D01*
X113134Y683040D01*
X113066Y683113D01*
X112996Y683183D01*
X112923Y683251D01*
X112848Y683316D01*
X112770Y683378D01*
X112690Y683436D01*
X112607Y683492D01*
X112523Y683544D01*
X112436Y683594D01*
X112348Y683639D01*
X112258Y683682D01*
X112166Y683721D01*
X112073Y683756D01*
X111979Y683788D01*
X111884Y683816D01*
X111788Y683841D01*
X111690Y683862D01*
X111592Y683879D01*
X111494Y683892D01*
X111395Y683901D01*
X111295Y683907D01*
X111196Y683909D01*
X109897Y683909D01*
X109798Y683907D01*
X109698Y683901D01*
X109599Y683892D01*
X109501Y683879D01*
X109403Y683862D01*
X109305Y683841D01*
X109209Y683816D01*
X109114Y683788D01*
X109020Y683756D01*
X108927Y683721D01*
X108835Y683682D01*
X108745Y683639D01*
X108657Y683594D01*
X108570Y683544D01*
X108486Y683492D01*
X108403Y683436D01*
X108323Y683378D01*
X108245Y683316D01*
X108170Y683251D01*
X108097Y683183D01*
X108027Y683113D01*
X107959Y683040D01*
X107894Y682965D01*
X107832Y682887D01*
X107774Y682807D01*
X107718Y682724D01*
X107666Y682640D01*
X107616Y682553D01*
X107571Y682465D01*
X107528Y682375D01*
X107489Y682283D01*
X107454Y682190D01*
X107422Y682096D01*
X107394Y682001D01*
X107369Y681905D01*
X107348Y681807D01*
X107331Y681709D01*
X107318Y681611D01*
X107309Y681512D01*
X107303Y681412D01*
X107301Y681313D01*
X107301Y677418D01*
X102108Y677418D01*
X102108Y683909D01*
X170801Y775208D02*
X170801Y779103D01*
X170803Y779202D01*
X170809Y779302D01*
X170818Y779401D01*
X170831Y779499D01*
X170848Y779597D01*
X170869Y779695D01*
X170894Y779791D01*
X170922Y779886D01*
X170954Y779980D01*
X170989Y780073D01*
X171028Y780165D01*
X171071Y780255D01*
X171116Y780343D01*
X171166Y780430D01*
X171218Y780514D01*
X171274Y780597D01*
X171332Y780677D01*
X171394Y780755D01*
X171459Y780830D01*
X171527Y780903D01*
X171597Y780973D01*
X171670Y781041D01*
X171745Y781106D01*
X171823Y781168D01*
X171903Y781226D01*
X171986Y781282D01*
X172070Y781334D01*
X172157Y781384D01*
X172245Y781429D01*
X172335Y781472D01*
X172427Y781511D01*
X172520Y781546D01*
X172614Y781578D01*
X172709Y781606D01*
X172805Y781631D01*
X172903Y781652D01*
X173001Y781669D01*
X173099Y781682D01*
X173198Y781691D01*
X173298Y781697D01*
X173397Y781699D01*
X174046Y781699D01*
X174046Y781700D02*
X174159Y781698D01*
X174272Y781692D01*
X174385Y781682D01*
X174498Y781668D01*
X174610Y781651D01*
X174721Y781629D01*
X174831Y781604D01*
X174941Y781574D01*
X175049Y781541D01*
X175156Y781504D01*
X175262Y781464D01*
X175366Y781419D01*
X175469Y781371D01*
X175570Y781320D01*
X175669Y781265D01*
X175766Y781207D01*
X175861Y781145D01*
X175954Y781080D01*
X176044Y781012D01*
X176132Y780941D01*
X176218Y780866D01*
X176301Y780789D01*
X176381Y780709D01*
X176458Y780626D01*
X176533Y780540D01*
X176604Y780452D01*
X176672Y780362D01*
X176737Y780269D01*
X176799Y780174D01*
X176857Y780077D01*
X176912Y779978D01*
X176963Y779877D01*
X177011Y779774D01*
X177056Y779670D01*
X177096Y779564D01*
X177133Y779457D01*
X177166Y779349D01*
X177196Y779239D01*
X177221Y779129D01*
X177243Y779018D01*
X177260Y778906D01*
X177274Y778793D01*
X177284Y778680D01*
X177290Y778567D01*
X177292Y778454D01*
X177290Y778341D01*
X177284Y778228D01*
X177274Y778115D01*
X177260Y778002D01*
X177243Y777890D01*
X177221Y777779D01*
X177196Y777669D01*
X177166Y777559D01*
X177133Y777451D01*
X177096Y777344D01*
X177056Y777238D01*
X177011Y777134D01*
X176963Y777031D01*
X176912Y776930D01*
X176857Y776831D01*
X176799Y776734D01*
X176737Y776639D01*
X176672Y776546D01*
X176604Y776456D01*
X176533Y776368D01*
X176458Y776282D01*
X176381Y776199D01*
X176301Y776119D01*
X176218Y776042D01*
X176132Y775967D01*
X176044Y775896D01*
X175954Y775828D01*
X175861Y775763D01*
X175766Y775701D01*
X175669Y775643D01*
X175570Y775588D01*
X175469Y775537D01*
X175366Y775489D01*
X175262Y775444D01*
X175156Y775404D01*
X175049Y775367D01*
X174941Y775334D01*
X174831Y775304D01*
X174721Y775279D01*
X174610Y775257D01*
X174498Y775240D01*
X174385Y775226D01*
X174272Y775216D01*
X174159Y775210D01*
X174046Y775208D01*
X170801Y775208D01*
X170658Y775210D01*
X170515Y775216D01*
X170372Y775226D01*
X170230Y775240D01*
X170088Y775257D01*
X169946Y775279D01*
X169805Y775304D01*
X169665Y775334D01*
X169526Y775367D01*
X169388Y775404D01*
X169251Y775445D01*
X169115Y775489D01*
X168980Y775538D01*
X168847Y775590D01*
X168715Y775645D01*
X168585Y775705D01*
X168456Y775768D01*
X168329Y775834D01*
X168205Y775904D01*
X168082Y775977D01*
X167961Y776054D01*
X167842Y776133D01*
X167726Y776217D01*
X167611Y776303D01*
X167500Y776392D01*
X167391Y776485D01*
X167284Y776580D01*
X167180Y776679D01*
X167079Y776780D01*
X166980Y776884D01*
X166885Y776990D01*
X166792Y777100D01*
X166703Y777211D01*
X166617Y777325D01*
X166534Y777442D01*
X166454Y777561D01*
X166377Y777682D01*
X166304Y777804D01*
X166234Y777929D01*
X166168Y778056D01*
X166105Y778185D01*
X166045Y778315D01*
X165990Y778447D01*
X165938Y778580D01*
X165889Y778715D01*
X165845Y778851D01*
X165804Y778988D01*
X165767Y779126D01*
X165734Y779265D01*
X165704Y779405D01*
X165679Y779546D01*
X165657Y779688D01*
X165640Y779830D01*
X165626Y779972D01*
X165616Y780115D01*
X165610Y780258D01*
X165608Y780401D01*
X165608Y747268D02*
X166906Y747268D01*
X165608Y747268D02*
X165608Y753759D01*
X177292Y750514D01*
X174046Y725820D02*
X173933Y725818D01*
X173820Y725812D01*
X173707Y725802D01*
X173594Y725788D01*
X173482Y725771D01*
X173371Y725749D01*
X173261Y725724D01*
X173151Y725694D01*
X173043Y725661D01*
X172936Y725624D01*
X172830Y725584D01*
X172726Y725539D01*
X172623Y725491D01*
X172522Y725440D01*
X172423Y725385D01*
X172326Y725327D01*
X172231Y725265D01*
X172138Y725200D01*
X172048Y725132D01*
X171960Y725061D01*
X171874Y724986D01*
X171791Y724909D01*
X171711Y724829D01*
X171634Y724746D01*
X171559Y724660D01*
X171488Y724572D01*
X171420Y724482D01*
X171355Y724389D01*
X171293Y724294D01*
X171235Y724197D01*
X171180Y724098D01*
X171129Y723997D01*
X171081Y723894D01*
X171036Y723790D01*
X170996Y723684D01*
X170959Y723577D01*
X170926Y723469D01*
X170896Y723359D01*
X170871Y723249D01*
X170849Y723138D01*
X170832Y723026D01*
X170818Y722913D01*
X170808Y722800D01*
X170802Y722687D01*
X170800Y722574D01*
X170802Y722461D01*
X170808Y722348D01*
X170818Y722235D01*
X170832Y722122D01*
X170849Y722010D01*
X170871Y721899D01*
X170896Y721789D01*
X170926Y721679D01*
X170959Y721571D01*
X170996Y721464D01*
X171036Y721358D01*
X171081Y721254D01*
X171129Y721151D01*
X171180Y721050D01*
X171235Y720951D01*
X171293Y720854D01*
X171355Y720759D01*
X171420Y720666D01*
X171488Y720576D01*
X171559Y720488D01*
X171634Y720402D01*
X171711Y720319D01*
X171791Y720239D01*
X171874Y720162D01*
X171960Y720087D01*
X172048Y720016D01*
X172138Y719948D01*
X172231Y719883D01*
X172326Y719821D01*
X172423Y719763D01*
X172522Y719708D01*
X172623Y719657D01*
X172726Y719609D01*
X172830Y719564D01*
X172936Y719524D01*
X173043Y719487D01*
X173151Y719454D01*
X173261Y719424D01*
X173371Y719399D01*
X173482Y719377D01*
X173594Y719360D01*
X173707Y719346D01*
X173820Y719336D01*
X173933Y719330D01*
X174046Y719328D01*
X174159Y719330D01*
X174272Y719336D01*
X174385Y719346D01*
X174498Y719360D01*
X174610Y719377D01*
X174721Y719399D01*
X174831Y719424D01*
X174941Y719454D01*
X175049Y719487D01*
X175156Y719524D01*
X175262Y719564D01*
X175366Y719609D01*
X175469Y719657D01*
X175570Y719708D01*
X175669Y719763D01*
X175766Y719821D01*
X175861Y719883D01*
X175954Y719948D01*
X176044Y720016D01*
X176132Y720087D01*
X176218Y720162D01*
X176301Y720239D01*
X176381Y720319D01*
X176458Y720402D01*
X176533Y720488D01*
X176604Y720576D01*
X176672Y720666D01*
X176737Y720759D01*
X176799Y720854D01*
X176857Y720951D01*
X176912Y721050D01*
X176963Y721151D01*
X177011Y721254D01*
X177056Y721358D01*
X177096Y721464D01*
X177133Y721571D01*
X177166Y721679D01*
X177196Y721789D01*
X177221Y721899D01*
X177243Y722010D01*
X177260Y722122D01*
X177274Y722235D01*
X177284Y722348D01*
X177290Y722461D01*
X177292Y722574D01*
X177290Y722687D01*
X177284Y722800D01*
X177274Y722913D01*
X177260Y723026D01*
X177243Y723138D01*
X177221Y723249D01*
X177196Y723359D01*
X177166Y723469D01*
X177133Y723577D01*
X177096Y723684D01*
X177056Y723790D01*
X177011Y723894D01*
X176963Y723997D01*
X176912Y724098D01*
X176857Y724197D01*
X176799Y724294D01*
X176737Y724389D01*
X176672Y724482D01*
X176604Y724572D01*
X176533Y724660D01*
X176458Y724746D01*
X176381Y724829D01*
X176301Y724909D01*
X176218Y724986D01*
X176132Y725061D01*
X176044Y725132D01*
X175954Y725200D01*
X175861Y725265D01*
X175766Y725327D01*
X175669Y725385D01*
X175570Y725440D01*
X175469Y725491D01*
X175366Y725539D01*
X175262Y725584D01*
X175156Y725624D01*
X175049Y725661D01*
X174941Y725694D01*
X174831Y725724D01*
X174721Y725749D01*
X174610Y725771D01*
X174498Y725788D01*
X174385Y725802D01*
X174272Y725812D01*
X174159Y725818D01*
X174046Y725820D01*
X168204Y725170D02*
X168103Y725168D01*
X168003Y725162D01*
X167903Y725152D01*
X167803Y725139D01*
X167704Y725121D01*
X167605Y725100D01*
X167508Y725075D01*
X167411Y725046D01*
X167316Y725013D01*
X167222Y724977D01*
X167130Y724937D01*
X167039Y724894D01*
X166950Y724847D01*
X166863Y724797D01*
X166777Y724743D01*
X166694Y724686D01*
X166614Y724626D01*
X166535Y724563D01*
X166459Y724496D01*
X166386Y724427D01*
X166316Y724355D01*
X166248Y724281D01*
X166183Y724204D01*
X166122Y724124D01*
X166063Y724042D01*
X166008Y723958D01*
X165956Y723872D01*
X165907Y723784D01*
X165862Y723694D01*
X165820Y723602D01*
X165782Y723509D01*
X165748Y723414D01*
X165717Y723319D01*
X165690Y723222D01*
X165667Y723124D01*
X165647Y723025D01*
X165632Y722925D01*
X165620Y722825D01*
X165612Y722725D01*
X165608Y722624D01*
X165608Y722524D01*
X165612Y722423D01*
X165620Y722323D01*
X165632Y722223D01*
X165647Y722123D01*
X165667Y722024D01*
X165690Y721926D01*
X165717Y721829D01*
X165748Y721734D01*
X165782Y721639D01*
X165820Y721546D01*
X165862Y721454D01*
X165907Y721364D01*
X165956Y721276D01*
X166008Y721190D01*
X166063Y721106D01*
X166122Y721024D01*
X166183Y720944D01*
X166248Y720867D01*
X166316Y720793D01*
X166386Y720721D01*
X166459Y720652D01*
X166535Y720585D01*
X166614Y720522D01*
X166694Y720462D01*
X166777Y720405D01*
X166863Y720351D01*
X166950Y720301D01*
X167039Y720254D01*
X167130Y720211D01*
X167222Y720171D01*
X167316Y720135D01*
X167411Y720102D01*
X167508Y720073D01*
X167605Y720048D01*
X167704Y720027D01*
X167803Y720009D01*
X167903Y719996D01*
X168003Y719986D01*
X168103Y719980D01*
X168204Y719978D01*
X168305Y719980D01*
X168405Y719986D01*
X168505Y719996D01*
X168605Y720009D01*
X168704Y720027D01*
X168803Y720048D01*
X168900Y720073D01*
X168997Y720102D01*
X169092Y720135D01*
X169186Y720171D01*
X169278Y720211D01*
X169369Y720254D01*
X169458Y720301D01*
X169545Y720351D01*
X169631Y720405D01*
X169714Y720462D01*
X169794Y720522D01*
X169873Y720585D01*
X169949Y720652D01*
X170022Y720721D01*
X170092Y720793D01*
X170160Y720867D01*
X170225Y720944D01*
X170286Y721024D01*
X170345Y721106D01*
X170400Y721190D01*
X170452Y721276D01*
X170501Y721364D01*
X170546Y721454D01*
X170588Y721546D01*
X170626Y721639D01*
X170660Y721734D01*
X170691Y721829D01*
X170718Y721926D01*
X170741Y722024D01*
X170761Y722123D01*
X170776Y722223D01*
X170788Y722323D01*
X170796Y722423D01*
X170800Y722524D01*
X170800Y722624D01*
X170796Y722725D01*
X170788Y722825D01*
X170776Y722925D01*
X170761Y723025D01*
X170741Y723124D01*
X170718Y723222D01*
X170691Y723319D01*
X170660Y723414D01*
X170626Y723509D01*
X170588Y723602D01*
X170546Y723694D01*
X170501Y723784D01*
X170452Y723872D01*
X170400Y723958D01*
X170345Y724042D01*
X170286Y724124D01*
X170225Y724204D01*
X170160Y724281D01*
X170092Y724355D01*
X170022Y724427D01*
X169949Y724496D01*
X169873Y724563D01*
X169794Y724626D01*
X169714Y724686D01*
X169631Y724743D01*
X169545Y724797D01*
X169458Y724847D01*
X169369Y724894D01*
X169278Y724937D01*
X169186Y724977D01*
X169092Y725013D01*
X168997Y725046D01*
X168900Y725075D01*
X168803Y725100D01*
X168704Y725121D01*
X168605Y725139D01*
X168505Y725152D01*
X168405Y725162D01*
X168305Y725168D01*
X168204Y725170D01*
X172099Y696609D02*
X172099Y692714D01*
X172097Y692615D01*
X172091Y692515D01*
X172082Y692416D01*
X172069Y692318D01*
X172052Y692220D01*
X172031Y692122D01*
X172006Y692026D01*
X171978Y691931D01*
X171946Y691837D01*
X171911Y691744D01*
X171872Y691652D01*
X171829Y691562D01*
X171784Y691474D01*
X171734Y691387D01*
X171682Y691303D01*
X171626Y691220D01*
X171568Y691140D01*
X171506Y691062D01*
X171441Y690987D01*
X171373Y690914D01*
X171303Y690844D01*
X171230Y690776D01*
X171155Y690711D01*
X171077Y690649D01*
X170997Y690591D01*
X170914Y690535D01*
X170830Y690483D01*
X170743Y690433D01*
X170655Y690388D01*
X170565Y690345D01*
X170473Y690306D01*
X170380Y690271D01*
X170286Y690239D01*
X170191Y690211D01*
X170095Y690186D01*
X169997Y690165D01*
X169899Y690148D01*
X169801Y690135D01*
X169702Y690126D01*
X169602Y690120D01*
X169503Y690118D01*
X168854Y690118D01*
X168741Y690120D01*
X168628Y690126D01*
X168515Y690136D01*
X168402Y690150D01*
X168290Y690167D01*
X168179Y690189D01*
X168069Y690214D01*
X167959Y690244D01*
X167851Y690277D01*
X167744Y690314D01*
X167638Y690354D01*
X167534Y690399D01*
X167431Y690447D01*
X167330Y690498D01*
X167231Y690553D01*
X167134Y690611D01*
X167039Y690673D01*
X166946Y690738D01*
X166856Y690806D01*
X166768Y690877D01*
X166682Y690952D01*
X166599Y691029D01*
X166519Y691109D01*
X166442Y691192D01*
X166367Y691278D01*
X166296Y691366D01*
X166228Y691456D01*
X166163Y691549D01*
X166101Y691644D01*
X166043Y691741D01*
X165988Y691840D01*
X165937Y691941D01*
X165889Y692044D01*
X165844Y692148D01*
X165804Y692254D01*
X165767Y692361D01*
X165734Y692469D01*
X165704Y692579D01*
X165679Y692689D01*
X165657Y692800D01*
X165640Y692912D01*
X165626Y693025D01*
X165616Y693138D01*
X165610Y693251D01*
X165608Y693364D01*
X165610Y693477D01*
X165616Y693590D01*
X165626Y693703D01*
X165640Y693816D01*
X165657Y693928D01*
X165679Y694039D01*
X165704Y694149D01*
X165734Y694259D01*
X165767Y694367D01*
X165804Y694474D01*
X165844Y694580D01*
X165889Y694684D01*
X165937Y694787D01*
X165988Y694888D01*
X166043Y694987D01*
X166101Y695084D01*
X166163Y695179D01*
X166228Y695272D01*
X166296Y695362D01*
X166367Y695450D01*
X166442Y695536D01*
X166519Y695619D01*
X166599Y695699D01*
X166682Y695776D01*
X166768Y695851D01*
X166856Y695922D01*
X166946Y695990D01*
X167039Y696055D01*
X167134Y696117D01*
X167231Y696175D01*
X167330Y696230D01*
X167431Y696281D01*
X167534Y696329D01*
X167638Y696374D01*
X167744Y696414D01*
X167851Y696451D01*
X167959Y696484D01*
X168069Y696514D01*
X168179Y696539D01*
X168290Y696561D01*
X168402Y696578D01*
X168515Y696592D01*
X168628Y696602D01*
X168741Y696608D01*
X168854Y696610D01*
X168854Y696609D02*
X172099Y696609D01*
X172242Y696607D01*
X172385Y696601D01*
X172528Y696591D01*
X172670Y696577D01*
X172812Y696560D01*
X172954Y696538D01*
X173095Y696513D01*
X173235Y696483D01*
X173374Y696450D01*
X173512Y696413D01*
X173649Y696372D01*
X173785Y696328D01*
X173920Y696279D01*
X174053Y696227D01*
X174185Y696172D01*
X174315Y696112D01*
X174444Y696049D01*
X174571Y695983D01*
X174696Y695913D01*
X174818Y695840D01*
X174939Y695763D01*
X175058Y695683D01*
X175174Y695600D01*
X175289Y695514D01*
X175400Y695425D01*
X175510Y695332D01*
X175616Y695237D01*
X175720Y695138D01*
X175821Y695037D01*
X175920Y694933D01*
X176015Y694827D01*
X176108Y694717D01*
X176197Y694606D01*
X176283Y694491D01*
X176366Y694375D01*
X176446Y694256D01*
X176523Y694135D01*
X176596Y694013D01*
X176666Y693888D01*
X176732Y693761D01*
X176795Y693632D01*
X176855Y693502D01*
X176910Y693370D01*
X176962Y693237D01*
X177011Y693102D01*
X177055Y692966D01*
X177096Y692829D01*
X177133Y692691D01*
X177166Y692552D01*
X177196Y692412D01*
X177221Y692271D01*
X177243Y692129D01*
X177260Y691987D01*
X177274Y691845D01*
X177284Y691702D01*
X177290Y691559D01*
X177292Y691416D01*
D10*
X62738Y721924D02*
X62738Y725537D01*
X62738Y721924D02*
X62736Y721806D01*
X62730Y721688D01*
X62721Y721570D01*
X62707Y721453D01*
X62690Y721336D01*
X62669Y721219D01*
X62644Y721104D01*
X62615Y720989D01*
X62582Y720875D01*
X62546Y720763D01*
X62506Y720652D01*
X62463Y720542D01*
X62416Y720433D01*
X62366Y720326D01*
X62311Y720221D01*
X62254Y720118D01*
X62193Y720017D01*
X62129Y719917D01*
X62062Y719820D01*
X61992Y719725D01*
X61918Y719633D01*
X61842Y719542D01*
X61762Y719455D01*
X61680Y719370D01*
X61595Y719288D01*
X61508Y719208D01*
X61417Y719132D01*
X61325Y719058D01*
X61230Y718988D01*
X61133Y718921D01*
X61033Y718857D01*
X60932Y718796D01*
X60829Y718739D01*
X60724Y718684D01*
X60617Y718634D01*
X60508Y718587D01*
X60398Y718544D01*
X60287Y718504D01*
X60175Y718468D01*
X60061Y718435D01*
X59946Y718406D01*
X59831Y718381D01*
X59714Y718360D01*
X59597Y718343D01*
X59480Y718329D01*
X59362Y718320D01*
X59244Y718314D01*
X59126Y718312D01*
X50094Y718312D01*
X49976Y718314D01*
X49858Y718320D01*
X49740Y718329D01*
X49622Y718343D01*
X49505Y718360D01*
X49389Y718381D01*
X49274Y718406D01*
X49159Y718435D01*
X49045Y718468D01*
X48933Y718504D01*
X48821Y718544D01*
X48711Y718587D01*
X48603Y718634D01*
X48496Y718685D01*
X48391Y718739D01*
X48288Y718796D01*
X48186Y718857D01*
X48087Y718921D01*
X47990Y718988D01*
X47895Y719059D01*
X47802Y719132D01*
X47712Y719209D01*
X47624Y719288D01*
X47539Y719370D01*
X47457Y719455D01*
X47378Y719543D01*
X47301Y719633D01*
X47228Y719726D01*
X47157Y719820D01*
X47090Y719918D01*
X47026Y720017D01*
X46965Y720118D01*
X46908Y720222D01*
X46854Y720327D01*
X46803Y720434D01*
X46756Y720542D01*
X46713Y720652D01*
X46673Y720764D01*
X46637Y720876D01*
X46604Y720990D01*
X46575Y721105D01*
X46550Y721220D01*
X46529Y721336D01*
X46512Y721453D01*
X46498Y721571D01*
X46489Y721689D01*
X46483Y721807D01*
X46481Y721925D01*
X46482Y721924D02*
X46482Y725537D01*
X50998Y731378D02*
X58222Y731378D01*
X50998Y731377D02*
X50865Y731379D01*
X50733Y731385D01*
X50601Y731395D01*
X50469Y731408D01*
X50337Y731426D01*
X50207Y731447D01*
X50076Y731472D01*
X49947Y731501D01*
X49819Y731534D01*
X49691Y731570D01*
X49565Y731610D01*
X49440Y731654D01*
X49316Y731702D01*
X49194Y731753D01*
X49073Y731808D01*
X48954Y731866D01*
X48836Y731928D01*
X48721Y731993D01*
X48607Y732062D01*
X48496Y732133D01*
X48387Y732209D01*
X48280Y732287D01*
X48175Y732368D01*
X48073Y732453D01*
X47973Y732540D01*
X47876Y732630D01*
X47781Y732723D01*
X47690Y732819D01*
X47601Y732917D01*
X47515Y733018D01*
X47432Y733122D01*
X47352Y733228D01*
X47276Y733336D01*
X47202Y733446D01*
X47132Y733559D01*
X47065Y733673D01*
X47002Y733790D01*
X46942Y733908D01*
X46885Y734028D01*
X46832Y734150D01*
X46783Y734273D01*
X46737Y734397D01*
X46695Y734523D01*
X46657Y734650D01*
X46622Y734778D01*
X46591Y734907D01*
X46564Y735036D01*
X46541Y735167D01*
X46521Y735298D01*
X46506Y735430D01*
X46494Y735562D01*
X46486Y735694D01*
X46482Y735827D01*
X46482Y735959D01*
X46486Y736092D01*
X46494Y736224D01*
X46506Y736356D01*
X46521Y736488D01*
X46541Y736619D01*
X46564Y736750D01*
X46591Y736879D01*
X46622Y737008D01*
X46657Y737136D01*
X46695Y737263D01*
X46737Y737389D01*
X46783Y737513D01*
X46832Y737636D01*
X46885Y737758D01*
X46942Y737878D01*
X47002Y737996D01*
X47065Y738113D01*
X47132Y738227D01*
X47202Y738340D01*
X47276Y738450D01*
X47352Y738558D01*
X47432Y738664D01*
X47515Y738768D01*
X47601Y738869D01*
X47690Y738967D01*
X47781Y739063D01*
X47876Y739156D01*
X47973Y739246D01*
X48073Y739333D01*
X48175Y739418D01*
X48280Y739499D01*
X48387Y739577D01*
X48496Y739653D01*
X48607Y739724D01*
X48721Y739793D01*
X48836Y739858D01*
X48954Y739920D01*
X49073Y739978D01*
X49194Y740033D01*
X49316Y740084D01*
X49440Y740132D01*
X49565Y740176D01*
X49691Y740216D01*
X49819Y740252D01*
X49947Y740285D01*
X50076Y740314D01*
X50207Y740339D01*
X50337Y740360D01*
X50469Y740378D01*
X50601Y740391D01*
X50733Y740401D01*
X50865Y740407D01*
X50998Y740409D01*
X58222Y740409D01*
X58355Y740407D01*
X58487Y740401D01*
X58619Y740391D01*
X58751Y740378D01*
X58883Y740360D01*
X59013Y740339D01*
X59144Y740314D01*
X59273Y740285D01*
X59401Y740252D01*
X59529Y740216D01*
X59655Y740176D01*
X59780Y740132D01*
X59904Y740084D01*
X60026Y740033D01*
X60147Y739978D01*
X60266Y739920D01*
X60384Y739858D01*
X60499Y739793D01*
X60613Y739724D01*
X60724Y739653D01*
X60833Y739577D01*
X60940Y739499D01*
X61045Y739418D01*
X61147Y739333D01*
X61247Y739246D01*
X61344Y739156D01*
X61439Y739063D01*
X61530Y738967D01*
X61619Y738869D01*
X61705Y738768D01*
X61788Y738664D01*
X61868Y738558D01*
X61944Y738450D01*
X62018Y738340D01*
X62088Y738227D01*
X62155Y738113D01*
X62218Y737996D01*
X62278Y737878D01*
X62335Y737758D01*
X62388Y737636D01*
X62437Y737513D01*
X62483Y737389D01*
X62525Y737263D01*
X62563Y737136D01*
X62598Y737008D01*
X62629Y736879D01*
X62656Y736750D01*
X62679Y736619D01*
X62699Y736488D01*
X62714Y736356D01*
X62726Y736224D01*
X62734Y736092D01*
X62738Y735959D01*
X62738Y735827D01*
X62734Y735694D01*
X62726Y735562D01*
X62714Y735430D01*
X62699Y735298D01*
X62679Y735167D01*
X62656Y735036D01*
X62629Y734907D01*
X62598Y734778D01*
X62563Y734650D01*
X62525Y734523D01*
X62483Y734397D01*
X62437Y734273D01*
X62388Y734150D01*
X62335Y734028D01*
X62278Y733908D01*
X62218Y733790D01*
X62155Y733673D01*
X62088Y733559D01*
X62018Y733446D01*
X61944Y733336D01*
X61868Y733228D01*
X61788Y733122D01*
X61705Y733018D01*
X61619Y732917D01*
X61530Y732819D01*
X61439Y732723D01*
X61344Y732630D01*
X61247Y732540D01*
X61147Y732453D01*
X61045Y732368D01*
X60940Y732287D01*
X60833Y732209D01*
X60724Y732133D01*
X60613Y732062D01*
X60499Y731993D01*
X60384Y731928D01*
X60266Y731866D01*
X60147Y731808D01*
X60026Y731753D01*
X59904Y731702D01*
X59780Y731654D01*
X59655Y731610D01*
X59529Y731570D01*
X59401Y731534D01*
X59273Y731501D01*
X59144Y731472D01*
X59013Y731447D01*
X58883Y731426D01*
X58751Y731408D01*
X58619Y731395D01*
X58487Y731385D01*
X58355Y731379D01*
X58222Y731377D01*
X62738Y747530D02*
X46482Y747530D01*
X62738Y756561D01*
X46482Y756561D01*
X50094Y763682D02*
X46482Y768198D01*
X62738Y768198D01*
X62738Y772713D02*
X62738Y763682D01*
D14*
X70300Y425200D02*
X70300Y412200D01*
X70300Y425200D02*
X70300Y489200D01*
X70300Y502200D01*
X105300Y497200D02*
X105300Y412200D01*
X105300Y497200D02*
X105300Y502200D01*
X105300Y497200D02*
X190300Y497200D01*
X190300Y502200D01*
X70300Y502200D01*
X190300Y497200D02*
X205300Y497200D01*
X210300Y497200D01*
X80300Y489200D02*
X70300Y489200D01*
X90300Y489200D02*
X100300Y489200D01*
X110300Y489200D02*
X120300Y489200D01*
X130300Y489200D02*
X140300Y489200D01*
X150300Y489200D02*
X160300Y489200D01*
X80300Y425200D02*
X70300Y425200D01*
X90300Y425200D02*
X100300Y425200D01*
X110300Y425200D02*
X120300Y425200D01*
X130300Y425200D02*
X140300Y425200D01*
X150300Y425200D02*
X160300Y425200D01*
X160300Y444700D01*
X160300Y452200D01*
X160300Y462200D02*
X160300Y469700D01*
X160300Y489200D01*
X90300Y469700D02*
X89996Y469696D01*
X89691Y469685D01*
X89388Y469667D01*
X89084Y469641D01*
X88782Y469607D01*
X88480Y469567D01*
X88179Y469519D01*
X87880Y469464D01*
X87582Y469401D01*
X87286Y469331D01*
X86991Y469254D01*
X86699Y469170D01*
X86408Y469079D01*
X86120Y468980D01*
X85835Y468875D01*
X85552Y468763D01*
X85271Y468644D01*
X84994Y468518D01*
X84720Y468386D01*
X84450Y468246D01*
X84182Y468101D01*
X83919Y467948D01*
X83659Y467790D01*
X83403Y467625D01*
X83151Y467454D01*
X82904Y467277D01*
X82660Y467094D01*
X82422Y466905D01*
X82188Y466710D01*
X81959Y466510D01*
X81734Y466304D01*
X81515Y466092D01*
X81301Y465876D01*
X81093Y465654D01*
X80889Y465428D01*
X80692Y465196D01*
X80500Y464960D01*
X80314Y464719D01*
X80134Y464473D01*
X79960Y464224D01*
X79792Y463970D01*
X79630Y463712D01*
X79475Y463450D01*
X79326Y463185D01*
X79183Y462916D01*
X79047Y462643D01*
X78918Y462368D01*
X78796Y462089D01*
X78680Y461807D01*
X78571Y461523D01*
X78470Y461236D01*
X78375Y460947D01*
X78287Y460655D01*
X78206Y460362D01*
X78133Y460066D01*
X78067Y459769D01*
X78008Y459470D01*
X77956Y459170D01*
X77912Y458869D01*
X77875Y458567D01*
X77845Y458264D01*
X77823Y457961D01*
X77808Y457657D01*
X77801Y457352D01*
X77801Y457048D01*
X77808Y456743D01*
X77823Y456439D01*
X77845Y456136D01*
X77875Y455833D01*
X77912Y455531D01*
X77956Y455230D01*
X78008Y454930D01*
X78067Y454631D01*
X78133Y454334D01*
X78206Y454038D01*
X78287Y453745D01*
X78375Y453453D01*
X78470Y453164D01*
X78571Y452877D01*
X78680Y452593D01*
X78796Y452311D01*
X78918Y452032D01*
X79047Y451757D01*
X79183Y451484D01*
X79326Y451215D01*
X79475Y450950D01*
X79630Y450688D01*
X79792Y450430D01*
X79960Y450176D01*
X80134Y449927D01*
X80314Y449681D01*
X80500Y449440D01*
X80692Y449204D01*
X80889Y448972D01*
X81093Y448746D01*
X81301Y448524D01*
X81515Y448308D01*
X81734Y448096D01*
X81959Y447890D01*
X82188Y447690D01*
X82422Y447495D01*
X82660Y447306D01*
X82904Y447123D01*
X83151Y446946D01*
X83403Y446775D01*
X83659Y446610D01*
X83919Y446452D01*
X84182Y446299D01*
X84450Y446154D01*
X84720Y446014D01*
X84994Y445882D01*
X85271Y445756D01*
X85552Y445637D01*
X85835Y445525D01*
X86120Y445420D01*
X86408Y445321D01*
X86699Y445230D01*
X86991Y445146D01*
X87286Y445069D01*
X87582Y444999D01*
X87880Y444936D01*
X88179Y444881D01*
X88480Y444833D01*
X88782Y444793D01*
X89084Y444759D01*
X89388Y444733D01*
X89691Y444715D01*
X89996Y444704D01*
X90300Y444700D01*
X205300Y480700D02*
X205300Y497200D01*
X205300Y433700D02*
X205300Y417200D01*
X210300Y417200D02*
X210300Y433700D01*
X210300Y480700D02*
X210300Y497200D01*
X210300Y417200D02*
X205300Y417200D01*
X152200Y412200D02*
X70300Y412200D01*
X190300Y429900D02*
X190300Y497200D01*
D13*
X80603Y511104D02*
X80603Y520192D01*
X80602Y511104D02*
X80600Y511005D01*
X80594Y510905D01*
X80585Y510806D01*
X80572Y510708D01*
X80555Y510610D01*
X80534Y510512D01*
X80509Y510416D01*
X80481Y510321D01*
X80449Y510227D01*
X80414Y510134D01*
X80375Y510042D01*
X80332Y509952D01*
X80287Y509864D01*
X80237Y509777D01*
X80185Y509693D01*
X80129Y509610D01*
X80071Y509530D01*
X80009Y509452D01*
X79944Y509377D01*
X79876Y509304D01*
X79806Y509234D01*
X79733Y509166D01*
X79658Y509101D01*
X79580Y509039D01*
X79500Y508981D01*
X79417Y508925D01*
X79333Y508873D01*
X79246Y508823D01*
X79158Y508778D01*
X79068Y508735D01*
X78976Y508696D01*
X78883Y508661D01*
X78789Y508629D01*
X78694Y508601D01*
X78598Y508576D01*
X78500Y508555D01*
X78402Y508538D01*
X78304Y508525D01*
X78205Y508516D01*
X78105Y508510D01*
X78006Y508508D01*
X76708Y508508D01*
X85227Y508508D02*
X89122Y520192D01*
X93016Y508508D01*
X92043Y511429D02*
X86201Y511429D01*
X99869Y508508D02*
X102466Y508508D01*
X99869Y508508D02*
X99770Y508510D01*
X99670Y508516D01*
X99571Y508525D01*
X99473Y508538D01*
X99375Y508555D01*
X99277Y508576D01*
X99181Y508601D01*
X99086Y508629D01*
X98992Y508661D01*
X98899Y508696D01*
X98807Y508735D01*
X98717Y508778D01*
X98629Y508823D01*
X98542Y508873D01*
X98458Y508925D01*
X98375Y508981D01*
X98295Y509039D01*
X98217Y509101D01*
X98142Y509166D01*
X98069Y509234D01*
X97999Y509304D01*
X97931Y509377D01*
X97866Y509452D01*
X97804Y509530D01*
X97746Y509610D01*
X97690Y509693D01*
X97638Y509777D01*
X97588Y509864D01*
X97543Y509952D01*
X97500Y510042D01*
X97461Y510134D01*
X97426Y510227D01*
X97394Y510321D01*
X97366Y510416D01*
X97341Y510512D01*
X97320Y510610D01*
X97303Y510708D01*
X97290Y510806D01*
X97281Y510905D01*
X97275Y511005D01*
X97273Y511104D01*
X97273Y517596D01*
X97275Y517695D01*
X97281Y517795D01*
X97290Y517894D01*
X97303Y517992D01*
X97320Y518090D01*
X97341Y518188D01*
X97366Y518284D01*
X97394Y518379D01*
X97426Y518473D01*
X97461Y518566D01*
X97500Y518658D01*
X97543Y518748D01*
X97588Y518836D01*
X97638Y518923D01*
X97690Y519007D01*
X97746Y519090D01*
X97804Y519170D01*
X97866Y519248D01*
X97931Y519323D01*
X97999Y519396D01*
X98069Y519466D01*
X98142Y519534D01*
X98217Y519599D01*
X98295Y519661D01*
X98375Y519719D01*
X98458Y519775D01*
X98542Y519827D01*
X98629Y519877D01*
X98717Y519922D01*
X98807Y519965D01*
X98899Y520004D01*
X98991Y520039D01*
X99086Y520071D01*
X99181Y520099D01*
X99277Y520124D01*
X99375Y520145D01*
X99473Y520162D01*
X99571Y520175D01*
X99670Y520184D01*
X99770Y520190D01*
X99869Y520192D01*
X102466Y520192D01*
X107381Y520192D02*
X107381Y508508D01*
X107381Y513052D02*
X113873Y520192D01*
X109978Y515648D02*
X113873Y508508D01*
X118261Y511104D02*
X120857Y520192D01*
X118261Y511104D02*
X124752Y511104D01*
X122805Y513701D02*
X122805Y508508D01*
D12*
X302260Y501650D02*
X662940Y501650D01*
X662940Y742950D02*
X302260Y742950D01*
X654050Y679450D02*
X654050Y666750D01*
X654050Y654050D02*
X654050Y641350D01*
X654050Y628650D02*
X654050Y615950D01*
X654050Y603250D02*
X654050Y590550D01*
X654050Y577850D02*
X654050Y565150D01*
X647700Y558800D01*
X635000Y558800D01*
X628650Y565150D01*
X628650Y577850D01*
X635000Y584200D01*
X628650Y590550D01*
X628650Y603250D01*
X635000Y609600D01*
X628650Y615950D01*
X628650Y628650D01*
X635000Y635000D01*
X628650Y641350D01*
X628650Y654050D01*
X635000Y660400D01*
X628650Y666750D01*
X628650Y679450D01*
X635000Y685800D01*
X647700Y685800D02*
X654050Y679450D01*
X654050Y666750D02*
X647700Y660400D01*
X654050Y654050D01*
X654050Y641350D02*
X647700Y635000D01*
X654050Y628650D01*
X654050Y615950D02*
X647700Y609600D01*
X654050Y603250D01*
X654050Y590550D02*
X647700Y584200D01*
X654050Y577850D01*
D13*
X598923Y565658D02*
X595028Y577342D01*
X602818Y577342D02*
X598923Y565658D01*
X609671Y565658D02*
X612267Y565658D01*
X609671Y565658D02*
X609572Y565660D01*
X609472Y565666D01*
X609373Y565675D01*
X609275Y565688D01*
X609177Y565705D01*
X609079Y565726D01*
X608983Y565751D01*
X608888Y565779D01*
X608794Y565811D01*
X608701Y565846D01*
X608609Y565885D01*
X608519Y565928D01*
X608431Y565973D01*
X608344Y566023D01*
X608260Y566075D01*
X608177Y566131D01*
X608097Y566189D01*
X608019Y566251D01*
X607944Y566316D01*
X607871Y566384D01*
X607801Y566454D01*
X607733Y566527D01*
X607668Y566602D01*
X607606Y566680D01*
X607548Y566760D01*
X607492Y566843D01*
X607440Y566927D01*
X607390Y567014D01*
X607345Y567102D01*
X607302Y567192D01*
X607263Y567284D01*
X607228Y567377D01*
X607196Y567471D01*
X607168Y567566D01*
X607143Y567662D01*
X607122Y567760D01*
X607105Y567858D01*
X607092Y567956D01*
X607083Y568055D01*
X607077Y568155D01*
X607075Y568254D01*
X607074Y568254D02*
X607074Y574746D01*
X607075Y574746D02*
X607077Y574845D01*
X607083Y574945D01*
X607092Y575044D01*
X607105Y575142D01*
X607122Y575240D01*
X607143Y575338D01*
X607168Y575434D01*
X607196Y575529D01*
X607228Y575623D01*
X607263Y575716D01*
X607302Y575808D01*
X607345Y575898D01*
X607390Y575986D01*
X607440Y576073D01*
X607492Y576157D01*
X607548Y576240D01*
X607606Y576320D01*
X607668Y576398D01*
X607733Y576473D01*
X607801Y576546D01*
X607871Y576616D01*
X607944Y576684D01*
X608019Y576749D01*
X608097Y576811D01*
X608177Y576869D01*
X608260Y576925D01*
X608344Y576977D01*
X608431Y577027D01*
X608519Y577072D01*
X608609Y577115D01*
X608701Y577154D01*
X608793Y577189D01*
X608888Y577221D01*
X608983Y577249D01*
X609079Y577274D01*
X609177Y577295D01*
X609275Y577312D01*
X609373Y577325D01*
X609472Y577334D01*
X609572Y577340D01*
X609671Y577342D01*
X612267Y577342D01*
X619196Y565658D02*
X621792Y565658D01*
X619196Y565658D02*
X619097Y565660D01*
X618997Y565666D01*
X618898Y565675D01*
X618800Y565688D01*
X618702Y565705D01*
X618604Y565726D01*
X618508Y565751D01*
X618413Y565779D01*
X618319Y565811D01*
X618226Y565846D01*
X618134Y565885D01*
X618044Y565928D01*
X617956Y565973D01*
X617869Y566023D01*
X617785Y566075D01*
X617702Y566131D01*
X617622Y566189D01*
X617544Y566251D01*
X617469Y566316D01*
X617396Y566384D01*
X617326Y566454D01*
X617258Y566527D01*
X617193Y566602D01*
X617131Y566680D01*
X617073Y566760D01*
X617017Y566843D01*
X616965Y566927D01*
X616915Y567014D01*
X616870Y567102D01*
X616827Y567192D01*
X616788Y567284D01*
X616753Y567377D01*
X616721Y567471D01*
X616693Y567566D01*
X616668Y567662D01*
X616647Y567760D01*
X616630Y567858D01*
X616617Y567956D01*
X616608Y568055D01*
X616602Y568155D01*
X616600Y568254D01*
X616599Y568254D02*
X616599Y574746D01*
X616600Y574746D02*
X616602Y574845D01*
X616608Y574945D01*
X616617Y575044D01*
X616630Y575142D01*
X616647Y575240D01*
X616668Y575338D01*
X616693Y575434D01*
X616721Y575529D01*
X616753Y575623D01*
X616788Y575716D01*
X616827Y575808D01*
X616870Y575898D01*
X616915Y575986D01*
X616965Y576073D01*
X617017Y576157D01*
X617073Y576240D01*
X617131Y576320D01*
X617193Y576398D01*
X617258Y576473D01*
X617326Y576546D01*
X617396Y576616D01*
X617469Y576684D01*
X617544Y576749D01*
X617622Y576811D01*
X617702Y576869D01*
X617785Y576925D01*
X617869Y576977D01*
X617956Y577027D01*
X618044Y577072D01*
X618134Y577115D01*
X618226Y577154D01*
X618318Y577189D01*
X618413Y577221D01*
X618508Y577249D01*
X618604Y577274D01*
X618702Y577295D01*
X618800Y577312D01*
X618898Y577325D01*
X618997Y577334D01*
X619097Y577340D01*
X619196Y577342D01*
X621792Y577342D01*
X597408Y597549D02*
X595461Y597549D01*
X597408Y597549D02*
X597408Y591058D01*
X593513Y591058D01*
X593414Y591060D01*
X593314Y591066D01*
X593215Y591075D01*
X593117Y591088D01*
X593019Y591105D01*
X592921Y591126D01*
X592825Y591151D01*
X592730Y591179D01*
X592636Y591211D01*
X592543Y591246D01*
X592451Y591285D01*
X592361Y591328D01*
X592273Y591373D01*
X592186Y591423D01*
X592102Y591475D01*
X592019Y591531D01*
X591939Y591589D01*
X591861Y591651D01*
X591786Y591716D01*
X591713Y591784D01*
X591643Y591854D01*
X591575Y591927D01*
X591510Y592002D01*
X591448Y592080D01*
X591390Y592160D01*
X591334Y592243D01*
X591282Y592327D01*
X591232Y592414D01*
X591187Y592502D01*
X591144Y592592D01*
X591105Y592684D01*
X591070Y592777D01*
X591038Y592871D01*
X591010Y592966D01*
X590985Y593062D01*
X590964Y593160D01*
X590947Y593258D01*
X590934Y593356D01*
X590925Y593455D01*
X590919Y593555D01*
X590917Y593654D01*
X590917Y600146D01*
X590919Y600245D01*
X590925Y600345D01*
X590934Y600444D01*
X590947Y600542D01*
X590964Y600640D01*
X590985Y600738D01*
X591010Y600834D01*
X591038Y600929D01*
X591070Y601023D01*
X591105Y601116D01*
X591144Y601208D01*
X591187Y601298D01*
X591232Y601386D01*
X591282Y601473D01*
X591334Y601557D01*
X591390Y601640D01*
X591448Y601720D01*
X591510Y601798D01*
X591575Y601873D01*
X591643Y601946D01*
X591713Y602016D01*
X591786Y602084D01*
X591861Y602149D01*
X591939Y602211D01*
X592019Y602269D01*
X592102Y602325D01*
X592186Y602377D01*
X592273Y602427D01*
X592361Y602472D01*
X592451Y602515D01*
X592543Y602554D01*
X592635Y602589D01*
X592730Y602621D01*
X592825Y602649D01*
X592921Y602674D01*
X593019Y602695D01*
X593117Y602712D01*
X593215Y602725D01*
X593314Y602734D01*
X593414Y602740D01*
X593513Y602742D01*
X597408Y602742D01*
X603109Y602742D02*
X603109Y591058D01*
X609600Y591058D02*
X603109Y602742D01*
X609600Y602742D02*
X609600Y591058D01*
X615301Y591058D02*
X615301Y602742D01*
X618546Y602742D01*
X618659Y602740D01*
X618772Y602734D01*
X618885Y602724D01*
X618998Y602710D01*
X619110Y602693D01*
X619221Y602671D01*
X619331Y602646D01*
X619441Y602616D01*
X619549Y602583D01*
X619656Y602546D01*
X619762Y602506D01*
X619866Y602461D01*
X619969Y602413D01*
X620070Y602362D01*
X620169Y602307D01*
X620266Y602249D01*
X620361Y602187D01*
X620454Y602122D01*
X620544Y602054D01*
X620632Y601983D01*
X620718Y601908D01*
X620801Y601831D01*
X620881Y601751D01*
X620958Y601668D01*
X621033Y601582D01*
X621104Y601494D01*
X621172Y601404D01*
X621237Y601311D01*
X621299Y601216D01*
X621357Y601119D01*
X621412Y601020D01*
X621463Y600919D01*
X621511Y600816D01*
X621556Y600712D01*
X621596Y600606D01*
X621633Y600499D01*
X621666Y600391D01*
X621696Y600281D01*
X621721Y600171D01*
X621743Y600060D01*
X621760Y599948D01*
X621774Y599835D01*
X621784Y599722D01*
X621790Y599609D01*
X621792Y599496D01*
X621792Y594304D01*
X621790Y594191D01*
X621784Y594078D01*
X621774Y593965D01*
X621760Y593852D01*
X621743Y593740D01*
X621721Y593629D01*
X621696Y593519D01*
X621666Y593409D01*
X621633Y593301D01*
X621596Y593194D01*
X621556Y593088D01*
X621511Y592984D01*
X621463Y592881D01*
X621412Y592780D01*
X621357Y592681D01*
X621299Y592584D01*
X621237Y592489D01*
X621172Y592396D01*
X621104Y592306D01*
X621033Y592218D01*
X620958Y592132D01*
X620881Y592049D01*
X620801Y591969D01*
X620718Y591892D01*
X620632Y591817D01*
X620544Y591746D01*
X620454Y591678D01*
X620361Y591613D01*
X620266Y591551D01*
X620169Y591493D01*
X620070Y591438D01*
X619969Y591387D01*
X619866Y591339D01*
X619762Y591294D01*
X619656Y591254D01*
X619549Y591217D01*
X619441Y591184D01*
X619331Y591154D01*
X619221Y591129D01*
X619110Y591107D01*
X618998Y591090D01*
X618885Y591076D01*
X618772Y591066D01*
X618659Y591060D01*
X618546Y591058D01*
X615301Y591058D01*
X596067Y616458D02*
X596067Y628142D01*
X592822Y628142D02*
X599313Y628142D01*
X610630Y628142D02*
X602841Y616458D01*
X610630Y616458D02*
X602841Y628142D01*
X615301Y628142D02*
X615301Y616458D01*
X615301Y628142D02*
X618546Y628142D01*
X618659Y628140D01*
X618772Y628134D01*
X618885Y628124D01*
X618998Y628110D01*
X619110Y628093D01*
X619221Y628071D01*
X619331Y628046D01*
X619441Y628016D01*
X619549Y627983D01*
X619656Y627946D01*
X619762Y627906D01*
X619866Y627861D01*
X619969Y627813D01*
X620070Y627762D01*
X620169Y627707D01*
X620266Y627649D01*
X620361Y627587D01*
X620454Y627522D01*
X620544Y627454D01*
X620632Y627383D01*
X620718Y627308D01*
X620801Y627231D01*
X620881Y627151D01*
X620958Y627068D01*
X621033Y626982D01*
X621104Y626894D01*
X621172Y626804D01*
X621237Y626711D01*
X621299Y626616D01*
X621357Y626519D01*
X621412Y626420D01*
X621463Y626319D01*
X621511Y626216D01*
X621556Y626112D01*
X621596Y626006D01*
X621633Y625899D01*
X621666Y625791D01*
X621696Y625681D01*
X621721Y625571D01*
X621743Y625460D01*
X621760Y625348D01*
X621774Y625235D01*
X621784Y625122D01*
X621790Y625009D01*
X621792Y624896D01*
X621792Y619704D01*
X621790Y619591D01*
X621784Y619478D01*
X621774Y619365D01*
X621760Y619252D01*
X621743Y619140D01*
X621721Y619029D01*
X621696Y618919D01*
X621666Y618809D01*
X621633Y618701D01*
X621596Y618594D01*
X621556Y618488D01*
X621511Y618384D01*
X621463Y618281D01*
X621412Y618180D01*
X621357Y618081D01*
X621299Y617984D01*
X621237Y617889D01*
X621172Y617796D01*
X621104Y617706D01*
X621033Y617618D01*
X620958Y617532D01*
X620881Y617449D01*
X620801Y617369D01*
X620718Y617292D01*
X620632Y617217D01*
X620544Y617146D01*
X620454Y617078D01*
X620361Y617013D01*
X620266Y616951D01*
X620169Y616893D01*
X620070Y616838D01*
X619969Y616787D01*
X619866Y616739D01*
X619762Y616694D01*
X619656Y616654D01*
X619549Y616617D01*
X619441Y616584D01*
X619331Y616554D01*
X619221Y616529D01*
X619110Y616507D01*
X618998Y616490D01*
X618885Y616476D01*
X618772Y616466D01*
X618659Y616460D01*
X618546Y616458D01*
X615301Y616458D01*
X592134Y641858D02*
X592134Y653542D01*
X595379Y653542D01*
X595492Y653540D01*
X595605Y653534D01*
X595718Y653524D01*
X595831Y653510D01*
X595943Y653493D01*
X596054Y653471D01*
X596164Y653446D01*
X596274Y653416D01*
X596382Y653383D01*
X596489Y653346D01*
X596595Y653306D01*
X596699Y653261D01*
X596802Y653213D01*
X596903Y653162D01*
X597002Y653107D01*
X597099Y653049D01*
X597194Y652987D01*
X597287Y652922D01*
X597377Y652854D01*
X597465Y652783D01*
X597551Y652708D01*
X597634Y652631D01*
X597714Y652551D01*
X597791Y652468D01*
X597866Y652382D01*
X597937Y652294D01*
X598005Y652204D01*
X598070Y652111D01*
X598132Y652016D01*
X598190Y651919D01*
X598245Y651820D01*
X598296Y651719D01*
X598344Y651616D01*
X598389Y651512D01*
X598429Y651406D01*
X598466Y651299D01*
X598499Y651191D01*
X598529Y651081D01*
X598554Y650971D01*
X598576Y650860D01*
X598593Y650748D01*
X598607Y650635D01*
X598617Y650522D01*
X598623Y650409D01*
X598625Y650296D01*
X598623Y650183D01*
X598617Y650070D01*
X598607Y649957D01*
X598593Y649844D01*
X598576Y649732D01*
X598554Y649621D01*
X598529Y649511D01*
X598499Y649401D01*
X598466Y649293D01*
X598429Y649186D01*
X598389Y649080D01*
X598344Y648976D01*
X598296Y648873D01*
X598245Y648772D01*
X598190Y648673D01*
X598132Y648576D01*
X598070Y648481D01*
X598005Y648388D01*
X597937Y648298D01*
X597866Y648210D01*
X597791Y648124D01*
X597714Y648041D01*
X597634Y647961D01*
X597551Y647884D01*
X597465Y647809D01*
X597377Y647738D01*
X597287Y647670D01*
X597194Y647605D01*
X597099Y647543D01*
X597002Y647485D01*
X596903Y647430D01*
X596802Y647379D01*
X596699Y647331D01*
X596595Y647286D01*
X596489Y647246D01*
X596382Y647209D01*
X596274Y647176D01*
X596164Y647146D01*
X596054Y647121D01*
X595943Y647099D01*
X595831Y647082D01*
X595718Y647068D01*
X595605Y647058D01*
X595492Y647052D01*
X595379Y647050D01*
X595379Y647051D02*
X592134Y647051D01*
X596028Y647051D02*
X598625Y641858D01*
X602841Y641858D02*
X610630Y653542D01*
X602841Y653542D02*
X610630Y641858D01*
X615301Y641858D02*
X615301Y653542D01*
X618546Y653542D01*
X618659Y653540D01*
X618772Y653534D01*
X618885Y653524D01*
X618998Y653510D01*
X619110Y653493D01*
X619221Y653471D01*
X619331Y653446D01*
X619441Y653416D01*
X619549Y653383D01*
X619656Y653346D01*
X619762Y653306D01*
X619866Y653261D01*
X619969Y653213D01*
X620070Y653162D01*
X620169Y653107D01*
X620266Y653049D01*
X620361Y652987D01*
X620454Y652922D01*
X620544Y652854D01*
X620632Y652783D01*
X620718Y652708D01*
X620801Y652631D01*
X620881Y652551D01*
X620958Y652468D01*
X621033Y652382D01*
X621104Y652294D01*
X621172Y652204D01*
X621237Y652111D01*
X621299Y652016D01*
X621357Y651919D01*
X621412Y651820D01*
X621463Y651719D01*
X621511Y651616D01*
X621556Y651512D01*
X621596Y651406D01*
X621633Y651299D01*
X621666Y651191D01*
X621696Y651081D01*
X621721Y650971D01*
X621743Y650860D01*
X621760Y650748D01*
X621774Y650635D01*
X621784Y650522D01*
X621790Y650409D01*
X621792Y650296D01*
X621792Y645104D01*
X621790Y644991D01*
X621784Y644878D01*
X621774Y644765D01*
X621760Y644652D01*
X621743Y644540D01*
X621721Y644429D01*
X621696Y644319D01*
X621666Y644209D01*
X621633Y644101D01*
X621596Y643994D01*
X621556Y643888D01*
X621511Y643784D01*
X621463Y643681D01*
X621412Y643580D01*
X621357Y643481D01*
X621299Y643384D01*
X621237Y643289D01*
X621172Y643196D01*
X621104Y643106D01*
X621033Y643018D01*
X620958Y642932D01*
X620881Y642849D01*
X620801Y642769D01*
X620718Y642692D01*
X620632Y642617D01*
X620544Y642546D01*
X620454Y642478D01*
X620361Y642413D01*
X620266Y642351D01*
X620169Y642293D01*
X620070Y642238D01*
X619969Y642187D01*
X619866Y642139D01*
X619762Y642094D01*
X619656Y642054D01*
X619549Y642017D01*
X619441Y641984D01*
X619331Y641954D01*
X619221Y641929D01*
X619110Y641907D01*
X618998Y641890D01*
X618885Y641876D01*
X618772Y641866D01*
X618659Y641860D01*
X618546Y641858D01*
X615301Y641858D01*
X593372Y667258D02*
X593372Y678942D01*
X596618Y678942D01*
X596731Y678940D01*
X596844Y678934D01*
X596957Y678924D01*
X597070Y678910D01*
X597182Y678893D01*
X597293Y678871D01*
X597403Y678846D01*
X597513Y678816D01*
X597621Y678783D01*
X597728Y678746D01*
X597834Y678706D01*
X597938Y678661D01*
X598041Y678613D01*
X598142Y678562D01*
X598241Y678507D01*
X598338Y678449D01*
X598433Y678387D01*
X598526Y678322D01*
X598616Y678254D01*
X598704Y678183D01*
X598790Y678108D01*
X598873Y678031D01*
X598953Y677951D01*
X599030Y677868D01*
X599105Y677782D01*
X599176Y677694D01*
X599244Y677604D01*
X599309Y677511D01*
X599371Y677416D01*
X599429Y677319D01*
X599484Y677220D01*
X599535Y677119D01*
X599583Y677016D01*
X599628Y676912D01*
X599668Y676806D01*
X599705Y676699D01*
X599738Y676591D01*
X599768Y676481D01*
X599793Y676371D01*
X599815Y676260D01*
X599832Y676148D01*
X599846Y676035D01*
X599856Y675922D01*
X599862Y675809D01*
X599864Y675696D01*
X599862Y675583D01*
X599856Y675470D01*
X599846Y675357D01*
X599832Y675244D01*
X599815Y675132D01*
X599793Y675021D01*
X599768Y674911D01*
X599738Y674801D01*
X599705Y674693D01*
X599668Y674586D01*
X599628Y674480D01*
X599583Y674376D01*
X599535Y674273D01*
X599484Y674172D01*
X599429Y674073D01*
X599371Y673976D01*
X599309Y673881D01*
X599244Y673788D01*
X599176Y673698D01*
X599105Y673610D01*
X599030Y673524D01*
X598953Y673441D01*
X598873Y673361D01*
X598790Y673284D01*
X598704Y673209D01*
X598616Y673138D01*
X598526Y673070D01*
X598433Y673005D01*
X598338Y672943D01*
X598241Y672885D01*
X598142Y672830D01*
X598041Y672779D01*
X597938Y672731D01*
X597834Y672686D01*
X597728Y672646D01*
X597621Y672609D01*
X597513Y672576D01*
X597403Y672546D01*
X597293Y672521D01*
X597182Y672499D01*
X597070Y672482D01*
X596957Y672468D01*
X596844Y672458D01*
X596731Y672452D01*
X596618Y672450D01*
X596618Y672451D02*
X593372Y672451D01*
X604802Y667258D02*
X604802Y678942D01*
X608048Y678942D01*
X608161Y678940D01*
X608274Y678934D01*
X608387Y678924D01*
X608500Y678910D01*
X608612Y678893D01*
X608723Y678871D01*
X608833Y678846D01*
X608943Y678816D01*
X609051Y678783D01*
X609158Y678746D01*
X609264Y678706D01*
X609368Y678661D01*
X609471Y678613D01*
X609572Y678562D01*
X609671Y678507D01*
X609768Y678449D01*
X609863Y678387D01*
X609956Y678322D01*
X610046Y678254D01*
X610134Y678183D01*
X610220Y678108D01*
X610303Y678031D01*
X610383Y677951D01*
X610460Y677868D01*
X610535Y677782D01*
X610606Y677694D01*
X610674Y677604D01*
X610739Y677511D01*
X610801Y677416D01*
X610859Y677319D01*
X610914Y677220D01*
X610965Y677119D01*
X611013Y677016D01*
X611058Y676912D01*
X611098Y676806D01*
X611135Y676699D01*
X611168Y676591D01*
X611198Y676481D01*
X611223Y676371D01*
X611245Y676260D01*
X611262Y676148D01*
X611276Y676035D01*
X611286Y675922D01*
X611292Y675809D01*
X611294Y675696D01*
X611292Y675583D01*
X611286Y675470D01*
X611276Y675357D01*
X611262Y675244D01*
X611245Y675132D01*
X611223Y675021D01*
X611198Y674911D01*
X611168Y674801D01*
X611135Y674693D01*
X611098Y674586D01*
X611058Y674480D01*
X611013Y674376D01*
X610965Y674273D01*
X610914Y674172D01*
X610859Y674073D01*
X610801Y673976D01*
X610739Y673881D01*
X610674Y673788D01*
X610606Y673698D01*
X610535Y673610D01*
X610460Y673524D01*
X610383Y673441D01*
X610303Y673361D01*
X610220Y673284D01*
X610134Y673209D01*
X610046Y673138D01*
X609956Y673070D01*
X609863Y673005D01*
X609768Y672943D01*
X609671Y672885D01*
X609572Y672830D01*
X609471Y672779D01*
X609368Y672731D01*
X609264Y672686D01*
X609158Y672646D01*
X609051Y672609D01*
X608943Y672576D01*
X608833Y672546D01*
X608723Y672521D01*
X608612Y672499D01*
X608500Y672482D01*
X608387Y672468D01*
X608274Y672458D01*
X608161Y672452D01*
X608048Y672450D01*
X608048Y672451D02*
X604802Y672451D01*
X619196Y667258D02*
X619295Y667260D01*
X619395Y667266D01*
X619494Y667275D01*
X619592Y667288D01*
X619690Y667305D01*
X619788Y667326D01*
X619884Y667351D01*
X619979Y667379D01*
X620073Y667411D01*
X620166Y667446D01*
X620258Y667485D01*
X620348Y667528D01*
X620436Y667573D01*
X620523Y667623D01*
X620607Y667675D01*
X620690Y667731D01*
X620770Y667789D01*
X620848Y667851D01*
X620923Y667916D01*
X620996Y667984D01*
X621066Y668054D01*
X621134Y668127D01*
X621199Y668202D01*
X621261Y668280D01*
X621319Y668360D01*
X621375Y668443D01*
X621427Y668527D01*
X621477Y668614D01*
X621522Y668702D01*
X621565Y668792D01*
X621604Y668884D01*
X621639Y668977D01*
X621671Y669071D01*
X621699Y669166D01*
X621724Y669262D01*
X621745Y669360D01*
X621762Y669458D01*
X621775Y669556D01*
X621784Y669655D01*
X621790Y669755D01*
X621792Y669854D01*
X619196Y667258D02*
X619052Y667260D01*
X618907Y667266D01*
X618763Y667275D01*
X618620Y667288D01*
X618476Y667305D01*
X618333Y667326D01*
X618191Y667351D01*
X618050Y667379D01*
X617909Y667411D01*
X617769Y667447D01*
X617630Y667486D01*
X617492Y667529D01*
X617356Y667576D01*
X617220Y667626D01*
X617086Y667680D01*
X616954Y667737D01*
X616823Y667798D01*
X616694Y667862D01*
X616566Y667930D01*
X616440Y668000D01*
X616316Y668075D01*
X616195Y668152D01*
X616075Y668233D01*
X615957Y668316D01*
X615842Y668403D01*
X615729Y668493D01*
X615618Y668586D01*
X615510Y668681D01*
X615404Y668780D01*
X615301Y668881D01*
X615626Y676346D02*
X615628Y676445D01*
X615634Y676545D01*
X615643Y676644D01*
X615656Y676742D01*
X615673Y676840D01*
X615694Y676938D01*
X615719Y677034D01*
X615747Y677129D01*
X615779Y677223D01*
X615814Y677316D01*
X615853Y677408D01*
X615896Y677498D01*
X615941Y677586D01*
X615991Y677673D01*
X616043Y677757D01*
X616099Y677840D01*
X616157Y677920D01*
X616219Y677998D01*
X616284Y678073D01*
X616352Y678146D01*
X616422Y678216D01*
X616495Y678284D01*
X616570Y678349D01*
X616648Y678411D01*
X616728Y678469D01*
X616811Y678525D01*
X616895Y678577D01*
X616982Y678627D01*
X617070Y678672D01*
X617160Y678715D01*
X617252Y678754D01*
X617345Y678789D01*
X617439Y678821D01*
X617534Y678849D01*
X617631Y678874D01*
X617728Y678895D01*
X617826Y678912D01*
X617924Y678925D01*
X618023Y678934D01*
X618123Y678940D01*
X618222Y678942D01*
X618358Y678940D01*
X618494Y678934D01*
X618630Y678925D01*
X618766Y678912D01*
X618901Y678894D01*
X619035Y678874D01*
X619169Y678849D01*
X619303Y678821D01*
X619435Y678788D01*
X619566Y678753D01*
X619697Y678713D01*
X619826Y678670D01*
X619954Y678624D01*
X620080Y678573D01*
X620206Y678520D01*
X620329Y678462D01*
X620451Y678402D01*
X620571Y678338D01*
X620690Y678270D01*
X620806Y678200D01*
X620920Y678126D01*
X621033Y678049D01*
X621143Y677968D01*
X616923Y674074D02*
X616837Y674127D01*
X616753Y674184D01*
X616671Y674243D01*
X616591Y674306D01*
X616514Y674372D01*
X616439Y674440D01*
X616367Y674512D01*
X616298Y674586D01*
X616232Y674663D01*
X616169Y674742D01*
X616109Y674824D01*
X616052Y674908D01*
X615998Y674994D01*
X615948Y675082D01*
X615901Y675172D01*
X615857Y675263D01*
X615818Y675357D01*
X615781Y675451D01*
X615749Y675547D01*
X615720Y675645D01*
X615695Y675743D01*
X615674Y675842D01*
X615656Y675942D01*
X615643Y676042D01*
X615633Y676143D01*
X615627Y676245D01*
X615625Y676346D01*
X620494Y672126D02*
X620580Y672073D01*
X620664Y672016D01*
X620746Y671957D01*
X620826Y671894D01*
X620903Y671828D01*
X620978Y671760D01*
X621050Y671688D01*
X621119Y671614D01*
X621185Y671537D01*
X621248Y671458D01*
X621308Y671376D01*
X621365Y671292D01*
X621419Y671206D01*
X621469Y671118D01*
X621516Y671028D01*
X621560Y670937D01*
X621599Y670843D01*
X621636Y670749D01*
X621668Y670653D01*
X621697Y670555D01*
X621722Y670457D01*
X621743Y670358D01*
X621761Y670258D01*
X621774Y670158D01*
X621784Y670057D01*
X621790Y669955D01*
X621792Y669854D01*
X620494Y672126D02*
X616924Y674074D01*
D12*
X635000Y685800D02*
X647700Y685800D01*
X662940Y742950D02*
X662940Y501650D01*
X302260Y501650D02*
X302260Y742950D01*
X327820Y590550D02*
X327823Y590795D01*
X327832Y591041D01*
X327847Y591286D01*
X327868Y591530D01*
X327895Y591774D01*
X327928Y592017D01*
X327967Y592260D01*
X328012Y592501D01*
X328063Y592741D01*
X328120Y592980D01*
X328182Y593217D01*
X328251Y593453D01*
X328325Y593687D01*
X328405Y593919D01*
X328490Y594149D01*
X328581Y594377D01*
X328678Y594602D01*
X328780Y594826D01*
X328888Y595046D01*
X329001Y595264D01*
X329119Y595479D01*
X329243Y595691D01*
X329371Y595900D01*
X329505Y596106D01*
X329644Y596308D01*
X329788Y596507D01*
X329937Y596702D01*
X330090Y596894D01*
X330248Y597082D01*
X330410Y597266D01*
X330578Y597445D01*
X330749Y597621D01*
X330925Y597792D01*
X331104Y597960D01*
X331288Y598122D01*
X331476Y598280D01*
X331668Y598433D01*
X331863Y598582D01*
X332062Y598726D01*
X332264Y598865D01*
X332470Y598999D01*
X332679Y599127D01*
X332891Y599251D01*
X333106Y599369D01*
X333324Y599482D01*
X333544Y599590D01*
X333768Y599692D01*
X333993Y599789D01*
X334221Y599880D01*
X334451Y599965D01*
X334683Y600045D01*
X334917Y600119D01*
X335153Y600188D01*
X335390Y600250D01*
X335629Y600307D01*
X335869Y600358D01*
X336110Y600403D01*
X336353Y600442D01*
X336596Y600475D01*
X336840Y600502D01*
X337084Y600523D01*
X337329Y600538D01*
X337575Y600547D01*
X337820Y600550D01*
X338065Y600547D01*
X338311Y600538D01*
X338556Y600523D01*
X338800Y600502D01*
X339044Y600475D01*
X339287Y600442D01*
X339530Y600403D01*
X339771Y600358D01*
X340011Y600307D01*
X340250Y600250D01*
X340487Y600188D01*
X340723Y600119D01*
X340957Y600045D01*
X341189Y599965D01*
X341419Y599880D01*
X341647Y599789D01*
X341872Y599692D01*
X342096Y599590D01*
X342316Y599482D01*
X342534Y599369D01*
X342749Y599251D01*
X342961Y599127D01*
X343170Y598999D01*
X343376Y598865D01*
X343578Y598726D01*
X343777Y598582D01*
X343972Y598433D01*
X344164Y598280D01*
X344352Y598122D01*
X344536Y597960D01*
X344715Y597792D01*
X344891Y597621D01*
X345062Y597445D01*
X345230Y597266D01*
X345392Y597082D01*
X345550Y596894D01*
X345703Y596702D01*
X345852Y596507D01*
X345996Y596308D01*
X346135Y596106D01*
X346269Y595900D01*
X346397Y595691D01*
X346521Y595479D01*
X346639Y595264D01*
X346752Y595046D01*
X346860Y594826D01*
X346962Y594602D01*
X347059Y594377D01*
X347150Y594149D01*
X347235Y593919D01*
X347315Y593687D01*
X347389Y593453D01*
X347458Y593217D01*
X347520Y592980D01*
X347577Y592741D01*
X347628Y592501D01*
X347673Y592260D01*
X347712Y592017D01*
X347745Y591774D01*
X347772Y591530D01*
X347793Y591286D01*
X347808Y591041D01*
X347817Y590795D01*
X347820Y590550D01*
X347817Y590305D01*
X347808Y590059D01*
X347793Y589814D01*
X347772Y589570D01*
X347745Y589326D01*
X347712Y589083D01*
X347673Y588840D01*
X347628Y588599D01*
X347577Y588359D01*
X347520Y588120D01*
X347458Y587883D01*
X347389Y587647D01*
X347315Y587413D01*
X347235Y587181D01*
X347150Y586951D01*
X347059Y586723D01*
X346962Y586498D01*
X346860Y586274D01*
X346752Y586054D01*
X346639Y585836D01*
X346521Y585621D01*
X346397Y585409D01*
X346269Y585200D01*
X346135Y584994D01*
X345996Y584792D01*
X345852Y584593D01*
X345703Y584398D01*
X345550Y584206D01*
X345392Y584018D01*
X345230Y583834D01*
X345062Y583655D01*
X344891Y583479D01*
X344715Y583308D01*
X344536Y583140D01*
X344352Y582978D01*
X344164Y582820D01*
X343972Y582667D01*
X343777Y582518D01*
X343578Y582374D01*
X343376Y582235D01*
X343170Y582101D01*
X342961Y581973D01*
X342749Y581849D01*
X342534Y581731D01*
X342316Y581618D01*
X342096Y581510D01*
X341872Y581408D01*
X341647Y581311D01*
X341419Y581220D01*
X341189Y581135D01*
X340957Y581055D01*
X340723Y580981D01*
X340487Y580912D01*
X340250Y580850D01*
X340011Y580793D01*
X339771Y580742D01*
X339530Y580697D01*
X339287Y580658D01*
X339044Y580625D01*
X338800Y580598D01*
X338556Y580577D01*
X338311Y580562D01*
X338065Y580553D01*
X337820Y580550D01*
X337575Y580553D01*
X337329Y580562D01*
X337084Y580577D01*
X336840Y580598D01*
X336596Y580625D01*
X336353Y580658D01*
X336110Y580697D01*
X335869Y580742D01*
X335629Y580793D01*
X335390Y580850D01*
X335153Y580912D01*
X334917Y580981D01*
X334683Y581055D01*
X334451Y581135D01*
X334221Y581220D01*
X333993Y581311D01*
X333768Y581408D01*
X333544Y581510D01*
X333324Y581618D01*
X333106Y581731D01*
X332891Y581849D01*
X332679Y581973D01*
X332470Y582101D01*
X332264Y582235D01*
X332062Y582374D01*
X331863Y582518D01*
X331668Y582667D01*
X331476Y582820D01*
X331288Y582978D01*
X331104Y583140D01*
X330925Y583308D01*
X330749Y583479D01*
X330578Y583655D01*
X330410Y583834D01*
X330248Y584018D01*
X330090Y584206D01*
X329937Y584398D01*
X329788Y584593D01*
X329644Y584792D01*
X329505Y584994D01*
X329371Y585200D01*
X329243Y585409D01*
X329119Y585621D01*
X329001Y585836D01*
X328888Y586054D01*
X328780Y586274D01*
X328678Y586498D01*
X328581Y586723D01*
X328490Y586951D01*
X328405Y587181D01*
X328325Y587413D01*
X328251Y587647D01*
X328182Y587883D01*
X328120Y588120D01*
X328063Y588359D01*
X328012Y588599D01*
X327967Y588840D01*
X327928Y589083D01*
X327895Y589326D01*
X327868Y589570D01*
X327847Y589814D01*
X327832Y590059D01*
X327823Y590305D01*
X327820Y590550D01*
X335820Y590550D02*
X335822Y590639D01*
X335828Y590728D01*
X335838Y590817D01*
X335852Y590905D01*
X335869Y590992D01*
X335891Y591078D01*
X335917Y591164D01*
X335946Y591248D01*
X335979Y591331D01*
X336015Y591412D01*
X336056Y591492D01*
X336099Y591569D01*
X336146Y591645D01*
X336197Y591718D01*
X336250Y591789D01*
X336307Y591858D01*
X336367Y591924D01*
X336430Y591988D01*
X336495Y592048D01*
X336563Y592106D01*
X336634Y592160D01*
X336707Y592211D01*
X336782Y592259D01*
X336859Y592304D01*
X336938Y592345D01*
X337019Y592382D01*
X337101Y592416D01*
X337185Y592447D01*
X337270Y592473D01*
X337356Y592496D01*
X337443Y592514D01*
X337531Y592529D01*
X337620Y592540D01*
X337709Y592547D01*
X337798Y592550D01*
X337887Y592549D01*
X337976Y592544D01*
X338064Y592535D01*
X338153Y592522D01*
X338240Y592505D01*
X338327Y592485D01*
X338413Y592460D01*
X338497Y592432D01*
X338580Y592400D01*
X338662Y592364D01*
X338742Y592325D01*
X338820Y592282D01*
X338896Y592236D01*
X338970Y592186D01*
X339042Y592133D01*
X339111Y592077D01*
X339178Y592018D01*
X339242Y591956D01*
X339303Y591892D01*
X339362Y591824D01*
X339417Y591754D01*
X339469Y591682D01*
X339518Y591607D01*
X339563Y591531D01*
X339605Y591452D01*
X339643Y591372D01*
X339678Y591290D01*
X339709Y591206D01*
X339737Y591121D01*
X339760Y591035D01*
X339780Y590948D01*
X339796Y590861D01*
X339808Y590772D01*
X339816Y590684D01*
X339820Y590595D01*
X339820Y590505D01*
X339816Y590416D01*
X339808Y590328D01*
X339796Y590239D01*
X339780Y590152D01*
X339760Y590065D01*
X339737Y589979D01*
X339709Y589894D01*
X339678Y589810D01*
X339643Y589728D01*
X339605Y589648D01*
X339563Y589569D01*
X339518Y589493D01*
X339469Y589418D01*
X339417Y589346D01*
X339362Y589276D01*
X339303Y589208D01*
X339242Y589144D01*
X339178Y589082D01*
X339111Y589023D01*
X339042Y588967D01*
X338970Y588914D01*
X338896Y588864D01*
X338820Y588818D01*
X338742Y588775D01*
X338662Y588736D01*
X338580Y588700D01*
X338497Y588668D01*
X338413Y588640D01*
X338327Y588615D01*
X338240Y588595D01*
X338153Y588578D01*
X338064Y588565D01*
X337976Y588556D01*
X337887Y588551D01*
X337798Y588550D01*
X337709Y588553D01*
X337620Y588560D01*
X337531Y588571D01*
X337443Y588586D01*
X337356Y588604D01*
X337270Y588627D01*
X337185Y588653D01*
X337101Y588684D01*
X337019Y588718D01*
X336938Y588755D01*
X336859Y588796D01*
X336782Y588841D01*
X336707Y588889D01*
X336634Y588940D01*
X336563Y588994D01*
X336495Y589052D01*
X336430Y589112D01*
X336367Y589176D01*
X336307Y589242D01*
X336250Y589311D01*
X336197Y589382D01*
X336146Y589455D01*
X336099Y589531D01*
X336056Y589608D01*
X336015Y589688D01*
X335979Y589769D01*
X335946Y589852D01*
X335917Y589936D01*
X335891Y590022D01*
X335869Y590108D01*
X335852Y590195D01*
X335838Y590283D01*
X335828Y590372D01*
X335822Y590461D01*
X335820Y590550D01*
D13*
X356108Y584708D02*
X360003Y596392D01*
X363897Y584708D01*
X362924Y587629D02*
X357082Y587629D01*
X368568Y584708D02*
X368568Y596392D01*
X375059Y584708D01*
X375059Y596392D01*
X382863Y596392D02*
X382863Y584708D01*
X379617Y596392D02*
X386108Y596392D01*
X468496Y488442D02*
X468496Y480004D01*
X468498Y479891D01*
X468504Y479778D01*
X468514Y479665D01*
X468528Y479552D01*
X468545Y479440D01*
X468567Y479329D01*
X468592Y479219D01*
X468622Y479109D01*
X468655Y479001D01*
X468692Y478894D01*
X468732Y478788D01*
X468777Y478684D01*
X468825Y478581D01*
X468876Y478480D01*
X468931Y478381D01*
X468989Y478284D01*
X469051Y478189D01*
X469116Y478096D01*
X469184Y478006D01*
X469255Y477918D01*
X469330Y477832D01*
X469407Y477749D01*
X469487Y477669D01*
X469570Y477592D01*
X469656Y477517D01*
X469744Y477446D01*
X469834Y477378D01*
X469927Y477313D01*
X470022Y477251D01*
X470119Y477193D01*
X470218Y477138D01*
X470319Y477087D01*
X470422Y477039D01*
X470526Y476994D01*
X470632Y476954D01*
X470739Y476917D01*
X470847Y476884D01*
X470957Y476854D01*
X471067Y476829D01*
X471178Y476807D01*
X471290Y476790D01*
X471403Y476776D01*
X471516Y476766D01*
X471629Y476760D01*
X471742Y476758D01*
X471855Y476760D01*
X471968Y476766D01*
X472081Y476776D01*
X472194Y476790D01*
X472306Y476807D01*
X472417Y476829D01*
X472527Y476854D01*
X472637Y476884D01*
X472745Y476917D01*
X472852Y476954D01*
X472958Y476994D01*
X473062Y477039D01*
X473165Y477087D01*
X473266Y477138D01*
X473365Y477193D01*
X473462Y477251D01*
X473557Y477313D01*
X473650Y477378D01*
X473740Y477446D01*
X473828Y477517D01*
X473914Y477592D01*
X473997Y477669D01*
X474077Y477749D01*
X474154Y477832D01*
X474229Y477918D01*
X474300Y478006D01*
X474368Y478096D01*
X474433Y478189D01*
X474495Y478284D01*
X474553Y478381D01*
X474608Y478480D01*
X474659Y478581D01*
X474707Y478684D01*
X474752Y478788D01*
X474792Y478894D01*
X474829Y479001D01*
X474862Y479109D01*
X474892Y479219D01*
X474917Y479329D01*
X474939Y479440D01*
X474956Y479552D01*
X474970Y479665D01*
X474980Y479778D01*
X474986Y479891D01*
X474988Y480004D01*
X474987Y480004D02*
X474987Y488442D01*
X482791Y488442D02*
X482791Y476758D01*
X482791Y482600D02*
X481168Y483574D01*
X481167Y483573D02*
X481094Y483620D01*
X481023Y483669D01*
X480953Y483722D01*
X480887Y483778D01*
X480823Y483837D01*
X480761Y483898D01*
X480703Y483962D01*
X480647Y484029D01*
X480595Y484098D01*
X480545Y484170D01*
X480499Y484244D01*
X480456Y484319D01*
X480417Y484397D01*
X480381Y484476D01*
X480349Y484557D01*
X480320Y484639D01*
X480295Y484722D01*
X480274Y484806D01*
X480257Y484891D01*
X480243Y484977D01*
X480234Y485063D01*
X480228Y485150D01*
X480226Y485237D01*
X480228Y485324D01*
X480234Y485411D01*
X480244Y485497D01*
X480257Y485583D01*
X480275Y485668D01*
X480296Y485752D01*
X480321Y485835D01*
X480350Y485918D01*
X480382Y485998D01*
X480418Y486077D01*
X480457Y486155D01*
X480500Y486230D01*
X480547Y486304D01*
X480596Y486375D01*
X480649Y486445D01*
X480704Y486511D01*
X480763Y486575D01*
X480824Y486637D01*
X480889Y486696D01*
X480955Y486751D01*
X481024Y486804D01*
X481096Y486854D01*
X481169Y486900D01*
X481245Y486943D01*
X481322Y486982D01*
X481401Y487018D01*
X481482Y487051D01*
X481564Y487079D01*
X481647Y487105D01*
X481731Y487126D01*
X481817Y487143D01*
X481817Y487144D02*
X481957Y487168D01*
X482099Y487188D01*
X482240Y487204D01*
X482382Y487215D01*
X482525Y487223D01*
X482667Y487227D01*
X482810Y487228D01*
X482953Y487224D01*
X483095Y487216D01*
X483237Y487204D01*
X483379Y487188D01*
X483520Y487169D01*
X483661Y487145D01*
X483801Y487118D01*
X483940Y487086D01*
X484078Y487051D01*
X484216Y487012D01*
X484352Y486969D01*
X484486Y486923D01*
X484620Y486872D01*
X484752Y486819D01*
X484882Y486761D01*
X485011Y486700D01*
X485138Y486635D01*
X485264Y486567D01*
X485387Y486495D01*
X482791Y482600D02*
X484413Y481626D01*
X484414Y481627D02*
X484487Y481580D01*
X484558Y481531D01*
X484628Y481478D01*
X484694Y481422D01*
X484758Y481363D01*
X484820Y481302D01*
X484878Y481238D01*
X484934Y481171D01*
X484986Y481102D01*
X485036Y481030D01*
X485082Y480956D01*
X485125Y480881D01*
X485164Y480803D01*
X485200Y480724D01*
X485232Y480643D01*
X485261Y480561D01*
X485286Y480478D01*
X485307Y480394D01*
X485324Y480309D01*
X485338Y480223D01*
X485347Y480137D01*
X485353Y480050D01*
X485355Y479963D01*
X485353Y479876D01*
X485347Y479789D01*
X485337Y479703D01*
X485324Y479617D01*
X485306Y479532D01*
X485285Y479448D01*
X485260Y479365D01*
X485231Y479282D01*
X485199Y479202D01*
X485163Y479123D01*
X485124Y479045D01*
X485081Y478970D01*
X485034Y478896D01*
X484985Y478825D01*
X484932Y478755D01*
X484877Y478689D01*
X484818Y478625D01*
X484757Y478563D01*
X484692Y478504D01*
X484626Y478449D01*
X484557Y478396D01*
X484485Y478346D01*
X484412Y478300D01*
X484336Y478257D01*
X484259Y478218D01*
X484180Y478182D01*
X484099Y478149D01*
X484017Y478121D01*
X483934Y478095D01*
X483850Y478074D01*
X483765Y478057D01*
X483764Y478056D02*
X483624Y478032D01*
X483482Y478012D01*
X483341Y477996D01*
X483199Y477985D01*
X483056Y477977D01*
X482914Y477973D01*
X482771Y477972D01*
X482628Y477976D01*
X482486Y477984D01*
X482344Y477996D01*
X482202Y478012D01*
X482061Y478031D01*
X481920Y478055D01*
X481780Y478082D01*
X481641Y478114D01*
X481503Y478149D01*
X481365Y478188D01*
X481229Y478231D01*
X481095Y478277D01*
X480961Y478328D01*
X480829Y478381D01*
X480699Y478439D01*
X480570Y478500D01*
X480443Y478565D01*
X480317Y478633D01*
X480194Y478705D01*
X490213Y485846D02*
X493458Y488442D01*
X493458Y476758D01*
X490213Y476758D02*
X496704Y476758D01*
D12*
X527050Y894080D02*
X336550Y894080D01*
X527050Y894080D02*
X527050Y782320D01*
X336550Y782320D01*
X336550Y894080D01*
D13*
X417696Y905454D02*
X417696Y913892D01*
X417696Y905454D02*
X417698Y905341D01*
X417704Y905228D01*
X417714Y905115D01*
X417728Y905002D01*
X417745Y904890D01*
X417767Y904779D01*
X417792Y904669D01*
X417822Y904559D01*
X417855Y904451D01*
X417892Y904344D01*
X417932Y904238D01*
X417977Y904134D01*
X418025Y904031D01*
X418076Y903930D01*
X418131Y903831D01*
X418189Y903734D01*
X418251Y903639D01*
X418316Y903546D01*
X418384Y903456D01*
X418455Y903368D01*
X418530Y903282D01*
X418607Y903199D01*
X418687Y903119D01*
X418770Y903042D01*
X418856Y902967D01*
X418944Y902896D01*
X419034Y902828D01*
X419127Y902763D01*
X419222Y902701D01*
X419319Y902643D01*
X419418Y902588D01*
X419519Y902537D01*
X419622Y902489D01*
X419726Y902444D01*
X419832Y902404D01*
X419939Y902367D01*
X420047Y902334D01*
X420157Y902304D01*
X420267Y902279D01*
X420378Y902257D01*
X420490Y902240D01*
X420603Y902226D01*
X420716Y902216D01*
X420829Y902210D01*
X420942Y902208D01*
X421055Y902210D01*
X421168Y902216D01*
X421281Y902226D01*
X421394Y902240D01*
X421506Y902257D01*
X421617Y902279D01*
X421727Y902304D01*
X421837Y902334D01*
X421945Y902367D01*
X422052Y902404D01*
X422158Y902444D01*
X422262Y902489D01*
X422365Y902537D01*
X422466Y902588D01*
X422565Y902643D01*
X422662Y902701D01*
X422757Y902763D01*
X422850Y902828D01*
X422940Y902896D01*
X423028Y902967D01*
X423114Y903042D01*
X423197Y903119D01*
X423277Y903199D01*
X423354Y903282D01*
X423429Y903368D01*
X423500Y903456D01*
X423568Y903546D01*
X423633Y903639D01*
X423695Y903734D01*
X423753Y903831D01*
X423808Y903930D01*
X423859Y904031D01*
X423907Y904134D01*
X423952Y904238D01*
X423992Y904344D01*
X424029Y904451D01*
X424062Y904559D01*
X424092Y904669D01*
X424117Y904779D01*
X424139Y904890D01*
X424156Y905002D01*
X424170Y905115D01*
X424180Y905228D01*
X424186Y905341D01*
X424188Y905454D01*
X424187Y905454D02*
X424187Y913892D01*
X431991Y913892D02*
X431991Y902208D01*
X431991Y908050D02*
X430368Y909024D01*
X430367Y909023D02*
X430294Y909070D01*
X430223Y909119D01*
X430153Y909172D01*
X430087Y909228D01*
X430023Y909287D01*
X429961Y909348D01*
X429903Y909412D01*
X429847Y909479D01*
X429795Y909548D01*
X429745Y909620D01*
X429699Y909694D01*
X429656Y909769D01*
X429617Y909847D01*
X429581Y909926D01*
X429549Y910007D01*
X429520Y910089D01*
X429495Y910172D01*
X429474Y910256D01*
X429457Y910341D01*
X429443Y910427D01*
X429434Y910513D01*
X429428Y910600D01*
X429426Y910687D01*
X429428Y910774D01*
X429434Y910861D01*
X429444Y910947D01*
X429457Y911033D01*
X429475Y911118D01*
X429496Y911202D01*
X429521Y911285D01*
X429550Y911368D01*
X429582Y911448D01*
X429618Y911527D01*
X429657Y911605D01*
X429700Y911680D01*
X429747Y911754D01*
X429796Y911825D01*
X429849Y911895D01*
X429904Y911961D01*
X429963Y912025D01*
X430024Y912087D01*
X430089Y912146D01*
X430155Y912201D01*
X430224Y912254D01*
X430296Y912304D01*
X430369Y912350D01*
X430445Y912393D01*
X430522Y912432D01*
X430601Y912468D01*
X430682Y912501D01*
X430764Y912529D01*
X430847Y912555D01*
X430931Y912576D01*
X431017Y912593D01*
X431017Y912594D02*
X431157Y912618D01*
X431299Y912638D01*
X431440Y912654D01*
X431582Y912665D01*
X431725Y912673D01*
X431867Y912677D01*
X432010Y912678D01*
X432153Y912674D01*
X432295Y912666D01*
X432437Y912654D01*
X432579Y912638D01*
X432720Y912619D01*
X432861Y912595D01*
X433001Y912568D01*
X433140Y912536D01*
X433278Y912501D01*
X433416Y912462D01*
X433552Y912419D01*
X433686Y912373D01*
X433820Y912322D01*
X433952Y912269D01*
X434082Y912211D01*
X434211Y912150D01*
X434338Y912085D01*
X434464Y912017D01*
X434587Y911945D01*
X431991Y908050D02*
X433613Y907076D01*
X433614Y907077D02*
X433687Y907030D01*
X433758Y906981D01*
X433828Y906928D01*
X433894Y906872D01*
X433958Y906813D01*
X434020Y906752D01*
X434078Y906688D01*
X434134Y906621D01*
X434186Y906552D01*
X434236Y906480D01*
X434282Y906406D01*
X434325Y906331D01*
X434364Y906253D01*
X434400Y906174D01*
X434432Y906093D01*
X434461Y906011D01*
X434486Y905928D01*
X434507Y905844D01*
X434524Y905759D01*
X434538Y905673D01*
X434547Y905587D01*
X434553Y905500D01*
X434555Y905413D01*
X434553Y905326D01*
X434547Y905239D01*
X434537Y905153D01*
X434524Y905067D01*
X434506Y904982D01*
X434485Y904898D01*
X434460Y904815D01*
X434431Y904732D01*
X434399Y904652D01*
X434363Y904573D01*
X434324Y904495D01*
X434281Y904420D01*
X434234Y904346D01*
X434185Y904275D01*
X434132Y904205D01*
X434077Y904139D01*
X434018Y904075D01*
X433957Y904013D01*
X433892Y903954D01*
X433826Y903899D01*
X433757Y903846D01*
X433685Y903796D01*
X433612Y903750D01*
X433536Y903707D01*
X433459Y903668D01*
X433380Y903632D01*
X433299Y903599D01*
X433217Y903571D01*
X433134Y903545D01*
X433050Y903524D01*
X432965Y903507D01*
X432964Y903506D02*
X432824Y903482D01*
X432682Y903462D01*
X432541Y903446D01*
X432399Y903435D01*
X432256Y903427D01*
X432114Y903423D01*
X431971Y903422D01*
X431828Y903426D01*
X431686Y903434D01*
X431544Y903446D01*
X431402Y903462D01*
X431261Y903481D01*
X431120Y903505D01*
X430980Y903532D01*
X430841Y903564D01*
X430703Y903599D01*
X430565Y903638D01*
X430429Y903681D01*
X430295Y903727D01*
X430161Y903778D01*
X430029Y903831D01*
X429899Y903889D01*
X429770Y903950D01*
X429643Y904015D01*
X429517Y904083D01*
X429394Y904155D01*
X442983Y913892D02*
X443090Y913890D01*
X443196Y913884D01*
X443302Y913874D01*
X443408Y913861D01*
X443514Y913843D01*
X443618Y913822D01*
X443722Y913797D01*
X443825Y913768D01*
X443926Y913736D01*
X444026Y913699D01*
X444125Y913659D01*
X444223Y913616D01*
X444319Y913569D01*
X444413Y913518D01*
X444505Y913464D01*
X444595Y913407D01*
X444683Y913347D01*
X444768Y913283D01*
X444851Y913216D01*
X444932Y913146D01*
X445010Y913074D01*
X445086Y912998D01*
X445158Y912920D01*
X445228Y912839D01*
X445295Y912756D01*
X445359Y912671D01*
X445419Y912583D01*
X445476Y912493D01*
X445530Y912401D01*
X445581Y912307D01*
X445628Y912211D01*
X445671Y912113D01*
X445711Y912014D01*
X445748Y911914D01*
X445780Y911813D01*
X445809Y911710D01*
X445834Y911606D01*
X445855Y911502D01*
X445873Y911396D01*
X445886Y911290D01*
X445896Y911184D01*
X445902Y911078D01*
X445904Y910971D01*
X442983Y913892D02*
X442862Y913890D01*
X442741Y913884D01*
X442621Y913874D01*
X442500Y913861D01*
X442381Y913843D01*
X442261Y913822D01*
X442143Y913797D01*
X442026Y913768D01*
X441909Y913735D01*
X441794Y913699D01*
X441680Y913658D01*
X441567Y913615D01*
X441455Y913567D01*
X441346Y913516D01*
X441238Y913461D01*
X441131Y913403D01*
X441027Y913342D01*
X440925Y913277D01*
X440825Y913209D01*
X440727Y913138D01*
X440631Y913064D01*
X440538Y912987D01*
X440448Y912906D01*
X440360Y912823D01*
X440275Y912737D01*
X440192Y912648D01*
X440113Y912557D01*
X440036Y912463D01*
X439963Y912367D01*
X439893Y912269D01*
X439826Y912168D01*
X439762Y912065D01*
X439702Y911960D01*
X439645Y911853D01*
X439591Y911745D01*
X439541Y911635D01*
X439495Y911523D01*
X439452Y911410D01*
X439413Y911295D01*
X444931Y908699D02*
X445010Y908776D01*
X445086Y908857D01*
X445159Y908940D01*
X445229Y909025D01*
X445296Y909113D01*
X445360Y909203D01*
X445420Y909295D01*
X445477Y909390D01*
X445531Y909486D01*
X445582Y909584D01*
X445629Y909684D01*
X445673Y909786D01*
X445713Y909889D01*
X445749Y909993D01*
X445781Y910099D01*
X445810Y910205D01*
X445835Y910313D01*
X445857Y910421D01*
X445874Y910531D01*
X445888Y910640D01*
X445897Y910750D01*
X445903Y910861D01*
X445905Y910971D01*
X444930Y908699D02*
X439413Y902208D01*
X445904Y902208D01*
D12*
X152400Y101600D02*
X174625Y79375D01*
X152400Y101600D02*
X152400Y152400D01*
X152400Y254000D02*
X152400Y304800D01*
X174625Y327025D01*
X635000Y327025D01*
X635000Y79375D02*
X174625Y79375D01*
X635000Y285750D02*
X635000Y327025D01*
X635000Y120650D02*
X635000Y79375D01*
X669925Y250825D02*
X635000Y285750D01*
X669925Y250825D02*
X669925Y155575D01*
X635000Y120650D01*
X644010Y203200D02*
X644013Y203446D01*
X644022Y203693D01*
X644037Y203939D01*
X644058Y204184D01*
X644086Y204429D01*
X644119Y204673D01*
X644158Y204916D01*
X644203Y205159D01*
X644254Y205400D01*
X644311Y205640D01*
X644374Y205878D01*
X644442Y206114D01*
X644517Y206349D01*
X644597Y206582D01*
X644683Y206813D01*
X644774Y207042D01*
X644871Y207269D01*
X644974Y207493D01*
X645082Y207714D01*
X645196Y207933D01*
X645314Y208149D01*
X645438Y208362D01*
X645568Y208571D01*
X645702Y208778D01*
X645841Y208981D01*
X645986Y209181D01*
X646135Y209377D01*
X646289Y209569D01*
X646448Y209758D01*
X646611Y209942D01*
X646779Y210123D01*
X646951Y210299D01*
X647127Y210471D01*
X647308Y210639D01*
X647492Y210802D01*
X647681Y210961D01*
X647873Y211115D01*
X648069Y211264D01*
X648269Y211409D01*
X648472Y211548D01*
X648679Y211682D01*
X648888Y211812D01*
X649101Y211936D01*
X649317Y212054D01*
X649536Y212168D01*
X649757Y212276D01*
X649981Y212379D01*
X650208Y212476D01*
X650437Y212567D01*
X650668Y212653D01*
X650901Y212733D01*
X651136Y212808D01*
X651372Y212876D01*
X651610Y212939D01*
X651850Y212996D01*
X652091Y213047D01*
X652334Y213092D01*
X652577Y213131D01*
X652821Y213164D01*
X653066Y213192D01*
X653311Y213213D01*
X653557Y213228D01*
X653804Y213237D01*
X654050Y213240D01*
X654296Y213237D01*
X654543Y213228D01*
X654789Y213213D01*
X655034Y213192D01*
X655279Y213164D01*
X655523Y213131D01*
X655766Y213092D01*
X656009Y213047D01*
X656250Y212996D01*
X656490Y212939D01*
X656728Y212876D01*
X656964Y212808D01*
X657199Y212733D01*
X657432Y212653D01*
X657663Y212567D01*
X657892Y212476D01*
X658119Y212379D01*
X658343Y212276D01*
X658564Y212168D01*
X658783Y212054D01*
X658999Y211936D01*
X659212Y211812D01*
X659421Y211682D01*
X659628Y211548D01*
X659831Y211409D01*
X660031Y211264D01*
X660227Y211115D01*
X660419Y210961D01*
X660608Y210802D01*
X660792Y210639D01*
X660973Y210471D01*
X661149Y210299D01*
X661321Y210123D01*
X661489Y209942D01*
X661652Y209758D01*
X661811Y209569D01*
X661965Y209377D01*
X662114Y209181D01*
X662259Y208981D01*
X662398Y208778D01*
X662532Y208571D01*
X662662Y208362D01*
X662786Y208149D01*
X662904Y207933D01*
X663018Y207714D01*
X663126Y207493D01*
X663229Y207269D01*
X663326Y207042D01*
X663417Y206813D01*
X663503Y206582D01*
X663583Y206349D01*
X663658Y206114D01*
X663726Y205878D01*
X663789Y205640D01*
X663846Y205400D01*
X663897Y205159D01*
X663942Y204916D01*
X663981Y204673D01*
X664014Y204429D01*
X664042Y204184D01*
X664063Y203939D01*
X664078Y203693D01*
X664087Y203446D01*
X664090Y203200D01*
X664087Y202954D01*
X664078Y202707D01*
X664063Y202461D01*
X664042Y202216D01*
X664014Y201971D01*
X663981Y201727D01*
X663942Y201484D01*
X663897Y201241D01*
X663846Y201000D01*
X663789Y200760D01*
X663726Y200522D01*
X663658Y200286D01*
X663583Y200051D01*
X663503Y199818D01*
X663417Y199587D01*
X663326Y199358D01*
X663229Y199131D01*
X663126Y198907D01*
X663018Y198686D01*
X662904Y198467D01*
X662786Y198251D01*
X662662Y198038D01*
X662532Y197829D01*
X662398Y197622D01*
X662259Y197419D01*
X662114Y197219D01*
X661965Y197023D01*
X661811Y196831D01*
X661652Y196642D01*
X661489Y196458D01*
X661321Y196277D01*
X661149Y196101D01*
X660973Y195929D01*
X660792Y195761D01*
X660608Y195598D01*
X660419Y195439D01*
X660227Y195285D01*
X660031Y195136D01*
X659831Y194991D01*
X659628Y194852D01*
X659421Y194718D01*
X659212Y194588D01*
X658999Y194464D01*
X658783Y194346D01*
X658564Y194232D01*
X658343Y194124D01*
X658119Y194021D01*
X657892Y193924D01*
X657663Y193833D01*
X657432Y193747D01*
X657199Y193667D01*
X656964Y193592D01*
X656728Y193524D01*
X656490Y193461D01*
X656250Y193404D01*
X656009Y193353D01*
X655766Y193308D01*
X655523Y193269D01*
X655279Y193236D01*
X655034Y193208D01*
X654789Y193187D01*
X654543Y193172D01*
X654296Y193163D01*
X654050Y193160D01*
X653804Y193163D01*
X653557Y193172D01*
X653311Y193187D01*
X653066Y193208D01*
X652821Y193236D01*
X652577Y193269D01*
X652334Y193308D01*
X652091Y193353D01*
X651850Y193404D01*
X651610Y193461D01*
X651372Y193524D01*
X651136Y193592D01*
X650901Y193667D01*
X650668Y193747D01*
X650437Y193833D01*
X650208Y193924D01*
X649981Y194021D01*
X649757Y194124D01*
X649536Y194232D01*
X649317Y194346D01*
X649101Y194464D01*
X648888Y194588D01*
X648679Y194718D01*
X648472Y194852D01*
X648269Y194991D01*
X648069Y195136D01*
X647873Y195285D01*
X647681Y195439D01*
X647492Y195598D01*
X647308Y195761D01*
X647127Y195929D01*
X646951Y196101D01*
X646779Y196277D01*
X646611Y196458D01*
X646448Y196642D01*
X646289Y196831D01*
X646135Y197023D01*
X645986Y197219D01*
X645841Y197419D01*
X645702Y197622D01*
X645568Y197829D01*
X645438Y198038D01*
X645314Y198251D01*
X645196Y198467D01*
X645082Y198686D01*
X644974Y198907D01*
X644871Y199131D01*
X644774Y199358D01*
X644683Y199587D01*
X644597Y199818D01*
X644517Y200051D01*
X644442Y200286D01*
X644374Y200522D01*
X644311Y200760D01*
X644254Y201000D01*
X644203Y201241D01*
X644158Y201484D01*
X644119Y201727D01*
X644086Y201971D01*
X644058Y202216D01*
X644037Y202461D01*
X644022Y202707D01*
X644013Y202954D01*
X644010Y203200D01*
X631825Y298450D02*
X631825Y107950D01*
X631825Y298450D02*
X298450Y298450D01*
X298450Y107950D01*
X631825Y107950D01*
X574675Y165100D02*
X574675Y269875D01*
X358775Y269875D02*
X358775Y165100D01*
X358775Y269875D02*
X574675Y269875D01*
X574675Y165100D02*
X358775Y165100D01*
D15*
X466725Y217488D03*
D12*
X222250Y241300D02*
X222250Y165100D01*
X222250Y241300D02*
X165100Y241300D01*
X161925Y241300D01*
X158750Y241300D01*
X155575Y238125D01*
X155575Y168275D01*
X158750Y165100D01*
X161925Y165100D01*
X165100Y165100D01*
X222250Y165100D01*
X165100Y241300D02*
X152400Y254000D01*
X165100Y165100D02*
X152400Y152400D01*
X158750Y168275D02*
X158750Y238125D01*
X158750Y168275D02*
X161925Y165100D01*
X158750Y238125D02*
X161925Y241300D01*
X161925Y298450D02*
X219075Y298450D01*
X219075Y111125D02*
X161925Y111125D01*
X161925Y136525D02*
X219075Y136525D01*
X219075Y111125D01*
X161925Y111125D02*
X161925Y136525D01*
X161925Y273050D02*
X161925Y298450D01*
X219075Y298450D02*
X219075Y273050D01*
X161925Y273050D01*
D16*
X359791Y157734D02*
X359791Y150029D01*
X359793Y149922D01*
X359799Y149815D01*
X359808Y149709D01*
X359822Y149603D01*
X359839Y149497D01*
X359860Y149392D01*
X359885Y149288D01*
X359914Y149185D01*
X359946Y149083D01*
X359982Y148982D01*
X360022Y148883D01*
X360065Y148785D01*
X360112Y148689D01*
X360162Y148594D01*
X360215Y148501D01*
X360272Y148411D01*
X360332Y148322D01*
X360395Y148236D01*
X360461Y148152D01*
X360531Y148070D01*
X360603Y147991D01*
X360678Y147915D01*
X360756Y147841D01*
X360836Y147771D01*
X360919Y147703D01*
X361004Y147638D01*
X361091Y147577D01*
X361181Y147518D01*
X361273Y147463D01*
X361366Y147411D01*
X361462Y147363D01*
X361559Y147318D01*
X361657Y147276D01*
X361757Y147239D01*
X361859Y147204D01*
X361961Y147174D01*
X362065Y147147D01*
X362169Y147124D01*
X362275Y147105D01*
X362381Y147090D01*
X362487Y147078D01*
X362594Y147070D01*
X362701Y147066D01*
X362807Y147066D01*
X362914Y147070D01*
X363021Y147078D01*
X363127Y147090D01*
X363233Y147105D01*
X363339Y147124D01*
X363443Y147147D01*
X363547Y147174D01*
X363649Y147204D01*
X363751Y147239D01*
X363851Y147276D01*
X363949Y147318D01*
X364046Y147363D01*
X364142Y147411D01*
X364236Y147463D01*
X364327Y147518D01*
X364417Y147577D01*
X364504Y147638D01*
X364589Y147703D01*
X364672Y147771D01*
X364752Y147841D01*
X364830Y147915D01*
X364905Y147991D01*
X364977Y148070D01*
X365047Y148152D01*
X365113Y148236D01*
X365176Y148322D01*
X365236Y148411D01*
X365293Y148501D01*
X365346Y148594D01*
X365396Y148689D01*
X365443Y148785D01*
X365486Y148883D01*
X365526Y148982D01*
X365562Y149083D01*
X365594Y149185D01*
X365623Y149288D01*
X365648Y149392D01*
X365669Y149497D01*
X365686Y149603D01*
X365700Y149709D01*
X365709Y149815D01*
X365715Y149922D01*
X365717Y150029D01*
X365718Y150029D02*
X365718Y157734D01*
X373803Y157734D02*
X373803Y147066D01*
X373803Y152400D02*
X372322Y153289D01*
X372253Y153333D01*
X372185Y153380D01*
X372120Y153431D01*
X372057Y153484D01*
X371997Y153540D01*
X371939Y153599D01*
X371884Y153661D01*
X371833Y153725D01*
X371784Y153791D01*
X371738Y153859D01*
X371696Y153930D01*
X371656Y154003D01*
X371621Y154077D01*
X371588Y154153D01*
X371560Y154230D01*
X371535Y154308D01*
X371513Y154388D01*
X371496Y154468D01*
X371482Y154550D01*
X371472Y154631D01*
X371465Y154713D01*
X371463Y154796D01*
X371464Y154878D01*
X371470Y154960D01*
X371479Y155042D01*
X371492Y155124D01*
X371508Y155204D01*
X371529Y155284D01*
X371553Y155363D01*
X371580Y155441D01*
X371612Y155517D01*
X371646Y155591D01*
X371685Y155664D01*
X371726Y155736D01*
X371771Y155805D01*
X371819Y155872D01*
X371870Y155936D01*
X371924Y155998D01*
X371981Y156058D01*
X372040Y156115D01*
X372103Y156169D01*
X372167Y156220D01*
X372234Y156268D01*
X372303Y156313D01*
X372374Y156355D01*
X372447Y156393D01*
X372522Y156428D01*
X372598Y156459D01*
X372676Y156487D01*
X372754Y156511D01*
X372834Y156531D01*
X372915Y156548D01*
X372914Y156549D02*
X373048Y156571D01*
X373182Y156590D01*
X373316Y156604D01*
X373451Y156615D01*
X373587Y156622D01*
X373722Y156625D01*
X373858Y156624D01*
X373993Y156619D01*
X374128Y156610D01*
X374263Y156598D01*
X374397Y156581D01*
X374531Y156561D01*
X374664Y156537D01*
X374797Y156509D01*
X374928Y156477D01*
X375059Y156441D01*
X375189Y156402D01*
X375317Y156359D01*
X375444Y156312D01*
X375570Y156261D01*
X375694Y156207D01*
X375817Y156150D01*
X375937Y156089D01*
X376056Y156024D01*
X376174Y155956D01*
X373803Y152400D02*
X375285Y151511D01*
X375354Y151467D01*
X375422Y151420D01*
X375487Y151369D01*
X375550Y151316D01*
X375610Y151260D01*
X375668Y151201D01*
X375723Y151139D01*
X375774Y151075D01*
X375823Y151009D01*
X375869Y150941D01*
X375911Y150870D01*
X375951Y150797D01*
X375986Y150723D01*
X376019Y150647D01*
X376047Y150570D01*
X376072Y150492D01*
X376094Y150412D01*
X376111Y150332D01*
X376125Y150250D01*
X376135Y150169D01*
X376142Y150087D01*
X376144Y150004D01*
X376143Y149922D01*
X376137Y149840D01*
X376128Y149758D01*
X376115Y149676D01*
X376099Y149596D01*
X376078Y149516D01*
X376054Y149437D01*
X376027Y149359D01*
X375995Y149283D01*
X375961Y149209D01*
X375922Y149136D01*
X375881Y149064D01*
X375836Y148995D01*
X375788Y148928D01*
X375737Y148864D01*
X375683Y148802D01*
X375626Y148742D01*
X375567Y148685D01*
X375504Y148631D01*
X375440Y148580D01*
X375373Y148532D01*
X375304Y148487D01*
X375233Y148445D01*
X375160Y148407D01*
X375085Y148372D01*
X375009Y148341D01*
X374931Y148313D01*
X374853Y148289D01*
X374773Y148269D01*
X374692Y148252D01*
X374692Y148251D02*
X374558Y148229D01*
X374424Y148210D01*
X374290Y148196D01*
X374155Y148185D01*
X374019Y148178D01*
X373884Y148175D01*
X373748Y148176D01*
X373613Y148181D01*
X373478Y148190D01*
X373343Y148202D01*
X373209Y148219D01*
X373075Y148239D01*
X372942Y148263D01*
X372809Y148291D01*
X372677Y148323D01*
X372547Y148359D01*
X372417Y148398D01*
X372289Y148441D01*
X372162Y148488D01*
X372036Y148539D01*
X371912Y148593D01*
X371789Y148650D01*
X371669Y148712D01*
X371549Y148776D01*
X371432Y148844D01*
X381508Y147066D02*
X384471Y147066D01*
X384578Y147068D01*
X384685Y147074D01*
X384791Y147083D01*
X384897Y147097D01*
X385003Y147114D01*
X385108Y147135D01*
X385212Y147160D01*
X385315Y147189D01*
X385417Y147221D01*
X385518Y147257D01*
X385617Y147297D01*
X385715Y147340D01*
X385811Y147387D01*
X385906Y147437D01*
X385999Y147490D01*
X386089Y147547D01*
X386178Y147607D01*
X386264Y147670D01*
X386348Y147736D01*
X386430Y147806D01*
X386509Y147878D01*
X386585Y147953D01*
X386659Y148031D01*
X386729Y148111D01*
X386797Y148194D01*
X386862Y148279D01*
X386923Y148366D01*
X386982Y148456D01*
X387037Y148548D01*
X387089Y148641D01*
X387137Y148737D01*
X387182Y148834D01*
X387224Y148932D01*
X387261Y149032D01*
X387296Y149134D01*
X387326Y149236D01*
X387353Y149340D01*
X387376Y149444D01*
X387395Y149550D01*
X387410Y149656D01*
X387422Y149762D01*
X387430Y149869D01*
X387434Y149976D01*
X387434Y150082D01*
X387430Y150189D01*
X387422Y150296D01*
X387410Y150402D01*
X387395Y150508D01*
X387376Y150614D01*
X387353Y150718D01*
X387326Y150822D01*
X387296Y150924D01*
X387261Y151026D01*
X387224Y151126D01*
X387182Y151224D01*
X387137Y151321D01*
X387089Y151417D01*
X387037Y151510D01*
X386982Y151602D01*
X386923Y151692D01*
X386862Y151779D01*
X386797Y151864D01*
X386729Y151947D01*
X386659Y152027D01*
X386585Y152105D01*
X386509Y152180D01*
X386430Y152252D01*
X386348Y152322D01*
X386264Y152388D01*
X386178Y152451D01*
X386089Y152511D01*
X385999Y152568D01*
X385906Y152621D01*
X385811Y152671D01*
X385715Y152718D01*
X385617Y152761D01*
X385518Y152801D01*
X385417Y152837D01*
X385315Y152869D01*
X385212Y152898D01*
X385108Y152923D01*
X385003Y152944D01*
X384897Y152961D01*
X384791Y152975D01*
X384685Y152984D01*
X384578Y152990D01*
X384471Y152992D01*
X385064Y157734D02*
X381508Y157734D01*
X385064Y157734D02*
X385161Y157732D01*
X385257Y157726D01*
X385353Y157716D01*
X385449Y157702D01*
X385544Y157685D01*
X385639Y157663D01*
X385732Y157638D01*
X385824Y157609D01*
X385915Y157576D01*
X386005Y157539D01*
X386093Y157499D01*
X386179Y157455D01*
X386263Y157408D01*
X386346Y157358D01*
X386426Y157304D01*
X386504Y157246D01*
X386580Y157186D01*
X386653Y157123D01*
X386723Y157057D01*
X386791Y156987D01*
X386856Y156916D01*
X386918Y156841D01*
X386976Y156764D01*
X387032Y156685D01*
X387084Y156604D01*
X387133Y156520D01*
X387179Y156435D01*
X387221Y156348D01*
X387259Y156259D01*
X387294Y156169D01*
X387325Y156077D01*
X387352Y155984D01*
X387376Y155891D01*
X387395Y155796D01*
X387411Y155700D01*
X387423Y155604D01*
X387431Y155508D01*
X387435Y155411D01*
X387435Y155315D01*
X387431Y155218D01*
X387423Y155122D01*
X387411Y155026D01*
X387395Y154930D01*
X387376Y154835D01*
X387352Y154742D01*
X387325Y154649D01*
X387294Y154557D01*
X387259Y154467D01*
X387221Y154378D01*
X387179Y154291D01*
X387133Y154206D01*
X387084Y154122D01*
X387032Y154041D01*
X386976Y153962D01*
X386918Y153885D01*
X386856Y153810D01*
X386791Y153739D01*
X386723Y153669D01*
X386653Y153603D01*
X386580Y153540D01*
X386504Y153480D01*
X386426Y153422D01*
X386346Y153368D01*
X386263Y153318D01*
X386179Y153271D01*
X386093Y153227D01*
X386005Y153187D01*
X385915Y153150D01*
X385824Y153117D01*
X385732Y153088D01*
X385639Y153063D01*
X385544Y153041D01*
X385449Y153024D01*
X385353Y153010D01*
X385257Y153000D01*
X385161Y152994D01*
X385064Y152992D01*
X385064Y152993D02*
X382693Y152993D01*
M02*
