G04 EAGLE Gerber RS-274X export*
G75*
%MOMM*%
%FSLAX34Y34*%
%LPD*%
%INSoldermask Bottom*%
%IPPOS*%
%AMOC8*
5,1,8,0,0,1.08239X$1,22.5*%
G01*
%ADD10P,1.951982X8X292.500000*%
%ADD11P,1.924489X8X112.500000*%
%ADD12C,4.318000*%
%ADD13C,2.387600*%
%ADD14R,1.711200X1.711200*%
%ADD15C,1.711200*%
%ADD16C,3.203200*%
%ADD17C,3.703200*%
%ADD18R,1.511200X1.511200*%
%ADD19P,1.635708X8X22.500000*%


D10*
X342900Y457200D03*
X342900Y431800D03*
D11*
X125730Y792480D03*
X125730Y764540D03*
X125730Y736600D03*
X125730Y708660D03*
X125730Y680720D03*
X153670Y778510D03*
X153670Y750570D03*
X153670Y722630D03*
X153670Y694690D03*
D12*
X139700Y858520D03*
X139700Y614680D03*
D13*
X166878Y409200D02*
X188722Y409200D01*
X147800Y446278D02*
X147800Y468122D01*
X207800Y468122D02*
X207800Y446278D01*
D14*
X641350Y571500D03*
D15*
X641350Y596900D03*
X641350Y622300D03*
X641350Y647700D03*
X641350Y673100D03*
D16*
X632460Y532130D03*
X632460Y712470D03*
X332740Y712470D03*
D17*
X339090Y647700D03*
D16*
X332740Y532130D03*
D14*
X355600Y825500D03*
D15*
X355600Y850900D03*
D14*
X508000Y825500D03*
D15*
X508000Y850900D03*
D18*
X190500Y88900D03*
D19*
X215900Y88900D03*
X241300Y88900D03*
X266700Y88900D03*
X292100Y88900D03*
X317500Y88900D03*
X342900Y88900D03*
X368300Y88900D03*
X393700Y88900D03*
X419100Y88900D03*
X444500Y88900D03*
X469900Y88900D03*
X495300Y88900D03*
X520700Y88900D03*
X546100Y88900D03*
X571500Y88900D03*
X596900Y88900D03*
X622300Y88900D03*
X622300Y317500D03*
X596900Y317500D03*
X571500Y317500D03*
X546100Y317500D03*
X520700Y317500D03*
X495300Y317500D03*
X469900Y317500D03*
X444500Y317500D03*
X419100Y317500D03*
X393700Y317500D03*
X368300Y317500D03*
X342900Y317500D03*
X317500Y317500D03*
X292100Y317500D03*
X266700Y317500D03*
X241300Y317500D03*
X215900Y317500D03*
D18*
X190500Y317500D03*
M02*
