M48
;GenerationSoftware,Autodesk,EAGLE,9.5.1*%
;CreationDate,2019-11-15T13:31:32Z*%
FMAT,2
ICI,OFF
METRIC,TZ,000.000
T7C0.800
T6C0.813
T5C1.000
T4C1.016
T3C3.000
T2C3.500
T1C4.115
%
G90
M71
T1
X13970Y85852
X13970Y61468
T2
X33909Y64770
T3
X63246Y53213
X63246Y71247
X33274Y71247
X33274Y53213
T4
X15367Y72263
X12573Y79248
X12573Y76454
X12573Y73660
X12573Y70866
X12573Y68072
X15367Y77851
X15367Y75057
X15367Y69469
T5
X50800Y82550
X50800Y85090
X20780Y45720
X64135Y57150
X64135Y59690
X64135Y62230
X64135Y64770
X64135Y67310
X35560Y82550
X35560Y85090
T6
X34290Y45720
X34290Y43180
T7
X17780Y40920
X14780Y45720
X19050Y8890
X21590Y8890
X24130Y8890
X26670Y8890
X29210Y8890
X31750Y8890
X34290Y8890
X36830Y8890
X39370Y8890
X41910Y8890
X44450Y8890
X46990Y8890
X49530Y8890
X52070Y8890
X54610Y8890
X57150Y8890
X59690Y8890
X62230Y8890
X62230Y31750
X59690Y31750
X57150Y31750
X54610Y31750
X52070Y31750
X49530Y31750
X46990Y31750
X44450Y31750
X41910Y31750
X39370Y31750
X36830Y31750
X34290Y31750
X31750Y31750
X29210Y31750
X26670Y31750
X24130Y31750
X21590Y31750
X19050Y31750
M30