G04 EAGLE Gerber RS-274X export*
G75*
%MOMM*%
%FSLAX34Y34*%
%LPD*%
%INSilkscreen Top*%
%IPPOS*%
%AMOC8*
5,1,8,0,0,1.08239X$1,22.5*%
G01*
%ADD10C,0.127000*%
%ADD11C,0.101600*%
%ADD12C,0.152400*%


D10*
X425450Y457200D02*
X412750Y457200D01*
X406400Y463550D01*
X406400Y476250D01*
X412750Y482600D01*
X406400Y488950D01*
X406400Y501650D01*
X412750Y508000D01*
X406400Y514350D01*
X406400Y527050D01*
X412750Y533400D01*
X406400Y539750D01*
X406400Y552450D01*
X412750Y558800D01*
X431800Y463550D02*
X425450Y457200D01*
X431800Y476250D02*
X425450Y482600D01*
X431800Y488950D01*
X431800Y501650D02*
X425450Y508000D01*
X431800Y514350D01*
X431800Y527050D02*
X425450Y533400D01*
X431800Y539750D01*
X431800Y552450D02*
X425450Y558800D01*
D11*
X379862Y517454D02*
X379860Y517355D01*
X379854Y517255D01*
X379845Y517156D01*
X379832Y517058D01*
X379815Y516960D01*
X379794Y516862D01*
X379769Y516766D01*
X379741Y516671D01*
X379709Y516577D01*
X379674Y516484D01*
X379635Y516392D01*
X379592Y516302D01*
X379547Y516214D01*
X379497Y516127D01*
X379445Y516043D01*
X379389Y515960D01*
X379331Y515880D01*
X379269Y515802D01*
X379204Y515727D01*
X379136Y515654D01*
X379066Y515584D01*
X378993Y515516D01*
X378918Y515451D01*
X378840Y515389D01*
X378760Y515331D01*
X378677Y515275D01*
X378593Y515223D01*
X378506Y515173D01*
X378418Y515128D01*
X378328Y515085D01*
X378236Y515046D01*
X378143Y515011D01*
X378049Y514979D01*
X377954Y514951D01*
X377858Y514926D01*
X377760Y514905D01*
X377662Y514888D01*
X377564Y514875D01*
X377465Y514866D01*
X377365Y514860D01*
X377266Y514858D01*
X377122Y514860D01*
X376977Y514866D01*
X376833Y514875D01*
X376690Y514888D01*
X376546Y514905D01*
X376403Y514926D01*
X376261Y514951D01*
X376120Y514979D01*
X375979Y515011D01*
X375839Y515047D01*
X375700Y515086D01*
X375562Y515129D01*
X375426Y515176D01*
X375290Y515226D01*
X375156Y515280D01*
X375024Y515337D01*
X374893Y515398D01*
X374764Y515462D01*
X374636Y515530D01*
X374510Y515600D01*
X374386Y515675D01*
X374265Y515752D01*
X374145Y515833D01*
X374027Y515916D01*
X373912Y516003D01*
X373799Y516093D01*
X373688Y516186D01*
X373580Y516281D01*
X373474Y516380D01*
X373371Y516481D01*
X373697Y523946D02*
X373699Y524045D01*
X373705Y524145D01*
X373714Y524244D01*
X373727Y524342D01*
X373744Y524440D01*
X373765Y524538D01*
X373790Y524634D01*
X373818Y524729D01*
X373850Y524823D01*
X373885Y524916D01*
X373924Y525008D01*
X373967Y525098D01*
X374012Y525186D01*
X374062Y525273D01*
X374114Y525357D01*
X374170Y525440D01*
X374228Y525520D01*
X374290Y525598D01*
X374355Y525673D01*
X374423Y525746D01*
X374493Y525816D01*
X374566Y525884D01*
X374641Y525949D01*
X374719Y526011D01*
X374799Y526069D01*
X374882Y526125D01*
X374966Y526177D01*
X375053Y526227D01*
X375141Y526272D01*
X375231Y526315D01*
X375323Y526354D01*
X375416Y526389D01*
X375510Y526421D01*
X375605Y526449D01*
X375702Y526474D01*
X375799Y526495D01*
X375897Y526512D01*
X375995Y526525D01*
X376094Y526534D01*
X376194Y526540D01*
X376293Y526542D01*
X376429Y526540D01*
X376565Y526534D01*
X376701Y526525D01*
X376837Y526512D01*
X376972Y526494D01*
X377106Y526474D01*
X377240Y526449D01*
X377374Y526421D01*
X377506Y526388D01*
X377637Y526353D01*
X377768Y526313D01*
X377897Y526270D01*
X378025Y526224D01*
X378151Y526173D01*
X378277Y526120D01*
X378400Y526062D01*
X378522Y526002D01*
X378642Y525938D01*
X378761Y525870D01*
X378877Y525800D01*
X378991Y525726D01*
X379104Y525649D01*
X379214Y525568D01*
X374994Y521674D02*
X374908Y521727D01*
X374824Y521784D01*
X374742Y521843D01*
X374662Y521906D01*
X374585Y521972D01*
X374510Y522040D01*
X374438Y522112D01*
X374369Y522186D01*
X374303Y522263D01*
X374240Y522342D01*
X374180Y522424D01*
X374123Y522508D01*
X374069Y522594D01*
X374019Y522682D01*
X373972Y522772D01*
X373928Y522863D01*
X373889Y522957D01*
X373852Y523051D01*
X373820Y523147D01*
X373791Y523245D01*
X373766Y523343D01*
X373745Y523442D01*
X373727Y523542D01*
X373714Y523642D01*
X373704Y523743D01*
X373698Y523845D01*
X373696Y523946D01*
X378565Y519726D02*
X378651Y519673D01*
X378735Y519616D01*
X378817Y519557D01*
X378897Y519494D01*
X378974Y519428D01*
X379049Y519360D01*
X379121Y519288D01*
X379190Y519214D01*
X379256Y519137D01*
X379319Y519058D01*
X379379Y518976D01*
X379436Y518892D01*
X379490Y518806D01*
X379540Y518718D01*
X379587Y518628D01*
X379631Y518537D01*
X379670Y518443D01*
X379707Y518349D01*
X379739Y518253D01*
X379768Y518155D01*
X379793Y518057D01*
X379814Y517958D01*
X379832Y517858D01*
X379845Y517758D01*
X379855Y517657D01*
X379861Y517555D01*
X379863Y517454D01*
X378564Y519726D02*
X374994Y521674D01*
X386984Y514858D02*
X389580Y514858D01*
X386984Y514858D02*
X386885Y514860D01*
X386785Y514866D01*
X386686Y514875D01*
X386588Y514888D01*
X386490Y514905D01*
X386392Y514926D01*
X386296Y514951D01*
X386201Y514979D01*
X386107Y515011D01*
X386014Y515046D01*
X385922Y515085D01*
X385832Y515128D01*
X385744Y515173D01*
X385657Y515223D01*
X385573Y515275D01*
X385490Y515331D01*
X385410Y515389D01*
X385332Y515451D01*
X385257Y515516D01*
X385184Y515584D01*
X385114Y515654D01*
X385046Y515727D01*
X384981Y515802D01*
X384919Y515880D01*
X384861Y515960D01*
X384805Y516043D01*
X384753Y516127D01*
X384703Y516214D01*
X384658Y516302D01*
X384615Y516392D01*
X384576Y516484D01*
X384541Y516577D01*
X384509Y516671D01*
X384481Y516766D01*
X384456Y516862D01*
X384435Y516960D01*
X384418Y517058D01*
X384405Y517156D01*
X384396Y517255D01*
X384390Y517355D01*
X384388Y517454D01*
X384387Y517454D02*
X384387Y523946D01*
X384388Y523946D02*
X384390Y524045D01*
X384396Y524145D01*
X384405Y524244D01*
X384418Y524342D01*
X384435Y524440D01*
X384456Y524538D01*
X384481Y524634D01*
X384509Y524729D01*
X384541Y524823D01*
X384576Y524916D01*
X384615Y525008D01*
X384658Y525098D01*
X384703Y525186D01*
X384753Y525273D01*
X384805Y525357D01*
X384861Y525440D01*
X384919Y525520D01*
X384981Y525598D01*
X385046Y525673D01*
X385114Y525746D01*
X385184Y525816D01*
X385257Y525884D01*
X385332Y525949D01*
X385410Y526011D01*
X385490Y526069D01*
X385573Y526125D01*
X385657Y526177D01*
X385744Y526227D01*
X385832Y526272D01*
X385922Y526315D01*
X386014Y526354D01*
X386106Y526389D01*
X386201Y526421D01*
X386296Y526449D01*
X386392Y526474D01*
X386490Y526495D01*
X386588Y526512D01*
X386686Y526525D01*
X386785Y526534D01*
X386885Y526540D01*
X386984Y526542D01*
X389580Y526542D01*
X394349Y526542D02*
X394349Y514858D01*
X399542Y514858D01*
D10*
X434340Y454660D02*
X302260Y454660D01*
X302260Y561340D01*
X434340Y561340D01*
X434340Y454660D01*
X431800Y463550D02*
X431800Y476250D01*
X431800Y488950D02*
X431800Y501650D01*
X431800Y514350D02*
X431800Y527050D01*
X431800Y539750D02*
X431800Y552450D01*
X425450Y558800D02*
X412750Y558800D01*
D11*
X375158Y495949D02*
X373211Y495949D01*
X375158Y495949D02*
X375158Y489458D01*
X371263Y489458D01*
X371164Y489460D01*
X371064Y489466D01*
X370965Y489475D01*
X370867Y489488D01*
X370769Y489505D01*
X370671Y489526D01*
X370575Y489551D01*
X370480Y489579D01*
X370386Y489611D01*
X370293Y489646D01*
X370201Y489685D01*
X370111Y489728D01*
X370023Y489773D01*
X369936Y489823D01*
X369852Y489875D01*
X369769Y489931D01*
X369689Y489989D01*
X369611Y490051D01*
X369536Y490116D01*
X369463Y490184D01*
X369393Y490254D01*
X369325Y490327D01*
X369260Y490402D01*
X369198Y490480D01*
X369140Y490560D01*
X369084Y490643D01*
X369032Y490727D01*
X368982Y490814D01*
X368937Y490902D01*
X368894Y490992D01*
X368855Y491084D01*
X368820Y491177D01*
X368788Y491271D01*
X368760Y491366D01*
X368735Y491462D01*
X368714Y491560D01*
X368697Y491658D01*
X368684Y491756D01*
X368675Y491855D01*
X368669Y491955D01*
X368667Y492054D01*
X368667Y498546D01*
X368669Y498645D01*
X368675Y498745D01*
X368684Y498844D01*
X368697Y498942D01*
X368714Y499040D01*
X368735Y499138D01*
X368760Y499234D01*
X368788Y499329D01*
X368820Y499423D01*
X368855Y499516D01*
X368894Y499608D01*
X368937Y499698D01*
X368982Y499786D01*
X369032Y499873D01*
X369084Y499957D01*
X369140Y500040D01*
X369198Y500120D01*
X369260Y500198D01*
X369325Y500273D01*
X369393Y500346D01*
X369463Y500416D01*
X369536Y500484D01*
X369611Y500549D01*
X369689Y500611D01*
X369769Y500669D01*
X369852Y500725D01*
X369936Y500777D01*
X370023Y500827D01*
X370111Y500872D01*
X370201Y500915D01*
X370293Y500954D01*
X370385Y500989D01*
X370480Y501021D01*
X370575Y501049D01*
X370671Y501074D01*
X370769Y501095D01*
X370867Y501112D01*
X370965Y501125D01*
X371064Y501134D01*
X371164Y501140D01*
X371263Y501142D01*
X375158Y501142D01*
X380859Y501142D02*
X380859Y489458D01*
X387350Y489458D02*
X380859Y501142D01*
X387350Y501142D02*
X387350Y489458D01*
X393051Y489458D02*
X393051Y501142D01*
X396296Y501142D01*
X396409Y501140D01*
X396522Y501134D01*
X396635Y501124D01*
X396748Y501110D01*
X396860Y501093D01*
X396971Y501071D01*
X397081Y501046D01*
X397191Y501016D01*
X397299Y500983D01*
X397406Y500946D01*
X397512Y500906D01*
X397616Y500861D01*
X397719Y500813D01*
X397820Y500762D01*
X397919Y500707D01*
X398016Y500649D01*
X398111Y500587D01*
X398204Y500522D01*
X398294Y500454D01*
X398382Y500383D01*
X398468Y500308D01*
X398551Y500231D01*
X398631Y500151D01*
X398708Y500068D01*
X398783Y499982D01*
X398854Y499894D01*
X398922Y499804D01*
X398987Y499711D01*
X399049Y499616D01*
X399107Y499519D01*
X399162Y499420D01*
X399213Y499319D01*
X399261Y499216D01*
X399306Y499112D01*
X399346Y499006D01*
X399383Y498899D01*
X399416Y498791D01*
X399446Y498681D01*
X399471Y498571D01*
X399493Y498460D01*
X399510Y498348D01*
X399524Y498235D01*
X399534Y498122D01*
X399540Y498009D01*
X399542Y497896D01*
X399542Y492704D01*
X399540Y492591D01*
X399534Y492478D01*
X399524Y492365D01*
X399510Y492252D01*
X399493Y492140D01*
X399471Y492029D01*
X399446Y491919D01*
X399416Y491809D01*
X399383Y491701D01*
X399346Y491594D01*
X399306Y491488D01*
X399261Y491384D01*
X399213Y491281D01*
X399162Y491180D01*
X399107Y491081D01*
X399049Y490984D01*
X398987Y490889D01*
X398922Y490796D01*
X398854Y490706D01*
X398783Y490618D01*
X398708Y490532D01*
X398631Y490449D01*
X398551Y490369D01*
X398468Y490292D01*
X398382Y490217D01*
X398294Y490146D01*
X398204Y490078D01*
X398111Y490013D01*
X398016Y489951D01*
X397919Y489893D01*
X397820Y489838D01*
X397719Y489787D01*
X397616Y489739D01*
X397512Y489694D01*
X397406Y489654D01*
X397299Y489617D01*
X397191Y489584D01*
X397081Y489554D01*
X396971Y489529D01*
X396860Y489507D01*
X396748Y489490D01*
X396635Y489476D01*
X396522Y489466D01*
X396409Y489460D01*
X396296Y489458D01*
X393051Y489458D01*
X373733Y475742D02*
X377627Y464058D01*
X381522Y475742D01*
X386771Y475742D02*
X386771Y464058D01*
X385473Y464058D02*
X388070Y464058D01*
X388070Y475742D02*
X385473Y475742D01*
X393051Y475742D02*
X393051Y464058D01*
X399542Y464058D02*
X393051Y475742D01*
X399542Y475742D02*
X399542Y464058D01*
X373056Y540258D02*
X373155Y540260D01*
X373255Y540266D01*
X373354Y540275D01*
X373452Y540288D01*
X373550Y540305D01*
X373648Y540326D01*
X373744Y540351D01*
X373839Y540379D01*
X373933Y540411D01*
X374026Y540446D01*
X374118Y540485D01*
X374208Y540528D01*
X374296Y540573D01*
X374383Y540623D01*
X374467Y540675D01*
X374550Y540731D01*
X374630Y540789D01*
X374708Y540851D01*
X374783Y540916D01*
X374856Y540984D01*
X374926Y541054D01*
X374994Y541127D01*
X375059Y541202D01*
X375121Y541280D01*
X375179Y541360D01*
X375235Y541443D01*
X375287Y541527D01*
X375337Y541614D01*
X375382Y541702D01*
X375425Y541792D01*
X375464Y541884D01*
X375499Y541977D01*
X375531Y542071D01*
X375559Y542166D01*
X375584Y542262D01*
X375605Y542360D01*
X375622Y542458D01*
X375635Y542556D01*
X375644Y542655D01*
X375650Y542755D01*
X375652Y542854D01*
X373056Y540258D02*
X372912Y540260D01*
X372767Y540266D01*
X372623Y540275D01*
X372480Y540288D01*
X372336Y540305D01*
X372193Y540326D01*
X372051Y540351D01*
X371910Y540379D01*
X371769Y540411D01*
X371629Y540447D01*
X371490Y540486D01*
X371352Y540529D01*
X371216Y540576D01*
X371080Y540626D01*
X370946Y540680D01*
X370814Y540737D01*
X370683Y540798D01*
X370554Y540862D01*
X370426Y540930D01*
X370300Y541000D01*
X370176Y541075D01*
X370055Y541152D01*
X369935Y541233D01*
X369817Y541316D01*
X369702Y541403D01*
X369589Y541493D01*
X369478Y541586D01*
X369370Y541681D01*
X369264Y541780D01*
X369161Y541881D01*
X369486Y549346D02*
X369488Y549445D01*
X369494Y549545D01*
X369503Y549644D01*
X369516Y549742D01*
X369533Y549840D01*
X369554Y549938D01*
X369579Y550034D01*
X369607Y550129D01*
X369639Y550223D01*
X369674Y550316D01*
X369713Y550408D01*
X369756Y550498D01*
X369801Y550586D01*
X369851Y550673D01*
X369903Y550757D01*
X369959Y550840D01*
X370017Y550920D01*
X370079Y550998D01*
X370144Y551073D01*
X370212Y551146D01*
X370282Y551216D01*
X370355Y551284D01*
X370430Y551349D01*
X370508Y551411D01*
X370588Y551469D01*
X370671Y551525D01*
X370755Y551577D01*
X370842Y551627D01*
X370930Y551672D01*
X371020Y551715D01*
X371112Y551754D01*
X371205Y551789D01*
X371299Y551821D01*
X371394Y551849D01*
X371491Y551874D01*
X371588Y551895D01*
X371686Y551912D01*
X371784Y551925D01*
X371883Y551934D01*
X371983Y551940D01*
X372082Y551942D01*
X372218Y551940D01*
X372354Y551934D01*
X372490Y551925D01*
X372626Y551912D01*
X372761Y551894D01*
X372895Y551874D01*
X373029Y551849D01*
X373163Y551821D01*
X373295Y551788D01*
X373426Y551753D01*
X373557Y551713D01*
X373686Y551670D01*
X373814Y551624D01*
X373940Y551573D01*
X374066Y551520D01*
X374189Y551462D01*
X374311Y551402D01*
X374431Y551338D01*
X374550Y551270D01*
X374666Y551200D01*
X374780Y551126D01*
X374893Y551049D01*
X375003Y550968D01*
X370783Y547074D02*
X370697Y547127D01*
X370613Y547184D01*
X370531Y547243D01*
X370451Y547306D01*
X370374Y547372D01*
X370299Y547440D01*
X370227Y547512D01*
X370158Y547586D01*
X370092Y547663D01*
X370029Y547742D01*
X369969Y547824D01*
X369912Y547908D01*
X369858Y547994D01*
X369808Y548082D01*
X369761Y548172D01*
X369717Y548263D01*
X369678Y548357D01*
X369641Y548451D01*
X369609Y548547D01*
X369580Y548645D01*
X369555Y548743D01*
X369534Y548842D01*
X369516Y548942D01*
X369503Y549042D01*
X369493Y549143D01*
X369487Y549245D01*
X369485Y549346D01*
X374354Y545126D02*
X374440Y545073D01*
X374524Y545016D01*
X374606Y544957D01*
X374686Y544894D01*
X374763Y544828D01*
X374838Y544760D01*
X374910Y544688D01*
X374979Y544614D01*
X375045Y544537D01*
X375108Y544458D01*
X375168Y544376D01*
X375225Y544292D01*
X375279Y544206D01*
X375329Y544118D01*
X375376Y544028D01*
X375420Y543937D01*
X375459Y543843D01*
X375496Y543749D01*
X375528Y543653D01*
X375557Y543555D01*
X375582Y543457D01*
X375603Y543358D01*
X375621Y543258D01*
X375634Y543158D01*
X375644Y543057D01*
X375650Y542955D01*
X375652Y542854D01*
X374354Y545126D02*
X370784Y547074D01*
X380591Y551942D02*
X380591Y540258D01*
X380591Y551942D02*
X383836Y551942D01*
X383949Y551940D01*
X384062Y551934D01*
X384175Y551924D01*
X384288Y551910D01*
X384400Y551893D01*
X384511Y551871D01*
X384621Y551846D01*
X384731Y551816D01*
X384839Y551783D01*
X384946Y551746D01*
X385052Y551706D01*
X385156Y551661D01*
X385259Y551613D01*
X385360Y551562D01*
X385459Y551507D01*
X385556Y551449D01*
X385651Y551387D01*
X385744Y551322D01*
X385834Y551254D01*
X385922Y551183D01*
X386008Y551108D01*
X386091Y551031D01*
X386171Y550951D01*
X386248Y550868D01*
X386323Y550782D01*
X386394Y550694D01*
X386462Y550604D01*
X386527Y550511D01*
X386589Y550416D01*
X386647Y550319D01*
X386702Y550220D01*
X386753Y550119D01*
X386801Y550016D01*
X386846Y549912D01*
X386886Y549806D01*
X386923Y549699D01*
X386956Y549591D01*
X386986Y549481D01*
X387011Y549371D01*
X387033Y549260D01*
X387050Y549148D01*
X387064Y549035D01*
X387074Y548922D01*
X387080Y548809D01*
X387082Y548696D01*
X387082Y543504D01*
X387080Y543391D01*
X387074Y543278D01*
X387064Y543165D01*
X387050Y543052D01*
X387033Y542940D01*
X387011Y542829D01*
X386986Y542719D01*
X386956Y542609D01*
X386923Y542501D01*
X386886Y542394D01*
X386846Y542288D01*
X386801Y542184D01*
X386753Y542081D01*
X386702Y541980D01*
X386647Y541881D01*
X386589Y541784D01*
X386527Y541689D01*
X386462Y541596D01*
X386394Y541506D01*
X386323Y541418D01*
X386248Y541332D01*
X386171Y541249D01*
X386091Y541169D01*
X386008Y541092D01*
X385922Y541017D01*
X385834Y540946D01*
X385744Y540878D01*
X385651Y540813D01*
X385556Y540751D01*
X385459Y540693D01*
X385360Y540638D01*
X385259Y540587D01*
X385156Y540539D01*
X385052Y540494D01*
X384946Y540454D01*
X384839Y540417D01*
X384731Y540384D01*
X384621Y540354D01*
X384511Y540329D01*
X384400Y540307D01*
X384288Y540290D01*
X384175Y540276D01*
X384062Y540266D01*
X383949Y540260D01*
X383836Y540258D01*
X380591Y540258D01*
X391753Y540258D02*
X395647Y551942D01*
X399542Y540258D01*
X398568Y543179D02*
X392726Y543179D01*
D10*
X342900Y520700D02*
X317500Y520700D01*
X317500Y546100D01*
X342900Y546100D01*
X342900Y520700D01*
X335280Y533400D02*
X335282Y533500D01*
X335288Y533601D01*
X335298Y533700D01*
X335312Y533800D01*
X335329Y533899D01*
X335351Y533997D01*
X335377Y534094D01*
X335406Y534190D01*
X335439Y534284D01*
X335476Y534378D01*
X335516Y534470D01*
X335560Y534560D01*
X335608Y534648D01*
X335659Y534735D01*
X335713Y534819D01*
X335771Y534901D01*
X335832Y534981D01*
X335896Y535058D01*
X335963Y535133D01*
X336033Y535205D01*
X336106Y535274D01*
X336181Y535340D01*
X336259Y535404D01*
X336339Y535464D01*
X336422Y535521D01*
X336507Y535574D01*
X336594Y535624D01*
X336683Y535671D01*
X336773Y535714D01*
X336865Y535754D01*
X336959Y535790D01*
X337054Y535822D01*
X337150Y535850D01*
X337248Y535875D01*
X337346Y535895D01*
X337445Y535912D01*
X337545Y535925D01*
X337644Y535934D01*
X337745Y535939D01*
X337845Y535940D01*
X337945Y535937D01*
X338046Y535930D01*
X338145Y535919D01*
X338245Y535904D01*
X338343Y535886D01*
X338441Y535863D01*
X338538Y535836D01*
X338633Y535806D01*
X338728Y535772D01*
X338821Y535734D01*
X338912Y535693D01*
X339002Y535648D01*
X339090Y535600D01*
X339176Y535548D01*
X339260Y535493D01*
X339341Y535434D01*
X339420Y535372D01*
X339497Y535308D01*
X339571Y535240D01*
X339642Y535169D01*
X339711Y535096D01*
X339776Y535020D01*
X339839Y534941D01*
X339898Y534860D01*
X339954Y534777D01*
X340007Y534692D01*
X340056Y534604D01*
X340102Y534515D01*
X340144Y534424D01*
X340183Y534331D01*
X340218Y534237D01*
X340249Y534142D01*
X340277Y534045D01*
X340300Y533948D01*
X340320Y533849D01*
X340336Y533750D01*
X340348Y533651D01*
X340356Y533550D01*
X340360Y533450D01*
X340360Y533350D01*
X340356Y533250D01*
X340348Y533149D01*
X340336Y533050D01*
X340320Y532951D01*
X340300Y532852D01*
X340277Y532755D01*
X340249Y532658D01*
X340218Y532563D01*
X340183Y532469D01*
X340144Y532376D01*
X340102Y532285D01*
X340056Y532196D01*
X340007Y532108D01*
X339954Y532023D01*
X339898Y531940D01*
X339839Y531859D01*
X339776Y531780D01*
X339711Y531704D01*
X339642Y531631D01*
X339571Y531560D01*
X339497Y531492D01*
X339420Y531428D01*
X339341Y531366D01*
X339260Y531307D01*
X339176Y531252D01*
X339090Y531200D01*
X339002Y531152D01*
X338912Y531107D01*
X338821Y531066D01*
X338728Y531028D01*
X338633Y530994D01*
X338538Y530964D01*
X338441Y530937D01*
X338343Y530914D01*
X338245Y530896D01*
X338145Y530881D01*
X338046Y530870D01*
X337945Y530863D01*
X337845Y530860D01*
X337745Y530861D01*
X337644Y530866D01*
X337545Y530875D01*
X337445Y530888D01*
X337346Y530905D01*
X337248Y530925D01*
X337150Y530950D01*
X337054Y530978D01*
X336959Y531010D01*
X336865Y531046D01*
X336773Y531086D01*
X336683Y531129D01*
X336594Y531176D01*
X336507Y531226D01*
X336422Y531279D01*
X336339Y531336D01*
X336259Y531396D01*
X336181Y531460D01*
X336106Y531526D01*
X336033Y531595D01*
X335963Y531667D01*
X335896Y531742D01*
X335832Y531819D01*
X335771Y531899D01*
X335713Y531981D01*
X335659Y532065D01*
X335608Y532152D01*
X335560Y532240D01*
X335516Y532330D01*
X335476Y532422D01*
X335439Y532516D01*
X335406Y532610D01*
X335377Y532706D01*
X335351Y532803D01*
X335329Y532901D01*
X335312Y533000D01*
X335298Y533100D01*
X335288Y533199D01*
X335282Y533300D01*
X335280Y533400D01*
D11*
X336374Y438799D02*
X339619Y438799D01*
X339619Y438800D02*
X339732Y438798D01*
X339845Y438792D01*
X339958Y438782D01*
X340071Y438768D01*
X340183Y438751D01*
X340294Y438729D01*
X340404Y438704D01*
X340514Y438674D01*
X340622Y438641D01*
X340729Y438604D01*
X340835Y438564D01*
X340939Y438519D01*
X341042Y438471D01*
X341143Y438420D01*
X341242Y438365D01*
X341339Y438307D01*
X341434Y438245D01*
X341527Y438180D01*
X341617Y438112D01*
X341705Y438041D01*
X341791Y437966D01*
X341874Y437889D01*
X341954Y437809D01*
X342031Y437726D01*
X342106Y437640D01*
X342177Y437552D01*
X342245Y437462D01*
X342310Y437369D01*
X342372Y437274D01*
X342430Y437177D01*
X342485Y437078D01*
X342536Y436977D01*
X342584Y436874D01*
X342629Y436770D01*
X342669Y436664D01*
X342706Y436557D01*
X342739Y436449D01*
X342769Y436339D01*
X342794Y436229D01*
X342816Y436118D01*
X342833Y436006D01*
X342847Y435893D01*
X342857Y435780D01*
X342863Y435667D01*
X342865Y435554D01*
X342863Y435441D01*
X342857Y435328D01*
X342847Y435215D01*
X342833Y435102D01*
X342816Y434990D01*
X342794Y434879D01*
X342769Y434769D01*
X342739Y434659D01*
X342706Y434551D01*
X342669Y434444D01*
X342629Y434338D01*
X342584Y434234D01*
X342536Y434131D01*
X342485Y434030D01*
X342430Y433931D01*
X342372Y433834D01*
X342310Y433739D01*
X342245Y433646D01*
X342177Y433556D01*
X342106Y433468D01*
X342031Y433382D01*
X341954Y433299D01*
X341874Y433219D01*
X341791Y433142D01*
X341705Y433067D01*
X341617Y432996D01*
X341527Y432928D01*
X341434Y432863D01*
X341339Y432801D01*
X341242Y432743D01*
X341143Y432688D01*
X341042Y432637D01*
X340939Y432589D01*
X340835Y432544D01*
X340729Y432504D01*
X340622Y432467D01*
X340514Y432434D01*
X340404Y432404D01*
X340294Y432379D01*
X340183Y432357D01*
X340071Y432340D01*
X339958Y432326D01*
X339845Y432316D01*
X339732Y432310D01*
X339619Y432308D01*
X336374Y432308D01*
X336374Y443992D01*
X339619Y443992D01*
X339720Y443990D01*
X339820Y443984D01*
X339920Y443974D01*
X340020Y443961D01*
X340119Y443943D01*
X340218Y443922D01*
X340315Y443897D01*
X340412Y443868D01*
X340507Y443835D01*
X340601Y443799D01*
X340693Y443759D01*
X340784Y443716D01*
X340873Y443669D01*
X340960Y443619D01*
X341046Y443565D01*
X341129Y443508D01*
X341209Y443448D01*
X341288Y443385D01*
X341364Y443318D01*
X341437Y443249D01*
X341507Y443177D01*
X341575Y443103D01*
X341640Y443026D01*
X341701Y442946D01*
X341760Y442864D01*
X341815Y442780D01*
X341867Y442694D01*
X341916Y442606D01*
X341961Y442516D01*
X342003Y442424D01*
X342041Y442331D01*
X342075Y442236D01*
X342106Y442141D01*
X342133Y442044D01*
X342156Y441946D01*
X342176Y441847D01*
X342191Y441747D01*
X342203Y441647D01*
X342211Y441547D01*
X342215Y441446D01*
X342215Y441346D01*
X342211Y441245D01*
X342203Y441145D01*
X342191Y441045D01*
X342176Y440945D01*
X342156Y440846D01*
X342133Y440748D01*
X342106Y440651D01*
X342075Y440556D01*
X342041Y440461D01*
X342003Y440368D01*
X341961Y440276D01*
X341916Y440186D01*
X341867Y440098D01*
X341815Y440012D01*
X341760Y439928D01*
X341701Y439846D01*
X341640Y439766D01*
X341575Y439689D01*
X341507Y439615D01*
X341437Y439543D01*
X341364Y439474D01*
X341288Y439407D01*
X341209Y439344D01*
X341129Y439284D01*
X341046Y439227D01*
X340960Y439173D01*
X340873Y439123D01*
X340784Y439076D01*
X340693Y439033D01*
X340601Y438993D01*
X340507Y438957D01*
X340412Y438924D01*
X340315Y438895D01*
X340218Y438870D01*
X340119Y438849D01*
X340020Y438831D01*
X339920Y438818D01*
X339820Y438808D01*
X339720Y438802D01*
X339619Y438800D01*
X347747Y443992D02*
X347747Y432308D01*
X351642Y437501D02*
X347747Y443992D01*
X351642Y437501D02*
X355537Y443992D01*
X355537Y432308D01*
X361373Y432308D02*
X366566Y432308D01*
X361373Y432308D02*
X361373Y443992D01*
X366566Y443992D01*
X365268Y438799D02*
X361373Y438799D01*
X374445Y443992D02*
X374552Y443990D01*
X374658Y443984D01*
X374764Y443974D01*
X374870Y443961D01*
X374976Y443943D01*
X375080Y443922D01*
X375184Y443897D01*
X375287Y443868D01*
X375388Y443836D01*
X375488Y443799D01*
X375587Y443759D01*
X375685Y443716D01*
X375781Y443669D01*
X375875Y443618D01*
X375967Y443564D01*
X376057Y443507D01*
X376145Y443447D01*
X376230Y443383D01*
X376313Y443316D01*
X376394Y443246D01*
X376472Y443174D01*
X376548Y443098D01*
X376620Y443020D01*
X376690Y442939D01*
X376757Y442856D01*
X376821Y442771D01*
X376881Y442683D01*
X376938Y442593D01*
X376992Y442501D01*
X377043Y442407D01*
X377090Y442311D01*
X377133Y442213D01*
X377173Y442114D01*
X377210Y442014D01*
X377242Y441913D01*
X377271Y441810D01*
X377296Y441706D01*
X377317Y441602D01*
X377335Y441496D01*
X377348Y441390D01*
X377358Y441284D01*
X377364Y441178D01*
X377366Y441071D01*
X374445Y443992D02*
X374324Y443990D01*
X374203Y443984D01*
X374083Y443974D01*
X373962Y443961D01*
X373843Y443943D01*
X373723Y443922D01*
X373605Y443897D01*
X373488Y443868D01*
X373371Y443835D01*
X373256Y443799D01*
X373142Y443758D01*
X373029Y443715D01*
X372917Y443667D01*
X372808Y443616D01*
X372700Y443561D01*
X372593Y443503D01*
X372489Y443442D01*
X372387Y443377D01*
X372287Y443309D01*
X372189Y443238D01*
X372093Y443164D01*
X372000Y443087D01*
X371910Y443006D01*
X371822Y442923D01*
X371737Y442837D01*
X371654Y442748D01*
X371575Y442657D01*
X371498Y442563D01*
X371425Y442467D01*
X371355Y442369D01*
X371288Y442268D01*
X371224Y442165D01*
X371164Y442060D01*
X371107Y441953D01*
X371053Y441845D01*
X371003Y441735D01*
X370957Y441623D01*
X370914Y441510D01*
X370875Y441395D01*
X376393Y438799D02*
X376472Y438876D01*
X376548Y438957D01*
X376621Y439040D01*
X376691Y439125D01*
X376758Y439213D01*
X376822Y439303D01*
X376882Y439395D01*
X376939Y439490D01*
X376993Y439586D01*
X377044Y439684D01*
X377091Y439784D01*
X377135Y439886D01*
X377175Y439989D01*
X377211Y440093D01*
X377243Y440199D01*
X377272Y440305D01*
X377297Y440413D01*
X377319Y440521D01*
X377336Y440631D01*
X377350Y440740D01*
X377359Y440850D01*
X377365Y440961D01*
X377367Y441071D01*
X376393Y438799D02*
X370875Y432308D01*
X377366Y432308D01*
X382305Y435554D02*
X382307Y435667D01*
X382313Y435780D01*
X382323Y435893D01*
X382337Y436006D01*
X382354Y436118D01*
X382376Y436229D01*
X382401Y436339D01*
X382431Y436449D01*
X382464Y436557D01*
X382501Y436664D01*
X382541Y436770D01*
X382586Y436874D01*
X382634Y436977D01*
X382685Y437078D01*
X382740Y437177D01*
X382798Y437274D01*
X382860Y437369D01*
X382925Y437462D01*
X382993Y437552D01*
X383064Y437640D01*
X383139Y437726D01*
X383216Y437809D01*
X383296Y437889D01*
X383379Y437966D01*
X383465Y438041D01*
X383553Y438112D01*
X383643Y438180D01*
X383736Y438245D01*
X383831Y438307D01*
X383928Y438365D01*
X384027Y438420D01*
X384128Y438471D01*
X384231Y438519D01*
X384335Y438564D01*
X384441Y438604D01*
X384548Y438641D01*
X384656Y438674D01*
X384766Y438704D01*
X384876Y438729D01*
X384987Y438751D01*
X385099Y438768D01*
X385212Y438782D01*
X385325Y438792D01*
X385438Y438798D01*
X385551Y438800D01*
X385664Y438798D01*
X385777Y438792D01*
X385890Y438782D01*
X386003Y438768D01*
X386115Y438751D01*
X386226Y438729D01*
X386336Y438704D01*
X386446Y438674D01*
X386554Y438641D01*
X386661Y438604D01*
X386767Y438564D01*
X386871Y438519D01*
X386974Y438471D01*
X387075Y438420D01*
X387174Y438365D01*
X387271Y438307D01*
X387366Y438245D01*
X387459Y438180D01*
X387549Y438112D01*
X387637Y438041D01*
X387723Y437966D01*
X387806Y437889D01*
X387886Y437809D01*
X387963Y437726D01*
X388038Y437640D01*
X388109Y437552D01*
X388177Y437462D01*
X388242Y437369D01*
X388304Y437274D01*
X388362Y437177D01*
X388417Y437078D01*
X388468Y436977D01*
X388516Y436874D01*
X388561Y436770D01*
X388601Y436664D01*
X388638Y436557D01*
X388671Y436449D01*
X388701Y436339D01*
X388726Y436229D01*
X388748Y436118D01*
X388765Y436006D01*
X388779Y435893D01*
X388789Y435780D01*
X388795Y435667D01*
X388797Y435554D01*
X388795Y435441D01*
X388789Y435328D01*
X388779Y435215D01*
X388765Y435102D01*
X388748Y434990D01*
X388726Y434879D01*
X388701Y434769D01*
X388671Y434659D01*
X388638Y434551D01*
X388601Y434444D01*
X388561Y434338D01*
X388516Y434234D01*
X388468Y434131D01*
X388417Y434030D01*
X388362Y433931D01*
X388304Y433834D01*
X388242Y433739D01*
X388177Y433646D01*
X388109Y433556D01*
X388038Y433468D01*
X387963Y433382D01*
X387886Y433299D01*
X387806Y433219D01*
X387723Y433142D01*
X387637Y433067D01*
X387549Y432996D01*
X387459Y432928D01*
X387366Y432863D01*
X387271Y432801D01*
X387174Y432743D01*
X387075Y432688D01*
X386974Y432637D01*
X386871Y432589D01*
X386767Y432544D01*
X386661Y432504D01*
X386554Y432467D01*
X386446Y432434D01*
X386336Y432404D01*
X386226Y432379D01*
X386115Y432357D01*
X386003Y432340D01*
X385890Y432326D01*
X385777Y432316D01*
X385664Y432310D01*
X385551Y432308D01*
X385438Y432310D01*
X385325Y432316D01*
X385212Y432326D01*
X385099Y432340D01*
X384987Y432357D01*
X384876Y432379D01*
X384766Y432404D01*
X384656Y432434D01*
X384548Y432467D01*
X384441Y432504D01*
X384335Y432544D01*
X384231Y432589D01*
X384128Y432637D01*
X384027Y432688D01*
X383928Y432743D01*
X383831Y432801D01*
X383736Y432863D01*
X383643Y432928D01*
X383553Y432996D01*
X383465Y433067D01*
X383379Y433142D01*
X383296Y433219D01*
X383216Y433299D01*
X383139Y433382D01*
X383064Y433468D01*
X382993Y433556D01*
X382925Y433646D01*
X382860Y433739D01*
X382798Y433834D01*
X382740Y433931D01*
X382685Y434030D01*
X382634Y434131D01*
X382586Y434234D01*
X382541Y434338D01*
X382501Y434444D01*
X382464Y434551D01*
X382431Y434659D01*
X382401Y434769D01*
X382376Y434879D01*
X382354Y434990D01*
X382337Y435102D01*
X382323Y435215D01*
X382313Y435328D01*
X382307Y435441D01*
X382305Y435554D01*
X382955Y441396D02*
X382957Y441497D01*
X382963Y441597D01*
X382973Y441697D01*
X382986Y441797D01*
X383004Y441896D01*
X383025Y441995D01*
X383050Y442092D01*
X383079Y442189D01*
X383112Y442284D01*
X383148Y442378D01*
X383188Y442470D01*
X383231Y442561D01*
X383278Y442650D01*
X383328Y442737D01*
X383382Y442823D01*
X383439Y442906D01*
X383499Y442986D01*
X383562Y443065D01*
X383629Y443141D01*
X383698Y443214D01*
X383770Y443284D01*
X383844Y443352D01*
X383921Y443417D01*
X384001Y443478D01*
X384083Y443537D01*
X384167Y443592D01*
X384253Y443644D01*
X384341Y443693D01*
X384431Y443738D01*
X384523Y443780D01*
X384616Y443818D01*
X384711Y443852D01*
X384806Y443883D01*
X384903Y443910D01*
X385001Y443933D01*
X385100Y443953D01*
X385200Y443968D01*
X385300Y443980D01*
X385400Y443988D01*
X385501Y443992D01*
X385601Y443992D01*
X385702Y443988D01*
X385802Y443980D01*
X385902Y443968D01*
X386002Y443953D01*
X386101Y443933D01*
X386199Y443910D01*
X386296Y443883D01*
X386391Y443852D01*
X386486Y443818D01*
X386579Y443780D01*
X386671Y443738D01*
X386761Y443693D01*
X386849Y443644D01*
X386935Y443592D01*
X387019Y443537D01*
X387101Y443478D01*
X387181Y443417D01*
X387258Y443352D01*
X387332Y443284D01*
X387404Y443214D01*
X387473Y443141D01*
X387540Y443065D01*
X387603Y442986D01*
X387663Y442906D01*
X387720Y442823D01*
X387774Y442737D01*
X387824Y442650D01*
X387871Y442561D01*
X387914Y442470D01*
X387954Y442378D01*
X387990Y442284D01*
X388023Y442189D01*
X388052Y442092D01*
X388077Y441995D01*
X388098Y441896D01*
X388116Y441797D01*
X388129Y441697D01*
X388139Y441597D01*
X388145Y441497D01*
X388147Y441396D01*
X388145Y441295D01*
X388139Y441195D01*
X388129Y441095D01*
X388116Y440995D01*
X388098Y440896D01*
X388077Y440797D01*
X388052Y440700D01*
X388023Y440603D01*
X387990Y440508D01*
X387954Y440414D01*
X387914Y440322D01*
X387871Y440231D01*
X387824Y440142D01*
X387774Y440055D01*
X387720Y439969D01*
X387663Y439886D01*
X387603Y439806D01*
X387540Y439727D01*
X387473Y439651D01*
X387404Y439578D01*
X387332Y439508D01*
X387258Y439440D01*
X387181Y439375D01*
X387101Y439314D01*
X387019Y439255D01*
X386935Y439200D01*
X386849Y439148D01*
X386761Y439099D01*
X386671Y439054D01*
X386579Y439012D01*
X386486Y438974D01*
X386391Y438940D01*
X386296Y438909D01*
X386199Y438882D01*
X386101Y438859D01*
X386002Y438839D01*
X385902Y438824D01*
X385802Y438812D01*
X385702Y438804D01*
X385601Y438800D01*
X385501Y438800D01*
X385400Y438804D01*
X385300Y438812D01*
X385200Y438824D01*
X385100Y438839D01*
X385001Y438859D01*
X384903Y438882D01*
X384806Y438909D01*
X384711Y438940D01*
X384616Y438974D01*
X384523Y439012D01*
X384431Y439054D01*
X384341Y439099D01*
X384253Y439148D01*
X384167Y439200D01*
X384083Y439255D01*
X384001Y439314D01*
X383921Y439375D01*
X383844Y439440D01*
X383770Y439508D01*
X383698Y439578D01*
X383629Y439651D01*
X383562Y439727D01*
X383499Y439806D01*
X383439Y439886D01*
X383382Y439969D01*
X383328Y440055D01*
X383278Y440142D01*
X383231Y440231D01*
X383188Y440322D01*
X383148Y440414D01*
X383112Y440508D01*
X383079Y440603D01*
X383050Y440700D01*
X383025Y440797D01*
X383004Y440896D01*
X382986Y440995D01*
X382973Y441095D01*
X382963Y441195D01*
X382957Y441295D01*
X382955Y441396D01*
X393736Y438150D02*
X393739Y438380D01*
X393747Y438610D01*
X393761Y438839D01*
X393780Y439068D01*
X393805Y439297D01*
X393835Y439524D01*
X393870Y439752D01*
X393911Y439978D01*
X393957Y440203D01*
X394009Y440427D01*
X394066Y440649D01*
X394128Y440871D01*
X394196Y441090D01*
X394269Y441308D01*
X394347Y441525D01*
X394430Y441739D01*
X394518Y441951D01*
X394611Y442161D01*
X394710Y442369D01*
X394709Y442369D02*
X394742Y442459D01*
X394778Y442548D01*
X394818Y442636D01*
X394862Y442721D01*
X394909Y442805D01*
X394959Y442887D01*
X395013Y442967D01*
X395069Y443044D01*
X395129Y443120D01*
X395192Y443193D01*
X395257Y443263D01*
X395326Y443331D01*
X395397Y443395D01*
X395470Y443457D01*
X395546Y443516D01*
X395624Y443572D01*
X395705Y443625D01*
X395787Y443674D01*
X395871Y443720D01*
X395958Y443763D01*
X396045Y443802D01*
X396135Y443838D01*
X396225Y443870D01*
X396317Y443898D01*
X396410Y443923D01*
X396504Y443944D01*
X396598Y443961D01*
X396693Y443975D01*
X396789Y443984D01*
X396885Y443990D01*
X396981Y443992D01*
X397077Y443990D01*
X397173Y443984D01*
X397269Y443975D01*
X397364Y443961D01*
X397458Y443944D01*
X397552Y443923D01*
X397645Y443898D01*
X397737Y443870D01*
X397827Y443838D01*
X397917Y443802D01*
X398004Y443763D01*
X398091Y443720D01*
X398175Y443674D01*
X398257Y443625D01*
X398338Y443572D01*
X398416Y443516D01*
X398492Y443457D01*
X398565Y443395D01*
X398636Y443331D01*
X398705Y443263D01*
X398770Y443193D01*
X398833Y443120D01*
X398893Y443044D01*
X398949Y442967D01*
X399003Y442887D01*
X399053Y442805D01*
X399100Y442721D01*
X399144Y442636D01*
X399184Y442548D01*
X399220Y442459D01*
X399253Y442369D01*
X399352Y442162D01*
X399445Y441952D01*
X399533Y441739D01*
X399616Y441525D01*
X399694Y441309D01*
X399767Y441091D01*
X399835Y440871D01*
X399897Y440650D01*
X399954Y440427D01*
X400006Y440203D01*
X400052Y439978D01*
X400093Y439752D01*
X400128Y439525D01*
X400158Y439297D01*
X400183Y439068D01*
X400202Y438839D01*
X400216Y438610D01*
X400224Y438380D01*
X400227Y438150D01*
X393735Y438150D02*
X393738Y437920D01*
X393746Y437690D01*
X393760Y437461D01*
X393779Y437232D01*
X393804Y437003D01*
X393834Y436775D01*
X393869Y436548D01*
X393910Y436322D01*
X393956Y436097D01*
X394008Y435873D01*
X394065Y435650D01*
X394127Y435429D01*
X394195Y435209D01*
X394268Y434991D01*
X394346Y434775D01*
X394429Y434561D01*
X394517Y434349D01*
X394610Y434138D01*
X394709Y433931D01*
X394742Y433841D01*
X394778Y433752D01*
X394819Y433664D01*
X394862Y433579D01*
X394909Y433495D01*
X394959Y433413D01*
X395013Y433333D01*
X395069Y433256D01*
X395129Y433180D01*
X395192Y433107D01*
X395257Y433037D01*
X395326Y432969D01*
X395397Y432905D01*
X395470Y432843D01*
X395546Y432784D01*
X395624Y432728D01*
X395705Y432675D01*
X395787Y432626D01*
X395871Y432580D01*
X395958Y432537D01*
X396045Y432498D01*
X396135Y432462D01*
X396225Y432430D01*
X396317Y432402D01*
X396410Y432377D01*
X396504Y432356D01*
X396598Y432339D01*
X396693Y432325D01*
X396789Y432316D01*
X396885Y432310D01*
X396981Y432308D01*
X399253Y433931D02*
X399352Y434138D01*
X399445Y434349D01*
X399533Y434561D01*
X399616Y434775D01*
X399694Y434991D01*
X399767Y435209D01*
X399835Y435429D01*
X399897Y435650D01*
X399954Y435873D01*
X400006Y436097D01*
X400052Y436322D01*
X400093Y436548D01*
X400128Y436775D01*
X400158Y437003D01*
X400183Y437232D01*
X400202Y437461D01*
X400216Y437690D01*
X400224Y437920D01*
X400227Y438150D01*
X399253Y433931D02*
X399220Y433841D01*
X399184Y433752D01*
X399144Y433664D01*
X399100Y433579D01*
X399053Y433495D01*
X399003Y433413D01*
X398949Y433333D01*
X398893Y433256D01*
X398833Y433180D01*
X398770Y433107D01*
X398705Y433037D01*
X398636Y432969D01*
X398565Y432905D01*
X398492Y432843D01*
X398416Y432784D01*
X398338Y432728D01*
X398257Y432675D01*
X398175Y432626D01*
X398091Y432580D01*
X398004Y432537D01*
X397917Y432498D01*
X397827Y432462D01*
X397737Y432430D01*
X397645Y432402D01*
X397552Y432377D01*
X397458Y432356D01*
X397364Y432339D01*
X397269Y432325D01*
X397173Y432316D01*
X397077Y432310D01*
X396981Y432308D01*
X394384Y434904D02*
X399577Y441396D01*
D10*
X163830Y660400D02*
X39370Y660400D01*
X163830Y660400D02*
X163830Y355600D01*
X39370Y355600D01*
X39370Y660400D01*
X142240Y552450D02*
X142240Y463550D01*
X60960Y445770D02*
X60960Y570230D01*
X87630Y588010D02*
X128270Y571500D01*
X138430Y563880D02*
X140970Y558800D01*
X138430Y563880D02*
X135890Y566420D01*
X130810Y570230D01*
X128270Y571500D01*
X141986Y554482D02*
X142240Y552450D01*
X141986Y554482D02*
X141478Y557276D01*
X140970Y558800D01*
X87630Y588010D02*
X84836Y588772D01*
X81280Y589280D01*
X77216Y588772D01*
X72898Y587502D01*
X68580Y584708D01*
X65786Y582168D01*
X63246Y578358D01*
X61976Y576072D01*
X61214Y573024D01*
X60960Y570230D01*
X128270Y444500D02*
X87630Y427990D01*
X138430Y452120D02*
X140970Y457200D01*
X138430Y452120D02*
X135890Y449580D01*
X130810Y445770D01*
X128270Y444500D01*
X141986Y461518D02*
X142240Y463550D01*
X141986Y461518D02*
X141478Y458724D01*
X140970Y457200D01*
X87630Y427990D02*
X84836Y427228D01*
X81280Y426720D01*
X77216Y427228D01*
X72898Y428498D01*
X68580Y431292D01*
X65786Y433832D01*
X63246Y437642D01*
X61976Y439928D01*
X61214Y442976D01*
X60960Y445770D01*
X80518Y386080D02*
X80524Y386597D01*
X80543Y387114D01*
X80575Y387631D01*
X80620Y388146D01*
X80677Y388661D01*
X80746Y389173D01*
X80828Y389684D01*
X80923Y390193D01*
X81030Y390699D01*
X81150Y391203D01*
X81282Y391703D01*
X81426Y392200D01*
X81582Y392693D01*
X81750Y393182D01*
X81931Y393667D01*
X82123Y394148D01*
X82327Y394623D01*
X82542Y395094D01*
X82769Y395559D01*
X83007Y396018D01*
X83257Y396471D01*
X83517Y396918D01*
X83789Y397359D01*
X84071Y397793D01*
X84364Y398219D01*
X84667Y398639D01*
X84980Y399050D01*
X85303Y399454D01*
X85637Y399850D01*
X85979Y400238D01*
X86331Y400617D01*
X86693Y400987D01*
X87063Y401349D01*
X87442Y401701D01*
X87830Y402043D01*
X88226Y402377D01*
X88630Y402700D01*
X89041Y403013D01*
X89461Y403316D01*
X89887Y403609D01*
X90321Y403891D01*
X90762Y404163D01*
X91209Y404423D01*
X91662Y404673D01*
X92121Y404911D01*
X92586Y405138D01*
X93057Y405353D01*
X93532Y405557D01*
X94013Y405749D01*
X94498Y405930D01*
X94987Y406098D01*
X95480Y406254D01*
X95977Y406398D01*
X96477Y406530D01*
X96981Y406650D01*
X97487Y406757D01*
X97996Y406852D01*
X98507Y406934D01*
X99019Y407003D01*
X99534Y407060D01*
X100049Y407105D01*
X100566Y407137D01*
X101083Y407156D01*
X101600Y407162D01*
X102117Y407156D01*
X102634Y407137D01*
X103151Y407105D01*
X103666Y407060D01*
X104181Y407003D01*
X104693Y406934D01*
X105204Y406852D01*
X105713Y406757D01*
X106219Y406650D01*
X106723Y406530D01*
X107223Y406398D01*
X107720Y406254D01*
X108213Y406098D01*
X108702Y405930D01*
X109187Y405749D01*
X109668Y405557D01*
X110143Y405353D01*
X110614Y405138D01*
X111079Y404911D01*
X111538Y404673D01*
X111991Y404423D01*
X112438Y404163D01*
X112879Y403891D01*
X113313Y403609D01*
X113739Y403316D01*
X114159Y403013D01*
X114570Y402700D01*
X114974Y402377D01*
X115370Y402043D01*
X115758Y401701D01*
X116137Y401349D01*
X116507Y400987D01*
X116869Y400617D01*
X117221Y400238D01*
X117563Y399850D01*
X117897Y399454D01*
X118220Y399050D01*
X118533Y398639D01*
X118836Y398219D01*
X119129Y397793D01*
X119411Y397359D01*
X119683Y396918D01*
X119943Y396471D01*
X120193Y396018D01*
X120431Y395559D01*
X120658Y395094D01*
X120873Y394623D01*
X121077Y394148D01*
X121269Y393667D01*
X121450Y393182D01*
X121618Y392693D01*
X121774Y392200D01*
X121918Y391703D01*
X122050Y391203D01*
X122170Y390699D01*
X122277Y390193D01*
X122372Y389684D01*
X122454Y389173D01*
X122523Y388661D01*
X122580Y388146D01*
X122625Y387631D01*
X122657Y387114D01*
X122676Y386597D01*
X122682Y386080D01*
X122676Y385563D01*
X122657Y385046D01*
X122625Y384529D01*
X122580Y384014D01*
X122523Y383499D01*
X122454Y382987D01*
X122372Y382476D01*
X122277Y381967D01*
X122170Y381461D01*
X122050Y380957D01*
X121918Y380457D01*
X121774Y379960D01*
X121618Y379467D01*
X121450Y378978D01*
X121269Y378493D01*
X121077Y378012D01*
X120873Y377537D01*
X120658Y377066D01*
X120431Y376601D01*
X120193Y376142D01*
X119943Y375689D01*
X119683Y375242D01*
X119411Y374801D01*
X119129Y374367D01*
X118836Y373941D01*
X118533Y373521D01*
X118220Y373110D01*
X117897Y372706D01*
X117563Y372310D01*
X117221Y371922D01*
X116869Y371543D01*
X116507Y371173D01*
X116137Y370811D01*
X115758Y370459D01*
X115370Y370117D01*
X114974Y369783D01*
X114570Y369460D01*
X114159Y369147D01*
X113739Y368844D01*
X113313Y368551D01*
X112879Y368269D01*
X112438Y367997D01*
X111991Y367737D01*
X111538Y367487D01*
X111079Y367249D01*
X110614Y367022D01*
X110143Y366807D01*
X109668Y366603D01*
X109187Y366411D01*
X108702Y366230D01*
X108213Y366062D01*
X107720Y365906D01*
X107223Y365762D01*
X106723Y365630D01*
X106219Y365510D01*
X105713Y365403D01*
X105204Y365308D01*
X104693Y365226D01*
X104181Y365157D01*
X103666Y365100D01*
X103151Y365055D01*
X102634Y365023D01*
X102117Y365004D01*
X101600Y364998D01*
X101083Y365004D01*
X100566Y365023D01*
X100049Y365055D01*
X99534Y365100D01*
X99019Y365157D01*
X98507Y365226D01*
X97996Y365308D01*
X97487Y365403D01*
X96981Y365510D01*
X96477Y365630D01*
X95977Y365762D01*
X95480Y365906D01*
X94987Y366062D01*
X94498Y366230D01*
X94013Y366411D01*
X93532Y366603D01*
X93057Y366807D01*
X92586Y367022D01*
X92121Y367249D01*
X91662Y367487D01*
X91209Y367737D01*
X90762Y367997D01*
X90321Y368269D01*
X89887Y368551D01*
X89461Y368844D01*
X89041Y369147D01*
X88630Y369460D01*
X88226Y369783D01*
X87830Y370117D01*
X87442Y370459D01*
X87063Y370811D01*
X86693Y371173D01*
X86331Y371543D01*
X85979Y371922D01*
X85637Y372310D01*
X85303Y372706D01*
X84980Y373110D01*
X84667Y373521D01*
X84364Y373941D01*
X84071Y374367D01*
X83789Y374801D01*
X83517Y375242D01*
X83257Y375689D01*
X83007Y376142D01*
X82769Y376601D01*
X82542Y377066D01*
X82327Y377537D01*
X82123Y378012D01*
X81931Y378493D01*
X81750Y378978D01*
X81582Y379467D01*
X81426Y379960D01*
X81282Y380457D01*
X81150Y380957D01*
X81030Y381461D01*
X80923Y381967D01*
X80828Y382476D01*
X80746Y382987D01*
X80677Y383499D01*
X80620Y384014D01*
X80575Y384529D01*
X80543Y385046D01*
X80524Y385563D01*
X80518Y386080D01*
X80518Y629920D02*
X80524Y630437D01*
X80543Y630954D01*
X80575Y631471D01*
X80620Y631986D01*
X80677Y632501D01*
X80746Y633013D01*
X80828Y633524D01*
X80923Y634033D01*
X81030Y634539D01*
X81150Y635043D01*
X81282Y635543D01*
X81426Y636040D01*
X81582Y636533D01*
X81750Y637022D01*
X81931Y637507D01*
X82123Y637988D01*
X82327Y638463D01*
X82542Y638934D01*
X82769Y639399D01*
X83007Y639858D01*
X83257Y640311D01*
X83517Y640758D01*
X83789Y641199D01*
X84071Y641633D01*
X84364Y642059D01*
X84667Y642479D01*
X84980Y642890D01*
X85303Y643294D01*
X85637Y643690D01*
X85979Y644078D01*
X86331Y644457D01*
X86693Y644827D01*
X87063Y645189D01*
X87442Y645541D01*
X87830Y645883D01*
X88226Y646217D01*
X88630Y646540D01*
X89041Y646853D01*
X89461Y647156D01*
X89887Y647449D01*
X90321Y647731D01*
X90762Y648003D01*
X91209Y648263D01*
X91662Y648513D01*
X92121Y648751D01*
X92586Y648978D01*
X93057Y649193D01*
X93532Y649397D01*
X94013Y649589D01*
X94498Y649770D01*
X94987Y649938D01*
X95480Y650094D01*
X95977Y650238D01*
X96477Y650370D01*
X96981Y650490D01*
X97487Y650597D01*
X97996Y650692D01*
X98507Y650774D01*
X99019Y650843D01*
X99534Y650900D01*
X100049Y650945D01*
X100566Y650977D01*
X101083Y650996D01*
X101600Y651002D01*
X102117Y650996D01*
X102634Y650977D01*
X103151Y650945D01*
X103666Y650900D01*
X104181Y650843D01*
X104693Y650774D01*
X105204Y650692D01*
X105713Y650597D01*
X106219Y650490D01*
X106723Y650370D01*
X107223Y650238D01*
X107720Y650094D01*
X108213Y649938D01*
X108702Y649770D01*
X109187Y649589D01*
X109668Y649397D01*
X110143Y649193D01*
X110614Y648978D01*
X111079Y648751D01*
X111538Y648513D01*
X111991Y648263D01*
X112438Y648003D01*
X112879Y647731D01*
X113313Y647449D01*
X113739Y647156D01*
X114159Y646853D01*
X114570Y646540D01*
X114974Y646217D01*
X115370Y645883D01*
X115758Y645541D01*
X116137Y645189D01*
X116507Y644827D01*
X116869Y644457D01*
X117221Y644078D01*
X117563Y643690D01*
X117897Y643294D01*
X118220Y642890D01*
X118533Y642479D01*
X118836Y642059D01*
X119129Y641633D01*
X119411Y641199D01*
X119683Y640758D01*
X119943Y640311D01*
X120193Y639858D01*
X120431Y639399D01*
X120658Y638934D01*
X120873Y638463D01*
X121077Y637988D01*
X121269Y637507D01*
X121450Y637022D01*
X121618Y636533D01*
X121774Y636040D01*
X121918Y635543D01*
X122050Y635043D01*
X122170Y634539D01*
X122277Y634033D01*
X122372Y633524D01*
X122454Y633013D01*
X122523Y632501D01*
X122580Y631986D01*
X122625Y631471D01*
X122657Y630954D01*
X122676Y630437D01*
X122682Y629920D01*
X122676Y629403D01*
X122657Y628886D01*
X122625Y628369D01*
X122580Y627854D01*
X122523Y627339D01*
X122454Y626827D01*
X122372Y626316D01*
X122277Y625807D01*
X122170Y625301D01*
X122050Y624797D01*
X121918Y624297D01*
X121774Y623800D01*
X121618Y623307D01*
X121450Y622818D01*
X121269Y622333D01*
X121077Y621852D01*
X120873Y621377D01*
X120658Y620906D01*
X120431Y620441D01*
X120193Y619982D01*
X119943Y619529D01*
X119683Y619082D01*
X119411Y618641D01*
X119129Y618207D01*
X118836Y617781D01*
X118533Y617361D01*
X118220Y616950D01*
X117897Y616546D01*
X117563Y616150D01*
X117221Y615762D01*
X116869Y615383D01*
X116507Y615013D01*
X116137Y614651D01*
X115758Y614299D01*
X115370Y613957D01*
X114974Y613623D01*
X114570Y613300D01*
X114159Y612987D01*
X113739Y612684D01*
X113313Y612391D01*
X112879Y612109D01*
X112438Y611837D01*
X111991Y611577D01*
X111538Y611327D01*
X111079Y611089D01*
X110614Y610862D01*
X110143Y610647D01*
X109668Y610443D01*
X109187Y610251D01*
X108702Y610070D01*
X108213Y609902D01*
X107720Y609746D01*
X107223Y609602D01*
X106723Y609470D01*
X106219Y609350D01*
X105713Y609243D01*
X105204Y609148D01*
X104693Y609066D01*
X104181Y608997D01*
X103666Y608940D01*
X103151Y608895D01*
X102634Y608863D01*
X102117Y608844D01*
X101600Y608838D01*
X101083Y608844D01*
X100566Y608863D01*
X100049Y608895D01*
X99534Y608940D01*
X99019Y608997D01*
X98507Y609066D01*
X97996Y609148D01*
X97487Y609243D01*
X96981Y609350D01*
X96477Y609470D01*
X95977Y609602D01*
X95480Y609746D01*
X94987Y609902D01*
X94498Y610070D01*
X94013Y610251D01*
X93532Y610443D01*
X93057Y610647D01*
X92586Y610862D01*
X92121Y611089D01*
X91662Y611327D01*
X91209Y611577D01*
X90762Y611837D01*
X90321Y612109D01*
X89887Y612391D01*
X89461Y612684D01*
X89041Y612987D01*
X88630Y613300D01*
X88226Y613623D01*
X87830Y613957D01*
X87442Y614299D01*
X87063Y614651D01*
X86693Y615013D01*
X86331Y615383D01*
X85979Y615762D01*
X85637Y616150D01*
X85303Y616546D01*
X84980Y616950D01*
X84667Y617361D01*
X84364Y617781D01*
X84071Y618207D01*
X83789Y618641D01*
X83517Y619082D01*
X83257Y619529D01*
X83007Y619982D01*
X82769Y620441D01*
X82542Y620906D01*
X82327Y621377D01*
X82123Y621852D01*
X81931Y622333D01*
X81750Y622818D01*
X81582Y623307D01*
X81426Y623800D01*
X81282Y624297D01*
X81150Y624797D01*
X81030Y625301D01*
X80923Y625807D01*
X80828Y626316D01*
X80746Y626827D01*
X80677Y627339D01*
X80620Y627854D01*
X80575Y628369D01*
X80543Y628886D01*
X80524Y629403D01*
X80518Y629920D01*
D11*
X64008Y565094D02*
X66604Y561848D01*
X64008Y565094D02*
X75692Y565094D01*
X75692Y568339D02*
X75692Y561848D01*
X66929Y539129D02*
X66822Y539127D01*
X66716Y539121D01*
X66610Y539111D01*
X66504Y539098D01*
X66398Y539080D01*
X66294Y539059D01*
X66190Y539034D01*
X66087Y539005D01*
X65986Y538973D01*
X65886Y538936D01*
X65787Y538896D01*
X65689Y538853D01*
X65593Y538806D01*
X65499Y538755D01*
X65407Y538701D01*
X65317Y538644D01*
X65229Y538584D01*
X65144Y538520D01*
X65061Y538453D01*
X64980Y538383D01*
X64902Y538311D01*
X64826Y538235D01*
X64754Y538157D01*
X64684Y538076D01*
X64617Y537993D01*
X64553Y537908D01*
X64493Y537820D01*
X64436Y537730D01*
X64382Y537638D01*
X64331Y537544D01*
X64284Y537448D01*
X64241Y537350D01*
X64201Y537251D01*
X64164Y537151D01*
X64132Y537050D01*
X64103Y536947D01*
X64078Y536843D01*
X64057Y536739D01*
X64039Y536633D01*
X64026Y536527D01*
X64016Y536421D01*
X64010Y536315D01*
X64008Y536208D01*
X64010Y536087D01*
X64016Y535966D01*
X64026Y535846D01*
X64039Y535725D01*
X64057Y535606D01*
X64078Y535486D01*
X64103Y535368D01*
X64132Y535251D01*
X64165Y535134D01*
X64201Y535019D01*
X64242Y534905D01*
X64285Y534792D01*
X64333Y534680D01*
X64384Y534571D01*
X64439Y534463D01*
X64497Y534356D01*
X64558Y534252D01*
X64623Y534150D01*
X64691Y534050D01*
X64762Y533952D01*
X64836Y533856D01*
X64913Y533763D01*
X64994Y533673D01*
X65077Y533585D01*
X65163Y533500D01*
X65252Y533417D01*
X65343Y533338D01*
X65437Y533261D01*
X65533Y533188D01*
X65631Y533118D01*
X65732Y533051D01*
X65835Y532987D01*
X65940Y532927D01*
X66047Y532869D01*
X66155Y532816D01*
X66265Y532766D01*
X66377Y532720D01*
X66490Y532677D01*
X66605Y532638D01*
X69201Y538155D02*
X69123Y538234D01*
X69043Y538310D01*
X68960Y538383D01*
X68874Y538453D01*
X68787Y538520D01*
X68696Y538584D01*
X68604Y538644D01*
X68510Y538702D01*
X68413Y538756D01*
X68315Y538806D01*
X68215Y538853D01*
X68114Y538897D01*
X68011Y538937D01*
X67906Y538973D01*
X67801Y539005D01*
X67694Y539034D01*
X67587Y539059D01*
X67478Y539081D01*
X67369Y539098D01*
X67260Y539112D01*
X67150Y539121D01*
X67039Y539127D01*
X66929Y539129D01*
X69201Y538155D02*
X75692Y532638D01*
X75692Y539129D01*
X75692Y507944D02*
X75692Y504698D01*
X75692Y507944D02*
X75690Y508057D01*
X75684Y508170D01*
X75674Y508283D01*
X75660Y508396D01*
X75643Y508508D01*
X75621Y508619D01*
X75596Y508729D01*
X75566Y508839D01*
X75533Y508947D01*
X75496Y509054D01*
X75456Y509160D01*
X75411Y509264D01*
X75363Y509367D01*
X75312Y509468D01*
X75257Y509567D01*
X75199Y509664D01*
X75137Y509759D01*
X75072Y509852D01*
X75004Y509942D01*
X74933Y510030D01*
X74858Y510116D01*
X74781Y510199D01*
X74701Y510279D01*
X74618Y510356D01*
X74532Y510431D01*
X74444Y510502D01*
X74354Y510570D01*
X74261Y510635D01*
X74166Y510697D01*
X74069Y510755D01*
X73970Y510810D01*
X73869Y510861D01*
X73766Y510909D01*
X73662Y510954D01*
X73556Y510994D01*
X73449Y511031D01*
X73341Y511064D01*
X73231Y511094D01*
X73121Y511119D01*
X73010Y511141D01*
X72898Y511158D01*
X72785Y511172D01*
X72672Y511182D01*
X72559Y511188D01*
X72446Y511190D01*
X72333Y511188D01*
X72220Y511182D01*
X72107Y511172D01*
X71994Y511158D01*
X71882Y511141D01*
X71771Y511119D01*
X71661Y511094D01*
X71551Y511064D01*
X71443Y511031D01*
X71336Y510994D01*
X71230Y510954D01*
X71126Y510909D01*
X71023Y510861D01*
X70922Y510810D01*
X70823Y510755D01*
X70726Y510697D01*
X70631Y510635D01*
X70538Y510570D01*
X70448Y510502D01*
X70360Y510431D01*
X70274Y510356D01*
X70191Y510279D01*
X70111Y510199D01*
X70034Y510116D01*
X69959Y510030D01*
X69888Y509942D01*
X69820Y509852D01*
X69755Y509759D01*
X69693Y509664D01*
X69635Y509567D01*
X69580Y509468D01*
X69529Y509367D01*
X69481Y509264D01*
X69436Y509160D01*
X69396Y509054D01*
X69359Y508947D01*
X69326Y508839D01*
X69296Y508729D01*
X69271Y508619D01*
X69249Y508508D01*
X69232Y508396D01*
X69218Y508283D01*
X69208Y508170D01*
X69202Y508057D01*
X69200Y507944D01*
X64008Y508593D02*
X64008Y504698D01*
X64008Y508593D02*
X64010Y508694D01*
X64016Y508794D01*
X64026Y508894D01*
X64039Y508994D01*
X64057Y509093D01*
X64078Y509192D01*
X64103Y509289D01*
X64132Y509386D01*
X64165Y509481D01*
X64201Y509575D01*
X64241Y509667D01*
X64284Y509758D01*
X64331Y509847D01*
X64381Y509934D01*
X64435Y510020D01*
X64492Y510103D01*
X64552Y510183D01*
X64615Y510262D01*
X64682Y510338D01*
X64751Y510411D01*
X64823Y510481D01*
X64897Y510549D01*
X64974Y510614D01*
X65054Y510675D01*
X65136Y510734D01*
X65220Y510789D01*
X65306Y510841D01*
X65394Y510890D01*
X65484Y510935D01*
X65576Y510977D01*
X65669Y511015D01*
X65764Y511049D01*
X65859Y511080D01*
X65956Y511107D01*
X66054Y511130D01*
X66153Y511150D01*
X66253Y511165D01*
X66353Y511177D01*
X66453Y511185D01*
X66554Y511189D01*
X66654Y511189D01*
X66755Y511185D01*
X66855Y511177D01*
X66955Y511165D01*
X67055Y511150D01*
X67154Y511130D01*
X67252Y511107D01*
X67349Y511080D01*
X67444Y511049D01*
X67539Y511015D01*
X67632Y510977D01*
X67724Y510935D01*
X67814Y510890D01*
X67902Y510841D01*
X67988Y510789D01*
X68072Y510734D01*
X68154Y510675D01*
X68234Y510614D01*
X68311Y510549D01*
X68385Y510481D01*
X68457Y510411D01*
X68526Y510338D01*
X68593Y510262D01*
X68656Y510183D01*
X68716Y510103D01*
X68773Y510020D01*
X68827Y509934D01*
X68877Y509847D01*
X68924Y509758D01*
X68967Y509667D01*
X69007Y509575D01*
X69043Y509481D01*
X69076Y509386D01*
X69105Y509289D01*
X69130Y509192D01*
X69151Y509093D01*
X69169Y508994D01*
X69182Y508894D01*
X69192Y508794D01*
X69198Y508694D01*
X69200Y508593D01*
X69201Y508593D02*
X69201Y505996D01*
X64008Y479354D02*
X73096Y476758D01*
X73096Y483249D01*
X70499Y481302D02*
X75692Y481302D01*
X75692Y452713D02*
X75692Y448818D01*
X75692Y452713D02*
X75690Y452812D01*
X75684Y452912D01*
X75675Y453011D01*
X75662Y453109D01*
X75645Y453207D01*
X75624Y453305D01*
X75599Y453401D01*
X75571Y453496D01*
X75539Y453590D01*
X75504Y453683D01*
X75465Y453775D01*
X75422Y453865D01*
X75377Y453953D01*
X75327Y454040D01*
X75275Y454124D01*
X75219Y454207D01*
X75161Y454287D01*
X75099Y454365D01*
X75034Y454440D01*
X74966Y454513D01*
X74896Y454583D01*
X74823Y454651D01*
X74748Y454716D01*
X74670Y454778D01*
X74590Y454836D01*
X74507Y454892D01*
X74423Y454944D01*
X74336Y454994D01*
X74248Y455039D01*
X74158Y455082D01*
X74066Y455121D01*
X73973Y455156D01*
X73879Y455188D01*
X73784Y455216D01*
X73688Y455241D01*
X73590Y455262D01*
X73492Y455279D01*
X73394Y455292D01*
X73295Y455301D01*
X73195Y455307D01*
X73096Y455309D01*
X71797Y455309D01*
X71698Y455307D01*
X71598Y455301D01*
X71499Y455292D01*
X71401Y455279D01*
X71303Y455262D01*
X71205Y455241D01*
X71109Y455216D01*
X71014Y455188D01*
X70920Y455156D01*
X70827Y455121D01*
X70735Y455082D01*
X70645Y455039D01*
X70557Y454994D01*
X70470Y454944D01*
X70386Y454892D01*
X70303Y454836D01*
X70223Y454778D01*
X70145Y454716D01*
X70070Y454651D01*
X69997Y454583D01*
X69927Y454513D01*
X69859Y454440D01*
X69794Y454365D01*
X69732Y454287D01*
X69674Y454207D01*
X69618Y454124D01*
X69566Y454040D01*
X69516Y453953D01*
X69471Y453865D01*
X69428Y453775D01*
X69389Y453683D01*
X69354Y453590D01*
X69322Y453496D01*
X69294Y453401D01*
X69269Y453305D01*
X69248Y453207D01*
X69231Y453109D01*
X69218Y453011D01*
X69209Y452912D01*
X69203Y452812D01*
X69201Y452713D01*
X69201Y448818D01*
X64008Y448818D01*
X64008Y455309D01*
X132701Y546608D02*
X132701Y550503D01*
X132703Y550602D01*
X132709Y550702D01*
X132718Y550801D01*
X132731Y550899D01*
X132748Y550997D01*
X132769Y551095D01*
X132794Y551191D01*
X132822Y551286D01*
X132854Y551380D01*
X132889Y551473D01*
X132928Y551565D01*
X132971Y551655D01*
X133016Y551743D01*
X133066Y551830D01*
X133118Y551914D01*
X133174Y551997D01*
X133232Y552077D01*
X133294Y552155D01*
X133359Y552230D01*
X133427Y552303D01*
X133497Y552373D01*
X133570Y552441D01*
X133645Y552506D01*
X133723Y552568D01*
X133803Y552626D01*
X133886Y552682D01*
X133970Y552734D01*
X134057Y552784D01*
X134145Y552829D01*
X134235Y552872D01*
X134327Y552911D01*
X134420Y552946D01*
X134514Y552978D01*
X134609Y553006D01*
X134705Y553031D01*
X134803Y553052D01*
X134901Y553069D01*
X134999Y553082D01*
X135098Y553091D01*
X135198Y553097D01*
X135297Y553099D01*
X135946Y553099D01*
X135946Y553100D02*
X136059Y553098D01*
X136172Y553092D01*
X136285Y553082D01*
X136398Y553068D01*
X136510Y553051D01*
X136621Y553029D01*
X136731Y553004D01*
X136841Y552974D01*
X136949Y552941D01*
X137056Y552904D01*
X137162Y552864D01*
X137266Y552819D01*
X137369Y552771D01*
X137470Y552720D01*
X137569Y552665D01*
X137666Y552607D01*
X137761Y552545D01*
X137854Y552480D01*
X137944Y552412D01*
X138032Y552341D01*
X138118Y552266D01*
X138201Y552189D01*
X138281Y552109D01*
X138358Y552026D01*
X138433Y551940D01*
X138504Y551852D01*
X138572Y551762D01*
X138637Y551669D01*
X138699Y551574D01*
X138757Y551477D01*
X138812Y551378D01*
X138863Y551277D01*
X138911Y551174D01*
X138956Y551070D01*
X138996Y550964D01*
X139033Y550857D01*
X139066Y550749D01*
X139096Y550639D01*
X139121Y550529D01*
X139143Y550418D01*
X139160Y550306D01*
X139174Y550193D01*
X139184Y550080D01*
X139190Y549967D01*
X139192Y549854D01*
X139190Y549741D01*
X139184Y549628D01*
X139174Y549515D01*
X139160Y549402D01*
X139143Y549290D01*
X139121Y549179D01*
X139096Y549069D01*
X139066Y548959D01*
X139033Y548851D01*
X138996Y548744D01*
X138956Y548638D01*
X138911Y548534D01*
X138863Y548431D01*
X138812Y548330D01*
X138757Y548231D01*
X138699Y548134D01*
X138637Y548039D01*
X138572Y547946D01*
X138504Y547856D01*
X138433Y547768D01*
X138358Y547682D01*
X138281Y547599D01*
X138201Y547519D01*
X138118Y547442D01*
X138032Y547367D01*
X137944Y547296D01*
X137854Y547228D01*
X137761Y547163D01*
X137666Y547101D01*
X137569Y547043D01*
X137470Y546988D01*
X137369Y546937D01*
X137266Y546889D01*
X137162Y546844D01*
X137056Y546804D01*
X136949Y546767D01*
X136841Y546734D01*
X136731Y546704D01*
X136621Y546679D01*
X136510Y546657D01*
X136398Y546640D01*
X136285Y546626D01*
X136172Y546616D01*
X136059Y546610D01*
X135946Y546608D01*
X132701Y546608D01*
X132558Y546610D01*
X132415Y546616D01*
X132272Y546626D01*
X132130Y546640D01*
X131988Y546657D01*
X131846Y546679D01*
X131705Y546704D01*
X131565Y546734D01*
X131426Y546767D01*
X131288Y546804D01*
X131151Y546845D01*
X131015Y546889D01*
X130880Y546938D01*
X130747Y546990D01*
X130615Y547045D01*
X130485Y547105D01*
X130356Y547168D01*
X130229Y547234D01*
X130105Y547304D01*
X129982Y547377D01*
X129861Y547454D01*
X129742Y547533D01*
X129626Y547617D01*
X129511Y547703D01*
X129400Y547792D01*
X129291Y547885D01*
X129184Y547980D01*
X129080Y548079D01*
X128979Y548180D01*
X128880Y548284D01*
X128785Y548390D01*
X128692Y548500D01*
X128603Y548611D01*
X128517Y548725D01*
X128434Y548842D01*
X128354Y548961D01*
X128277Y549082D01*
X128204Y549204D01*
X128134Y549329D01*
X128068Y549456D01*
X128005Y549585D01*
X127945Y549715D01*
X127890Y549847D01*
X127838Y549980D01*
X127789Y550115D01*
X127745Y550251D01*
X127704Y550388D01*
X127667Y550526D01*
X127634Y550665D01*
X127604Y550805D01*
X127579Y550946D01*
X127557Y551088D01*
X127540Y551230D01*
X127526Y551372D01*
X127516Y551515D01*
X127510Y551658D01*
X127508Y551801D01*
X127508Y518668D02*
X128806Y518668D01*
X127508Y518668D02*
X127508Y525159D01*
X139192Y521914D01*
X135946Y497220D02*
X135833Y497218D01*
X135720Y497212D01*
X135607Y497202D01*
X135494Y497188D01*
X135382Y497171D01*
X135271Y497149D01*
X135161Y497124D01*
X135051Y497094D01*
X134943Y497061D01*
X134836Y497024D01*
X134730Y496984D01*
X134626Y496939D01*
X134523Y496891D01*
X134422Y496840D01*
X134323Y496785D01*
X134226Y496727D01*
X134131Y496665D01*
X134038Y496600D01*
X133948Y496532D01*
X133860Y496461D01*
X133774Y496386D01*
X133691Y496309D01*
X133611Y496229D01*
X133534Y496146D01*
X133459Y496060D01*
X133388Y495972D01*
X133320Y495882D01*
X133255Y495789D01*
X133193Y495694D01*
X133135Y495597D01*
X133080Y495498D01*
X133029Y495397D01*
X132981Y495294D01*
X132936Y495190D01*
X132896Y495084D01*
X132859Y494977D01*
X132826Y494869D01*
X132796Y494759D01*
X132771Y494649D01*
X132749Y494538D01*
X132732Y494426D01*
X132718Y494313D01*
X132708Y494200D01*
X132702Y494087D01*
X132700Y493974D01*
X132702Y493861D01*
X132708Y493748D01*
X132718Y493635D01*
X132732Y493522D01*
X132749Y493410D01*
X132771Y493299D01*
X132796Y493189D01*
X132826Y493079D01*
X132859Y492971D01*
X132896Y492864D01*
X132936Y492758D01*
X132981Y492654D01*
X133029Y492551D01*
X133080Y492450D01*
X133135Y492351D01*
X133193Y492254D01*
X133255Y492159D01*
X133320Y492066D01*
X133388Y491976D01*
X133459Y491888D01*
X133534Y491802D01*
X133611Y491719D01*
X133691Y491639D01*
X133774Y491562D01*
X133860Y491487D01*
X133948Y491416D01*
X134038Y491348D01*
X134131Y491283D01*
X134226Y491221D01*
X134323Y491163D01*
X134422Y491108D01*
X134523Y491057D01*
X134626Y491009D01*
X134730Y490964D01*
X134836Y490924D01*
X134943Y490887D01*
X135051Y490854D01*
X135161Y490824D01*
X135271Y490799D01*
X135382Y490777D01*
X135494Y490760D01*
X135607Y490746D01*
X135720Y490736D01*
X135833Y490730D01*
X135946Y490728D01*
X136059Y490730D01*
X136172Y490736D01*
X136285Y490746D01*
X136398Y490760D01*
X136510Y490777D01*
X136621Y490799D01*
X136731Y490824D01*
X136841Y490854D01*
X136949Y490887D01*
X137056Y490924D01*
X137162Y490964D01*
X137266Y491009D01*
X137369Y491057D01*
X137470Y491108D01*
X137569Y491163D01*
X137666Y491221D01*
X137761Y491283D01*
X137854Y491348D01*
X137944Y491416D01*
X138032Y491487D01*
X138118Y491562D01*
X138201Y491639D01*
X138281Y491719D01*
X138358Y491802D01*
X138433Y491888D01*
X138504Y491976D01*
X138572Y492066D01*
X138637Y492159D01*
X138699Y492254D01*
X138757Y492351D01*
X138812Y492450D01*
X138863Y492551D01*
X138911Y492654D01*
X138956Y492758D01*
X138996Y492864D01*
X139033Y492971D01*
X139066Y493079D01*
X139096Y493189D01*
X139121Y493299D01*
X139143Y493410D01*
X139160Y493522D01*
X139174Y493635D01*
X139184Y493748D01*
X139190Y493861D01*
X139192Y493974D01*
X139190Y494087D01*
X139184Y494200D01*
X139174Y494313D01*
X139160Y494426D01*
X139143Y494538D01*
X139121Y494649D01*
X139096Y494759D01*
X139066Y494869D01*
X139033Y494977D01*
X138996Y495084D01*
X138956Y495190D01*
X138911Y495294D01*
X138863Y495397D01*
X138812Y495498D01*
X138757Y495597D01*
X138699Y495694D01*
X138637Y495789D01*
X138572Y495882D01*
X138504Y495972D01*
X138433Y496060D01*
X138358Y496146D01*
X138281Y496229D01*
X138201Y496309D01*
X138118Y496386D01*
X138032Y496461D01*
X137944Y496532D01*
X137854Y496600D01*
X137761Y496665D01*
X137666Y496727D01*
X137569Y496785D01*
X137470Y496840D01*
X137369Y496891D01*
X137266Y496939D01*
X137162Y496984D01*
X137056Y497024D01*
X136949Y497061D01*
X136841Y497094D01*
X136731Y497124D01*
X136621Y497149D01*
X136510Y497171D01*
X136398Y497188D01*
X136285Y497202D01*
X136172Y497212D01*
X136059Y497218D01*
X135946Y497220D01*
X130104Y496570D02*
X130003Y496568D01*
X129903Y496562D01*
X129803Y496552D01*
X129703Y496539D01*
X129604Y496521D01*
X129505Y496500D01*
X129408Y496475D01*
X129311Y496446D01*
X129216Y496413D01*
X129122Y496377D01*
X129030Y496337D01*
X128939Y496294D01*
X128850Y496247D01*
X128763Y496197D01*
X128677Y496143D01*
X128594Y496086D01*
X128514Y496026D01*
X128435Y495963D01*
X128359Y495896D01*
X128286Y495827D01*
X128216Y495755D01*
X128148Y495681D01*
X128083Y495604D01*
X128022Y495524D01*
X127963Y495442D01*
X127908Y495358D01*
X127856Y495272D01*
X127807Y495184D01*
X127762Y495094D01*
X127720Y495002D01*
X127682Y494909D01*
X127648Y494814D01*
X127617Y494719D01*
X127590Y494622D01*
X127567Y494524D01*
X127547Y494425D01*
X127532Y494325D01*
X127520Y494225D01*
X127512Y494125D01*
X127508Y494024D01*
X127508Y493924D01*
X127512Y493823D01*
X127520Y493723D01*
X127532Y493623D01*
X127547Y493523D01*
X127567Y493424D01*
X127590Y493326D01*
X127617Y493229D01*
X127648Y493134D01*
X127682Y493039D01*
X127720Y492946D01*
X127762Y492854D01*
X127807Y492764D01*
X127856Y492676D01*
X127908Y492590D01*
X127963Y492506D01*
X128022Y492424D01*
X128083Y492344D01*
X128148Y492267D01*
X128216Y492193D01*
X128286Y492121D01*
X128359Y492052D01*
X128435Y491985D01*
X128514Y491922D01*
X128594Y491862D01*
X128677Y491805D01*
X128763Y491751D01*
X128850Y491701D01*
X128939Y491654D01*
X129030Y491611D01*
X129122Y491571D01*
X129216Y491535D01*
X129311Y491502D01*
X129408Y491473D01*
X129505Y491448D01*
X129604Y491427D01*
X129703Y491409D01*
X129803Y491396D01*
X129903Y491386D01*
X130003Y491380D01*
X130104Y491378D01*
X130205Y491380D01*
X130305Y491386D01*
X130405Y491396D01*
X130505Y491409D01*
X130604Y491427D01*
X130703Y491448D01*
X130800Y491473D01*
X130897Y491502D01*
X130992Y491535D01*
X131086Y491571D01*
X131178Y491611D01*
X131269Y491654D01*
X131358Y491701D01*
X131445Y491751D01*
X131531Y491805D01*
X131614Y491862D01*
X131694Y491922D01*
X131773Y491985D01*
X131849Y492052D01*
X131922Y492121D01*
X131992Y492193D01*
X132060Y492267D01*
X132125Y492344D01*
X132186Y492424D01*
X132245Y492506D01*
X132300Y492590D01*
X132352Y492676D01*
X132401Y492764D01*
X132446Y492854D01*
X132488Y492946D01*
X132526Y493039D01*
X132560Y493134D01*
X132591Y493229D01*
X132618Y493326D01*
X132641Y493424D01*
X132661Y493523D01*
X132676Y493623D01*
X132688Y493723D01*
X132696Y493823D01*
X132700Y493924D01*
X132700Y494024D01*
X132696Y494125D01*
X132688Y494225D01*
X132676Y494325D01*
X132661Y494425D01*
X132641Y494524D01*
X132618Y494622D01*
X132591Y494719D01*
X132560Y494814D01*
X132526Y494909D01*
X132488Y495002D01*
X132446Y495094D01*
X132401Y495184D01*
X132352Y495272D01*
X132300Y495358D01*
X132245Y495442D01*
X132186Y495524D01*
X132125Y495604D01*
X132060Y495681D01*
X131992Y495755D01*
X131922Y495827D01*
X131849Y495896D01*
X131773Y495963D01*
X131694Y496026D01*
X131614Y496086D01*
X131531Y496143D01*
X131445Y496197D01*
X131358Y496247D01*
X131269Y496294D01*
X131178Y496337D01*
X131086Y496377D01*
X130992Y496413D01*
X130897Y496446D01*
X130800Y496475D01*
X130703Y496500D01*
X130604Y496521D01*
X130505Y496539D01*
X130405Y496552D01*
X130305Y496562D01*
X130205Y496568D01*
X130104Y496570D01*
X133999Y468009D02*
X133999Y464114D01*
X133997Y464015D01*
X133991Y463915D01*
X133982Y463816D01*
X133969Y463718D01*
X133952Y463620D01*
X133931Y463522D01*
X133906Y463426D01*
X133878Y463331D01*
X133846Y463237D01*
X133811Y463144D01*
X133772Y463052D01*
X133729Y462962D01*
X133684Y462874D01*
X133634Y462787D01*
X133582Y462703D01*
X133526Y462620D01*
X133468Y462540D01*
X133406Y462462D01*
X133341Y462387D01*
X133273Y462314D01*
X133203Y462244D01*
X133130Y462176D01*
X133055Y462111D01*
X132977Y462049D01*
X132897Y461991D01*
X132814Y461935D01*
X132730Y461883D01*
X132643Y461833D01*
X132555Y461788D01*
X132465Y461745D01*
X132373Y461706D01*
X132280Y461671D01*
X132186Y461639D01*
X132091Y461611D01*
X131995Y461586D01*
X131897Y461565D01*
X131799Y461548D01*
X131701Y461535D01*
X131602Y461526D01*
X131502Y461520D01*
X131403Y461518D01*
X130754Y461518D01*
X130641Y461520D01*
X130528Y461526D01*
X130415Y461536D01*
X130302Y461550D01*
X130190Y461567D01*
X130079Y461589D01*
X129969Y461614D01*
X129859Y461644D01*
X129751Y461677D01*
X129644Y461714D01*
X129538Y461754D01*
X129434Y461799D01*
X129331Y461847D01*
X129230Y461898D01*
X129131Y461953D01*
X129034Y462011D01*
X128939Y462073D01*
X128846Y462138D01*
X128756Y462206D01*
X128668Y462277D01*
X128582Y462352D01*
X128499Y462429D01*
X128419Y462509D01*
X128342Y462592D01*
X128267Y462678D01*
X128196Y462766D01*
X128128Y462856D01*
X128063Y462949D01*
X128001Y463044D01*
X127943Y463141D01*
X127888Y463240D01*
X127837Y463341D01*
X127789Y463444D01*
X127744Y463548D01*
X127704Y463654D01*
X127667Y463761D01*
X127634Y463869D01*
X127604Y463979D01*
X127579Y464089D01*
X127557Y464200D01*
X127540Y464312D01*
X127526Y464425D01*
X127516Y464538D01*
X127510Y464651D01*
X127508Y464764D01*
X127510Y464877D01*
X127516Y464990D01*
X127526Y465103D01*
X127540Y465216D01*
X127557Y465328D01*
X127579Y465439D01*
X127604Y465549D01*
X127634Y465659D01*
X127667Y465767D01*
X127704Y465874D01*
X127744Y465980D01*
X127789Y466084D01*
X127837Y466187D01*
X127888Y466288D01*
X127943Y466387D01*
X128001Y466484D01*
X128063Y466579D01*
X128128Y466672D01*
X128196Y466762D01*
X128267Y466850D01*
X128342Y466936D01*
X128419Y467019D01*
X128499Y467099D01*
X128582Y467176D01*
X128668Y467251D01*
X128756Y467322D01*
X128846Y467390D01*
X128939Y467455D01*
X129034Y467517D01*
X129131Y467575D01*
X129230Y467630D01*
X129331Y467681D01*
X129434Y467729D01*
X129538Y467774D01*
X129644Y467814D01*
X129751Y467851D01*
X129859Y467884D01*
X129969Y467914D01*
X130079Y467939D01*
X130190Y467961D01*
X130302Y467978D01*
X130415Y467992D01*
X130528Y468002D01*
X130641Y468008D01*
X130754Y468010D01*
X130754Y468009D02*
X133999Y468009D01*
X134142Y468007D01*
X134285Y468001D01*
X134428Y467991D01*
X134570Y467977D01*
X134712Y467960D01*
X134854Y467938D01*
X134995Y467913D01*
X135135Y467883D01*
X135274Y467850D01*
X135412Y467813D01*
X135549Y467772D01*
X135685Y467728D01*
X135820Y467679D01*
X135953Y467627D01*
X136085Y467572D01*
X136215Y467512D01*
X136344Y467449D01*
X136471Y467383D01*
X136596Y467313D01*
X136718Y467240D01*
X136839Y467163D01*
X136958Y467083D01*
X137074Y467000D01*
X137189Y466914D01*
X137300Y466825D01*
X137410Y466732D01*
X137516Y466637D01*
X137620Y466538D01*
X137721Y466437D01*
X137820Y466333D01*
X137915Y466227D01*
X138008Y466117D01*
X138097Y466006D01*
X138183Y465891D01*
X138266Y465775D01*
X138346Y465656D01*
X138423Y465535D01*
X138496Y465413D01*
X138566Y465288D01*
X138632Y465161D01*
X138695Y465032D01*
X138755Y464902D01*
X138810Y464770D01*
X138862Y464637D01*
X138911Y464502D01*
X138955Y464366D01*
X138996Y464229D01*
X139033Y464091D01*
X139066Y463952D01*
X139096Y463812D01*
X139121Y463671D01*
X139143Y463529D01*
X139160Y463387D01*
X139174Y463245D01*
X139184Y463102D01*
X139190Y462959D01*
X139192Y462816D01*
D12*
X24638Y493324D02*
X24638Y496937D01*
X24638Y493324D02*
X24636Y493206D01*
X24630Y493088D01*
X24621Y492970D01*
X24607Y492853D01*
X24590Y492736D01*
X24569Y492619D01*
X24544Y492504D01*
X24515Y492389D01*
X24482Y492275D01*
X24446Y492163D01*
X24406Y492052D01*
X24363Y491942D01*
X24316Y491833D01*
X24266Y491726D01*
X24211Y491621D01*
X24154Y491518D01*
X24093Y491417D01*
X24029Y491317D01*
X23962Y491220D01*
X23892Y491125D01*
X23818Y491033D01*
X23742Y490942D01*
X23662Y490855D01*
X23580Y490770D01*
X23495Y490688D01*
X23408Y490608D01*
X23317Y490532D01*
X23225Y490458D01*
X23130Y490388D01*
X23033Y490321D01*
X22933Y490257D01*
X22832Y490196D01*
X22729Y490139D01*
X22624Y490084D01*
X22517Y490034D01*
X22408Y489987D01*
X22298Y489944D01*
X22187Y489904D01*
X22075Y489868D01*
X21961Y489835D01*
X21846Y489806D01*
X21731Y489781D01*
X21614Y489760D01*
X21497Y489743D01*
X21380Y489729D01*
X21262Y489720D01*
X21144Y489714D01*
X21026Y489712D01*
X11994Y489712D01*
X11876Y489714D01*
X11758Y489720D01*
X11640Y489729D01*
X11522Y489743D01*
X11405Y489760D01*
X11289Y489781D01*
X11174Y489806D01*
X11059Y489835D01*
X10945Y489868D01*
X10833Y489904D01*
X10721Y489944D01*
X10611Y489987D01*
X10503Y490034D01*
X10396Y490085D01*
X10291Y490139D01*
X10188Y490196D01*
X10086Y490257D01*
X9987Y490321D01*
X9890Y490388D01*
X9795Y490459D01*
X9702Y490532D01*
X9612Y490609D01*
X9524Y490688D01*
X9439Y490770D01*
X9357Y490855D01*
X9278Y490943D01*
X9201Y491033D01*
X9128Y491126D01*
X9057Y491220D01*
X8990Y491318D01*
X8926Y491417D01*
X8865Y491518D01*
X8808Y491622D01*
X8754Y491727D01*
X8703Y491834D01*
X8656Y491942D01*
X8613Y492052D01*
X8573Y492164D01*
X8537Y492276D01*
X8504Y492390D01*
X8475Y492505D01*
X8450Y492620D01*
X8429Y492736D01*
X8412Y492853D01*
X8398Y492971D01*
X8389Y493089D01*
X8383Y493207D01*
X8381Y493325D01*
X8382Y493324D02*
X8382Y496937D01*
X12898Y502778D02*
X20122Y502778D01*
X12898Y502777D02*
X12765Y502779D01*
X12633Y502785D01*
X12501Y502795D01*
X12369Y502808D01*
X12237Y502826D01*
X12107Y502847D01*
X11976Y502872D01*
X11847Y502901D01*
X11719Y502934D01*
X11591Y502970D01*
X11465Y503010D01*
X11340Y503054D01*
X11216Y503102D01*
X11094Y503153D01*
X10973Y503208D01*
X10854Y503266D01*
X10736Y503328D01*
X10621Y503393D01*
X10507Y503462D01*
X10396Y503533D01*
X10287Y503609D01*
X10180Y503687D01*
X10075Y503768D01*
X9973Y503853D01*
X9873Y503940D01*
X9776Y504030D01*
X9681Y504123D01*
X9590Y504219D01*
X9501Y504317D01*
X9415Y504418D01*
X9332Y504522D01*
X9252Y504628D01*
X9176Y504736D01*
X9102Y504846D01*
X9032Y504959D01*
X8965Y505073D01*
X8902Y505190D01*
X8842Y505308D01*
X8785Y505428D01*
X8732Y505550D01*
X8683Y505673D01*
X8637Y505797D01*
X8595Y505923D01*
X8557Y506050D01*
X8522Y506178D01*
X8491Y506307D01*
X8464Y506436D01*
X8441Y506567D01*
X8421Y506698D01*
X8406Y506830D01*
X8394Y506962D01*
X8386Y507094D01*
X8382Y507227D01*
X8382Y507359D01*
X8386Y507492D01*
X8394Y507624D01*
X8406Y507756D01*
X8421Y507888D01*
X8441Y508019D01*
X8464Y508150D01*
X8491Y508279D01*
X8522Y508408D01*
X8557Y508536D01*
X8595Y508663D01*
X8637Y508789D01*
X8683Y508913D01*
X8732Y509036D01*
X8785Y509158D01*
X8842Y509278D01*
X8902Y509396D01*
X8965Y509513D01*
X9032Y509627D01*
X9102Y509740D01*
X9176Y509850D01*
X9252Y509958D01*
X9332Y510064D01*
X9415Y510168D01*
X9501Y510269D01*
X9590Y510367D01*
X9681Y510463D01*
X9776Y510556D01*
X9873Y510646D01*
X9973Y510733D01*
X10075Y510818D01*
X10180Y510899D01*
X10287Y510977D01*
X10396Y511053D01*
X10507Y511124D01*
X10621Y511193D01*
X10736Y511258D01*
X10854Y511320D01*
X10973Y511378D01*
X11094Y511433D01*
X11216Y511484D01*
X11340Y511532D01*
X11465Y511576D01*
X11591Y511616D01*
X11719Y511652D01*
X11847Y511685D01*
X11976Y511714D01*
X12107Y511739D01*
X12237Y511760D01*
X12369Y511778D01*
X12501Y511791D01*
X12633Y511801D01*
X12765Y511807D01*
X12898Y511809D01*
X20122Y511809D01*
X20255Y511807D01*
X20387Y511801D01*
X20519Y511791D01*
X20651Y511778D01*
X20783Y511760D01*
X20913Y511739D01*
X21044Y511714D01*
X21173Y511685D01*
X21301Y511652D01*
X21429Y511616D01*
X21555Y511576D01*
X21680Y511532D01*
X21804Y511484D01*
X21926Y511433D01*
X22047Y511378D01*
X22166Y511320D01*
X22284Y511258D01*
X22399Y511193D01*
X22513Y511124D01*
X22624Y511053D01*
X22733Y510977D01*
X22840Y510899D01*
X22945Y510818D01*
X23047Y510733D01*
X23147Y510646D01*
X23244Y510556D01*
X23339Y510463D01*
X23430Y510367D01*
X23519Y510269D01*
X23605Y510168D01*
X23688Y510064D01*
X23768Y509958D01*
X23844Y509850D01*
X23918Y509740D01*
X23988Y509627D01*
X24055Y509513D01*
X24118Y509396D01*
X24178Y509278D01*
X24235Y509158D01*
X24288Y509036D01*
X24337Y508913D01*
X24383Y508789D01*
X24425Y508663D01*
X24463Y508536D01*
X24498Y508408D01*
X24529Y508279D01*
X24556Y508150D01*
X24579Y508019D01*
X24599Y507888D01*
X24614Y507756D01*
X24626Y507624D01*
X24634Y507492D01*
X24638Y507359D01*
X24638Y507227D01*
X24634Y507094D01*
X24626Y506962D01*
X24614Y506830D01*
X24599Y506698D01*
X24579Y506567D01*
X24556Y506436D01*
X24529Y506307D01*
X24498Y506178D01*
X24463Y506050D01*
X24425Y505923D01*
X24383Y505797D01*
X24337Y505673D01*
X24288Y505550D01*
X24235Y505428D01*
X24178Y505308D01*
X24118Y505190D01*
X24055Y505073D01*
X23988Y504959D01*
X23918Y504846D01*
X23844Y504736D01*
X23768Y504628D01*
X23688Y504522D01*
X23605Y504418D01*
X23519Y504317D01*
X23430Y504219D01*
X23339Y504123D01*
X23244Y504030D01*
X23147Y503940D01*
X23047Y503853D01*
X22945Y503768D01*
X22840Y503687D01*
X22733Y503609D01*
X22624Y503533D01*
X22513Y503462D01*
X22399Y503393D01*
X22284Y503328D01*
X22166Y503266D01*
X22047Y503208D01*
X21926Y503153D01*
X21804Y503102D01*
X21680Y503054D01*
X21555Y503010D01*
X21429Y502970D01*
X21301Y502934D01*
X21173Y502901D01*
X21044Y502872D01*
X20913Y502847D01*
X20783Y502826D01*
X20651Y502808D01*
X20519Y502795D01*
X20387Y502785D01*
X20255Y502779D01*
X20122Y502777D01*
X24638Y518930D02*
X8382Y518930D01*
X24638Y527961D01*
X8382Y527961D01*
X11994Y535082D02*
X8382Y539598D01*
X24638Y539598D01*
X24638Y544113D02*
X24638Y535082D01*
D10*
X40640Y63500D02*
X365760Y63500D01*
X40640Y63500D02*
X40640Y266700D01*
X365760Y266700D01*
X365760Y63500D01*
X67310Y165100D02*
X67339Y167500D01*
X67428Y169898D01*
X67575Y172294D01*
X67781Y174685D01*
X68045Y177071D01*
X68368Y179449D01*
X68750Y181818D01*
X69189Y184178D01*
X69686Y186526D01*
X70241Y188861D01*
X70852Y191182D01*
X71521Y193487D01*
X72246Y195775D01*
X73026Y198044D01*
X73863Y200294D01*
X74754Y202523D01*
X75699Y204729D01*
X76699Y206911D01*
X77752Y209067D01*
X78857Y211198D01*
X80014Y213301D01*
X81223Y215374D01*
X82482Y217417D01*
X83791Y219429D01*
X85148Y221408D01*
X86554Y223353D01*
X88008Y225263D01*
X89507Y227137D01*
X91053Y228974D01*
X92642Y230772D01*
X94276Y232530D01*
X95952Y234248D01*
X97670Y235924D01*
X99428Y237558D01*
X101226Y239147D01*
X103063Y240693D01*
X104937Y242192D01*
X106847Y243646D01*
X108792Y245052D01*
X110771Y246409D01*
X112783Y247718D01*
X114826Y248977D01*
X116899Y250186D01*
X119002Y251343D01*
X121133Y252448D01*
X123289Y253501D01*
X125471Y254501D01*
X127677Y255446D01*
X129906Y256337D01*
X132156Y257174D01*
X134425Y257954D01*
X136713Y258679D01*
X139018Y259348D01*
X141339Y259959D01*
X143674Y260514D01*
X146022Y261011D01*
X148382Y261450D01*
X150751Y261832D01*
X153129Y262155D01*
X155515Y262419D01*
X157906Y262625D01*
X160302Y262772D01*
X162700Y262861D01*
X165100Y262890D01*
X167500Y262861D01*
X169898Y262772D01*
X172294Y262625D01*
X174685Y262419D01*
X177071Y262155D01*
X179449Y261832D01*
X181818Y261450D01*
X184178Y261011D01*
X186526Y260514D01*
X188861Y259959D01*
X191182Y259348D01*
X193487Y258679D01*
X195775Y257954D01*
X198044Y257174D01*
X200294Y256337D01*
X202523Y255446D01*
X204729Y254501D01*
X206911Y253501D01*
X209067Y252448D01*
X211198Y251343D01*
X213301Y250186D01*
X215374Y248977D01*
X217417Y247718D01*
X219429Y246409D01*
X221408Y245052D01*
X223353Y243646D01*
X225263Y242192D01*
X227137Y240693D01*
X228974Y239147D01*
X230772Y237558D01*
X232530Y235924D01*
X234248Y234248D01*
X235924Y232530D01*
X237558Y230772D01*
X239147Y228974D01*
X240693Y227137D01*
X242192Y225263D01*
X243646Y223353D01*
X245052Y221408D01*
X246409Y219429D01*
X247718Y217417D01*
X248977Y215374D01*
X250186Y213301D01*
X251343Y211198D01*
X252448Y209067D01*
X253501Y206911D01*
X254501Y204729D01*
X255446Y202523D01*
X256337Y200294D01*
X257174Y198044D01*
X257954Y195775D01*
X258679Y193487D01*
X259348Y191182D01*
X259959Y188861D01*
X260514Y186526D01*
X261011Y184178D01*
X261450Y181818D01*
X261832Y179449D01*
X262155Y177071D01*
X262419Y174685D01*
X262625Y172294D01*
X262772Y169898D01*
X262861Y167500D01*
X262890Y165100D01*
X262861Y162700D01*
X262772Y160302D01*
X262625Y157906D01*
X262419Y155515D01*
X262155Y153129D01*
X261832Y150751D01*
X261450Y148382D01*
X261011Y146022D01*
X260514Y143674D01*
X259959Y141339D01*
X259348Y139018D01*
X258679Y136713D01*
X257954Y134425D01*
X257174Y132156D01*
X256337Y129906D01*
X255446Y127677D01*
X254501Y125471D01*
X253501Y123289D01*
X252448Y121133D01*
X251343Y119002D01*
X250186Y116899D01*
X248977Y114826D01*
X247718Y112783D01*
X246409Y110771D01*
X245052Y108792D01*
X243646Y106847D01*
X242192Y104937D01*
X240693Y103063D01*
X239147Y101226D01*
X237558Y99428D01*
X235924Y97670D01*
X234248Y95952D01*
X232530Y94276D01*
X230772Y92642D01*
X228974Y91053D01*
X227137Y89507D01*
X225263Y88008D01*
X223353Y86554D01*
X221408Y85148D01*
X219429Y83791D01*
X217417Y82482D01*
X215374Y81223D01*
X213301Y80014D01*
X211198Y78857D01*
X209067Y77752D01*
X206911Y76699D01*
X204729Y75699D01*
X202523Y74754D01*
X200294Y73863D01*
X198044Y73026D01*
X195775Y72246D01*
X193487Y71521D01*
X191182Y70852D01*
X188861Y70241D01*
X186526Y69686D01*
X184178Y69189D01*
X181818Y68750D01*
X179449Y68368D01*
X177071Y68045D01*
X174685Y67781D01*
X172294Y67575D01*
X169898Y67428D01*
X167500Y67339D01*
X165100Y67310D01*
X162700Y67339D01*
X160302Y67428D01*
X157906Y67575D01*
X155515Y67781D01*
X153129Y68045D01*
X150751Y68368D01*
X148382Y68750D01*
X146022Y69189D01*
X143674Y69686D01*
X141339Y70241D01*
X139018Y70852D01*
X136713Y71521D01*
X134425Y72246D01*
X132156Y73026D01*
X129906Y73863D01*
X127677Y74754D01*
X125471Y75699D01*
X123289Y76699D01*
X121133Y77752D01*
X119002Y78857D01*
X116899Y80014D01*
X114826Y81223D01*
X112783Y82482D01*
X110771Y83791D01*
X108792Y85148D01*
X106847Y86554D01*
X104937Y88008D01*
X103063Y89507D01*
X101226Y91053D01*
X99428Y92642D01*
X97670Y94276D01*
X95952Y95952D01*
X94276Y97670D01*
X92642Y99428D01*
X91053Y101226D01*
X89507Y103063D01*
X88008Y104937D01*
X86554Y106847D01*
X85148Y108792D01*
X83791Y110771D01*
X82482Y112783D01*
X81223Y114826D01*
X80014Y116899D01*
X78857Y119002D01*
X77752Y121133D01*
X76699Y123289D01*
X75699Y125471D01*
X74754Y127677D01*
X73863Y129906D01*
X73026Y132156D01*
X72246Y134425D01*
X71521Y136713D01*
X70852Y139018D01*
X70241Y141339D01*
X69686Y143674D01*
X69189Y146022D01*
X68750Y148382D01*
X68368Y150751D01*
X68045Y153129D01*
X67781Y155515D01*
X67575Y157906D01*
X67428Y160302D01*
X67339Y162700D01*
X67310Y165100D01*
X355600Y114300D02*
X361950Y120650D01*
X355600Y114300D02*
X342900Y114300D01*
X336550Y120650D01*
X336550Y133350D01*
X342900Y139700D01*
X336550Y146050D01*
X336550Y158750D01*
X342900Y165100D01*
X336550Y171450D01*
X336550Y184150D01*
X342900Y190500D01*
X355600Y190500D02*
X361950Y184150D01*
X361950Y171450D01*
X355600Y165100D01*
X361950Y158750D01*
X361950Y146050D01*
X355600Y139700D01*
X361950Y133350D01*
X361950Y120650D01*
X355600Y190500D02*
X361950Y196850D01*
X361950Y209550D01*
X355600Y215900D01*
X342900Y215900D01*
X336550Y209550D01*
X336550Y196850D01*
X342900Y190500D01*
D12*
X131533Y160584D02*
X131531Y160466D01*
X131525Y160348D01*
X131516Y160230D01*
X131502Y160113D01*
X131485Y159996D01*
X131464Y159879D01*
X131439Y159764D01*
X131410Y159649D01*
X131377Y159535D01*
X131341Y159423D01*
X131301Y159312D01*
X131258Y159202D01*
X131211Y159093D01*
X131161Y158986D01*
X131106Y158881D01*
X131049Y158778D01*
X130988Y158677D01*
X130924Y158577D01*
X130857Y158480D01*
X130787Y158385D01*
X130713Y158293D01*
X130637Y158202D01*
X130557Y158115D01*
X130475Y158030D01*
X130390Y157948D01*
X130303Y157868D01*
X130212Y157792D01*
X130120Y157718D01*
X130025Y157648D01*
X129928Y157581D01*
X129828Y157517D01*
X129727Y157456D01*
X129624Y157399D01*
X129519Y157344D01*
X129412Y157294D01*
X129303Y157247D01*
X129193Y157204D01*
X129082Y157164D01*
X128970Y157128D01*
X128856Y157095D01*
X128741Y157066D01*
X128626Y157041D01*
X128509Y157020D01*
X128392Y157003D01*
X128275Y156989D01*
X128157Y156980D01*
X128039Y156974D01*
X127921Y156972D01*
X127738Y156974D01*
X127556Y156981D01*
X127374Y156992D01*
X127192Y157007D01*
X127010Y157027D01*
X126829Y157050D01*
X126649Y157079D01*
X126469Y157111D01*
X126290Y157148D01*
X126113Y157189D01*
X125936Y157235D01*
X125760Y157284D01*
X125586Y157338D01*
X125412Y157396D01*
X125241Y157458D01*
X125071Y157524D01*
X124902Y157595D01*
X124735Y157669D01*
X124570Y157747D01*
X124407Y157829D01*
X124246Y157915D01*
X124087Y158005D01*
X123930Y158099D01*
X123776Y158196D01*
X123624Y158297D01*
X123474Y158402D01*
X123327Y158510D01*
X123183Y158621D01*
X123041Y158736D01*
X122902Y158855D01*
X122766Y158977D01*
X122633Y159102D01*
X122503Y159230D01*
X122955Y169616D02*
X122957Y169734D01*
X122963Y169852D01*
X122972Y169970D01*
X122986Y170087D01*
X123003Y170204D01*
X123024Y170321D01*
X123049Y170436D01*
X123078Y170551D01*
X123111Y170665D01*
X123147Y170777D01*
X123187Y170888D01*
X123230Y170998D01*
X123277Y171107D01*
X123327Y171214D01*
X123382Y171319D01*
X123439Y171422D01*
X123500Y171523D01*
X123564Y171623D01*
X123631Y171720D01*
X123701Y171815D01*
X123775Y171907D01*
X123851Y171998D01*
X123931Y172085D01*
X124013Y172170D01*
X124098Y172252D01*
X124185Y172332D01*
X124276Y172408D01*
X124368Y172482D01*
X124463Y172552D01*
X124560Y172619D01*
X124660Y172683D01*
X124761Y172744D01*
X124864Y172802D01*
X124969Y172856D01*
X125076Y172906D01*
X125185Y172953D01*
X125295Y172997D01*
X125406Y173036D01*
X125519Y173072D01*
X125632Y173105D01*
X125747Y173134D01*
X125862Y173159D01*
X125979Y173180D01*
X126096Y173197D01*
X126213Y173211D01*
X126331Y173220D01*
X126449Y173226D01*
X126567Y173228D01*
X126728Y173226D01*
X126890Y173220D01*
X127051Y173211D01*
X127212Y173197D01*
X127372Y173180D01*
X127532Y173159D01*
X127692Y173134D01*
X127851Y173105D01*
X128009Y173073D01*
X128166Y173037D01*
X128322Y172997D01*
X128478Y172953D01*
X128632Y172905D01*
X128785Y172854D01*
X128937Y172800D01*
X129088Y172741D01*
X129237Y172680D01*
X129384Y172614D01*
X129530Y172545D01*
X129675Y172473D01*
X129817Y172397D01*
X129958Y172318D01*
X130097Y172236D01*
X130233Y172150D01*
X130368Y172061D01*
X130501Y171969D01*
X130631Y171873D01*
X124760Y166455D02*
X124659Y166517D01*
X124559Y166582D01*
X124462Y166651D01*
X124367Y166723D01*
X124274Y166797D01*
X124184Y166875D01*
X124096Y166956D01*
X124011Y167039D01*
X123929Y167125D01*
X123850Y167214D01*
X123773Y167305D01*
X123700Y167399D01*
X123629Y167495D01*
X123562Y167593D01*
X123498Y167693D01*
X123437Y167796D01*
X123380Y167900D01*
X123326Y168006D01*
X123276Y168114D01*
X123229Y168223D01*
X123185Y168334D01*
X123145Y168446D01*
X123109Y168560D01*
X123077Y168674D01*
X123048Y168790D01*
X123023Y168906D01*
X123002Y169023D01*
X122985Y169141D01*
X122971Y169259D01*
X122962Y169378D01*
X122956Y169497D01*
X122954Y169616D01*
X129728Y163745D02*
X129829Y163683D01*
X129929Y163618D01*
X130026Y163549D01*
X130121Y163477D01*
X130214Y163403D01*
X130304Y163325D01*
X130392Y163244D01*
X130477Y163161D01*
X130559Y163075D01*
X130638Y162986D01*
X130715Y162895D01*
X130788Y162801D01*
X130859Y162705D01*
X130926Y162607D01*
X130990Y162507D01*
X131051Y162404D01*
X131108Y162300D01*
X131162Y162194D01*
X131212Y162086D01*
X131259Y161977D01*
X131303Y161866D01*
X131343Y161754D01*
X131379Y161640D01*
X131411Y161526D01*
X131440Y161410D01*
X131465Y161294D01*
X131486Y161177D01*
X131503Y161059D01*
X131517Y160941D01*
X131526Y160822D01*
X131532Y160703D01*
X131534Y160584D01*
X129728Y163745D02*
X124760Y166455D01*
X138164Y156972D02*
X145389Y156972D01*
X138164Y156972D02*
X138164Y173228D01*
X145389Y173228D01*
X143582Y166003D02*
X138164Y166003D01*
X151681Y173228D02*
X151681Y156972D01*
X160712Y156972D02*
X151681Y173228D01*
X160712Y173228D02*
X160712Y156972D01*
X172731Y156972D02*
X172849Y156974D01*
X172967Y156980D01*
X173085Y156989D01*
X173202Y157003D01*
X173319Y157020D01*
X173436Y157041D01*
X173551Y157066D01*
X173666Y157095D01*
X173780Y157128D01*
X173892Y157164D01*
X174003Y157204D01*
X174113Y157247D01*
X174222Y157294D01*
X174329Y157344D01*
X174434Y157399D01*
X174537Y157456D01*
X174638Y157517D01*
X174738Y157581D01*
X174835Y157648D01*
X174930Y157718D01*
X175022Y157792D01*
X175113Y157868D01*
X175200Y157948D01*
X175285Y158030D01*
X175367Y158115D01*
X175447Y158202D01*
X175523Y158293D01*
X175597Y158385D01*
X175667Y158480D01*
X175734Y158577D01*
X175798Y158677D01*
X175859Y158778D01*
X175916Y158881D01*
X175971Y158986D01*
X176021Y159093D01*
X176068Y159202D01*
X176111Y159312D01*
X176151Y159423D01*
X176187Y159535D01*
X176220Y159649D01*
X176249Y159764D01*
X176274Y159879D01*
X176295Y159996D01*
X176312Y160113D01*
X176326Y160230D01*
X176335Y160348D01*
X176341Y160466D01*
X176343Y160584D01*
X172731Y156972D02*
X172548Y156974D01*
X172366Y156981D01*
X172184Y156992D01*
X172002Y157007D01*
X171820Y157027D01*
X171639Y157050D01*
X171459Y157079D01*
X171279Y157111D01*
X171100Y157148D01*
X170923Y157189D01*
X170746Y157235D01*
X170570Y157284D01*
X170396Y157338D01*
X170222Y157396D01*
X170051Y157458D01*
X169881Y157524D01*
X169712Y157595D01*
X169545Y157669D01*
X169380Y157747D01*
X169217Y157829D01*
X169056Y157915D01*
X168897Y158005D01*
X168740Y158099D01*
X168586Y158196D01*
X168434Y158297D01*
X168284Y158402D01*
X168137Y158510D01*
X167993Y158621D01*
X167851Y158736D01*
X167712Y158855D01*
X167576Y158977D01*
X167443Y159102D01*
X167313Y159230D01*
X167764Y169616D02*
X167766Y169734D01*
X167772Y169852D01*
X167781Y169970D01*
X167795Y170087D01*
X167812Y170204D01*
X167833Y170321D01*
X167858Y170436D01*
X167887Y170551D01*
X167920Y170665D01*
X167956Y170777D01*
X167996Y170888D01*
X168039Y170998D01*
X168086Y171107D01*
X168136Y171214D01*
X168191Y171319D01*
X168248Y171422D01*
X168309Y171523D01*
X168373Y171623D01*
X168440Y171720D01*
X168510Y171815D01*
X168584Y171907D01*
X168660Y171998D01*
X168740Y172085D01*
X168822Y172170D01*
X168907Y172252D01*
X168994Y172332D01*
X169085Y172408D01*
X169177Y172482D01*
X169272Y172552D01*
X169369Y172619D01*
X169469Y172683D01*
X169570Y172744D01*
X169673Y172802D01*
X169778Y172856D01*
X169885Y172906D01*
X169994Y172953D01*
X170104Y172997D01*
X170215Y173036D01*
X170328Y173072D01*
X170441Y173105D01*
X170556Y173134D01*
X170671Y173159D01*
X170788Y173180D01*
X170905Y173197D01*
X171022Y173211D01*
X171140Y173220D01*
X171258Y173226D01*
X171376Y173228D01*
X171537Y173226D01*
X171699Y173220D01*
X171860Y173211D01*
X172021Y173197D01*
X172181Y173180D01*
X172341Y173159D01*
X172501Y173134D01*
X172660Y173105D01*
X172818Y173073D01*
X172975Y173037D01*
X173131Y172997D01*
X173287Y172953D01*
X173441Y172905D01*
X173594Y172854D01*
X173746Y172800D01*
X173897Y172741D01*
X174046Y172680D01*
X174193Y172614D01*
X174339Y172545D01*
X174484Y172473D01*
X174626Y172397D01*
X174767Y172318D01*
X174906Y172236D01*
X175042Y172150D01*
X175177Y172061D01*
X175310Y171969D01*
X175440Y171873D01*
X169570Y166455D02*
X169469Y166517D01*
X169369Y166582D01*
X169272Y166651D01*
X169177Y166723D01*
X169084Y166797D01*
X168994Y166875D01*
X168906Y166956D01*
X168821Y167039D01*
X168739Y167125D01*
X168660Y167214D01*
X168583Y167305D01*
X168510Y167399D01*
X168439Y167495D01*
X168372Y167593D01*
X168308Y167693D01*
X168247Y167796D01*
X168190Y167900D01*
X168136Y168006D01*
X168086Y168114D01*
X168039Y168223D01*
X167995Y168334D01*
X167955Y168446D01*
X167919Y168560D01*
X167887Y168674D01*
X167858Y168790D01*
X167833Y168906D01*
X167812Y169023D01*
X167795Y169141D01*
X167781Y169259D01*
X167772Y169378D01*
X167766Y169497D01*
X167764Y169616D01*
X174537Y163745D02*
X174638Y163683D01*
X174738Y163618D01*
X174835Y163549D01*
X174930Y163477D01*
X175023Y163403D01*
X175113Y163325D01*
X175201Y163244D01*
X175286Y163161D01*
X175368Y163075D01*
X175447Y162986D01*
X175524Y162895D01*
X175597Y162801D01*
X175668Y162705D01*
X175735Y162607D01*
X175799Y162507D01*
X175860Y162404D01*
X175917Y162300D01*
X175971Y162194D01*
X176021Y162086D01*
X176068Y161977D01*
X176112Y161866D01*
X176152Y161754D01*
X176188Y161640D01*
X176220Y161526D01*
X176249Y161410D01*
X176274Y161294D01*
X176295Y161177D01*
X176312Y161059D01*
X176326Y160941D01*
X176335Y160822D01*
X176341Y160703D01*
X176343Y160584D01*
X174537Y163745D02*
X169570Y166455D01*
X182422Y168712D02*
X182422Y161488D01*
X182422Y168712D02*
X182424Y168845D01*
X182430Y168977D01*
X182440Y169109D01*
X182453Y169241D01*
X182471Y169373D01*
X182492Y169503D01*
X182517Y169634D01*
X182546Y169763D01*
X182579Y169891D01*
X182615Y170019D01*
X182655Y170145D01*
X182699Y170270D01*
X182747Y170394D01*
X182798Y170516D01*
X182853Y170637D01*
X182911Y170756D01*
X182973Y170874D01*
X183038Y170989D01*
X183107Y171103D01*
X183178Y171214D01*
X183254Y171323D01*
X183332Y171430D01*
X183413Y171535D01*
X183498Y171637D01*
X183585Y171737D01*
X183675Y171834D01*
X183768Y171929D01*
X183864Y172020D01*
X183962Y172109D01*
X184063Y172195D01*
X184167Y172278D01*
X184273Y172358D01*
X184381Y172434D01*
X184491Y172508D01*
X184604Y172578D01*
X184718Y172645D01*
X184835Y172708D01*
X184953Y172768D01*
X185073Y172825D01*
X185195Y172878D01*
X185318Y172927D01*
X185442Y172973D01*
X185568Y173015D01*
X185695Y173053D01*
X185823Y173088D01*
X185952Y173119D01*
X186081Y173146D01*
X186212Y173169D01*
X186343Y173189D01*
X186475Y173204D01*
X186607Y173216D01*
X186739Y173224D01*
X186872Y173228D01*
X187004Y173228D01*
X187137Y173224D01*
X187269Y173216D01*
X187401Y173204D01*
X187533Y173189D01*
X187664Y173169D01*
X187795Y173146D01*
X187924Y173119D01*
X188053Y173088D01*
X188181Y173053D01*
X188308Y173015D01*
X188434Y172973D01*
X188558Y172927D01*
X188681Y172878D01*
X188803Y172825D01*
X188923Y172768D01*
X189041Y172708D01*
X189158Y172645D01*
X189272Y172578D01*
X189385Y172508D01*
X189495Y172434D01*
X189603Y172358D01*
X189709Y172278D01*
X189813Y172195D01*
X189914Y172109D01*
X190012Y172020D01*
X190108Y171929D01*
X190201Y171834D01*
X190291Y171737D01*
X190378Y171637D01*
X190463Y171535D01*
X190544Y171430D01*
X190622Y171323D01*
X190698Y171214D01*
X190769Y171103D01*
X190838Y170989D01*
X190903Y170874D01*
X190965Y170756D01*
X191023Y170637D01*
X191078Y170516D01*
X191129Y170394D01*
X191177Y170270D01*
X191221Y170145D01*
X191261Y170019D01*
X191297Y169891D01*
X191330Y169763D01*
X191359Y169634D01*
X191384Y169503D01*
X191405Y169373D01*
X191423Y169241D01*
X191436Y169109D01*
X191446Y168977D01*
X191452Y168845D01*
X191454Y168712D01*
X191454Y161488D01*
X191452Y161355D01*
X191446Y161223D01*
X191436Y161091D01*
X191423Y160959D01*
X191405Y160827D01*
X191384Y160697D01*
X191359Y160566D01*
X191330Y160437D01*
X191297Y160309D01*
X191261Y160181D01*
X191221Y160055D01*
X191177Y159930D01*
X191129Y159806D01*
X191078Y159684D01*
X191023Y159563D01*
X190965Y159444D01*
X190903Y159326D01*
X190838Y159211D01*
X190769Y159097D01*
X190698Y158986D01*
X190622Y158877D01*
X190544Y158770D01*
X190463Y158665D01*
X190378Y158563D01*
X190291Y158463D01*
X190201Y158366D01*
X190108Y158271D01*
X190012Y158180D01*
X189914Y158091D01*
X189813Y158005D01*
X189709Y157922D01*
X189603Y157842D01*
X189495Y157766D01*
X189385Y157692D01*
X189272Y157622D01*
X189158Y157555D01*
X189041Y157492D01*
X188923Y157432D01*
X188803Y157375D01*
X188681Y157322D01*
X188558Y157273D01*
X188434Y157227D01*
X188308Y157185D01*
X188181Y157147D01*
X188053Y157112D01*
X187924Y157081D01*
X187795Y157054D01*
X187664Y157031D01*
X187533Y157011D01*
X187401Y156996D01*
X187269Y156984D01*
X187137Y156976D01*
X187004Y156972D01*
X186872Y156972D01*
X186739Y156976D01*
X186607Y156984D01*
X186475Y156996D01*
X186343Y157011D01*
X186212Y157031D01*
X186081Y157054D01*
X185952Y157081D01*
X185823Y157112D01*
X185695Y157147D01*
X185568Y157185D01*
X185442Y157227D01*
X185318Y157273D01*
X185195Y157322D01*
X185073Y157375D01*
X184953Y157432D01*
X184835Y157492D01*
X184718Y157555D01*
X184604Y157622D01*
X184491Y157692D01*
X184381Y157766D01*
X184273Y157842D01*
X184167Y157922D01*
X184063Y158005D01*
X183962Y158091D01*
X183864Y158180D01*
X183768Y158271D01*
X183675Y158366D01*
X183585Y158463D01*
X183498Y158563D01*
X183413Y158665D01*
X183332Y158770D01*
X183254Y158877D01*
X183178Y158986D01*
X183107Y159097D01*
X183038Y159211D01*
X182973Y159326D01*
X182911Y159444D01*
X182853Y159563D01*
X182798Y159684D01*
X182747Y159806D01*
X182699Y159930D01*
X182655Y160055D01*
X182615Y160181D01*
X182579Y160309D01*
X182546Y160437D01*
X182517Y160566D01*
X182492Y160697D01*
X182471Y160827D01*
X182453Y160959D01*
X182440Y161091D01*
X182430Y161223D01*
X182424Y161355D01*
X182422Y161488D01*
X198666Y156972D02*
X198666Y173228D01*
X203182Y173228D01*
X203315Y173226D01*
X203447Y173220D01*
X203579Y173210D01*
X203711Y173197D01*
X203843Y173179D01*
X203973Y173158D01*
X204104Y173133D01*
X204233Y173104D01*
X204361Y173071D01*
X204489Y173035D01*
X204615Y172995D01*
X204740Y172951D01*
X204864Y172903D01*
X204986Y172852D01*
X205107Y172797D01*
X205226Y172739D01*
X205344Y172677D01*
X205459Y172612D01*
X205573Y172543D01*
X205684Y172472D01*
X205793Y172396D01*
X205900Y172318D01*
X206005Y172237D01*
X206107Y172152D01*
X206207Y172065D01*
X206304Y171975D01*
X206399Y171882D01*
X206490Y171786D01*
X206579Y171688D01*
X206665Y171587D01*
X206748Y171483D01*
X206828Y171377D01*
X206904Y171269D01*
X206978Y171159D01*
X207048Y171046D01*
X207115Y170932D01*
X207178Y170815D01*
X207238Y170697D01*
X207295Y170577D01*
X207348Y170455D01*
X207397Y170332D01*
X207443Y170208D01*
X207485Y170082D01*
X207523Y169955D01*
X207558Y169827D01*
X207589Y169698D01*
X207616Y169569D01*
X207639Y169438D01*
X207659Y169307D01*
X207674Y169175D01*
X207686Y169043D01*
X207694Y168911D01*
X207698Y168778D01*
X207698Y168646D01*
X207694Y168513D01*
X207686Y168381D01*
X207674Y168249D01*
X207659Y168117D01*
X207639Y167986D01*
X207616Y167855D01*
X207589Y167726D01*
X207558Y167597D01*
X207523Y167469D01*
X207485Y167342D01*
X207443Y167216D01*
X207397Y167092D01*
X207348Y166969D01*
X207295Y166847D01*
X207238Y166727D01*
X207178Y166609D01*
X207115Y166492D01*
X207048Y166378D01*
X206978Y166265D01*
X206904Y166155D01*
X206828Y166047D01*
X206748Y165941D01*
X206665Y165837D01*
X206579Y165736D01*
X206490Y165638D01*
X206399Y165542D01*
X206304Y165449D01*
X206207Y165359D01*
X206107Y165272D01*
X206005Y165187D01*
X205900Y165106D01*
X205793Y165028D01*
X205684Y164952D01*
X205573Y164881D01*
X205459Y164812D01*
X205344Y164747D01*
X205226Y164685D01*
X205107Y164627D01*
X204986Y164572D01*
X204864Y164521D01*
X204740Y164473D01*
X204615Y164429D01*
X204489Y164389D01*
X204361Y164353D01*
X204233Y164320D01*
X204104Y164291D01*
X203973Y164266D01*
X203843Y164245D01*
X203711Y164227D01*
X203579Y164214D01*
X203447Y164204D01*
X203315Y164198D01*
X203182Y164196D01*
X203182Y164197D02*
X198666Y164197D01*
X204085Y164197D02*
X207697Y156972D01*
D11*
X176008Y50292D02*
X176008Y38608D01*
X179903Y43801D02*
X176008Y50292D01*
X179903Y43801D02*
X183797Y50292D01*
X183797Y38608D01*
X189897Y41854D02*
X189897Y47046D01*
X189899Y47159D01*
X189905Y47272D01*
X189915Y47385D01*
X189929Y47498D01*
X189946Y47610D01*
X189968Y47721D01*
X189993Y47831D01*
X190023Y47941D01*
X190056Y48049D01*
X190093Y48156D01*
X190133Y48262D01*
X190178Y48366D01*
X190226Y48469D01*
X190277Y48570D01*
X190332Y48669D01*
X190390Y48766D01*
X190452Y48861D01*
X190517Y48954D01*
X190585Y49044D01*
X190656Y49132D01*
X190731Y49218D01*
X190808Y49301D01*
X190888Y49381D01*
X190971Y49458D01*
X191057Y49533D01*
X191145Y49604D01*
X191235Y49672D01*
X191328Y49737D01*
X191423Y49799D01*
X191520Y49857D01*
X191619Y49912D01*
X191720Y49963D01*
X191823Y50011D01*
X191927Y50056D01*
X192033Y50096D01*
X192140Y50133D01*
X192248Y50166D01*
X192358Y50196D01*
X192468Y50221D01*
X192579Y50243D01*
X192691Y50260D01*
X192804Y50274D01*
X192917Y50284D01*
X193030Y50290D01*
X193143Y50292D01*
X193256Y50290D01*
X193369Y50284D01*
X193482Y50274D01*
X193595Y50260D01*
X193707Y50243D01*
X193818Y50221D01*
X193928Y50196D01*
X194038Y50166D01*
X194146Y50133D01*
X194253Y50096D01*
X194359Y50056D01*
X194463Y50011D01*
X194566Y49963D01*
X194667Y49912D01*
X194766Y49857D01*
X194863Y49799D01*
X194958Y49737D01*
X195051Y49672D01*
X195141Y49604D01*
X195229Y49533D01*
X195315Y49458D01*
X195398Y49381D01*
X195478Y49301D01*
X195555Y49218D01*
X195630Y49132D01*
X195701Y49044D01*
X195769Y48954D01*
X195834Y48861D01*
X195896Y48766D01*
X195954Y48669D01*
X196009Y48570D01*
X196060Y48469D01*
X196108Y48366D01*
X196153Y48262D01*
X196193Y48156D01*
X196230Y48049D01*
X196263Y47941D01*
X196293Y47831D01*
X196318Y47721D01*
X196340Y47610D01*
X196357Y47498D01*
X196371Y47385D01*
X196381Y47272D01*
X196387Y47159D01*
X196389Y47046D01*
X196388Y47046D02*
X196388Y41854D01*
X196389Y41854D02*
X196387Y41741D01*
X196381Y41628D01*
X196371Y41515D01*
X196357Y41402D01*
X196340Y41290D01*
X196318Y41179D01*
X196293Y41069D01*
X196263Y40959D01*
X196230Y40851D01*
X196193Y40744D01*
X196153Y40638D01*
X196108Y40534D01*
X196060Y40431D01*
X196009Y40330D01*
X195954Y40231D01*
X195896Y40134D01*
X195834Y40039D01*
X195769Y39946D01*
X195701Y39856D01*
X195630Y39768D01*
X195555Y39682D01*
X195478Y39599D01*
X195398Y39519D01*
X195315Y39442D01*
X195229Y39367D01*
X195141Y39296D01*
X195051Y39228D01*
X194958Y39163D01*
X194863Y39101D01*
X194766Y39043D01*
X194667Y38988D01*
X194566Y38937D01*
X194463Y38889D01*
X194359Y38844D01*
X194253Y38804D01*
X194146Y38767D01*
X194038Y38734D01*
X193928Y38704D01*
X193818Y38679D01*
X193707Y38657D01*
X193595Y38640D01*
X193482Y38626D01*
X193369Y38616D01*
X193256Y38610D01*
X193143Y38608D01*
X193030Y38610D01*
X192917Y38616D01*
X192804Y38626D01*
X192691Y38640D01*
X192579Y38657D01*
X192468Y38679D01*
X192358Y38704D01*
X192248Y38734D01*
X192140Y38767D01*
X192033Y38804D01*
X191927Y38844D01*
X191823Y38889D01*
X191720Y38937D01*
X191619Y38988D01*
X191520Y39043D01*
X191423Y39101D01*
X191328Y39163D01*
X191235Y39228D01*
X191145Y39296D01*
X191057Y39367D01*
X190971Y39442D01*
X190888Y39519D01*
X190808Y39599D01*
X190731Y39682D01*
X190656Y39768D01*
X190585Y39856D01*
X190517Y39946D01*
X190452Y40039D01*
X190390Y40134D01*
X190332Y40231D01*
X190277Y40330D01*
X190226Y40431D01*
X190178Y40534D01*
X190133Y40638D01*
X190093Y40744D01*
X190056Y40851D01*
X190023Y40959D01*
X189993Y41069D01*
X189968Y41179D01*
X189946Y41290D01*
X189929Y41402D01*
X189915Y41515D01*
X189905Y41628D01*
X189899Y41741D01*
X189897Y41854D01*
X195090Y41204D02*
X197686Y38608D01*
X201041Y47696D02*
X204287Y50292D01*
X204287Y38608D01*
X207532Y38608D02*
X201041Y38608D01*
X212471Y38608D02*
X215717Y38608D01*
X215830Y38610D01*
X215943Y38616D01*
X216056Y38626D01*
X216169Y38640D01*
X216281Y38657D01*
X216392Y38679D01*
X216502Y38704D01*
X216612Y38734D01*
X216720Y38767D01*
X216827Y38804D01*
X216933Y38844D01*
X217037Y38889D01*
X217140Y38937D01*
X217241Y38988D01*
X217340Y39043D01*
X217437Y39101D01*
X217532Y39163D01*
X217625Y39228D01*
X217715Y39296D01*
X217803Y39367D01*
X217889Y39442D01*
X217972Y39519D01*
X218052Y39599D01*
X218129Y39682D01*
X218204Y39768D01*
X218275Y39856D01*
X218343Y39946D01*
X218408Y40039D01*
X218470Y40134D01*
X218528Y40231D01*
X218583Y40330D01*
X218634Y40431D01*
X218682Y40534D01*
X218727Y40638D01*
X218767Y40744D01*
X218804Y40851D01*
X218837Y40959D01*
X218867Y41069D01*
X218892Y41179D01*
X218914Y41290D01*
X218931Y41402D01*
X218945Y41515D01*
X218955Y41628D01*
X218961Y41741D01*
X218963Y41854D01*
X218961Y41967D01*
X218955Y42080D01*
X218945Y42193D01*
X218931Y42306D01*
X218914Y42418D01*
X218892Y42529D01*
X218867Y42639D01*
X218837Y42749D01*
X218804Y42857D01*
X218767Y42964D01*
X218727Y43070D01*
X218682Y43174D01*
X218634Y43277D01*
X218583Y43378D01*
X218528Y43477D01*
X218470Y43574D01*
X218408Y43669D01*
X218343Y43762D01*
X218275Y43852D01*
X218204Y43940D01*
X218129Y44026D01*
X218052Y44109D01*
X217972Y44189D01*
X217889Y44266D01*
X217803Y44341D01*
X217715Y44412D01*
X217625Y44480D01*
X217532Y44545D01*
X217437Y44607D01*
X217340Y44665D01*
X217241Y44720D01*
X217140Y44771D01*
X217037Y44819D01*
X216933Y44864D01*
X216827Y44904D01*
X216720Y44941D01*
X216612Y44974D01*
X216502Y45004D01*
X216392Y45029D01*
X216281Y45051D01*
X216169Y45068D01*
X216056Y45082D01*
X215943Y45092D01*
X215830Y45098D01*
X215717Y45100D01*
X216366Y50292D02*
X212471Y50292D01*
X216366Y50292D02*
X216467Y50290D01*
X216567Y50284D01*
X216667Y50274D01*
X216767Y50261D01*
X216866Y50243D01*
X216965Y50222D01*
X217062Y50197D01*
X217159Y50168D01*
X217254Y50135D01*
X217348Y50099D01*
X217440Y50059D01*
X217531Y50016D01*
X217620Y49969D01*
X217707Y49919D01*
X217793Y49865D01*
X217876Y49808D01*
X217956Y49748D01*
X218035Y49685D01*
X218111Y49618D01*
X218184Y49549D01*
X218254Y49477D01*
X218322Y49403D01*
X218387Y49326D01*
X218448Y49246D01*
X218507Y49164D01*
X218562Y49080D01*
X218614Y48994D01*
X218663Y48906D01*
X218708Y48816D01*
X218750Y48724D01*
X218788Y48631D01*
X218822Y48536D01*
X218853Y48441D01*
X218880Y48344D01*
X218903Y48246D01*
X218923Y48147D01*
X218938Y48047D01*
X218950Y47947D01*
X218958Y47847D01*
X218962Y47746D01*
X218962Y47646D01*
X218958Y47545D01*
X218950Y47445D01*
X218938Y47345D01*
X218923Y47245D01*
X218903Y47146D01*
X218880Y47048D01*
X218853Y46951D01*
X218822Y46856D01*
X218788Y46761D01*
X218750Y46668D01*
X218708Y46576D01*
X218663Y46486D01*
X218614Y46398D01*
X218562Y46312D01*
X218507Y46228D01*
X218448Y46146D01*
X218387Y46066D01*
X218322Y45989D01*
X218254Y45915D01*
X218184Y45843D01*
X218111Y45774D01*
X218035Y45707D01*
X217956Y45644D01*
X217876Y45584D01*
X217793Y45527D01*
X217707Y45473D01*
X217620Y45423D01*
X217531Y45376D01*
X217440Y45333D01*
X217348Y45293D01*
X217254Y45257D01*
X217159Y45224D01*
X217062Y45195D01*
X216965Y45170D01*
X216866Y45149D01*
X216767Y45131D01*
X216667Y45118D01*
X216567Y45108D01*
X216467Y45102D01*
X216366Y45100D01*
X216366Y45099D02*
X213769Y45099D01*
X223901Y38608D02*
X227796Y38608D01*
X227895Y38610D01*
X227995Y38616D01*
X228094Y38625D01*
X228192Y38638D01*
X228290Y38655D01*
X228388Y38676D01*
X228484Y38701D01*
X228579Y38729D01*
X228673Y38761D01*
X228766Y38796D01*
X228858Y38835D01*
X228948Y38878D01*
X229036Y38923D01*
X229123Y38973D01*
X229207Y39025D01*
X229290Y39081D01*
X229370Y39139D01*
X229448Y39201D01*
X229523Y39266D01*
X229596Y39334D01*
X229666Y39404D01*
X229734Y39477D01*
X229799Y39552D01*
X229861Y39630D01*
X229919Y39710D01*
X229975Y39793D01*
X230027Y39877D01*
X230077Y39964D01*
X230122Y40052D01*
X230165Y40142D01*
X230204Y40234D01*
X230239Y40327D01*
X230271Y40421D01*
X230299Y40516D01*
X230324Y40612D01*
X230345Y40710D01*
X230362Y40808D01*
X230375Y40906D01*
X230384Y41005D01*
X230390Y41105D01*
X230392Y41204D01*
X230392Y42503D01*
X230390Y42602D01*
X230384Y42702D01*
X230375Y42801D01*
X230362Y42899D01*
X230345Y42997D01*
X230324Y43095D01*
X230299Y43191D01*
X230271Y43286D01*
X230239Y43380D01*
X230204Y43473D01*
X230165Y43565D01*
X230122Y43655D01*
X230077Y43743D01*
X230027Y43830D01*
X229975Y43914D01*
X229919Y43997D01*
X229861Y44077D01*
X229799Y44155D01*
X229734Y44230D01*
X229666Y44303D01*
X229596Y44373D01*
X229523Y44441D01*
X229448Y44506D01*
X229370Y44568D01*
X229290Y44626D01*
X229207Y44682D01*
X229123Y44734D01*
X229036Y44784D01*
X228948Y44829D01*
X228858Y44872D01*
X228766Y44911D01*
X228673Y44946D01*
X228579Y44978D01*
X228484Y45006D01*
X228388Y45031D01*
X228290Y45052D01*
X228192Y45069D01*
X228094Y45082D01*
X227995Y45091D01*
X227895Y45097D01*
X227796Y45099D01*
X223901Y45099D01*
X223901Y50292D01*
X230392Y50292D01*
M02*
