M48
;GenerationSoftware,Autodesk,EAGLE,9.5.1*%
;CreationDate,2019-11-15T14:30:55Z*%
FMAT,2
ICI,OFF
METRIC,TZ,000.000
T5C1.000
T4C1.016
T3C2.800
T2C3.000
T1C4.115
%
G90
M71
T1
X10160Y62992
X10160Y38608
T2
X33020Y48260
T3
X33909Y8890
X33909Y24130
X6731Y24130
X6731Y8890
T4
X8763Y56388
X8763Y53594
X8763Y50800
X8763Y48006
X8763Y45212
X11557Y54991
X11557Y52197
X11557Y49403
X11557Y46609
T5
X41910Y46990
X41910Y49530
X41910Y52070
X41910Y54610
X34925Y12700
X34925Y15240
X34925Y17780
X34925Y20320
M30