G04 PROTEUS RS274X GERBER FILE*
%FSLAX45Y45*%
%MOMM*%
G01*
%ADD22C,4.064000*%
%AMPPAD015*
4,1,36,
-1.270000,1.397000,
1.270000,1.397000,
1.295970,1.394470,
1.319980,1.387200,
1.341580,1.375650,
1.360290,1.360290,
1.375650,1.341570,
1.387200,1.319980,
1.394470,1.295970,
1.397000,1.270000,
1.397000,-1.270000,
1.394470,-1.295970,
1.387200,-1.319980,
1.375650,-1.341570,
1.360290,-1.360290,
1.341580,-1.375650,
1.319980,-1.387200,
1.295970,-1.394470,
1.270000,-1.397000,
-1.270000,-1.397000,
-1.295970,-1.394470,
-1.319980,-1.387200,
-1.341580,-1.375650,
-1.360290,-1.360290,
-1.375650,-1.341570,
-1.387200,-1.319980,
-1.394470,-1.295970,
-1.397000,-1.270000,
-1.397000,1.270000,
-1.394470,1.295970,
-1.387200,1.319980,
-1.375650,1.341570,
-1.360290,1.360290,
-1.341580,1.375650,
-1.319980,1.387200,
-1.295970,1.394470,
-1.270000,1.397000,
0*%
%ADD23PPAD015*%
%ADD24C,2.794000*%
%AMPPAD017*
4,1,36,
-1.143000,1.270000,
1.143000,1.270000,
1.168970,1.267470,
1.192980,1.260200,
1.214580,1.248650,
1.233290,1.233290,
1.248650,1.214570,
1.260200,1.192980,
1.267470,1.168970,
1.270000,1.143000,
1.270000,-1.143000,
1.267470,-1.168970,
1.260200,-1.192980,
1.248650,-1.214570,
1.233290,-1.233290,
1.214580,-1.248650,
1.192980,-1.260200,
1.168970,-1.267470,
1.143000,-1.270000,
-1.143000,-1.270000,
-1.168970,-1.267470,
-1.192980,-1.260200,
-1.214580,-1.248650,
-1.233290,-1.233290,
-1.248650,-1.214570,
-1.260200,-1.192980,
-1.267470,-1.168970,
-1.270000,-1.143000,
-1.270000,1.143000,
-1.267470,1.168970,
-1.260200,1.192980,
-1.248650,1.214570,
-1.233290,1.233290,
-1.214580,1.248650,
-1.192980,1.260200,
-1.168970,1.267470,
-1.143000,1.270000,
0*%
%ADD25PPAD017*%
%AMPPAD018*
4,1,36,
-1.905000,2.032000,
1.905000,2.032000,
1.930970,2.029470,
1.954980,2.022200,
1.976580,2.010650,
1.995290,1.995290,
2.010650,1.976570,
2.022200,1.954980,
2.029470,1.930970,
2.032000,1.905000,
2.032000,-1.905000,
2.029470,-1.930970,
2.022200,-1.954980,
2.010650,-1.976570,
1.995290,-1.995290,
1.976580,-2.010650,
1.954980,-2.022200,
1.930970,-2.029470,
1.905000,-2.032000,
-1.905000,-2.032000,
-1.930970,-2.029470,
-1.954980,-2.022200,
-1.976580,-2.010650,
-1.995290,-1.995290,
-2.010650,-1.976570,
-2.022200,-1.954980,
-2.029470,-1.930970,
-2.032000,-1.905000,
-2.032000,1.905000,
-2.029470,1.930970,
-2.022200,1.954980,
-2.010650,1.976570,
-1.995290,1.995290,
-1.976580,2.010650,
-1.954980,2.022200,
-1.930970,2.029470,
-1.905000,2.032000,
0*%
%ADD26PPAD018*%
%ADD27C,6.604000*%
%ADD16C,0.203200*%
D22*
X-4750000Y+768000D03*
X-4750000Y-756000D03*
X-4750000Y+260000D03*
X-4750000Y-248000D03*
D23*
X-1920000Y+160000D03*
D24*
X-1920000Y-190000D03*
D25*
X-464000Y+3720000D03*
X-210000Y+3720000D03*
X+44000Y+3720000D03*
D24*
X-3496802Y+640000D03*
X-2480802Y+640000D03*
D22*
X-510000Y+590000D03*
X-510000Y-610000D03*
X-910000Y-10000D03*
X+890000Y-610000D03*
X+890000Y+590000D03*
X+3005699Y+2910000D03*
X+1255699Y+2910000D03*
X-4360000Y+3420000D03*
X-4360000Y+1670000D03*
D26*
X-1950000Y-2600000D03*
D22*
X-1950000Y-3350000D03*
D26*
X+0Y-2600000D03*
D22*
X+0Y-3350000D03*
D26*
X+1900000Y-2600000D03*
D22*
X+1900000Y-3350000D03*
X+4484476Y+3645524D03*
X+4484476Y+3137524D03*
X-4500000Y-3508000D03*
X-4500000Y-3000000D03*
D24*
X-720000Y+3190000D03*
X+296000Y+3190000D03*
D22*
X-2500000Y+1700000D03*
X+2072000Y+1700000D03*
X-1540000Y-1640000D03*
X+1508000Y-1640000D03*
D26*
X+4790000Y+2040000D03*
X+3090000Y+2040000D03*
X+4790000Y-1910000D03*
X+3090000Y-1910000D03*
D22*
X+4480000Y-3030000D03*
X+4480000Y-3538000D03*
D24*
X-2827992Y+2919153D03*
X-2827992Y+3429153D03*
X-1830000Y+3179153D03*
X-620000Y+2550000D03*
X+142000Y+2550000D03*
X-3620000Y-1560000D03*
D23*
X-4100000Y-1560000D03*
D24*
X-3620000Y-2240000D03*
D23*
X-4100000Y-2240000D03*
D24*
X-3536000Y-180000D03*
X-2520000Y-180000D03*
X-3536000Y-510000D03*
X-2520000Y-510000D03*
X-3530000Y-860000D03*
X-2514000Y-860000D03*
X-350000Y-1100000D03*
X+666000Y-1100000D03*
X-1920000Y-753000D03*
X-1670000Y-1003000D03*
X-1920000Y-1243000D03*
D27*
X-5700000Y+3900000D03*
X+1300000Y+3900000D03*
X+3300000Y-3700000D03*
X-3300000Y-3700000D03*
D16*
X-6350960Y-4420960D02*
X+5490000Y-4420960D01*
X+5490000Y+4570000D01*
X-6350960Y+4570000D01*
X-6350960Y-4420960D01*
M02*
