M48
METRIC,TZ
T01C1.2700
T02C1.1430
T03C1.6510
T04C4.0000
%
T01
X-47500Y+7680
X-47500Y-7560
X-47500Y+2600
X-47500Y-2480
X-19200Y+1600
X-4640Y+37200
X-2100Y+37200
X+440Y+37200
X-5100Y+5900
X-5100Y-6100
X-9100Y-100
X+8900Y-6100
X+8900Y+5900
X+30057Y+29100
X+12557Y+29100
X-43600Y+34200
X-43600Y+16700
X-19500Y-33500
X+0Y-33500
X+19000Y-33500
X+44845Y+36455
X+44845Y+31375
X-45000Y-35080
X-45000Y-30000
X-25000Y+17000
X+20720Y+17000
X-15400Y-16400
X+15080Y-16400
X+44800Y-30300
X+44800Y-35380
X-41000Y-15600
X-41000Y-22400
T02
X-19200Y-1900
X-34968Y+6400
X-24808Y+6400
X-7200Y+31900
X+2960Y+31900
X-28280Y+29192
X-28280Y+34292
X-18300Y+31792
X-6200Y+25500
X+1420Y+25500
X-36200Y-15600
X-36200Y-22400
X-35360Y-1800
X-25200Y-1800
X-35360Y-5100
X-25200Y-5100
X-35300Y-8600
X-25140Y-8600
X-3500Y-11000
X+6660Y-11000
X-19200Y-7530
X-16700Y-10030
X-19200Y-12430
T03
X-19500Y-26000
X+0Y-26000
X+19000Y-26000
X+47900Y+20400
X+30900Y+20400
X+47900Y-19100
X+30900Y-19100
T04
X-57000Y+39000
X+13000Y+39000
X+33000Y-37000
X-33000Y-37000
M30
