G04 PROTEUS RS274X GERBER FILE*
%FSLAX45Y45*%
%MOMM*%
G01*
%ADD16C,0.203200*%
%ADD20C,0.120000*%
%ADD21C,0.200000*%
D16*
X-5004000Y+1022000D02*
X-5004000Y-1010000D01*
X-5004000Y+1022000D02*
X-4623000Y+1022000D01*
X-4496000Y+895000D01*
X-4496000Y-1010000D01*
X-5004000Y-1010000D01*
X-4363920Y-184500D02*
X-4455360Y-184500D01*
X-4455360Y-105125D01*
X-4440120Y-89250D01*
X-4424880Y-89250D01*
X-4409640Y-105125D01*
X-4394400Y-89250D01*
X-4379160Y-89250D01*
X-4363920Y-105125D01*
X-4363920Y-184500D01*
X-4409640Y-184500D02*
X-4409640Y-105125D01*
X-4363920Y-57500D02*
X-4455360Y-57500D01*
X-4455360Y+21875D01*
X-4440120Y+37750D01*
X-4424880Y+37750D01*
X-4409640Y+21875D01*
X-4409640Y-57500D01*
X-4409640Y+21875D02*
X-4394400Y+37750D01*
X-4363920Y+37750D01*
X-4424880Y+101250D02*
X-4455360Y+133000D01*
X-4363920Y+133000D01*
D20*
X-1520000Y-15000D02*
X-1521256Y+16670D01*
X-1531448Y+80011D01*
X-1552679Y+143352D01*
X-1587055Y+206693D01*
X-1639349Y+270018D01*
X-1702690Y+320822D01*
X-1766031Y+354180D01*
X-1829372Y+374598D01*
X-1892713Y+384068D01*
X-1920000Y+385000D01*
X-2320000Y-15000D02*
X-2318744Y+16670D01*
X-2308552Y+80011D01*
X-2287321Y+143352D01*
X-2252945Y+206693D01*
X-2200651Y+270018D01*
X-2137310Y+320822D01*
X-2073969Y+354180D01*
X-2010628Y+374598D01*
X-1947287Y+384068D01*
X-1920000Y+385000D01*
X-2320000Y-15000D02*
X-2318744Y-46670D01*
X-2308552Y-110011D01*
X-2287321Y-173352D01*
X-2252945Y-236693D01*
X-2200651Y-300018D01*
X-2137310Y-350822D01*
X-2073969Y-384180D01*
X-2010628Y-404598D01*
X-1947287Y-414068D01*
X-1920000Y-415000D01*
X-1520000Y-15000D02*
X-1521256Y-46670D01*
X-1531448Y-110011D01*
X-1552679Y-173352D01*
X-1587055Y-236693D01*
X-1639349Y-300018D01*
X-1702690Y-350822D01*
X-1766031Y-384180D01*
X-1829372Y-404598D01*
X-1892713Y-414068D01*
X-1920000Y-415000D01*
D21*
X-1605000Y+290000D02*
X-1605035Y+290831D01*
X-1605316Y+292495D01*
X-1605906Y+294159D01*
X-1606870Y+295823D01*
X-1608345Y+297464D01*
X-1610009Y+298665D01*
X-1611673Y+299430D01*
X-1613337Y+299861D01*
X-1615000Y+300000D01*
X-1625000Y+290000D02*
X-1624965Y+290831D01*
X-1624684Y+292495D01*
X-1624094Y+294159D01*
X-1623130Y+295823D01*
X-1621655Y+297464D01*
X-1619991Y+298665D01*
X-1618327Y+299430D01*
X-1616663Y+299861D01*
X-1615000Y+300000D01*
X-1625000Y+290000D02*
X-1624965Y+289169D01*
X-1624684Y+287505D01*
X-1624094Y+285841D01*
X-1623130Y+284177D01*
X-1621655Y+282536D01*
X-1619991Y+281335D01*
X-1618327Y+280570D01*
X-1616663Y+280139D01*
X-1615000Y+280000D01*
X-1605000Y+290000D02*
X-1605035Y+289169D01*
X-1605316Y+287505D01*
X-1605906Y+285841D01*
X-1606870Y+284177D01*
X-1608345Y+282536D01*
X-1610009Y+281335D01*
X-1611673Y+280570D01*
X-1613337Y+280139D01*
X-1615000Y+280000D01*
D16*
X-1407320Y-46750D02*
X-1392080Y-62625D01*
X-1392080Y-110250D01*
X-1422560Y-142000D01*
X-1453040Y-142000D01*
X-1483520Y-110250D01*
X-1483520Y-62625D01*
X-1468280Y-46750D01*
X-1453040Y+16750D02*
X-1483520Y+48500D01*
X-1392080Y+48500D01*
X-591000Y+3593000D02*
X+171000Y+3593000D01*
X+171000Y+3847000D01*
X-591000Y+3847000D01*
X-591000Y+3593000D01*
X-591000Y+3847000D02*
X-591000Y+3974000D01*
X+171000Y+3974000D01*
X+171000Y+3847000D01*
X-591000Y+3847000D02*
X-464000Y+3974000D01*
X-464000Y+3847000D02*
X-337000Y+3974000D01*
X-337000Y+3847000D02*
X-210000Y+3974000D01*
X-210000Y+3847000D02*
X-83000Y+3974000D01*
X-83000Y+3847000D02*
X+44000Y+3974000D01*
X+44000Y+3847000D02*
X+171000Y+3974000D01*
X-337000Y+4106080D02*
X-337000Y+4029880D01*
X-321125Y+4014640D01*
X-257625Y+4014640D01*
X-241750Y+4029880D01*
X-241750Y+4106080D01*
X-178250Y+4075600D02*
X-146500Y+4106080D01*
X-146500Y+4014640D01*
X-3247882Y+505380D02*
X-2729722Y+505380D01*
X-2729722Y+772080D01*
X-3247882Y+772080D01*
X-3247882Y+505380D01*
X-2811002Y+507920D02*
X-2811002Y+769540D01*
X-2658602Y+640000D02*
X-2729722Y+640000D01*
X-3247882Y+640000D02*
X-3319002Y+640000D01*
X-3115802Y+373300D02*
X-3115802Y+464740D01*
X-3052302Y+464740D01*
X-3020552Y+434260D01*
X-3020552Y+403780D01*
X-3052302Y+373300D01*
X-3115802Y+373300D01*
X-2972927Y+449500D02*
X-2957052Y+464740D01*
X-2909427Y+464740D01*
X-2893552Y+449500D01*
X-2893552Y+434260D01*
X-2909427Y+419020D01*
X-2957052Y+419020D01*
X-2972927Y+403780D01*
X-2972927Y+373300D01*
X-2893552Y+373300D01*
X-1110000Y-840000D02*
X+1140000Y-840000D01*
X+1140000Y+810000D01*
X-1110000Y+810000D01*
X-1110000Y-840000D01*
X-175500Y+850640D02*
X-175500Y+942080D01*
X-96125Y+942080D01*
X-80250Y+926840D01*
X-80250Y+911600D01*
X-96125Y+896360D01*
X-175500Y+896360D01*
X-96125Y+896360D02*
X-80250Y+881120D01*
X-80250Y+850640D01*
X-48500Y+942080D02*
X-48500Y+850640D01*
X+46750Y+850640D01*
X+110250Y+911600D02*
X+142000Y+942080D01*
X+142000Y+850640D01*
X+1655699Y+2640000D02*
X+2605699Y+2640000D01*
X+2605699Y+3180000D01*
X+1655699Y+3180000D01*
X+1655699Y+2640000D01*
X+1855699Y+3180000D02*
X+1855699Y+2640000D01*
X+1655699Y+2910000D02*
X+1505699Y+2910000D01*
X+2605699Y+2910000D02*
X+2755699Y+2910000D01*
X+2003699Y+3220640D02*
X+2003699Y+3312080D01*
X+2067199Y+3312080D01*
X+2098949Y+3281600D01*
X+2098949Y+3251120D01*
X+2067199Y+3220640D01*
X+2003699Y+3220640D01*
X+2162449Y+3281600D02*
X+2194199Y+3312080D01*
X+2194199Y+3220640D01*
X-4630000Y+2070000D02*
X-4090000Y+2070000D01*
X-4090000Y+3020000D01*
X-4630000Y+3020000D01*
X-4630000Y+2070000D01*
X-4630000Y+2270000D02*
X-4090000Y+2270000D01*
X-4360000Y+2070000D02*
X-4360000Y+1920000D01*
X-4360000Y+3020000D02*
X-4360000Y+3170000D01*
X-4670640Y+2418000D02*
X-4762080Y+2418000D01*
X-4762080Y+2481500D01*
X-4731600Y+2513250D01*
X-4701120Y+2513250D01*
X-4670640Y+2481500D01*
X-4670640Y+2418000D01*
X-4746840Y+2560875D02*
X-4762080Y+2576750D01*
X-4762080Y+2624375D01*
X-4746840Y+2640250D01*
X-4731600Y+2640250D01*
X-4716360Y+2624375D01*
X-4701120Y+2640250D01*
X-4685880Y+2640250D01*
X-4670640Y+2624375D01*
X-4670640Y+2576750D01*
X-4685880Y+2560875D01*
X-4716360Y+2592625D02*
X-4716360Y+2624375D01*
D20*
X-1150000Y-2975000D02*
X-1152278Y-2914668D01*
X-1170744Y-2794003D01*
X-1209055Y-2673338D01*
X-1270559Y-2552673D01*
X-1362497Y-2432008D01*
X-1482286Y-2325967D01*
X-1602951Y-2254197D01*
X-1723616Y-2207699D01*
X-1844281Y-2182016D01*
X-1950000Y-2175000D01*
X-2750000Y-2975000D02*
X-2747722Y-2914668D01*
X-2729256Y-2794003D01*
X-2690945Y-2673338D01*
X-2629441Y-2552673D01*
X-2537503Y-2432008D01*
X-2417714Y-2325967D01*
X-2297049Y-2254197D01*
X-2176384Y-2207699D01*
X-2055719Y-2182016D01*
X-1950000Y-2175000D01*
X-2750000Y-2975000D02*
X-2747722Y-3035332D01*
X-2729256Y-3155997D01*
X-2690945Y-3276662D01*
X-2629441Y-3397327D01*
X-2537503Y-3517992D01*
X-2417714Y-3624033D01*
X-2297049Y-3695803D01*
X-2176384Y-3742301D01*
X-2055719Y-3767984D01*
X-1950000Y-3775000D01*
X-1150000Y-2975000D02*
X-1152278Y-3035332D01*
X-1170744Y-3155997D01*
X-1209055Y-3276662D01*
X-1270559Y-3397327D01*
X-1362497Y-3517992D01*
X-1482286Y-3624033D01*
X-1602951Y-3695803D01*
X-1723616Y-3742301D01*
X-1844281Y-3767984D01*
X-1950000Y-3775000D01*
D21*
X-1352000Y-2387000D02*
X-1352035Y-2386169D01*
X-1352316Y-2384505D01*
X-1352906Y-2382841D01*
X-1353870Y-2381177D01*
X-1355345Y-2379536D01*
X-1357009Y-2378335D01*
X-1358673Y-2377570D01*
X-1360337Y-2377139D01*
X-1362000Y-2377000D01*
X-1372000Y-2387000D02*
X-1371965Y-2386169D01*
X-1371684Y-2384505D01*
X-1371094Y-2382841D01*
X-1370130Y-2381177D01*
X-1368655Y-2379536D01*
X-1366991Y-2378335D01*
X-1365327Y-2377570D01*
X-1363663Y-2377139D01*
X-1362000Y-2377000D01*
X-1372000Y-2387000D02*
X-1371965Y-2387831D01*
X-1371684Y-2389495D01*
X-1371094Y-2391159D01*
X-1370130Y-2392823D01*
X-1368655Y-2394464D01*
X-1366991Y-2395665D01*
X-1365327Y-2396430D01*
X-1363663Y-2396861D01*
X-1362000Y-2397000D01*
X-1352000Y-2387000D02*
X-1352035Y-2387831D01*
X-1352316Y-2389495D01*
X-1352906Y-2391159D01*
X-1353870Y-2392823D01*
X-1355345Y-2394464D01*
X-1357009Y-2395665D01*
X-1358673Y-2396430D01*
X-1360337Y-2396861D01*
X-1362000Y-2397000D01*
D16*
X-1037320Y-3006750D02*
X-1022080Y-3022625D01*
X-1022080Y-3070250D01*
X-1052560Y-3102000D01*
X-1083040Y-3102000D01*
X-1113520Y-3070250D01*
X-1113520Y-3022625D01*
X-1098280Y-3006750D01*
X-1098280Y-2959125D02*
X-1113520Y-2943250D01*
X-1113520Y-2895625D01*
X-1098280Y-2879750D01*
X-1083040Y-2879750D01*
X-1067800Y-2895625D01*
X-1067800Y-2943250D01*
X-1052560Y-2959125D01*
X-1022080Y-2959125D01*
X-1022080Y-2879750D01*
D20*
X+800000Y-2975000D02*
X+797722Y-2914668D01*
X+779256Y-2794003D01*
X+740945Y-2673338D01*
X+679441Y-2552673D01*
X+587503Y-2432008D01*
X+467714Y-2325967D01*
X+347049Y-2254197D01*
X+226384Y-2207699D01*
X+105719Y-2182016D01*
X+0Y-2175000D01*
X-800000Y-2975000D02*
X-797722Y-2914668D01*
X-779256Y-2794003D01*
X-740945Y-2673338D01*
X-679441Y-2552673D01*
X-587503Y-2432008D01*
X-467714Y-2325967D01*
X-347049Y-2254197D01*
X-226384Y-2207699D01*
X-105719Y-2182016D01*
X+0Y-2175000D01*
X-800000Y-2975000D02*
X-797722Y-3035332D01*
X-779256Y-3155997D01*
X-740945Y-3276662D01*
X-679441Y-3397327D01*
X-587503Y-3517992D01*
X-467714Y-3624033D01*
X-347049Y-3695803D01*
X-226384Y-3742301D01*
X-105719Y-3767984D01*
X+0Y-3775000D01*
X+800000Y-2975000D02*
X+797722Y-3035332D01*
X+779256Y-3155997D01*
X+740945Y-3276662D01*
X+679441Y-3397327D01*
X+587503Y-3517992D01*
X+467714Y-3624033D01*
X+347049Y-3695803D01*
X+226384Y-3742301D01*
X+105719Y-3767984D01*
X+0Y-3775000D01*
D21*
X+598000Y-2387000D02*
X+597965Y-2386169D01*
X+597684Y-2384505D01*
X+597094Y-2382841D01*
X+596130Y-2381177D01*
X+594655Y-2379536D01*
X+592991Y-2378335D01*
X+591327Y-2377570D01*
X+589663Y-2377139D01*
X+588000Y-2377000D01*
X+578000Y-2387000D02*
X+578035Y-2386169D01*
X+578316Y-2384505D01*
X+578906Y-2382841D01*
X+579870Y-2381177D01*
X+581345Y-2379536D01*
X+583009Y-2378335D01*
X+584673Y-2377570D01*
X+586337Y-2377139D01*
X+588000Y-2377000D01*
X+578000Y-2387000D02*
X+578035Y-2387831D01*
X+578316Y-2389495D01*
X+578906Y-2391159D01*
X+579870Y-2392823D01*
X+581345Y-2394464D01*
X+583009Y-2395665D01*
X+584673Y-2396430D01*
X+586337Y-2396861D01*
X+588000Y-2397000D01*
X+598000Y-2387000D02*
X+597965Y-2387831D01*
X+597684Y-2389495D01*
X+597094Y-2391159D01*
X+596130Y-2392823D01*
X+594655Y-2394464D01*
X+592991Y-2395665D01*
X+591327Y-2396430D01*
X+589663Y-2396861D01*
X+588000Y-2397000D01*
D16*
X+912680Y-3006750D02*
X+927920Y-3022625D01*
X+927920Y-3070250D01*
X+897440Y-3102000D01*
X+866960Y-3102000D01*
X+836480Y-3070250D01*
X+836480Y-3022625D01*
X+851720Y-3006750D01*
X+851720Y-2959125D02*
X+836480Y-2943250D01*
X+836480Y-2895625D01*
X+851720Y-2879750D01*
X+866960Y-2879750D01*
X+882200Y-2895625D01*
X+897440Y-2879750D01*
X+912680Y-2879750D01*
X+927920Y-2895625D01*
X+927920Y-2943250D01*
X+912680Y-2959125D01*
X+882200Y-2927375D02*
X+882200Y-2895625D01*
D20*
X+2700000Y-2975000D02*
X+2697722Y-2914668D01*
X+2679256Y-2794003D01*
X+2640945Y-2673338D01*
X+2579441Y-2552673D01*
X+2487503Y-2432008D01*
X+2367714Y-2325967D01*
X+2247049Y-2254197D01*
X+2126384Y-2207699D01*
X+2005719Y-2182016D01*
X+1900000Y-2175000D01*
X+1100000Y-2975000D02*
X+1102278Y-2914668D01*
X+1120744Y-2794003D01*
X+1159055Y-2673338D01*
X+1220559Y-2552673D01*
X+1312497Y-2432008D01*
X+1432286Y-2325967D01*
X+1552951Y-2254197D01*
X+1673616Y-2207699D01*
X+1794281Y-2182016D01*
X+1900000Y-2175000D01*
X+1100000Y-2975000D02*
X+1102278Y-3035332D01*
X+1120744Y-3155997D01*
X+1159055Y-3276662D01*
X+1220559Y-3397327D01*
X+1312497Y-3517992D01*
X+1432286Y-3624033D01*
X+1552951Y-3695803D01*
X+1673616Y-3742301D01*
X+1794281Y-3767984D01*
X+1900000Y-3775000D01*
X+2700000Y-2975000D02*
X+2697722Y-3035332D01*
X+2679256Y-3155997D01*
X+2640945Y-3276662D01*
X+2579441Y-3397327D01*
X+2487503Y-3517992D01*
X+2367714Y-3624033D01*
X+2247049Y-3695803D01*
X+2126384Y-3742301D01*
X+2005719Y-3767984D01*
X+1900000Y-3775000D01*
D21*
X+2498000Y-2387000D02*
X+2497965Y-2386169D01*
X+2497684Y-2384505D01*
X+2497094Y-2382841D01*
X+2496130Y-2381177D01*
X+2494655Y-2379536D01*
X+2492991Y-2378335D01*
X+2491327Y-2377570D01*
X+2489663Y-2377139D01*
X+2488000Y-2377000D01*
X+2478000Y-2387000D02*
X+2478035Y-2386169D01*
X+2478316Y-2384505D01*
X+2478906Y-2382841D01*
X+2479870Y-2381177D01*
X+2481345Y-2379536D01*
X+2483009Y-2378335D01*
X+2484673Y-2377570D01*
X+2486337Y-2377139D01*
X+2488000Y-2377000D01*
X+2478000Y-2387000D02*
X+2478035Y-2387831D01*
X+2478316Y-2389495D01*
X+2478906Y-2391159D01*
X+2479870Y-2392823D01*
X+2481345Y-2394464D01*
X+2483009Y-2395665D01*
X+2484673Y-2396430D01*
X+2486337Y-2396861D01*
X+2488000Y-2397000D01*
X+2498000Y-2387000D02*
X+2497965Y-2387831D01*
X+2497684Y-2389495D01*
X+2497094Y-2391159D01*
X+2496130Y-2392823D01*
X+2494655Y-2394464D01*
X+2492991Y-2395665D01*
X+2491327Y-2396430D01*
X+2489663Y-2396861D01*
X+2488000Y-2397000D01*
D16*
X+2812680Y-3006750D02*
X+2827920Y-3022625D01*
X+2827920Y-3070250D01*
X+2797440Y-3102000D01*
X+2766960Y-3102000D01*
X+2736480Y-3070250D01*
X+2736480Y-3022625D01*
X+2751720Y-3006750D01*
X+2797440Y-2879750D02*
X+2797440Y-2975000D01*
X+2736480Y-2911500D01*
X+2827920Y-2911500D01*
X+4992476Y+3899524D02*
X+3976476Y+3899524D01*
X+4992476Y+2883524D02*
X+3976476Y+2883524D01*
X+3976476Y+3899524D02*
X+3976476Y+2883524D01*
X+4992476Y+3899524D02*
X+4992476Y+2883524D01*
X+5094076Y+3264524D02*
X+5109316Y+3264524D01*
X+5124556Y+3280399D01*
X+5124556Y+3343899D01*
X+5109316Y+3359774D01*
X+5033116Y+3359774D01*
X+5048356Y+3407399D02*
X+5033116Y+3423274D01*
X+5033116Y+3470899D01*
X+5048356Y+3486774D01*
X+5063596Y+3486774D01*
X+5078836Y+3470899D01*
X+5078836Y+3423274D01*
X+5094076Y+3407399D01*
X+5124556Y+3407399D01*
X+5124556Y+3486774D01*
X-5008000Y-3762000D02*
X-3992000Y-3762000D01*
X-5008000Y-2746000D02*
X-3992000Y-2746000D01*
X-3992000Y-3762000D02*
X-3992000Y-2746000D01*
X-5008000Y-3762000D02*
X-5008000Y-2746000D01*
X-5079120Y-3381000D02*
X-5063880Y-3381000D01*
X-5048640Y-3365125D01*
X-5048640Y-3301625D01*
X-5063880Y-3285750D01*
X-5140080Y-3285750D01*
X-5109600Y-3222250D02*
X-5140080Y-3190500D01*
X-5048640Y-3190500D01*
X-593000Y+3190000D02*
X-466000Y+3190000D01*
X-466000Y+3126500D02*
X+42000Y+3126500D01*
X+42000Y+3253500D01*
X-466000Y+3253500D01*
X-466000Y+3126500D01*
X+42000Y+3190000D02*
X+169000Y+3190000D01*
X-339000Y+3294140D02*
X-339000Y+3385580D01*
X-259625Y+3385580D01*
X-243750Y+3370340D01*
X-243750Y+3355100D01*
X-259625Y+3339860D01*
X-339000Y+3339860D01*
X-259625Y+3339860D02*
X-243750Y+3324620D01*
X-243750Y+3294140D01*
X-180250Y+3355100D02*
X-148500Y+3385580D01*
X-148500Y+3294140D01*
X-2347600Y+1700000D02*
X-2246000Y+1700000D01*
X-2246000Y+1446000D02*
X+1818000Y+1446000D01*
X+1818000Y+1954000D01*
X-2246000Y+1954000D01*
X-2246000Y+1446000D01*
X+1818000Y+1700000D02*
X+1919600Y+1700000D01*
X-341000Y+1994640D02*
X-341000Y+2086080D01*
X-261625Y+2086080D01*
X-245750Y+2070840D01*
X-245750Y+2055600D01*
X-261625Y+2040360D01*
X-341000Y+2040360D01*
X-261625Y+2040360D02*
X-245750Y+2025120D01*
X-245750Y+1994640D01*
X-198125Y+2070840D02*
X-182250Y+2086080D01*
X-134625Y+2086080D01*
X-118750Y+2070840D01*
X-118750Y+2055600D01*
X-134625Y+2040360D01*
X-182250Y+2040360D01*
X-198125Y+2025120D01*
X-198125Y+1994640D01*
X-118750Y+1994640D01*
X-1413000Y-1640000D02*
X-1286000Y-1640000D01*
X-1286000Y-1894000D02*
X+1254000Y-1894000D01*
X+1254000Y-1386000D01*
X-1286000Y-1386000D01*
X-1286000Y-1894000D01*
X+1254000Y-1640000D02*
X+1381000Y-1640000D01*
X-143000Y-1345360D02*
X-143000Y-1253920D01*
X-63625Y-1253920D01*
X-47750Y-1269160D01*
X-47750Y-1284400D01*
X-63625Y-1299640D01*
X-143000Y-1299640D01*
X-63625Y-1299640D02*
X-47750Y-1314880D01*
X-47750Y-1345360D01*
X-125Y-1269160D02*
X+15750Y-1253920D01*
X+63375Y-1253920D01*
X+79250Y-1269160D01*
X+79250Y-1284400D01*
X+63375Y-1299640D01*
X+79250Y-1314880D01*
X+79250Y-1330120D01*
X+63375Y-1345360D01*
X+15750Y-1345360D01*
X-125Y-1330120D01*
X+31625Y-1299640D02*
X+63375Y-1299640D01*
X+2900000Y-2098000D02*
X+4980000Y-2098000D01*
X+4980000Y+2220000D01*
X+2900000Y+2220000D01*
X+2900000Y-2098000D01*
X+5112080Y-66000D02*
X+5020640Y-66000D01*
X+5066360Y-18375D01*
X+5020640Y+29250D01*
X+5112080Y+29250D01*
X+5051120Y+92750D02*
X+5020640Y+124500D01*
X+5112080Y+124500D01*
X+4988000Y-2776000D02*
X+3972000Y-2776000D01*
X+4988000Y-3792000D02*
X+3972000Y-3792000D01*
X+3972000Y-2776000D02*
X+3972000Y-3792000D01*
X+4988000Y-2776000D02*
X+4988000Y-3792000D01*
X+5089600Y-3411000D02*
X+5104840Y-3411000D01*
X+5120080Y-3395125D01*
X+5120080Y-3331625D01*
X+5104840Y-3315750D01*
X+5028640Y-3315750D01*
X+5043880Y-3268125D02*
X+5028640Y-3252250D01*
X+5028640Y-3204625D01*
X+5043880Y-3188750D01*
X+5059120Y-3188750D01*
X+5074360Y-3204625D01*
X+5089600Y-3188750D01*
X+5104840Y-3188750D01*
X+5120080Y-3204625D01*
X+5120080Y-3252250D01*
X+5104840Y-3268125D01*
X+5074360Y-3236375D02*
X+5074360Y-3204625D01*
X-2977992Y+2769153D02*
X-1677992Y+2769153D01*
X-1677992Y+3579153D01*
X-2977992Y+3579153D01*
X-2977992Y+2769153D01*
X-6350960Y-4420960D02*
X+5490000Y-4420960D01*
X+5490000Y+4570000D01*
X-6350960Y+4570000D01*
X-6350960Y-4420960D01*
X-747000Y+2550000D02*
X-744448Y+2569720D01*
X-736944Y+2588814D01*
X-724715Y+2607195D01*
X-707987Y+2624771D01*
X-661944Y+2657156D01*
X-600632Y+2685255D01*
X-525866Y+2708353D01*
X-439462Y+2725736D01*
X-343234Y+2736690D01*
X-239000Y+2740500D01*
X+269000Y+2550000D02*
X+266420Y+2569720D01*
X+258840Y+2588814D01*
X+246497Y+2607195D01*
X+229630Y+2624771D01*
X+183275Y+2657156D01*
X+121680Y+2685255D01*
X+46750Y+2708353D01*
X-39610Y+2725736D01*
X-135495Y+2736690D01*
X-239000Y+2740500D01*
X+269000Y+2550000D02*
X+266420Y+2530280D01*
X+258840Y+2511186D01*
X+246497Y+2492805D01*
X+229630Y+2475229D01*
X+183275Y+2442844D01*
X+121680Y+2414745D01*
X+46750Y+2391647D01*
X-39610Y+2374264D01*
X-135495Y+2363310D01*
X-239000Y+2359500D01*
X-747000Y+2550000D02*
X-744448Y+2530280D01*
X-736944Y+2511186D01*
X-724715Y+2492805D01*
X-707987Y+2475229D01*
X-661944Y+2442844D01*
X-600632Y+2414745D01*
X-525866Y+2391647D01*
X-439462Y+2374264D01*
X-343234Y+2363310D01*
X-239000Y+2359500D01*
X-270750Y+2796380D02*
X-286625Y+2781140D01*
X-334250Y+2781140D01*
X-366000Y+2811620D01*
X-366000Y+2842100D01*
X-334250Y+2872580D01*
X-286625Y+2872580D01*
X-270750Y+2857340D01*
X-143750Y+2872580D02*
X-223125Y+2872580D01*
X-223125Y+2842100D01*
X-159625Y+2842100D01*
X-143750Y+2826860D01*
X-143750Y+2796380D01*
X-159625Y+2781140D01*
X-207250Y+2781140D01*
X-223125Y+2796380D01*
X-3615470Y-1560000D02*
X-3616268Y-1540257D01*
X-3622752Y-1500770D01*
X-3636282Y-1461283D01*
X-3658271Y-1421796D01*
X-3691873Y-1382438D01*
X-3731360Y-1352042D01*
X-3770847Y-1332301D01*
X-3810334Y-1320567D01*
X-3849821Y-1315682D01*
X-3860000Y-1315470D01*
X-4104530Y-1560000D02*
X-4103732Y-1540257D01*
X-4097248Y-1500770D01*
X-4083718Y-1461283D01*
X-4061729Y-1421796D01*
X-4028127Y-1382438D01*
X-3988640Y-1352042D01*
X-3949153Y-1332301D01*
X-3909666Y-1320567D01*
X-3870179Y-1315682D01*
X-3860000Y-1315470D01*
X-4104530Y-1560000D02*
X-4103732Y-1579743D01*
X-4097248Y-1619230D01*
X-4083718Y-1658717D01*
X-4061729Y-1698204D01*
X-4028127Y-1737562D01*
X-3988640Y-1767958D01*
X-3949153Y-1787699D01*
X-3909666Y-1799433D01*
X-3870179Y-1804318D01*
X-3860000Y-1804530D01*
X-3615470Y-1560000D02*
X-3616268Y-1579743D01*
X-3622752Y-1619230D01*
X-3636282Y-1658717D01*
X-3658271Y-1698204D01*
X-3691873Y-1737562D01*
X-3731360Y-1767958D01*
X-3770847Y-1787699D01*
X-3810334Y-1799433D01*
X-3849821Y-1804318D01*
X-3860000Y-1804530D01*
X-3977475Y-1274830D02*
X-3977475Y-1183390D01*
X-3913975Y-1183390D01*
X-3882225Y-1213870D01*
X-3882225Y-1244350D01*
X-3913975Y-1274830D01*
X-3977475Y-1274830D01*
X-3755225Y-1244350D02*
X-3850475Y-1244350D01*
X-3786975Y-1183390D01*
X-3786975Y-1274830D01*
X-3615470Y-2240000D02*
X-3616268Y-2220257D01*
X-3622752Y-2180770D01*
X-3636282Y-2141283D01*
X-3658271Y-2101796D01*
X-3691873Y-2062438D01*
X-3731360Y-2032042D01*
X-3770847Y-2012301D01*
X-3810334Y-2000567D01*
X-3849821Y-1995682D01*
X-3860000Y-1995470D01*
X-4104530Y-2240000D02*
X-4103732Y-2220257D01*
X-4097248Y-2180770D01*
X-4083718Y-2141283D01*
X-4061729Y-2101796D01*
X-4028127Y-2062438D01*
X-3988640Y-2032042D01*
X-3949153Y-2012301D01*
X-3909666Y-2000567D01*
X-3870179Y-1995682D01*
X-3860000Y-1995470D01*
X-4104530Y-2240000D02*
X-4103732Y-2259743D01*
X-4097248Y-2299230D01*
X-4083718Y-2338717D01*
X-4061729Y-2378204D01*
X-4028127Y-2417562D01*
X-3988640Y-2447958D01*
X-3949153Y-2467699D01*
X-3909666Y-2479433D01*
X-3870179Y-2484318D01*
X-3860000Y-2484530D01*
X-3615470Y-2240000D02*
X-3616268Y-2259743D01*
X-3622752Y-2299230D01*
X-3636282Y-2338717D01*
X-3658271Y-2378204D01*
X-3691873Y-2417562D01*
X-3731360Y-2447958D01*
X-3770847Y-2467699D01*
X-3810334Y-2479433D01*
X-3849821Y-2484318D01*
X-3860000Y-2484530D01*
X-3977475Y-1954830D02*
X-3977475Y-1863390D01*
X-3913975Y-1863390D01*
X-3882225Y-1893870D01*
X-3882225Y-1924350D01*
X-3913975Y-1954830D01*
X-3977475Y-1954830D01*
X-3755225Y-1863390D02*
X-3834600Y-1863390D01*
X-3834600Y-1893870D01*
X-3771100Y-1893870D01*
X-3755225Y-1909110D01*
X-3755225Y-1939590D01*
X-3771100Y-1954830D01*
X-3818725Y-1954830D01*
X-3834600Y-1939590D01*
X-3409000Y-180000D02*
X-3282000Y-180000D01*
X-3282000Y-243500D02*
X-2774000Y-243500D01*
X-2774000Y-116500D01*
X-3282000Y-116500D01*
X-3282000Y-243500D01*
X-2774000Y-180000D02*
X-2647000Y-180000D01*
X-3155000Y-75860D02*
X-3155000Y+15580D01*
X-3075625Y+15580D01*
X-3059750Y+340D01*
X-3059750Y-14900D01*
X-3075625Y-30140D01*
X-3155000Y-30140D01*
X-3075625Y-30140D02*
X-3059750Y-45380D01*
X-3059750Y-75860D01*
X-2932750Y-45380D02*
X-3028000Y-45380D01*
X-2964500Y+15580D01*
X-2964500Y-75860D01*
X-3409000Y-510000D02*
X-3282000Y-510000D01*
X-3282000Y-573500D02*
X-2774000Y-573500D01*
X-2774000Y-446500D01*
X-3282000Y-446500D01*
X-3282000Y-573500D01*
X-2774000Y-510000D02*
X-2647000Y-510000D01*
X-3155000Y-405860D02*
X-3155000Y-314420D01*
X-3075625Y-314420D01*
X-3059750Y-329660D01*
X-3059750Y-344900D01*
X-3075625Y-360140D01*
X-3155000Y-360140D01*
X-3075625Y-360140D02*
X-3059750Y-375380D01*
X-3059750Y-405860D01*
X-2932750Y-314420D02*
X-3012125Y-314420D01*
X-3012125Y-344900D01*
X-2948625Y-344900D01*
X-2932750Y-360140D01*
X-2932750Y-390620D01*
X-2948625Y-405860D01*
X-2996250Y-405860D01*
X-3012125Y-390620D01*
X-3403000Y-860000D02*
X-3276000Y-860000D01*
X-3276000Y-923500D02*
X-2768000Y-923500D01*
X-2768000Y-796500D01*
X-3276000Y-796500D01*
X-3276000Y-923500D01*
X-2768000Y-860000D02*
X-2641000Y-860000D01*
X-3149000Y-755860D02*
X-3149000Y-664420D01*
X-3069625Y-664420D01*
X-3053750Y-679660D01*
X-3053750Y-694900D01*
X-3069625Y-710140D01*
X-3149000Y-710140D01*
X-3069625Y-710140D02*
X-3053750Y-725380D01*
X-3053750Y-755860D01*
X-2990250Y-710140D02*
X-3006125Y-694900D01*
X-3006125Y-679660D01*
X-2990250Y-664420D01*
X-2942625Y-664420D01*
X-2926750Y-679660D01*
X-2926750Y-694900D01*
X-2942625Y-710140D01*
X-2990250Y-710140D01*
X-3006125Y-725380D01*
X-3006125Y-740620D01*
X-2990250Y-755860D01*
X-2942625Y-755860D01*
X-2926750Y-740620D01*
X-2926750Y-725380D01*
X-2942625Y-710140D01*
X-223000Y-1100000D02*
X-96000Y-1100000D01*
X-96000Y-1163500D02*
X+412000Y-1163500D01*
X+412000Y-1036500D01*
X-96000Y-1036500D01*
X-96000Y-1163500D01*
X+412000Y-1100000D02*
X+539000Y-1100000D01*
X+31000Y-995860D02*
X+31000Y-904420D01*
X+110375Y-904420D01*
X+126250Y-919660D01*
X+126250Y-934900D01*
X+110375Y-950140D01*
X+31000Y-950140D01*
X+110375Y-950140D02*
X+126250Y-965380D01*
X+126250Y-995860D01*
X+253250Y-934900D02*
X+237375Y-950140D01*
X+189750Y-950140D01*
X+173875Y-934900D01*
X+173875Y-919660D01*
X+189750Y-904420D01*
X+237375Y-904420D01*
X+253250Y-919660D01*
X+253250Y-980620D01*
X+237375Y-995860D01*
X+189750Y-995860D01*
X-2047000Y-809500D02*
X-2047000Y-1190500D01*
X-1920000Y-758700D02*
X-1943688Y-760883D01*
X-1966633Y-766638D01*
X-2007312Y-784100D01*
X-2047000Y-809500D01*
X-1920000Y-758700D02*
X-1868065Y-759562D01*
X-1820037Y-770954D01*
X-1776846Y-791796D01*
X-1739422Y-821009D01*
X-1708695Y-857516D01*
X-1685596Y-900236D01*
X-1671054Y-948090D01*
X-1666000Y-1000000D01*
X-1920000Y-1241300D02*
X-1943688Y-1239117D01*
X-1966633Y-1233362D01*
X-2007312Y-1215900D01*
X-2047000Y-1190500D01*
X-1920000Y-1241300D02*
X-1868065Y-1240438D01*
X-1820037Y-1229046D01*
X-1776846Y-1208204D01*
X-1739422Y-1178991D01*
X-1708695Y-1142484D01*
X-1685596Y-1099764D01*
X-1671054Y-1051910D01*
X-1666000Y-1000000D01*
X-1952480Y-644400D02*
X-1920730Y-613920D01*
X-1888980Y-613920D01*
X-1857230Y-644400D01*
X-1857230Y-674880D01*
X-1888980Y-705360D01*
X-1920730Y-705360D01*
X-1952480Y-674880D01*
X-1952480Y-644400D01*
X-1888980Y-674880D02*
X-1857230Y-705360D01*
X-1809605Y-629160D02*
X-1793730Y-613920D01*
X-1746105Y-613920D01*
X-1730230Y-629160D01*
X-1730230Y-644400D01*
X-1746105Y-659640D01*
X-1793730Y-659640D01*
X-1809605Y-674880D01*
X-1809605Y-705360D01*
X-1730230Y-705360D01*
M02*
