G04 PROTEUS RS274X GERBER FILE*
%FSLAX45Y45*%
%MOMM*%
G01*
%ADD16C,0.203200*%
%ADD39C,0.127000*%
%ADD40C,0.063500*%
D16*
X-4750000Y+831500D02*
X-4750000Y+704500D01*
X-4813500Y+768000D02*
X-4686500Y+768000D01*
X-4750000Y-692500D02*
X-4750000Y-819500D01*
X-4813500Y-756000D02*
X-4686500Y-756000D01*
X-4750000Y+323500D02*
X-4750000Y+196500D01*
X-4813500Y+260000D02*
X-4686500Y+260000D01*
X-4750000Y-184500D02*
X-4750000Y-311500D01*
X-4813500Y-248000D02*
X-4686500Y-248000D01*
X-1920000Y+223500D02*
X-1920000Y+96500D01*
X-1983500Y+160000D02*
X-1856500Y+160000D01*
X-1964901Y-145099D02*
X-1875099Y-234901D01*
X-1964901Y-234901D02*
X-1875099Y-145099D01*
X-464000Y+3783500D02*
X-464000Y+3656500D01*
X-527500Y+3720000D02*
X-400500Y+3720000D01*
X-210000Y+3783500D02*
X-210000Y+3656500D01*
X-273500Y+3720000D02*
X-146500Y+3720000D01*
X+44000Y+3783500D02*
X+44000Y+3656500D01*
X-19500Y+3720000D02*
X+107500Y+3720000D01*
X-3541703Y+684901D02*
X-3451901Y+595099D01*
X-3541703Y+595099D02*
X-3451901Y+684901D01*
X-2525703Y+684901D02*
X-2435901Y+595099D01*
X-2525703Y+595099D02*
X-2435901Y+684901D01*
X-510000Y+653500D02*
X-510000Y+526500D01*
X-573500Y+590000D02*
X-446500Y+590000D01*
X-510000Y-546500D02*
X-510000Y-673500D01*
X-573500Y-610000D02*
X-446500Y-610000D01*
X-910000Y+53500D02*
X-910000Y-73500D01*
X-973500Y-10000D02*
X-846500Y-10000D01*
X+890000Y-546500D02*
X+890000Y-673500D01*
X+826500Y-610000D02*
X+953500Y-610000D01*
X+890000Y+653500D02*
X+890000Y+526500D01*
X+826500Y+590000D02*
X+953500Y+590000D01*
X+3005699Y+2973500D02*
X+3005699Y+2846500D01*
X+2942199Y+2910000D02*
X+3069199Y+2910000D01*
X+1255699Y+2973500D02*
X+1255699Y+2846500D01*
X+1192199Y+2910000D02*
X+1319199Y+2910000D01*
X-4360000Y+3483500D02*
X-4360000Y+3356500D01*
X-4423500Y+3420000D02*
X-4296500Y+3420000D01*
X-4360000Y+1733500D02*
X-4360000Y+1606500D01*
X-4423500Y+1670000D02*
X-4296500Y+1670000D01*
X-1950000Y-2536500D02*
X-1950000Y-2663500D01*
X-2013500Y-2600000D02*
X-1886500Y-2600000D01*
X-1994901Y-2555099D02*
X-1905099Y-2644901D01*
X-1994901Y-2644901D02*
X-1905099Y-2555099D01*
X-1950000Y-3286500D02*
X-1950000Y-3413500D01*
X-2013500Y-3350000D02*
X-1886500Y-3350000D01*
X+0Y-2536500D02*
X+0Y-2663500D01*
X-63500Y-2600000D02*
X+63500Y-2600000D01*
X-44901Y-2555099D02*
X+44901Y-2644901D01*
X-44901Y-2644901D02*
X+44901Y-2555099D01*
X+0Y-3286500D02*
X+0Y-3413500D01*
X-63500Y-3350000D02*
X+63500Y-3350000D01*
X+1900000Y-2536500D02*
X+1900000Y-2663500D01*
X+1836500Y-2600000D02*
X+1963500Y-2600000D01*
X+1855099Y-2555099D02*
X+1944901Y-2644901D01*
X+1855099Y-2644901D02*
X+1944901Y-2555099D01*
X+1900000Y-3286500D02*
X+1900000Y-3413500D01*
X+1836500Y-3350000D02*
X+1963500Y-3350000D01*
X+4484476Y+3709024D02*
X+4484476Y+3582024D01*
X+4420976Y+3645524D02*
X+4547976Y+3645524D01*
X+4484476Y+3201024D02*
X+4484476Y+3074024D01*
X+4420976Y+3137524D02*
X+4547976Y+3137524D01*
X-4500000Y-3444500D02*
X-4500000Y-3571500D01*
X-4563500Y-3508000D02*
X-4436500Y-3508000D01*
X-4500000Y-2936500D02*
X-4500000Y-3063500D01*
X-4563500Y-3000000D02*
X-4436500Y-3000000D01*
X-764901Y+3234901D02*
X-675099Y+3145099D01*
X-764901Y+3145099D02*
X-675099Y+3234901D01*
X+251099Y+3234901D02*
X+340901Y+3145099D01*
X+251099Y+3145099D02*
X+340901Y+3234901D01*
X-2500000Y+1763500D02*
X-2500000Y+1636500D01*
X-2563500Y+1700000D02*
X-2436500Y+1700000D01*
X+2072000Y+1763500D02*
X+2072000Y+1636500D01*
X+2008500Y+1700000D02*
X+2135500Y+1700000D01*
X-1540000Y-1576500D02*
X-1540000Y-1703500D01*
X-1603500Y-1640000D02*
X-1476500Y-1640000D01*
X+1508000Y-1576500D02*
X+1508000Y-1703500D01*
X+1444500Y-1640000D02*
X+1571500Y-1640000D01*
X+4790000Y+2103500D02*
X+4790000Y+1976500D01*
X+4726500Y+2040000D02*
X+4853500Y+2040000D01*
X+4745099Y+2084901D02*
X+4834901Y+1995099D01*
X+4745099Y+1995099D02*
X+4834901Y+2084901D01*
X+3090000Y+2103500D02*
X+3090000Y+1976500D01*
X+3026500Y+2040000D02*
X+3153500Y+2040000D01*
X+3045099Y+2084901D02*
X+3134901Y+1995099D01*
X+3045099Y+1995099D02*
X+3134901Y+2084901D01*
X+4790000Y-1846500D02*
X+4790000Y-1973500D01*
X+4726500Y-1910000D02*
X+4853500Y-1910000D01*
X+4745099Y-1865099D02*
X+4834901Y-1954901D01*
X+4745099Y-1954901D02*
X+4834901Y-1865099D01*
X+3090000Y-1846500D02*
X+3090000Y-1973500D01*
X+3026500Y-1910000D02*
X+3153500Y-1910000D01*
X+3045099Y-1865099D02*
X+3134901Y-1954901D01*
X+3045099Y-1954901D02*
X+3134901Y-1865099D01*
X+4480000Y-2966500D02*
X+4480000Y-3093500D01*
X+4416500Y-3030000D02*
X+4543500Y-3030000D01*
X+4480000Y-3474500D02*
X+4480000Y-3601500D01*
X+4416500Y-3538000D02*
X+4543500Y-3538000D01*
X-2872893Y+2964054D02*
X-2783091Y+2874252D01*
X-2872893Y+2874252D02*
X-2783091Y+2964054D01*
X-2872893Y+3474054D02*
X-2783091Y+3384252D01*
X-2872893Y+3384252D02*
X-2783091Y+3474054D01*
X-1874901Y+3224054D02*
X-1785099Y+3134252D01*
X-1874901Y+3134252D02*
X-1785099Y+3224054D01*
X-664901Y+2594901D02*
X-575099Y+2505099D01*
X-664901Y+2505099D02*
X-575099Y+2594901D01*
X+97099Y+2594901D02*
X+186901Y+2505099D01*
X+97099Y+2505099D02*
X+186901Y+2594901D01*
X-3664901Y-1515099D02*
X-3575099Y-1604901D01*
X-3664901Y-1604901D02*
X-3575099Y-1515099D01*
X-4100000Y-1496500D02*
X-4100000Y-1623500D01*
X-4163500Y-1560000D02*
X-4036500Y-1560000D01*
X-3664901Y-2195099D02*
X-3575099Y-2284901D01*
X-3664901Y-2284901D02*
X-3575099Y-2195099D01*
X-4100000Y-2176500D02*
X-4100000Y-2303500D01*
X-4163500Y-2240000D02*
X-4036500Y-2240000D01*
X-3580901Y-135099D02*
X-3491099Y-224901D01*
X-3580901Y-224901D02*
X-3491099Y-135099D01*
X-2564901Y-135099D02*
X-2475099Y-224901D01*
X-2564901Y-224901D02*
X-2475099Y-135099D01*
X-3580901Y-465099D02*
X-3491099Y-554901D01*
X-3580901Y-554901D02*
X-3491099Y-465099D01*
X-2564901Y-465099D02*
X-2475099Y-554901D01*
X-2564901Y-554901D02*
X-2475099Y-465099D01*
X-3574901Y-815099D02*
X-3485099Y-904901D01*
X-3574901Y-904901D02*
X-3485099Y-815099D01*
X-2558901Y-815099D02*
X-2469099Y-904901D01*
X-2558901Y-904901D02*
X-2469099Y-815099D01*
X-394901Y-1055099D02*
X-305099Y-1144901D01*
X-394901Y-1144901D02*
X-305099Y-1055099D01*
X+621099Y-1055099D02*
X+710901Y-1144901D01*
X+621099Y-1144901D02*
X+710901Y-1055099D01*
X-1964901Y-708099D02*
X-1875099Y-797901D01*
X-1964901Y-797901D02*
X-1875099Y-708099D01*
X-1714901Y-958099D02*
X-1625099Y-1047901D01*
X-1714901Y-1047901D02*
X-1625099Y-958099D01*
X-1964901Y-1198099D02*
X-1875099Y-1287901D01*
X-1964901Y-1287901D02*
X-1875099Y-1198099D01*
X-5636500Y+3900000D02*
X-5636717Y+3905247D01*
X-5638482Y+3915742D01*
X-5642174Y+3926237D01*
X-5648202Y+3936732D01*
X-5657424Y+3947112D01*
X-5667919Y+3954800D01*
X-5678414Y+3959718D01*
X-5688909Y+3962524D01*
X-5699404Y+3963497D01*
X-5700000Y+3963500D01*
X-5763500Y+3900000D02*
X-5763283Y+3905247D01*
X-5761518Y+3915742D01*
X-5757826Y+3926237D01*
X-5751798Y+3936732D01*
X-5742576Y+3947112D01*
X-5732081Y+3954800D01*
X-5721586Y+3959718D01*
X-5711091Y+3962524D01*
X-5700596Y+3963497D01*
X-5700000Y+3963500D01*
X-5763500Y+3900000D02*
X-5763283Y+3894753D01*
X-5761518Y+3884258D01*
X-5757826Y+3873763D01*
X-5751798Y+3863268D01*
X-5742576Y+3852888D01*
X-5732081Y+3845200D01*
X-5721586Y+3840282D01*
X-5711091Y+3837476D01*
X-5700596Y+3836503D01*
X-5700000Y+3836500D01*
X-5636500Y+3900000D02*
X-5636717Y+3894753D01*
X-5638482Y+3884258D01*
X-5642174Y+3873763D01*
X-5648202Y+3863268D01*
X-5657424Y+3852888D01*
X-5667919Y+3845200D01*
X-5678414Y+3840282D01*
X-5688909Y+3837476D01*
X-5699404Y+3836503D01*
X-5700000Y+3836500D01*
X-5700000Y+3963500D02*
X-5700000Y+3836500D01*
X-5763500Y+3900000D02*
X-5636500Y+3900000D01*
X+1363500Y+3900000D02*
X+1363283Y+3905247D01*
X+1361518Y+3915742D01*
X+1357826Y+3926237D01*
X+1351798Y+3936732D01*
X+1342576Y+3947112D01*
X+1332081Y+3954800D01*
X+1321586Y+3959718D01*
X+1311091Y+3962524D01*
X+1300596Y+3963497D01*
X+1300000Y+3963500D01*
X+1236500Y+3900000D02*
X+1236717Y+3905247D01*
X+1238482Y+3915742D01*
X+1242174Y+3926237D01*
X+1248202Y+3936732D01*
X+1257424Y+3947112D01*
X+1267919Y+3954800D01*
X+1278414Y+3959718D01*
X+1288909Y+3962524D01*
X+1299404Y+3963497D01*
X+1300000Y+3963500D01*
X+1236500Y+3900000D02*
X+1236717Y+3894753D01*
X+1238482Y+3884258D01*
X+1242174Y+3873763D01*
X+1248202Y+3863268D01*
X+1257424Y+3852888D01*
X+1267919Y+3845200D01*
X+1278414Y+3840282D01*
X+1288909Y+3837476D01*
X+1299404Y+3836503D01*
X+1300000Y+3836500D01*
X+1363500Y+3900000D02*
X+1363283Y+3894753D01*
X+1361518Y+3884258D01*
X+1357826Y+3873763D01*
X+1351798Y+3863268D01*
X+1342576Y+3852888D01*
X+1332081Y+3845200D01*
X+1321586Y+3840282D01*
X+1311091Y+3837476D01*
X+1300596Y+3836503D01*
X+1300000Y+3836500D01*
X+1300000Y+3963500D02*
X+1300000Y+3836500D01*
X+1236500Y+3900000D02*
X+1363500Y+3900000D01*
X+3363500Y-3700000D02*
X+3363283Y-3694753D01*
X+3361518Y-3684258D01*
X+3357826Y-3673763D01*
X+3351798Y-3663268D01*
X+3342576Y-3652888D01*
X+3332081Y-3645200D01*
X+3321586Y-3640282D01*
X+3311091Y-3637476D01*
X+3300596Y-3636503D01*
X+3300000Y-3636500D01*
X+3236500Y-3700000D02*
X+3236717Y-3694753D01*
X+3238482Y-3684258D01*
X+3242174Y-3673763D01*
X+3248202Y-3663268D01*
X+3257424Y-3652888D01*
X+3267919Y-3645200D01*
X+3278414Y-3640282D01*
X+3288909Y-3637476D01*
X+3299404Y-3636503D01*
X+3300000Y-3636500D01*
X+3236500Y-3700000D02*
X+3236717Y-3705247D01*
X+3238482Y-3715742D01*
X+3242174Y-3726237D01*
X+3248202Y-3736732D01*
X+3257424Y-3747112D01*
X+3267919Y-3754800D01*
X+3278414Y-3759718D01*
X+3288909Y-3762524D01*
X+3299404Y-3763497D01*
X+3300000Y-3763500D01*
X+3363500Y-3700000D02*
X+3363283Y-3705247D01*
X+3361518Y-3715742D01*
X+3357826Y-3726237D01*
X+3351798Y-3736732D01*
X+3342576Y-3747112D01*
X+3332081Y-3754800D01*
X+3321586Y-3759718D01*
X+3311091Y-3762524D01*
X+3300596Y-3763497D01*
X+3300000Y-3763500D01*
X+3300000Y-3636500D02*
X+3300000Y-3763500D01*
X+3236500Y-3700000D02*
X+3363500Y-3700000D01*
X-3236500Y-3700000D02*
X-3236717Y-3694753D01*
X-3238482Y-3684258D01*
X-3242174Y-3673763D01*
X-3248202Y-3663268D01*
X-3257424Y-3652888D01*
X-3267919Y-3645200D01*
X-3278414Y-3640282D01*
X-3288909Y-3637476D01*
X-3299404Y-3636503D01*
X-3300000Y-3636500D01*
X-3363500Y-3700000D02*
X-3363283Y-3694753D01*
X-3361518Y-3684258D01*
X-3357826Y-3673763D01*
X-3351798Y-3663268D01*
X-3342576Y-3652888D01*
X-3332081Y-3645200D01*
X-3321586Y-3640282D01*
X-3311091Y-3637476D01*
X-3300596Y-3636503D01*
X-3300000Y-3636500D01*
X-3363500Y-3700000D02*
X-3363283Y-3705247D01*
X-3361518Y-3715742D01*
X-3357826Y-3726237D01*
X-3351798Y-3736732D01*
X-3342576Y-3747112D01*
X-3332081Y-3754800D01*
X-3321586Y-3759718D01*
X-3311091Y-3762524D01*
X-3300596Y-3763497D01*
X-3300000Y-3763500D01*
X-3236500Y-3700000D02*
X-3236717Y-3705247D01*
X-3238482Y-3715742D01*
X-3242174Y-3726237D01*
X-3248202Y-3736732D01*
X-3257424Y-3747112D01*
X-3267919Y-3754800D01*
X-3278414Y-3759718D01*
X-3288909Y-3762524D01*
X-3299404Y-3763497D01*
X-3300000Y-3763500D01*
X-3300000Y-3636500D02*
X-3300000Y-3763500D01*
X-3363500Y-3700000D02*
X-3236500Y-3700000D01*
X-6350960Y-4420960D02*
X+5490000Y-4420960D01*
X+5490000Y+4570000D01*
X-6350960Y+4570000D01*
X-6350960Y-4420960D01*
D39*
X-6363660Y-5932260D02*
X-3719520Y-5932260D01*
X-3719520Y-4687660D01*
X-6363660Y-4687660D01*
X-6363660Y-5932260D01*
D40*
X-5896298Y-4687660D02*
X-5896298Y-5932260D01*
X-5083498Y-4687660D02*
X-5083498Y-5932260D01*
X-4250378Y-4687660D02*
X-4250378Y-5932260D01*
X-6363660Y-4960710D02*
X-3719520Y-4960710D01*
X-6363660Y-5202010D02*
X-3719520Y-5202010D01*
X-6363660Y-5443310D02*
X-3719520Y-5443310D01*
X-6363660Y-5684610D02*
X-3719520Y-5684610D01*
D39*
X-6306510Y-4851490D02*
X-6291270Y-4866730D01*
X-6230310Y-4866730D01*
X-6215070Y-4851490D01*
X-6215070Y-4836250D01*
X-6230310Y-4821010D01*
X-6291270Y-4821010D01*
X-6306510Y-4805770D01*
X-6306510Y-4790530D01*
X-6291270Y-4775290D01*
X-6230310Y-4775290D01*
X-6215070Y-4790530D01*
X-6093150Y-4775290D02*
X-6184590Y-4866730D01*
X-6184590Y-4775290D02*
X-6138870Y-4821010D01*
X-6062670Y-4866730D02*
X-6062670Y-4775290D01*
X-6016950Y-4821010D01*
X-5971230Y-4775290D01*
X-5971230Y-4866730D01*
X-5839150Y-4851490D02*
X-5823910Y-4866730D01*
X-5762950Y-4866730D01*
X-5747710Y-4851490D01*
X-5747710Y-4836250D01*
X-5762950Y-4821010D01*
X-5823910Y-4821010D01*
X-5839150Y-4805770D01*
X-5839150Y-4790530D01*
X-5823910Y-4775290D01*
X-5762950Y-4775290D01*
X-5747710Y-4790530D01*
X-5701990Y-4775290D02*
X-5641030Y-4775290D01*
X-5671510Y-4775290D02*
X-5671510Y-4866730D01*
X-5701990Y-4866730D02*
X-5641030Y-4866730D01*
X-5595310Y-4775290D02*
X-5503870Y-4775290D01*
X-5595310Y-4866730D01*
X-5503870Y-4866730D01*
X-5381950Y-4866730D02*
X-5473390Y-4866730D01*
X-5473390Y-4775290D01*
X-5381950Y-4775290D01*
X-5473390Y-4821010D02*
X-5412430Y-4821010D01*
X-5026350Y-4866730D02*
X-5026350Y-4775290D01*
X-4950150Y-4775290D01*
X-4934910Y-4790530D01*
X-4934910Y-4805770D01*
X-4950150Y-4821010D01*
X-5026350Y-4821010D01*
X-4904430Y-4775290D02*
X-4904430Y-4866730D01*
X-4812990Y-4866730D01*
X-4782510Y-4866730D02*
X-4782510Y-4805770D01*
X-4752030Y-4775290D01*
X-4721550Y-4775290D01*
X-4691070Y-4805770D01*
X-4691070Y-4866730D01*
X-4782510Y-4836250D02*
X-4691070Y-4836250D01*
X-4660590Y-4775290D02*
X-4569150Y-4775290D01*
X-4614870Y-4775290D02*
X-4614870Y-4866730D01*
X-4447230Y-4866730D02*
X-4538670Y-4866730D01*
X-4538670Y-4775290D01*
X-4447230Y-4775290D01*
X-4538670Y-4821010D02*
X-4477710Y-4821010D01*
X-4416750Y-4866730D02*
X-4416750Y-4775290D01*
X-4355790Y-4775290D01*
X-4325310Y-4805770D01*
X-4325310Y-4836250D01*
X-4355790Y-4866730D01*
X-4416750Y-4866730D01*
X-4193230Y-4805770D02*
X-4162750Y-4775290D01*
X-4132270Y-4775290D01*
X-4101790Y-4805770D01*
X-4101790Y-4836250D01*
X-4132270Y-4866730D01*
X-4162750Y-4866730D01*
X-4193230Y-4836250D01*
X-4193230Y-4805770D01*
X-4132270Y-4836250D02*
X-4101790Y-4866730D01*
X-4071310Y-4775290D02*
X-3979870Y-4775290D01*
X-4025590Y-4775290D02*
X-4025590Y-4866730D01*
X-3857950Y-4775290D02*
X-3949390Y-4866730D01*
X-3949390Y-4775290D02*
X-3903670Y-4821010D01*
D16*
X-6117280Y-5011510D02*
X-6117280Y-5138510D01*
X-6180780Y-5075010D02*
X-6053780Y-5075010D01*
D39*
X-5794700Y-5062310D02*
X-5769300Y-5036910D01*
X-5769300Y-5113110D01*
X-5680400Y-5100410D02*
X-5667700Y-5100410D01*
X-5667700Y-5113110D01*
X-5680400Y-5113110D01*
X-5680400Y-5100410D01*
X-5604200Y-5049610D02*
X-5591500Y-5036910D01*
X-5553400Y-5036910D01*
X-5540700Y-5049610D01*
X-5540700Y-5062310D01*
X-5553400Y-5075010D01*
X-5591500Y-5075010D01*
X-5604200Y-5087710D01*
X-5604200Y-5113110D01*
X-5540700Y-5113110D01*
X-5502600Y-5036910D02*
X-5439100Y-5036910D01*
X-5439100Y-5049610D01*
X-5502600Y-5113110D01*
X-5413700Y-5113110D02*
X-5413700Y-5062310D01*
X-5413700Y-5075010D02*
X-5401000Y-5062310D01*
X-5375600Y-5087710D01*
X-5350200Y-5062310D01*
X-5337500Y-5075010D01*
X-5337500Y-5113110D01*
X-5312100Y-5113110D02*
X-5312100Y-5062310D01*
X-5312100Y-5075010D02*
X-5299400Y-5062310D01*
X-5274000Y-5087710D01*
X-5248600Y-5062310D01*
X-5235900Y-5075010D01*
X-5235900Y-5113110D01*
X-4918400Y-5036910D02*
X-4994600Y-5113110D01*
X-4994600Y-5036910D02*
X-4956500Y-5075010D01*
X-4816800Y-5113110D02*
X-4893000Y-5113110D01*
X-4893000Y-5036910D01*
X-4816800Y-5036910D01*
X-4893000Y-5075010D02*
X-4842200Y-5075010D01*
X-4791400Y-5100410D02*
X-4778700Y-5113110D01*
X-4727900Y-5113110D01*
X-4715200Y-5100410D01*
X-4715200Y-5087710D01*
X-4727900Y-5075010D01*
X-4778700Y-5075010D01*
X-4791400Y-5062310D01*
X-4791400Y-5049610D01*
X-4778700Y-5036910D01*
X-4727900Y-5036910D01*
X-4715200Y-5049610D01*
X-4136080Y-5049610D02*
X-4123380Y-5036910D01*
X-4085280Y-5036910D01*
X-4072580Y-5049610D01*
X-4072580Y-5062310D01*
X-4085280Y-5075010D01*
X-4072580Y-5087710D01*
X-4072580Y-5100410D01*
X-4085280Y-5113110D01*
X-4123380Y-5113110D01*
X-4136080Y-5100410D01*
X-4110680Y-5075010D02*
X-4085280Y-5075010D01*
X-4034480Y-5049610D02*
X-4021780Y-5036910D01*
X-3983680Y-5036910D01*
X-3970980Y-5049610D01*
X-3970980Y-5062310D01*
X-3983680Y-5075010D01*
X-4021780Y-5075010D01*
X-4034480Y-5087710D01*
X-4034480Y-5113110D01*
X-3970980Y-5113110D01*
D16*
X-6162181Y-5271409D02*
X-6072379Y-5361211D01*
X-6162181Y-5361211D02*
X-6072379Y-5271409D01*
D39*
X-5794700Y-5303610D02*
X-5769300Y-5278210D01*
X-5769300Y-5354410D01*
X-5680400Y-5341710D02*
X-5667700Y-5341710D01*
X-5667700Y-5354410D01*
X-5680400Y-5354410D01*
X-5680400Y-5341710D01*
X-5591500Y-5303610D02*
X-5566100Y-5278210D01*
X-5566100Y-5354410D01*
X-5439100Y-5329010D02*
X-5515300Y-5329010D01*
X-5464500Y-5278210D01*
X-5464500Y-5354410D01*
X-5401000Y-5290910D02*
X-5388300Y-5278210D01*
X-5350200Y-5278210D01*
X-5337500Y-5290910D01*
X-5337500Y-5303610D01*
X-5350200Y-5316310D01*
X-5337500Y-5329010D01*
X-5337500Y-5341710D01*
X-5350200Y-5354410D01*
X-5388300Y-5354410D01*
X-5401000Y-5341710D01*
X-5375600Y-5316310D02*
X-5350200Y-5316310D01*
X-5312100Y-5354410D02*
X-5312100Y-5303610D01*
X-5312100Y-5316310D02*
X-5299400Y-5303610D01*
X-5274000Y-5329010D01*
X-5248600Y-5303610D01*
X-5235900Y-5316310D01*
X-5235900Y-5354410D01*
X-5210500Y-5354410D02*
X-5210500Y-5303610D01*
X-5210500Y-5316310D02*
X-5197800Y-5303610D01*
X-5172400Y-5329010D01*
X-5147000Y-5303610D01*
X-5134300Y-5316310D01*
X-5134300Y-5354410D01*
X-4918400Y-5278210D02*
X-4994600Y-5354410D01*
X-4994600Y-5278210D02*
X-4956500Y-5316310D01*
X-4816800Y-5354410D02*
X-4893000Y-5354410D01*
X-4893000Y-5278210D01*
X-4816800Y-5278210D01*
X-4893000Y-5316310D02*
X-4842200Y-5316310D01*
X-4791400Y-5341710D02*
X-4778700Y-5354410D01*
X-4727900Y-5354410D01*
X-4715200Y-5341710D01*
X-4715200Y-5329010D01*
X-4727900Y-5316310D01*
X-4778700Y-5316310D01*
X-4791400Y-5303610D01*
X-4791400Y-5290910D01*
X-4778700Y-5278210D01*
X-4727900Y-5278210D01*
X-4715200Y-5290910D01*
X-4136080Y-5290910D02*
X-4123380Y-5278210D01*
X-4085280Y-5278210D01*
X-4072580Y-5290910D01*
X-4072580Y-5303610D01*
X-4085280Y-5316310D01*
X-4123380Y-5316310D01*
X-4136080Y-5329010D01*
X-4136080Y-5354410D01*
X-4072580Y-5354410D01*
X-4034480Y-5290910D02*
X-4021780Y-5278210D01*
X-3983680Y-5278210D01*
X-3970980Y-5290910D01*
X-3970980Y-5303610D01*
X-3983680Y-5316310D01*
X-3970980Y-5329010D01*
X-3970980Y-5341710D01*
X-3983680Y-5354410D01*
X-4021780Y-5354410D01*
X-4034480Y-5341710D01*
X-4009080Y-5316310D02*
X-3983680Y-5316310D01*
D16*
X-6117280Y-5494110D02*
X-6117280Y-5621110D01*
X-6180780Y-5557610D02*
X-6053780Y-5557610D01*
X-6162181Y-5512709D02*
X-6072379Y-5602511D01*
X-6162181Y-5602511D02*
X-6072379Y-5512709D01*
D39*
X-5794700Y-5544910D02*
X-5769300Y-5519510D01*
X-5769300Y-5595710D01*
X-5680400Y-5583010D02*
X-5667700Y-5583010D01*
X-5667700Y-5595710D01*
X-5680400Y-5595710D01*
X-5680400Y-5583010D01*
X-5540700Y-5532210D02*
X-5553400Y-5519510D01*
X-5591500Y-5519510D01*
X-5604200Y-5532210D01*
X-5604200Y-5583010D01*
X-5591500Y-5595710D01*
X-5553400Y-5595710D01*
X-5540700Y-5583010D01*
X-5540700Y-5570310D01*
X-5553400Y-5557610D01*
X-5604200Y-5557610D01*
X-5439100Y-5519510D02*
X-5502600Y-5519510D01*
X-5502600Y-5544910D01*
X-5451800Y-5544910D01*
X-5439100Y-5557610D01*
X-5439100Y-5583010D01*
X-5451800Y-5595710D01*
X-5489900Y-5595710D01*
X-5502600Y-5583010D01*
X-5388300Y-5544910D02*
X-5362900Y-5519510D01*
X-5362900Y-5595710D01*
X-5312100Y-5595710D02*
X-5312100Y-5544910D01*
X-5312100Y-5557610D02*
X-5299400Y-5544910D01*
X-5274000Y-5570310D01*
X-5248600Y-5544910D01*
X-5235900Y-5557610D01*
X-5235900Y-5595710D01*
X-5210500Y-5595710D02*
X-5210500Y-5544910D01*
X-5210500Y-5557610D02*
X-5197800Y-5544910D01*
X-5172400Y-5570310D01*
X-5147000Y-5544910D01*
X-5134300Y-5557610D01*
X-5134300Y-5595710D01*
X-4918400Y-5519510D02*
X-4994600Y-5595710D01*
X-4994600Y-5519510D02*
X-4956500Y-5557610D01*
X-4816800Y-5595710D02*
X-4893000Y-5595710D01*
X-4893000Y-5519510D01*
X-4816800Y-5519510D01*
X-4893000Y-5557610D02*
X-4842200Y-5557610D01*
X-4791400Y-5583010D02*
X-4778700Y-5595710D01*
X-4727900Y-5595710D01*
X-4715200Y-5583010D01*
X-4715200Y-5570310D01*
X-4727900Y-5557610D01*
X-4778700Y-5557610D01*
X-4791400Y-5544910D01*
X-4791400Y-5532210D01*
X-4778700Y-5519510D01*
X-4727900Y-5519510D01*
X-4715200Y-5532210D01*
X-4136080Y-5519510D02*
X-4072580Y-5519510D01*
X-4072580Y-5532210D01*
X-4136080Y-5595710D01*
D16*
X-6053780Y-5798910D02*
X-6053997Y-5793663D01*
X-6055762Y-5783168D01*
X-6059454Y-5772673D01*
X-6065482Y-5762178D01*
X-6074704Y-5751798D01*
X-6085199Y-5744110D01*
X-6095694Y-5739192D01*
X-6106189Y-5736386D01*
X-6116684Y-5735413D01*
X-6117280Y-5735410D01*
X-6180780Y-5798910D02*
X-6180563Y-5793663D01*
X-6178798Y-5783168D01*
X-6175106Y-5772673D01*
X-6169078Y-5762178D01*
X-6159856Y-5751798D01*
X-6149361Y-5744110D01*
X-6138866Y-5739192D01*
X-6128371Y-5736386D01*
X-6117876Y-5735413D01*
X-6117280Y-5735410D01*
X-6180780Y-5798910D02*
X-6180563Y-5804157D01*
X-6178798Y-5814652D01*
X-6175106Y-5825147D01*
X-6169078Y-5835642D01*
X-6159856Y-5846022D01*
X-6149361Y-5853710D01*
X-6138866Y-5858628D01*
X-6128371Y-5861434D01*
X-6117876Y-5862407D01*
X-6117280Y-5862410D01*
X-6053780Y-5798910D02*
X-6053997Y-5804157D01*
X-6055762Y-5814652D01*
X-6059454Y-5825147D01*
X-6065482Y-5835642D01*
X-6074704Y-5846022D01*
X-6085199Y-5853710D01*
X-6095694Y-5858628D01*
X-6106189Y-5861434D01*
X-6116684Y-5862407D01*
X-6117280Y-5862410D01*
X-6117280Y-5735410D02*
X-6117280Y-5862410D01*
X-6180780Y-5798910D02*
X-6053780Y-5798910D01*
D39*
X-5743900Y-5811610D02*
X-5820100Y-5811610D01*
X-5769300Y-5760810D01*
X-5769300Y-5837010D01*
X-5718500Y-5837010D02*
X-5718500Y-5786210D01*
X-5718500Y-5798910D02*
X-5705800Y-5786210D01*
X-5680400Y-5811610D01*
X-5655000Y-5786210D01*
X-5642300Y-5798910D01*
X-5642300Y-5837010D01*
X-5616900Y-5837010D02*
X-5616900Y-5786210D01*
X-5616900Y-5798910D02*
X-5604200Y-5786210D01*
X-5578800Y-5811610D01*
X-5553400Y-5786210D01*
X-5540700Y-5798910D01*
X-5540700Y-5837010D01*
X-4918400Y-5760810D02*
X-4994600Y-5837010D01*
X-4994600Y-5760810D02*
X-4956500Y-5798910D01*
X-4816800Y-5837010D02*
X-4893000Y-5837010D01*
X-4893000Y-5760810D01*
X-4816800Y-5760810D01*
X-4893000Y-5798910D02*
X-4842200Y-5798910D01*
X-4791400Y-5824310D02*
X-4778700Y-5837010D01*
X-4727900Y-5837010D01*
X-4715200Y-5824310D01*
X-4715200Y-5811610D01*
X-4727900Y-5798910D01*
X-4778700Y-5798910D01*
X-4791400Y-5786210D01*
X-4791400Y-5773510D01*
X-4778700Y-5760810D01*
X-4727900Y-5760810D01*
X-4715200Y-5773510D01*
X-4072580Y-5811610D02*
X-4148780Y-5811610D01*
X-4097980Y-5760810D01*
X-4097980Y-5837010D01*
M02*
